G04 Layer: BottomLayer*
G04 EasyEDA v6.4.7, 2020-11-13T14:17:03--3:00*
G04 567a4f01d23344a586f60d2a48ffb39a,2f6a952e8d754e4686293a443d3b0dc2,10*
G04 Gerber Generator version 0.2*
G04 Scale: 100 percent, Rotated: No, Reflected: No *
G04 Dimensions in millimeters *
G04 leading zeros omitted , absolute positions ,3 integer and 3 decimal *
%FSLAX33Y33*%
%MOMM*%
G90*
D02*

%ADD11C,1.999996*%
%ADD12C,0.999998*%
%ADD13C,0.610006*%
%ADD18C,1.524000*%
%ADD19C,1.799996*%
%ADD20C,2.199996*%
%ADD22R,0.999998X0.999998*%
%ADD23C,3.401060*%
%ADD24C,3.898900*%

%LPD*%
G54D11*
G01X20584Y48768D02*
G01X14777Y42961D01*
G01X14777Y35214D01*
G01X8265Y28702D01*
G01X6106Y28702D01*
G01X8011Y28702D02*
G01X5979Y28702D01*
G01X2296Y28702D02*
G01X7975Y28702D01*
G01X2042Y19050D02*
G01X4503Y23035D01*
G01X19580Y23035D01*
G01X84373Y39232D02*
G01X84338Y39243D01*
G01X84338Y39243D01*
G01X81594Y34505D02*
G01X68488Y34505D01*
G01X58851Y24869D01*
G01X58851Y35171D02*
G01X60589Y36908D01*
G01X60589Y47752D01*
G01X34427Y29591D02*
G01X40142Y23876D01*
G01X40142Y15113D01*
G54D12*
G01X33157Y30861D02*
G01X34427Y29591D01*
G01X19326Y23289D02*
G01X19580Y23035D01*
G54D11*
G01X28780Y38529D02*
G01X28780Y23035D01*
G01X25831Y48943D02*
G01X25831Y41478D01*
G01X28780Y38529D01*
G54D12*
G01X37769Y15288D02*
G01X35768Y15288D01*
G54D11*
G01X35768Y15288D02*
G01X35768Y16047D01*
G01X28780Y23035D01*
G54D18*
G01X1534Y39116D03*
G01X2169Y28829D03*
G01X2042Y19050D03*
G54D19*
G01X28780Y23035D03*
G01X19580Y23035D03*
G01X28780Y38529D03*
G01X19580Y38529D03*
G54D18*
G01X58851Y24870D03*
G01X58851Y35170D03*
G54D20*
G01X25831Y48943D03*
G01X20751Y48943D03*
G36*
G01X36769Y16537D02*
G01X38770Y16537D01*
G01X38770Y14038D01*
G01X36769Y14038D01*
G01X36769Y16537D01*
G37*
G54D12*
G01X34594Y29766D03*
G01X33324Y31036D03*
G54D22*
G01X35864Y31036D03*
G54D23*
G01X87589Y34505D03*
G01X84541Y39408D03*
G54D24*
G01X81594Y34505D03*
G54D13*
G01X60589Y47752D03*
G54D11*
G01X40309Y15538D02*
G01X40309Y15038D01*
G01X42849Y15538D02*
G01X42849Y15038D01*
M00*
M02*
