G04 Layer: TopSilkLayer*
G04 EasyEDA v6.4.7, 2020-11-13T14:17:03--3:00*
G04 567a4f01d23344a586f60d2a48ffb39a,2f6a952e8d754e4686293a443d3b0dc2,10*
G04 Gerber Generator version 0.2*
G04 Scale: 100 percent, Rotated: No, Reflected: No *
G04 Dimensions in millimeters *
G04 leading zeros omitted , absolute positions ,3 integer and 3 decimal *
%FSLAX33Y33*%
%MOMM*%
G90*
D02*

%ADD10C,0.254000*%
%ADD25C,0.119990*%
%ADD26C,0.304799*%
%ADD27C,0.399999*%
%ADD28C,0.152400*%

%LPD*%
G54D10*
G01X50767Y54820D02*
G01X61267Y54820D01*
G01X50767Y49319D02*
G01X61267Y49319D01*
G01X61267Y54820D02*
G01X61267Y53351D01*
G01X61267Y50788D02*
G01X61267Y49319D01*
G01X50767Y49319D02*
G01X50767Y50788D01*
G01X50767Y53351D02*
G01X50767Y54820D01*
G01X26780Y21635D02*
G01X21580Y21635D01*
G01X21580Y21635D02*
G01X21580Y24435D01*
G01X26780Y24435D02*
G01X21580Y24435D01*
G01X26780Y21635D02*
G01X26780Y24435D01*
G01X25821Y21635D02*
G01X25821Y24435D01*
G01X26780Y37129D02*
G01X21580Y37129D01*
G01X21580Y37129D02*
G01X21580Y39929D01*
G01X26780Y39929D02*
G01X21580Y39929D01*
G01X26780Y37129D02*
G01X26780Y39929D01*
G01X25821Y37129D02*
G01X25821Y39929D01*
G01X54473Y16915D02*
G01X58273Y16915D01*
G01X58273Y10516D02*
G01X54473Y10516D01*
G01X58273Y10516D02*
G01X58273Y11640D01*
G01X58273Y15791D02*
G01X58273Y16915D01*
G01X54473Y10516D02*
G01X54473Y16915D01*
G01X57651Y26870D02*
G01X57651Y33170D01*
G01X57651Y33170D02*
G01X60051Y33170D01*
G01X60051Y33170D02*
G01X60051Y26870D01*
G01X60051Y26870D02*
G01X57651Y26870D01*
G01X27432Y48765D02*
G01X29108Y48765D01*
G01X28295Y49603D02*
G01X28295Y47876D01*
G01X45609Y17588D02*
G01X35009Y17588D01*
G01X35008Y18087D02*
G01X45610Y18087D01*
G01X45610Y13289D01*
G01X35008Y13289D01*
G01X35008Y18082D01*
G01X35008Y18087D01*
G54D25*
G01X36395Y32885D02*
G01X32793Y32885D01*
G54D26*
G01X94244Y30010D02*
G01X92237Y30010D01*
G01X92237Y30010D02*
G01X80502Y30010D01*
G01X92237Y39001D02*
G01X94244Y39001D01*
G54D10*
G01X92237Y30518D02*
G01X81899Y30518D01*
G54D26*
G01X92237Y30010D02*
G01X92237Y37452D01*
G01X92237Y37553D02*
G01X92237Y38493D01*
G01X92237Y38493D02*
G01X92237Y39001D01*
G01X95285Y31051D02*
G01X95285Y37960D01*
G54D10*
G01X94244Y30010D02*
G01X94244Y39001D01*
G54D26*
G01X80502Y39001D02*
G01X82102Y39001D01*
G01X87005Y39001D02*
G01X92237Y39001D01*
G01X80502Y30010D02*
G01X80502Y32016D01*
G01X80502Y36995D02*
G01X80502Y39001D01*
G54D10*
G01X81899Y30518D02*
G01X81899Y31508D01*
G01X81899Y37503D02*
G01X81899Y38493D01*
G01X86903Y38493D02*
G01X92237Y38493D01*
G01X81899Y38493D02*
G01X82229Y38493D01*
G54D28*
G01X56017Y56271D02*
G01X56017Y55181D01*
G01X56017Y56271D02*
G01X56484Y56271D01*
G01X56639Y56220D01*
G01X56692Y56167D01*
G01X56743Y56062D01*
G01X56743Y55958D01*
G01X56692Y55854D01*
G01X56639Y55803D01*
G01X56484Y55753D01*
G01X56017Y55753D01*
G01X56380Y55753D02*
G01X56743Y55181D01*
G01X57139Y56012D02*
G01X57139Y56062D01*
G01X57190Y56167D01*
G01X57243Y56220D01*
G01X57348Y56271D01*
G01X57553Y56271D01*
G01X57658Y56220D01*
G01X57711Y56167D01*
G01X57762Y56062D01*
G01X57762Y55958D01*
G01X57711Y55854D01*
G01X57607Y55699D01*
G01X57086Y55181D01*
G01X57815Y55181D01*
G01X23251Y26299D02*
G01X23251Y25209D01*
G01X23251Y26299D02*
G01X23614Y26299D01*
G01X23771Y26248D01*
G01X23873Y26144D01*
G01X23926Y26040D01*
G01X23977Y25882D01*
G01X23977Y25623D01*
G01X23926Y25468D01*
G01X23873Y25364D01*
G01X23771Y25260D01*
G01X23614Y25209D01*
G01X23251Y25209D01*
G01X24320Y26090D02*
G01X24424Y26144D01*
G01X24582Y26299D01*
G01X24582Y25209D01*
G01X23159Y41402D02*
G01X23159Y40312D01*
G01X23159Y41402D02*
G01X23522Y41402D01*
G01X23680Y41351D01*
G01X23782Y41247D01*
G01X23835Y41142D01*
G01X23886Y40985D01*
G01X23886Y40726D01*
G01X23835Y40571D01*
G01X23782Y40467D01*
G01X23680Y40363D01*
G01X23522Y40312D01*
G01X23159Y40312D01*
G01X24282Y41142D02*
G01X24282Y41193D01*
G01X24333Y41297D01*
G01X24386Y41351D01*
G01X24490Y41402D01*
G01X24696Y41402D01*
G01X24800Y41351D01*
G01X24853Y41297D01*
G01X24904Y41193D01*
G01X24904Y41089D01*
G01X24853Y40985D01*
G01X24749Y40830D01*
G01X24229Y40312D01*
G01X24958Y40312D01*
G01X55263Y18874D02*
G01X55263Y18094D01*
G01X55314Y17940D01*
G01X55418Y17835D01*
G01X55575Y17785D01*
G01X55680Y17785D01*
G01X55835Y17835D01*
G01X55939Y17940D01*
G01X55989Y18094D01*
G01X55989Y18874D01*
G01X56437Y18874D02*
G01X57008Y18874D01*
G01X56698Y18458D01*
G01X56853Y18458D01*
G01X56957Y18407D01*
G01X57008Y18356D01*
G01X57061Y18199D01*
G01X57061Y18094D01*
G01X57008Y17940D01*
G01X56904Y17835D01*
G01X56749Y17785D01*
G01X56594Y17785D01*
G01X56437Y17835D01*
G01X56386Y17886D01*
G01X56332Y17990D01*
G01X60561Y32385D02*
G01X60561Y31295D01*
G01X60561Y32385D02*
G01X61028Y32385D01*
G01X61183Y32334D01*
G01X61236Y32280D01*
G01X61287Y32176D01*
G01X61287Y32072D01*
G01X61236Y31968D01*
G01X61183Y31917D01*
G01X61028Y31866D01*
G01X60561Y31866D01*
G01X60924Y31866D02*
G01X61287Y31295D01*
G01X61630Y32176D02*
G01X61734Y32230D01*
G01X61892Y32385D01*
G01X61892Y31295D01*
G01X33682Y48773D02*
G01X33629Y48877D01*
G01X33525Y48981D01*
G01X33423Y49032D01*
G01X33215Y49032D01*
G01X33111Y48981D01*
G01X33007Y48877D01*
G01X32953Y48773D01*
G01X32903Y48615D01*
G01X32903Y48356D01*
G01X32953Y48201D01*
G01X33007Y48097D01*
G01X33111Y47993D01*
G01X33215Y47942D01*
G01X33423Y47942D01*
G01X33525Y47993D01*
G01X33629Y48097D01*
G01X33682Y48201D01*
G01X34025Y48823D02*
G01X34129Y48877D01*
G01X34284Y49032D01*
G01X34284Y47942D01*
G01X40182Y19997D02*
G01X40182Y19217D01*
G01X40233Y19062D01*
G01X40337Y18958D01*
G01X40495Y18907D01*
G01X40599Y18907D01*
G01X40754Y18958D01*
G01X40858Y19062D01*
G01X40909Y19217D01*
G01X40909Y19997D01*
G01X41305Y19738D02*
G01X41305Y19789D01*
G01X41356Y19893D01*
G01X41409Y19946D01*
G01X41513Y19997D01*
G01X41719Y19997D01*
G01X41823Y19946D01*
G01X41876Y19893D01*
G01X41927Y19789D01*
G01X41927Y19685D01*
G01X41876Y19580D01*
G01X41772Y19425D01*
G01X41252Y18907D01*
G01X41981Y18907D01*
G01X32552Y34925D02*
G01X32448Y34874D01*
G01X32344Y34770D01*
G01X32291Y34665D01*
G01X32240Y34508D01*
G01X32240Y34249D01*
G01X32291Y34094D01*
G01X32344Y33990D01*
G01X32448Y33886D01*
G01X32552Y33835D01*
G01X32760Y33835D01*
G01X32862Y33886D01*
G01X32966Y33990D01*
G01X33020Y34094D01*
G01X33070Y34249D01*
G01X33070Y34508D01*
G01X33020Y34665D01*
G01X32966Y34770D01*
G01X32862Y34874D01*
G01X32760Y34925D01*
G01X32552Y34925D01*
G01X32707Y34041D02*
G01X33020Y33731D01*
G01X33413Y34716D02*
G01X33517Y34770D01*
G01X33675Y34925D01*
G01X33675Y33835D01*
G01X79143Y40015D02*
G01X79143Y39184D01*
G01X79090Y39027D01*
G01X79039Y38976D01*
G01X78935Y38925D01*
G01X78831Y38925D01*
G01X78727Y38976D01*
G01X78673Y39027D01*
G01X78623Y39184D01*
G01X78623Y39288D01*
G01X79486Y39806D02*
G01X79588Y39860D01*
G01X79745Y40015D01*
G01X79745Y38925D01*
G01X42400Y45974D02*
G01X42400Y44884D01*
G01X42400Y45974D02*
G01X42867Y45974D01*
G01X43022Y45923D01*
G01X43075Y45869D01*
G01X43126Y45765D01*
G01X43126Y45661D01*
G01X43075Y45557D01*
G01X43022Y45506D01*
G01X42867Y45455D01*
G01X42400Y45455D01*
G01X42763Y45455D02*
G01X43126Y44884D01*
G01X43573Y45974D02*
G01X44145Y45974D01*
G01X43835Y45557D01*
G01X43990Y45557D01*
G01X44094Y45506D01*
G01X44145Y45455D01*
G01X44198Y45298D01*
G01X44198Y45194D01*
G01X44145Y45039D01*
G01X44041Y44935D01*
G01X43886Y44884D01*
G01X43731Y44884D01*
G01X43573Y44935D01*
G01X43522Y44985D01*
G01X43469Y45090D01*
G54D10*
G75*
G01X23317Y42692D02*
G03X23208Y42695I91J6250D01*
G01*
G54D27*
G75*
G01X37541Y12824D02*
G03X37544Y12824I1J-200D01*
G01*
G54D25*
G75*
G01X34595Y28436D02*
G03X36433Y32875I0J2600D01*
G01*
G75*
G01X34595Y28436D02*
G02X32756Y32875I0J2600D01*
G01*
G54D26*
G75*
G01X95297Y31056D02*
G02X94247Y30006I-1050J0D01*
G01*
G75*
G01X95297Y37956D02*
G03X94247Y39006I-1050J0D01*
G01*

%LPD*%
G36*
G01X19608Y53870D02*
G01X19558Y53921D01*
G01X18491Y52677D01*
G01X18389Y52626D01*
G01X18034Y52042D01*
G01X17856Y51661D01*
G01X17576Y51254D01*
G01X17475Y50645D01*
G01X17297Y50467D01*
G01X17297Y49654D01*
G01X17143Y49500D01*
G01X17143Y48509D01*
G01X17119Y48486D01*
G01X17221Y48384D01*
G01X17297Y47520D01*
G01X17449Y47317D01*
G01X17576Y46581D01*
G01X17907Y46123D01*
G01X18008Y45717D01*
G01X18440Y45184D01*
G01X18440Y45158D01*
G01X19608Y43939D01*
G01X19608Y53870D01*
G37*
M00*
M02*
