;Layer: Drill PTH
;EasyEDA v6.4.7, 2020-11-13T14:17:03--3:00
;567a4f01d23344a586f60d2a48ffb39a,2f6a952e8d754e4686293a443d3b0dc2,10
;Gerber Generator version 0.2
M48
METRIC,LZ,000.000
;Holesize 1 = 0.310 METRIC
T01C0.310
;Holesize 2 = 0.600 METRIC
T02C0.600
;Holesize 3 = 0.915 METRIC
T03C0.915
;Holesize 4 = 1.000 METRIC
T04C1.000
;Holesize 5 = 1.200 METRIC
T05C1.200
;Holesize 6 = 1.400 METRIC
T06C1.400
;Holesize 7 = 3.003 METRIC
T07C3.003
;Holesize 8 = 3.501 METRIC
T08C3.501
%
G05
G90
T01
X+060589Y+047752
T02
X+034594Y+029768G85X+034594Y+029763
X+033324Y+031038G85X+033324Y+031033
X+035864Y+031038G85X+035864Y+031033
T03
X+001534Y+039116
X+002169Y+028829
X+002042Y+019050
T04
X+028780Y+023035
X+019580Y+023035
X+028780Y+038529
X+019580Y+038529
X+058851Y+024870
X+058851Y+035170
T05
X+025831Y+048943
X+020751Y+048943
T06
X+040309Y+015288
X+042849Y+015288
X+037769Y+015288
T07
X+087589Y+034505
X+084541Y+039408
T08
X+081594Y+034505
M30
