G04 Layer: TopSolderMaskLayer*
G04 EasyEDA v6.4.7, 2020-11-13T14:17:03--3:00*
G04 567a4f01d23344a586f60d2a48ffb39a,2f6a952e8d754e4686293a443d3b0dc2,10*
G04 Gerber Generator version 0.2*
G04 Scale: 100 percent, Rotated: No, Reflected: No *
G04 Dimensions in millimeters *
G04 leading zeros omitted , absolute positions ,3 integer and 3 decimal *
%FSLAX33Y33*%
%MOMM*%
G90*
D02*

%ADD29C,2.203196*%
%ADD30C,1.727200*%
%ADD32C,2.003196*%
%ADD35C,2.403196*%
%ADD37C,1.203198*%
%ADD39C,3.604260*%
%ADD40C,4.102100*%

%LPD*%
G54D29*
G01X40309Y15538D02*
G01X40309Y15038D01*
G01X42849Y15538D02*
G01X42849Y15038D01*
G54D30*
G01X1534Y39116D03*
G01X2169Y28829D03*
G01X2042Y19050D03*
G36*
G01X49916Y50919D02*
G01X49916Y53220D01*
G01X53119Y53220D01*
G01X53119Y50919D01*
G01X49916Y50919D01*
G37*
G36*
G01X58915Y50919D02*
G01X58915Y53220D01*
G01X62118Y53220D01*
G01X62118Y50919D01*
G01X58915Y50919D01*
G37*
G54D32*
G01X28780Y23035D03*
G01X19580Y23035D03*
G01X28780Y38529D03*
G01X19580Y38529D03*
G36*
G01X58320Y11714D02*
G01X58320Y15717D01*
G01X60825Y15717D01*
G01X60825Y11714D01*
G01X58320Y11714D01*
G37*
G36*
G01X52120Y13014D02*
G01X52120Y14417D01*
G01X54325Y14417D01*
G01X54325Y13014D01*
G01X52120Y13014D01*
G37*
G36*
G01X52120Y10713D02*
G01X52120Y12118D01*
G01X54325Y12118D01*
G01X54325Y10713D01*
G01X52120Y10713D01*
G37*
G36*
G01X52120Y15313D02*
G01X52120Y16718D01*
G01X54325Y16718D01*
G01X54325Y15313D01*
G01X52120Y15313D01*
G37*
G54D30*
G01X58851Y24870D03*
G01X58851Y35170D03*
G54D35*
G01X25831Y48943D03*
G01X20751Y48943D03*
G36*
G01X36667Y13936D02*
G01X36667Y16639D01*
G01X38872Y16639D01*
G01X38872Y13936D01*
G01X36667Y13936D01*
G37*
G54D37*
G01X34594Y29766D03*
G01X33324Y31036D03*
G36*
G01X35262Y30434D02*
G01X35262Y31638D01*
G01X36466Y31638D01*
G01X36466Y30434D01*
G01X35262Y30434D01*
G37*
G54D39*
G01X87589Y34505D03*
G01X84541Y39408D03*
G54D40*
G01X81594Y34505D03*
G36*
G01X44358Y41026D02*
G01X44358Y42230D01*
G01X45661Y42230D01*
G01X45661Y41026D01*
G01X44358Y41026D01*
G37*
G36*
G01X44358Y42702D02*
G01X44358Y43906D01*
G01X45661Y43906D01*
G01X45661Y42702D01*
G01X44358Y42702D01*
G37*
M00*
M02*
