G04 Layer: TopSilkLayer*
G04 EasyEDA v6.4.7, 2020-11-20T21:23:31--3:00*
G04 e52d193bf13c446e91f454a0656ad50a,09237c92188f4bc9b643e288e8680b3c,10*
G04 Gerber Generator version 0.2*
G04 Scale: 100 percent, Rotated: No, Reflected: No *
G04 Dimensions in millimeters *
G04 leading zeros omitted , absolute positions ,3 integer and 3 decimal *
%FSLAX33Y33*%
%MOMM*%
G90*
D02*

%ADD10C,0.254000*%
%ADD23C,0.203200*%
%ADD24C,0.200000*%
%ADD25C,0.152400*%
%ADD26C,0.203200*%
%ADD27C,0.100000*%
%ADD28C,0.250012*%

%LPD*%
G54D10*
G01X50927Y48641D02*
G01X50927Y86741D01*
G01X50673Y48641D02*
G01X5207Y48641D01*
G01X4953Y48641D02*
G01X4953Y86487D01*
G01X5207Y86741D01*
G01X50673Y86741D02*
G01X5207Y86741D01*
G01X4953Y86487D01*
G54D23*
G01X65151Y9525D02*
G01X80391Y9525D01*
G01X80391Y22225D01*
G01X65151Y22225D01*
G01X65151Y9525D01*
G54D10*
G01X81278Y90209D02*
G01X81278Y81209D01*
G01X70778Y90179D02*
G01X70778Y81179D01*
G01X70778Y90209D02*
G01X81278Y90209D01*
G01X70748Y88379D02*
G01X81248Y88379D01*
G01X70778Y89609D02*
G01X81278Y89609D01*
G01X70778Y81179D02*
G01X81278Y81179D01*
G01X65022Y90209D02*
G01X65022Y81209D01*
G01X54522Y90179D02*
G01X54522Y81179D01*
G01X54522Y90209D02*
G01X65022Y90209D01*
G01X54492Y88379D02*
G01X64992Y88379D01*
G01X54522Y89609D02*
G01X65022Y89609D01*
G01X54522Y81179D02*
G01X65022Y81179D01*
G01X121920Y22860D02*
G01X97282Y22860D01*
G01X97282Y38100D01*
G01X121920Y38100D01*
G01X121920Y22860D01*
G01X139954Y90297D02*
G01X98044Y90297D01*
G01X98044Y48387D01*
G01X139954Y48387D01*
G01X139954Y90297D01*
G01X4445Y14605D02*
G01X7747Y14605D01*
G01X7747Y11303D01*
G01X4445Y11303D01*
G01X4445Y14605D01*
G01X3175Y24003D02*
G01X9779Y24003D01*
G01X10287Y23495D01*
G01X10287Y17907D01*
G01X9779Y17399D01*
G01X3175Y17399D01*
G01X3175Y24003D01*
G01X4444Y30099D02*
G01X7746Y30099D01*
G01X7746Y26797D01*
G01X4444Y26797D01*
G01X4444Y30099D01*
G01X21970Y30607D02*
G01X21970Y14859D01*
G01X49148Y30607D02*
G01X49148Y14859D01*
G01X49148Y14859D02*
G01X21970Y14859D01*
G01X21970Y30607D02*
G01X49148Y30607D01*
G01X51942Y8001D02*
G01X6223Y8001D01*
G01X6223Y33401D02*
G01X51942Y33401D01*
G01X51942Y8001D02*
G01X51942Y13081D01*
G01X54482Y15621D01*
G01X54482Y25781D01*
G01X51942Y28321D01*
G01X51942Y33401D01*
G01X6222Y33401D02*
G01X3682Y30861D01*
G01X3682Y10541D01*
G01X6222Y8001D01*
G54D24*
G01X152051Y33911D02*
G01X147551Y33911D01*
G01X152051Y35710D02*
G01X147551Y35710D01*
G01X153326Y31811D02*
G01X146051Y31811D01*
G01X146051Y37810D01*
G01X153351Y37810D01*
G01X139151Y32110D02*
G01X139151Y30511D01*
G01X153451Y30511D01*
G01X153451Y39110D01*
G01X145501Y39110D01*
G01X140751Y39110D02*
G01X139151Y39110D01*
G01X139151Y37511D01*
G54D10*
G01X78486Y74930D02*
G01X78486Y31877D01*
G01X57531Y31877D01*
G01X57531Y74930D01*
G01X78486Y74930D01*
G01X93726Y11557D02*
G01X94361Y12192D01*
G01X95631Y12192D01*
G01X96266Y11557D01*
G01X96901Y12192D01*
G01X98171Y12192D01*
G01X98806Y11557D01*
G01X99441Y12192D01*
G01X100711Y12192D01*
G01X101346Y11557D01*
G01X101346Y10287D01*
G01X100711Y9652D01*
G01X99441Y9652D01*
G01X98806Y10287D01*
G01X98171Y9652D01*
G01X96901Y9652D01*
G01X96266Y10287D01*
G01X95631Y9652D01*
G01X94361Y9652D01*
G01X93726Y10287D01*
G01X93726Y11557D01*
G01X105410Y11430D02*
G01X106045Y12065D01*
G01X107315Y12065D01*
G01X107950Y11430D01*
G01X108585Y12065D01*
G01X109855Y12065D01*
G01X110490Y11430D01*
G01X111125Y12065D01*
G01X112395Y12065D01*
G01X113030Y11430D01*
G01X113030Y10160D01*
G01X112395Y9525D01*
G01X111125Y9525D01*
G01X110490Y10160D01*
G01X109855Y9525D01*
G01X108585Y9525D01*
G01X107950Y10160D01*
G01X107315Y9525D01*
G01X106045Y9525D01*
G01X105410Y10160D01*
G01X105410Y11430D01*
G54D25*
G01X3545Y67691D02*
G01X4325Y67691D01*
G01X4480Y67741D01*
G01X4584Y67845D01*
G01X4635Y68003D01*
G01X4635Y68107D01*
G01X4584Y68262D01*
G01X4480Y68366D01*
G01X4325Y68417D01*
G01X3545Y68417D01*
G01X3545Y68864D02*
G01X3545Y69435D01*
G01X3962Y69126D01*
G01X3962Y69281D01*
G01X4013Y69385D01*
G01X4064Y69435D01*
G01X4221Y69489D01*
G01X4325Y69489D01*
G01X4480Y69435D01*
G01X4584Y69331D01*
G01X4635Y69176D01*
G01X4635Y69021D01*
G01X4584Y68864D01*
G01X4533Y68813D01*
G01X4429Y68760D01*
G54D26*
G01X15321Y78867D02*
G01X16291Y78867D01*
G01X15321Y78867D02*
G01X16291Y79514D01*
G01X15321Y79514D02*
G01X16291Y79514D01*
G01X15552Y80510D02*
G01X15458Y80464D01*
G01X15367Y80373D01*
G01X15321Y80279D01*
G01X15321Y80096D01*
G01X15367Y80002D01*
G01X15458Y79910D01*
G01X15552Y79865D01*
G01X15689Y79819D01*
G01X15920Y79819D01*
G01X16060Y79865D01*
G01X16151Y79910D01*
G01X16243Y80002D01*
G01X16291Y80096D01*
G01X16291Y80279D01*
G01X16243Y80373D01*
G01X16151Y80464D01*
G01X16060Y80510D01*
G01X15506Y80815D02*
G01X15458Y80909D01*
G01X15321Y81046D01*
G01X16291Y81046D01*
G01X20124Y79052D02*
G01X20030Y79006D01*
G01X19939Y78912D01*
G01X19893Y78821D01*
G01X19893Y78635D01*
G01X19939Y78544D01*
G01X20030Y78450D01*
G01X20124Y78404D01*
G01X20261Y78359D01*
G01X20492Y78359D01*
G01X20632Y78404D01*
G01X20723Y78450D01*
G01X20815Y78544D01*
G01X20863Y78635D01*
G01X20863Y78821D01*
G01X20815Y78912D01*
G01X20723Y79006D01*
G01X20632Y79052D01*
G01X19893Y79634D02*
G01X19939Y79540D01*
G01X20030Y79448D01*
G01X20124Y79402D01*
G01X20261Y79357D01*
G01X20492Y79357D01*
G01X20632Y79402D01*
G01X20723Y79448D01*
G01X20815Y79540D01*
G01X20863Y79634D01*
G01X20863Y79819D01*
G01X20815Y79910D01*
G01X20723Y80002D01*
G01X20632Y80048D01*
G01X20492Y80096D01*
G01X20261Y80096D01*
G01X20124Y80048D01*
G01X20030Y80002D01*
G01X19939Y79910D01*
G01X19893Y79819D01*
G01X19893Y79634D01*
G01X19893Y80401D02*
G01X20863Y80401D01*
G01X19893Y80401D02*
G01X20863Y80769D01*
G01X19893Y81140D02*
G01X20863Y80769D01*
G01X19893Y81140D02*
G01X20863Y81140D01*
G01X20078Y81445D02*
G01X20030Y81536D01*
G01X19893Y81673D01*
G01X20863Y81673D01*
G01X25989Y51435D02*
G01X26959Y51435D01*
G01X25989Y51435D02*
G01X25989Y52034D01*
G01X26451Y51435D02*
G01X26451Y51803D01*
G01X26959Y51435D02*
G01X26959Y52034D01*
G01X25989Y52339D02*
G01X26959Y52339D01*
G01X25989Y52339D02*
G01X26959Y52986D01*
G01X25989Y52986D02*
G01X26959Y52986D01*
G01X26220Y53337D02*
G01X26174Y53337D01*
G01X26080Y53383D01*
G01X26035Y53428D01*
G01X25989Y53522D01*
G01X25989Y53708D01*
G01X26035Y53799D01*
G01X26080Y53845D01*
G01X26174Y53891D01*
G01X26266Y53891D01*
G01X26357Y53845D01*
G01X26497Y53754D01*
G01X26959Y53291D01*
G01X26959Y53936D01*
G01X28529Y51435D02*
G01X29499Y51803D01*
G01X28529Y52174D02*
G01X29499Y51803D01*
G01X28529Y52478D02*
G01X29499Y52478D01*
G01X28529Y52478D02*
G01X28529Y52801D01*
G01X28575Y52941D01*
G01X28666Y53032D01*
G01X28760Y53078D01*
G01X28897Y53124D01*
G01X29128Y53124D01*
G01X29268Y53078D01*
G01X29359Y53032D01*
G01X29451Y52941D01*
G01X29499Y52801D01*
G01X29499Y52478D01*
G01X28529Y53428D02*
G01X29499Y53428D01*
G01X28529Y53428D02*
G01X28529Y53754D01*
G01X28575Y53891D01*
G01X28666Y53985D01*
G01X28760Y54030D01*
G01X28897Y54076D01*
G01X29128Y54076D01*
G01X29268Y54030D01*
G01X29359Y53985D01*
G01X29451Y53891D01*
G01X29499Y53754D01*
G01X29499Y53428D01*
G01X31046Y52382D02*
G01X30952Y52336D01*
G01X30861Y52242D01*
G01X30815Y52151D01*
G01X30815Y51965D01*
G01X30861Y51874D01*
G01X30952Y51780D01*
G01X31046Y51734D01*
G01X31183Y51689D01*
G01X31414Y51689D01*
G01X31554Y51734D01*
G01X31645Y51780D01*
G01X31737Y51874D01*
G01X31785Y51965D01*
G01X31785Y52151D01*
G01X31737Y52242D01*
G01X31645Y52336D01*
G01X31554Y52382D01*
G01X31414Y52382D01*
G01X31414Y52151D02*
G01X31414Y52382D01*
G01X30815Y52687D02*
G01X31785Y52687D01*
G01X30815Y52687D02*
G01X31785Y53332D01*
G01X30815Y53332D02*
G01X31785Y53332D01*
G01X30815Y53637D02*
G01X31785Y53637D01*
G01X30815Y53637D02*
G01X30815Y53962D01*
G01X30861Y54099D01*
G01X30952Y54190D01*
G01X31046Y54239D01*
G01X31183Y54284D01*
G01X31414Y54284D01*
G01X31554Y54239D01*
G01X31645Y54190D01*
G01X31737Y54099D01*
G01X31785Y53962D01*
G01X31785Y53637D01*
G01X24719Y79375D02*
G01X25689Y79375D01*
G01X24719Y79375D02*
G01X25689Y80022D01*
G01X24719Y80022D02*
G01X25689Y80022D01*
G01X24719Y80604D02*
G01X24765Y80510D01*
G01X24856Y80418D01*
G01X24950Y80373D01*
G01X25087Y80327D01*
G01X25318Y80327D01*
G01X25458Y80373D01*
G01X25549Y80418D01*
G01X25641Y80510D01*
G01X25689Y80604D01*
G01X25689Y80787D01*
G01X25641Y80881D01*
G01X25549Y80972D01*
G01X25458Y81018D01*
G01X25318Y81064D01*
G01X25087Y81064D01*
G01X24950Y81018D01*
G01X24856Y80972D01*
G01X24765Y80881D01*
G01X24719Y80787D01*
G01X24719Y80604D01*
G01X24904Y81368D02*
G01X24856Y81462D01*
G01X24719Y81600D01*
G01X25689Y81600D01*
G01X23195Y51689D02*
G01X24165Y51689D01*
G01X23195Y51689D02*
G01X23195Y52288D01*
G01X23657Y51689D02*
G01X23657Y52057D01*
G01X24165Y51689D02*
G01X24165Y52288D01*
G01X23195Y52593D02*
G01X24165Y52593D01*
G01X23195Y52593D02*
G01X24165Y53240D01*
G01X23195Y53240D02*
G01X24165Y53240D01*
G01X23380Y53545D02*
G01X23332Y53637D01*
G01X23195Y53776D01*
G01X24165Y53776D01*
G01X29545Y78867D02*
G01X30515Y78867D01*
G01X29545Y78867D02*
G01X30515Y79514D01*
G01X29545Y79514D02*
G01X30515Y79514D01*
G01X29776Y80510D02*
G01X29682Y80464D01*
G01X29591Y80373D01*
G01X29545Y80279D01*
G01X29545Y80096D01*
G01X29591Y80002D01*
G01X29682Y79910D01*
G01X29776Y79865D01*
G01X29913Y79819D01*
G01X30144Y79819D01*
G01X30284Y79865D01*
G01X30375Y79910D01*
G01X30467Y80002D01*
G01X30515Y80096D01*
G01X30515Y80279D01*
G01X30467Y80373D01*
G01X30375Y80464D01*
G01X30284Y80510D01*
G01X29776Y80860D02*
G01X29730Y80860D01*
G01X29636Y80909D01*
G01X29591Y80954D01*
G01X29545Y81046D01*
G01X29545Y81231D01*
G01X29591Y81323D01*
G01X29636Y81368D01*
G01X29730Y81417D01*
G01X29822Y81417D01*
G01X29913Y81368D01*
G01X30053Y81277D01*
G01X30515Y80815D01*
G01X30515Y81462D01*
G01X34602Y78798D02*
G01X34508Y78752D01*
G01X34417Y78658D01*
G01X34371Y78567D01*
G01X34371Y78381D01*
G01X34417Y78290D01*
G01X34508Y78196D01*
G01X34602Y78150D01*
G01X34739Y78105D01*
G01X34970Y78105D01*
G01X35110Y78150D01*
G01X35201Y78196D01*
G01X35293Y78290D01*
G01X35341Y78381D01*
G01X35341Y78567D01*
G01X35293Y78658D01*
G01X35201Y78752D01*
G01X35110Y78798D01*
G01X34371Y79380D02*
G01X34417Y79286D01*
G01X34508Y79194D01*
G01X34602Y79148D01*
G01X34739Y79103D01*
G01X34970Y79103D01*
G01X35110Y79148D01*
G01X35201Y79194D01*
G01X35293Y79286D01*
G01X35341Y79380D01*
G01X35341Y79565D01*
G01X35293Y79656D01*
G01X35201Y79748D01*
G01X35110Y79794D01*
G01X34970Y79842D01*
G01X34739Y79842D01*
G01X34602Y79794D01*
G01X34508Y79748D01*
G01X34417Y79656D01*
G01X34371Y79565D01*
G01X34371Y79380D01*
G01X34371Y80147D02*
G01X35341Y80147D01*
G01X34371Y80147D02*
G01X35341Y80515D01*
G01X34371Y80886D02*
G01X35341Y80515D01*
G01X34371Y80886D02*
G01X35341Y80886D01*
G01X34602Y81236D02*
G01X34556Y81236D01*
G01X34462Y81282D01*
G01X34417Y81328D01*
G01X34371Y81419D01*
G01X34371Y81605D01*
G01X34417Y81699D01*
G01X34462Y81744D01*
G01X34556Y81790D01*
G01X34648Y81790D01*
G01X34739Y81744D01*
G01X34879Y81650D01*
G01X35341Y81191D01*
G01X35341Y81836D01*
G01X38689Y78867D02*
G01X39659Y78867D01*
G01X38689Y78867D02*
G01X39659Y79514D01*
G01X38689Y79514D02*
G01X39659Y79514D01*
G01X38689Y80096D02*
G01X38735Y80002D01*
G01X38826Y79910D01*
G01X38920Y79865D01*
G01X39057Y79819D01*
G01X39288Y79819D01*
G01X39428Y79865D01*
G01X39519Y79910D01*
G01X39611Y80002D01*
G01X39659Y80096D01*
G01X39659Y80279D01*
G01X39611Y80373D01*
G01X39519Y80464D01*
G01X39428Y80510D01*
G01X39288Y80556D01*
G01X39057Y80556D01*
G01X38920Y80510D01*
G01X38826Y80464D01*
G01X38735Y80373D01*
G01X38689Y80279D01*
G01X38689Y80096D01*
G01X38920Y80909D02*
G01X38874Y80909D01*
G01X38780Y80954D01*
G01X38735Y81000D01*
G01X38689Y81092D01*
G01X38689Y81277D01*
G01X38735Y81368D01*
G01X38780Y81417D01*
G01X38874Y81462D01*
G01X38966Y81462D01*
G01X39057Y81417D01*
G01X39197Y81323D01*
G01X39659Y80860D01*
G01X39659Y81508D01*
G54D25*
G01X63500Y15824D02*
G01X64589Y15824D01*
G01X63500Y15824D02*
G01X63500Y16291D01*
G01X63550Y16446D01*
G01X63604Y16499D01*
G01X63708Y16550D01*
G01X63863Y16550D01*
G01X63967Y16499D01*
G01X64018Y16446D01*
G01X64071Y16291D01*
G01X64071Y15824D01*
G01X63708Y16893D02*
G01X63654Y16997D01*
G01X63500Y17155D01*
G01X64589Y17155D01*
G01X75834Y91688D02*
G01X75834Y90599D01*
G01X75834Y91688D02*
G01X76301Y91688D01*
G01X76456Y91638D01*
G01X76509Y91584D01*
G01X76560Y91480D01*
G01X76560Y91325D01*
G01X76509Y91221D01*
G01X76456Y91170D01*
G01X76301Y91117D01*
G01X75834Y91117D01*
G01X77424Y91688D02*
G01X76903Y90962D01*
G01X77683Y90962D01*
G01X77424Y91688D02*
G01X77424Y90599D01*
G01X59578Y91688D02*
G01X59578Y90599D01*
G01X59578Y91688D02*
G01X60045Y91688D01*
G01X60200Y91638D01*
G01X60253Y91584D01*
G01X60304Y91480D01*
G01X60304Y91325D01*
G01X60253Y91221D01*
G01X60200Y91170D01*
G01X60045Y91117D01*
G01X59578Y91117D01*
G01X60700Y91429D02*
G01X60700Y91480D01*
G01X60751Y91584D01*
G01X60805Y91638D01*
G01X60909Y91688D01*
G01X61114Y91688D01*
G01X61219Y91638D01*
G01X61272Y91584D01*
G01X61323Y91480D01*
G01X61323Y91376D01*
G01X61272Y91272D01*
G01X61168Y91117D01*
G01X60647Y90599D01*
G01X61376Y90599D01*
G01X109728Y21452D02*
G01X109728Y22232D01*
G01X109677Y22387D01*
G01X109573Y22491D01*
G01X109415Y22542D01*
G01X109311Y22542D01*
G01X109156Y22491D01*
G01X109052Y22387D01*
G01X109001Y22232D01*
G01X109001Y21452D01*
G01X108605Y21711D02*
G01X108605Y21661D01*
G01X108554Y21556D01*
G01X108501Y21503D01*
G01X108397Y21452D01*
G01X108191Y21452D01*
G01X108087Y21503D01*
G01X108033Y21556D01*
G01X107983Y21661D01*
G01X107983Y21765D01*
G01X108033Y21869D01*
G01X108137Y22024D01*
G01X108658Y22542D01*
G01X107929Y22542D01*
G54D26*
G01X110545Y35941D02*
G01X109113Y35941D01*
G01X110545Y34985D02*
G01X109113Y34985D01*
G01X109865Y35941D02*
G01X109865Y34985D01*
G01X110545Y34536D02*
G01X109113Y33581D01*
G01X110545Y33581D02*
G01X109113Y34536D01*
G01X110545Y32176D02*
G01X109113Y32859D01*
G01X110545Y33131D02*
G01X110545Y32176D01*
G01X110274Y31727D02*
G01X110342Y31589D01*
G01X110545Y31386D01*
G01X109113Y31386D01*
G01X110274Y30937D02*
G01X110342Y30800D01*
G01X110545Y30594D01*
G01X109113Y30594D01*
G01X110545Y29095D02*
G01X109113Y29095D01*
G01X110545Y29095D02*
G01X109113Y28549D01*
G01X110545Y28003D02*
G01X109113Y28549D01*
G01X110545Y28003D02*
G01X109113Y28003D01*
G01X110068Y27213D02*
G01X109999Y27350D01*
G01X109865Y27485D01*
G01X109659Y27553D01*
G01X109522Y27553D01*
G01X109319Y27485D01*
G01X109181Y27350D01*
G01X109113Y27213D01*
G01X109113Y27010D01*
G01X109181Y26873D01*
G01X109319Y26736D01*
G01X109522Y26667D01*
G01X109659Y26667D01*
G01X109865Y26736D01*
G01X109999Y26873D01*
G01X110068Y27010D01*
G01X110068Y27213D01*
G01X110545Y25400D02*
G01X109113Y25400D01*
G01X109865Y25400D02*
G01X109999Y25537D01*
G01X110068Y25671D01*
G01X110068Y25877D01*
G01X109999Y26014D01*
G01X109865Y26149D01*
G01X109659Y26217D01*
G01X109522Y26217D01*
G01X109319Y26149D01*
G01X109181Y26014D01*
G01X109113Y25877D01*
G01X109113Y25671D01*
G01X109181Y25537D01*
G01X109319Y25400D01*
G01X110068Y24950D02*
G01X109387Y24950D01*
G01X109181Y24881D01*
G01X109113Y24744D01*
G01X109113Y24541D01*
G01X109181Y24404D01*
G01X109387Y24201D01*
G01X110068Y24201D02*
G01X109113Y24201D01*
G01X110545Y23749D02*
G01X109113Y23749D01*
G01X109659Y23299D02*
G01X109659Y22481D01*
G01X109796Y22481D01*
G01X109933Y22550D01*
G01X109999Y22618D01*
G01X110068Y22755D01*
G01X110068Y22959D01*
G01X109999Y23096D01*
G01X109865Y23230D01*
G01X109659Y23299D01*
G01X109522Y23299D01*
G01X109319Y23230D01*
G01X109181Y23096D01*
G01X109113Y22959D01*
G01X109113Y22755D01*
G01X109181Y22618D01*
G01X109319Y22481D01*
G01X118110Y23693D02*
G01X118110Y24457D01*
G01X118110Y23693D02*
G01X117637Y23693D01*
G01X118110Y24056D02*
G01X117817Y24056D01*
G01X118110Y24457D02*
G01X117637Y24457D01*
G01X117071Y23802D02*
G01X117071Y24457D01*
G01X117396Y24130D02*
G01X116743Y24130D01*
G01X118110Y26233D02*
G01X118110Y26997D01*
G01X118110Y26233D02*
G01X117637Y26233D01*
G01X118110Y26596D02*
G01X117817Y26596D01*
G01X118110Y26997D02*
G01X117637Y26997D01*
G01X117396Y26670D02*
G01X116743Y26670D01*
G01X117817Y28773D02*
G01X118110Y29537D01*
G01X117817Y28773D02*
G01X117528Y29537D01*
G01X118000Y29283D02*
G01X117637Y29283D01*
G01X117287Y29210D02*
G01X116634Y29210D01*
G01X117817Y31313D02*
G01X118110Y32077D01*
G01X117817Y31313D02*
G01X117528Y32077D01*
G01X118000Y31823D02*
G01X117637Y31823D01*
G01X116961Y31422D02*
G01X116961Y32077D01*
G01X117287Y31750D02*
G01X116634Y31750D01*
G01X118110Y33853D02*
G01X118110Y34617D01*
G01X118110Y33853D02*
G01X117782Y33853D01*
G01X117673Y33891D01*
G01X117637Y33926D01*
G01X117602Y33997D01*
G01X117602Y34071D01*
G01X117637Y34145D01*
G01X117673Y34180D01*
G01X117782Y34216D01*
G01X118110Y34216D02*
G01X117782Y34216D01*
G01X117673Y34254D01*
G01X117637Y34290D01*
G01X117602Y34363D01*
G01X117602Y34472D01*
G01X117637Y34544D01*
G01X117673Y34582D01*
G01X117782Y34617D01*
G01X118110Y34617D01*
G01X117360Y34290D02*
G01X116705Y34290D01*
G01X118110Y36393D02*
G01X118110Y37157D01*
G01X118110Y36393D02*
G01X117782Y36393D01*
G01X117673Y36431D01*
G01X117637Y36466D01*
G01X117602Y36537D01*
G01X117602Y36611D01*
G01X117637Y36685D01*
G01X117673Y36720D01*
G01X117782Y36756D01*
G01X118110Y36756D02*
G01X117782Y36756D01*
G01X117673Y36794D01*
G01X117637Y36830D01*
G01X117602Y36903D01*
G01X117602Y37012D01*
G01X117637Y37084D01*
G01X117673Y37122D01*
G01X117782Y37157D01*
G01X118110Y37157D01*
G01X117033Y36502D02*
G01X117033Y37157D01*
G01X117360Y36830D02*
G01X116705Y36830D01*
G01X102069Y26416D02*
G01X102108Y26342D01*
G01X102179Y26271D01*
G01X102252Y26233D01*
G01X102397Y26233D01*
G01X102471Y26271D01*
G01X102542Y26342D01*
G01X102580Y26416D01*
G01X102616Y26525D01*
G01X102616Y26705D01*
G01X102580Y26814D01*
G01X102542Y26888D01*
G01X102471Y26962D01*
G01X102397Y26997D01*
G01X102252Y26997D01*
G01X102179Y26962D01*
G01X102108Y26888D01*
G01X102069Y26814D01*
G01X102069Y26705D01*
G01X102252Y26705D02*
G01X102069Y26705D01*
G01X101831Y26233D02*
G01X101831Y26997D01*
G01X101831Y26233D02*
G01X101320Y26997D01*
G01X101320Y26233D02*
G01X101320Y26997D01*
G01X101081Y26233D02*
G01X101081Y26997D01*
G01X101081Y26233D02*
G01X100827Y26233D01*
G01X100718Y26271D01*
G01X100644Y26342D01*
G01X100609Y26416D01*
G01X100571Y26525D01*
G01X100571Y26705D01*
G01X100609Y26814D01*
G01X100644Y26888D01*
G01X100718Y26962D01*
G01X100827Y26997D01*
G01X101081Y26997D01*
G01X101854Y28773D02*
G01X101854Y29537D01*
G01X101854Y28773D02*
G01X101600Y28773D01*
G01X101490Y28811D01*
G01X101417Y28882D01*
G01X101381Y28956D01*
G01X101346Y29065D01*
G01X101346Y29245D01*
G01X101381Y29354D01*
G01X101417Y29428D01*
G01X101490Y29502D01*
G01X101600Y29537D01*
G01X101854Y29537D01*
G01X100850Y28773D02*
G01X100850Y29537D01*
G01X101104Y28773D02*
G01X100596Y28773D01*
G01X102108Y31422D02*
G01X102179Y31351D01*
G01X102288Y31313D01*
G01X102433Y31313D01*
G01X102542Y31351D01*
G01X102616Y31422D01*
G01X102616Y31496D01*
G01X102580Y31567D01*
G01X102542Y31605D01*
G01X102471Y31640D01*
G01X102252Y31714D01*
G01X102179Y31750D01*
G01X102143Y31785D01*
G01X102108Y31859D01*
G01X102108Y31968D01*
G01X102179Y32042D01*
G01X102288Y32077D01*
G01X102433Y32077D01*
G01X102542Y32042D01*
G01X102616Y31968D01*
G01X101320Y31496D02*
G01X101358Y31422D01*
G01X101429Y31351D01*
G01X101503Y31313D01*
G01X101648Y31313D01*
G01X101721Y31351D01*
G01X101793Y31422D01*
G01X101831Y31496D01*
G01X101866Y31605D01*
G01X101866Y31785D01*
G01X101831Y31894D01*
G01X101793Y31968D01*
G01X101721Y32042D01*
G01X101648Y32077D01*
G01X101503Y32077D01*
G01X101429Y32042D01*
G01X101358Y31968D01*
G01X101320Y31894D01*
G01X101081Y31313D02*
G01X101081Y32077D01*
G01X100571Y31313D02*
G01X101081Y31823D01*
G01X100898Y31640D02*
G01X100571Y32077D01*
G01X102616Y33853D02*
G01X102323Y34617D01*
G01X102034Y33853D02*
G01X102323Y34617D01*
G01X101249Y34036D02*
G01X101285Y33962D01*
G01X101358Y33891D01*
G01X101429Y33853D01*
G01X101577Y33853D01*
G01X101648Y33891D01*
G01X101721Y33962D01*
G01X101757Y34036D01*
G01X101793Y34145D01*
G01X101793Y34325D01*
G01X101757Y34434D01*
G01X101721Y34508D01*
G01X101648Y34582D01*
G01X101577Y34617D01*
G01X101429Y34617D01*
G01X101358Y34582D01*
G01X101285Y34508D01*
G01X101249Y34434D01*
G01X100462Y34036D02*
G01X100500Y33962D01*
G01X100571Y33891D01*
G01X100644Y33853D01*
G01X100789Y33853D01*
G01X100863Y33891D01*
G01X100937Y33962D01*
G01X100972Y34036D01*
G01X101008Y34145D01*
G01X101008Y34325D01*
G01X100972Y34434D01*
G01X100937Y34508D01*
G01X100863Y34582D01*
G01X100789Y34617D01*
G01X100644Y34617D01*
G01X100571Y34582D01*
G01X100500Y34508D01*
G01X100462Y34434D01*
G54D25*
G01X141361Y69469D02*
G01X140581Y69469D01*
G01X140426Y69418D01*
G01X140322Y69314D01*
G01X140271Y69156D01*
G01X140271Y69052D01*
G01X140322Y68897D01*
G01X140426Y68793D01*
G01X140581Y68742D01*
G01X141361Y68742D01*
G01X141361Y67878D02*
G01X140634Y68399D01*
G01X140634Y67619D01*
G01X141361Y67878D02*
G01X140271Y67878D01*
G54D26*
G01X115189Y85217D02*
G01X115143Y85171D01*
G01X115189Y85125D01*
G01X115234Y85171D01*
G01X115189Y85217D01*
G01X114866Y85171D02*
G01X114218Y85171D01*
G01X114866Y84820D02*
G01X114218Y84820D01*
G01X114681Y84820D02*
G01X114820Y84681D01*
G01X114866Y84589D01*
G01X114866Y84449D01*
G01X114820Y84358D01*
G01X114681Y84312D01*
G01X114218Y84312D01*
G01X115189Y83545D02*
G01X114543Y84007D01*
G01X114543Y83314D01*
G01X115189Y83545D02*
G01X114218Y83545D01*
G01X112649Y85217D02*
G01X112603Y85171D01*
G01X112649Y85125D01*
G01X112694Y85171D01*
G01X112649Y85217D01*
G01X112326Y85171D02*
G01X111678Y85171D01*
G01X112326Y84820D02*
G01X111678Y84820D01*
G01X112141Y84820D02*
G01X112280Y84681D01*
G01X112326Y84589D01*
G01X112326Y84449D01*
G01X112280Y84358D01*
G01X112141Y84312D01*
G01X111678Y84312D01*
G01X112649Y83913D02*
G01X112649Y83405D01*
G01X112280Y83682D01*
G01X112280Y83545D01*
G01X112235Y83451D01*
G01X112186Y83405D01*
G01X112049Y83360D01*
G01X111955Y83360D01*
G01X111818Y83405D01*
G01X111727Y83499D01*
G01X111678Y83637D01*
G01X111678Y83776D01*
G01X111727Y83913D01*
G01X111772Y83959D01*
G01X111864Y84007D01*
G01X110109Y85217D02*
G01X110063Y85171D01*
G01X110109Y85125D01*
G01X110154Y85171D01*
G01X110109Y85217D01*
G01X109786Y85171D02*
G01X109138Y85171D01*
G01X109786Y84820D02*
G01X109138Y84820D01*
G01X109601Y84820D02*
G01X109740Y84681D01*
G01X109786Y84589D01*
G01X109786Y84449D01*
G01X109740Y84358D01*
G01X109601Y84312D01*
G01X109138Y84312D01*
G01X109877Y83959D02*
G01X109923Y83959D01*
G01X110017Y83913D01*
G01X110063Y83868D01*
G01X110109Y83776D01*
G01X110109Y83591D01*
G01X110063Y83499D01*
G01X110017Y83451D01*
G01X109923Y83405D01*
G01X109832Y83405D01*
G01X109740Y83451D01*
G01X109601Y83545D01*
G01X109138Y84007D01*
G01X109138Y83360D01*
G01X107569Y85217D02*
G01X107523Y85171D01*
G01X107569Y85125D01*
G01X107614Y85171D01*
G01X107569Y85217D01*
G01X107246Y85171D02*
G01X106598Y85171D01*
G01X107246Y84820D02*
G01X106598Y84820D01*
G01X107061Y84820D02*
G01X107200Y84681D01*
G01X107246Y84589D01*
G01X107246Y84449D01*
G01X107200Y84358D01*
G01X107061Y84312D01*
G01X106598Y84312D01*
G01X107383Y84007D02*
G01X107431Y83913D01*
G01X107569Y83776D01*
G01X106598Y83776D01*
G01X132750Y84800D02*
G01X131917Y84800D01*
G01X132334Y85217D02*
G01X132334Y84386D01*
G01X132702Y84081D02*
G01X132750Y83987D01*
G01X132887Y83850D01*
G01X131917Y83850D01*
G01X132656Y83499D02*
G01X132702Y83499D01*
G01X132796Y83451D01*
G01X132842Y83405D01*
G01X132887Y83314D01*
G01X132887Y83129D01*
G01X132842Y83037D01*
G01X132796Y82991D01*
G01X132702Y82943D01*
G01X132610Y82943D01*
G01X132519Y82991D01*
G01X132379Y83083D01*
G01X131917Y83545D01*
G01X131917Y82897D01*
G01X132565Y82593D02*
G01X131917Y82316D01*
G01X132565Y82039D02*
G01X131917Y82316D01*
G01X127485Y84663D02*
G01X126746Y84663D01*
G01X126606Y84709D01*
G01X126560Y84754D01*
G01X126514Y84848D01*
G01X126514Y84985D01*
G01X126560Y85077D01*
G01X127345Y84663D02*
G01X127439Y84754D01*
G01X127485Y84848D01*
G01X127485Y84985D01*
G01X127439Y85077D01*
G01X127345Y85171D01*
G01X127208Y85217D01*
G01X127114Y85217D01*
G01X126977Y85171D01*
G01X126885Y85077D01*
G01X126837Y84985D01*
G01X126837Y84848D01*
G01X126885Y84754D01*
G01X126977Y84663D01*
G01X127485Y84358D02*
G01X126837Y84358D01*
G01X127299Y84358D02*
G01X127439Y84218D01*
G01X127485Y84127D01*
G01X127485Y83987D01*
G01X127439Y83896D01*
G01X127299Y83850D01*
G01X126837Y83850D01*
G01X127807Y82991D02*
G01X126837Y82991D01*
G01X127345Y82991D02*
G01X127439Y83083D01*
G01X127485Y83174D01*
G01X127485Y83314D01*
G01X127439Y83405D01*
G01X127345Y83499D01*
G01X127208Y83545D01*
G01X127114Y83545D01*
G01X126977Y83499D01*
G01X126885Y83405D01*
G01X126837Y83314D01*
G01X126837Y83174D01*
G01X126885Y83083D01*
G01X126977Y82991D01*
G01X122913Y84894D02*
G01X122821Y84985D01*
G01X122682Y85077D01*
G01X122496Y85171D01*
G01X122265Y85217D01*
G01X122082Y85217D01*
G01X121851Y85171D01*
G01X121666Y85077D01*
G01X121526Y84985D01*
G01X121434Y84894D01*
G01X122590Y84173D02*
G01X121757Y84173D01*
G01X122174Y84589D02*
G01X122174Y83756D01*
G01X122727Y82897D02*
G01X122727Y83360D01*
G01X122313Y83405D01*
G01X122359Y83360D01*
G01X122405Y83223D01*
G01X122405Y83083D01*
G01X122359Y82943D01*
G01X122265Y82852D01*
G01X122128Y82806D01*
G01X122034Y82806D01*
G01X121897Y82852D01*
G01X121805Y82943D01*
G01X121757Y83083D01*
G01X121757Y83223D01*
G01X121805Y83360D01*
G01X121851Y83405D01*
G01X121942Y83451D01*
G01X122405Y82501D02*
G01X121757Y82224D01*
G01X122405Y81948D02*
G01X121757Y82224D01*
G01X122913Y81643D02*
G01X122821Y81549D01*
G01X122682Y81457D01*
G01X122496Y81366D01*
G01X122265Y81318D01*
G01X122082Y81318D01*
G01X121851Y81366D01*
G01X121666Y81457D01*
G01X121526Y81549D01*
G01X121434Y81643D01*
G01X117048Y85217D02*
G01X117048Y84663D01*
G01X117139Y84663D01*
G01X117233Y84709D01*
G01X117279Y84754D01*
G01X117325Y84848D01*
G01X117325Y84985D01*
G01X117279Y85077D01*
G01X117185Y85171D01*
G01X117048Y85217D01*
G01X116954Y85217D01*
G01X116817Y85171D01*
G01X116725Y85077D01*
G01X116677Y84985D01*
G01X116677Y84848D01*
G01X116725Y84754D01*
G01X116817Y84663D01*
G01X117325Y84358D02*
G01X116677Y84358D01*
G01X117139Y84358D02*
G01X117279Y84218D01*
G01X117325Y84127D01*
G01X117325Y83987D01*
G01X117279Y83896D01*
G01X117139Y83850D01*
G01X116677Y83850D01*
G01X117647Y83174D02*
G01X116677Y83545D01*
G01X117647Y83174D02*
G01X116677Y82806D01*
G01X117002Y83405D02*
G01X117002Y82943D01*
G01X104429Y85217D02*
G01X104429Y84663D01*
G01X104521Y84663D01*
G01X104614Y84709D01*
G01X104660Y84754D01*
G01X104706Y84848D01*
G01X104706Y84985D01*
G01X104660Y85077D01*
G01X104566Y85171D01*
G01X104429Y85217D01*
G01X104335Y85217D01*
G01X104198Y85171D01*
G01X104106Y85077D01*
G01X104058Y84985D01*
G01X104058Y84848D01*
G01X104106Y84754D01*
G01X104198Y84663D01*
G01X104706Y84358D02*
G01X104058Y84358D01*
G01X104521Y84358D02*
G01X104660Y84218D01*
G01X104706Y84127D01*
G01X104706Y83987D01*
G01X104660Y83896D01*
G01X104521Y83850D01*
G01X104058Y83850D01*
G01X105029Y83545D02*
G01X104058Y83545D01*
G01X105029Y83545D02*
G01X105029Y83129D01*
G01X104983Y82991D01*
G01X104937Y82943D01*
G01X104843Y82897D01*
G01X104752Y82897D01*
G01X104660Y82943D01*
G01X104614Y82991D01*
G01X104566Y83129D01*
G01X104566Y83545D02*
G01X104566Y83129D01*
G01X104521Y82991D01*
G01X104475Y82943D01*
G01X104383Y82897D01*
G01X104244Y82897D01*
G01X104152Y82943D01*
G01X104106Y82991D01*
G01X104058Y83129D01*
G01X104058Y83545D01*
G54D25*
G01X28828Y34808D02*
G01X28828Y34028D01*
G01X28879Y33873D01*
G01X28983Y33769D01*
G01X29141Y33718D01*
G01X29245Y33718D01*
G01X29400Y33769D01*
G01X29504Y33873D01*
G01X29555Y34028D01*
G01X29555Y34808D01*
G01X30573Y34444D02*
G01X30523Y34290D01*
G01X30418Y34185D01*
G01X30264Y34132D01*
G01X30210Y34132D01*
G01X30055Y34185D01*
G01X29951Y34290D01*
G01X29898Y34444D01*
G01X29898Y34495D01*
G01X29951Y34653D01*
G01X30055Y34757D01*
G01X30210Y34808D01*
G01X30264Y34808D01*
G01X30418Y34757D01*
G01X30523Y34653D01*
G01X30573Y34444D01*
G01X30573Y34185D01*
G01X30523Y33924D01*
G01X30418Y33769D01*
G01X30264Y33718D01*
G01X30159Y33718D01*
G01X30002Y33769D01*
G01X29951Y33873D01*
G54D26*
G01X11303Y25019D02*
G01X11303Y23081D01*
G01X11303Y25019D02*
G01X12504Y25019D01*
G01X11303Y24097D02*
G01X12042Y24097D01*
G01X11303Y23081D02*
G01X12504Y23081D01*
G01X14406Y24742D02*
G01X14221Y24927D01*
G01X13944Y25019D01*
G01X13576Y25019D01*
G01X13296Y24927D01*
G01X13114Y24742D01*
G01X13114Y24559D01*
G01X13205Y24373D01*
G01X13296Y24279D01*
G01X13482Y24188D01*
G01X14036Y24003D01*
G01X14221Y23911D01*
G01X14312Y23820D01*
G01X14406Y23634D01*
G01X14406Y23357D01*
G01X14221Y23172D01*
G01X13944Y23081D01*
G01X13576Y23081D01*
G01X13296Y23172D01*
G01X13114Y23357D01*
G01X15016Y25019D02*
G01X15016Y23081D01*
G01X15016Y25019D02*
G01X15847Y25019D01*
G01X16123Y24927D01*
G01X16217Y24836D01*
G01X16309Y24650D01*
G01X16309Y24373D01*
G01X16217Y24188D01*
G01X16123Y24097D01*
G01X15847Y24003D01*
G01X15016Y24003D01*
G01X17104Y25019D02*
G01X18120Y25019D01*
G01X17564Y24279D01*
G01X17843Y24279D01*
G01X18026Y24188D01*
G01X18120Y24097D01*
G01X18211Y23820D01*
G01X18211Y23634D01*
G01X18120Y23357D01*
G01X17934Y23172D01*
G01X17658Y23081D01*
G01X17381Y23081D01*
G01X17104Y23172D01*
G01X17010Y23263D01*
G01X16918Y23449D01*
G01X18912Y24559D02*
G01X18912Y24650D01*
G01X19006Y24836D01*
G01X19098Y24927D01*
G01X19283Y25019D01*
G01X19652Y25019D01*
G01X19837Y24927D01*
G01X19928Y24836D01*
G01X20022Y24650D01*
G01X20022Y24465D01*
G01X19928Y24279D01*
G01X19745Y24003D01*
G01X18821Y23081D01*
G01X20114Y23081D01*
G01X11303Y21971D02*
G01X11765Y20033D01*
G01X12227Y21971D02*
G01X11765Y20033D01*
G01X12227Y21971D02*
G01X12687Y20033D01*
G01X13149Y21971D02*
G01X12687Y20033D01*
G01X13759Y21971D02*
G01X13759Y20033D01*
G01X14368Y21971D02*
G01X14368Y20033D01*
G01X14368Y21971D02*
G01X15570Y21971D01*
G01X14368Y21049D02*
G01X15107Y21049D01*
G01X16179Y21971D02*
G01X16179Y20033D01*
G01X16789Y21971D02*
G01X16789Y20033D01*
G01X18082Y21971D02*
G01X16789Y20678D01*
G01X17251Y21140D02*
G01X18082Y20033D01*
G01X18691Y21971D02*
G01X18691Y20033D01*
G01X19949Y21971D02*
G01X19949Y20033D01*
G01X19301Y21971D02*
G01X20594Y21971D01*
G01X11488Y18923D02*
G01X12504Y18923D01*
G01X11950Y18183D01*
G01X12227Y18183D01*
G01X12410Y18092D01*
G01X12504Y18001D01*
G01X12595Y17724D01*
G01X12595Y17538D01*
G01X12504Y17261D01*
G01X12319Y17076D01*
G01X12042Y16985D01*
G01X11765Y16985D01*
G01X11488Y17076D01*
G01X11394Y17167D01*
G01X11303Y17353D01*
G01X13296Y18463D02*
G01X13296Y18554D01*
G01X13390Y18740D01*
G01X13482Y18831D01*
G01X13667Y18923D01*
G01X14036Y18923D01*
G01X14221Y18831D01*
G01X14312Y18740D01*
G01X14406Y18554D01*
G01X14406Y18369D01*
G01X14312Y18183D01*
G01X14130Y17907D01*
G01X13205Y16985D01*
G01X14498Y16985D01*
G01X33954Y24257D02*
G01X33769Y24165D01*
G01X33586Y23980D01*
G01X33492Y23797D01*
G01X33400Y23517D01*
G01X33400Y23058D01*
G01X33492Y22781D01*
G01X33586Y22595D01*
G01X33769Y22410D01*
G01X33954Y22318D01*
G01X34325Y22318D01*
G01X34508Y22410D01*
G01X34693Y22595D01*
G01X34785Y22781D01*
G01X34879Y23058D01*
G01X34879Y23517D01*
G01X34785Y23797D01*
G01X34693Y23980D01*
G01X34508Y24165D01*
G01X34325Y24257D01*
G01X33954Y24257D01*
G01X35488Y24257D02*
G01X35488Y22318D01*
G01X35488Y22318D02*
G01X36596Y22318D01*
G01X37205Y24257D02*
G01X37205Y22318D01*
G01X37205Y24257D02*
G01X38407Y24257D01*
G01X37205Y23334D02*
G01X37945Y23334D01*
G01X37205Y22318D02*
G01X38407Y22318D01*
G01X39016Y24257D02*
G01X39016Y22318D01*
G01X39016Y24257D02*
G01X39662Y24257D01*
G01X39941Y24165D01*
G01X40124Y23980D01*
G01X40218Y23797D01*
G01X40309Y23517D01*
G01X40309Y23058D01*
G01X40218Y22781D01*
G01X40124Y22595D01*
G01X39941Y22410D01*
G01X39662Y22318D01*
G01X39016Y22318D01*
G01X8254Y29428D02*
G01X8254Y27490D01*
G01X8254Y29428D02*
G01X9085Y29428D01*
G01X9362Y29337D01*
G01X9456Y29245D01*
G01X9547Y29060D01*
G01X9547Y28783D01*
G01X9456Y28597D01*
G01X9362Y28506D01*
G01X9085Y28412D01*
G01X8254Y28412D01*
G01X10157Y29428D02*
G01X10157Y27490D01*
G01X10157Y29428D02*
G01X10987Y29428D01*
G01X11264Y29337D01*
G01X11358Y29245D01*
G01X11450Y29060D01*
G01X11450Y28874D01*
G01X11358Y28689D01*
G01X11264Y28597D01*
G01X10987Y28506D01*
G01X10157Y28506D01*
G01X10805Y28506D02*
G01X11450Y27490D01*
G01X13446Y28968D02*
G01X13352Y29151D01*
G01X13169Y29337D01*
G01X12984Y29428D01*
G01X12613Y29428D01*
G01X12430Y29337D01*
G01X12245Y29151D01*
G01X12153Y28968D01*
G01X12059Y28689D01*
G01X12059Y28229D01*
G01X12153Y27952D01*
G01X12245Y27767D01*
G01X12430Y27581D01*
G01X12613Y27490D01*
G01X12984Y27490D01*
G01X13169Y27581D01*
G01X13352Y27767D01*
G01X13446Y27952D01*
G01X13446Y28229D01*
G01X12984Y28229D02*
G01X13446Y28229D01*
G01X8508Y13934D02*
G01X8508Y11996D01*
G01X8508Y13934D02*
G01X9339Y13934D01*
G01X9616Y13843D01*
G01X9710Y13751D01*
G01X9801Y13566D01*
G01X9801Y13380D01*
G01X9710Y13195D01*
G01X9616Y13103D01*
G01X9339Y13012D01*
G01X8508Y13012D01*
G01X9156Y13012D02*
G01X9801Y11996D01*
G01X11704Y13657D02*
G01X11518Y13843D01*
G01X11241Y13934D01*
G01X10873Y13934D01*
G01X10596Y13843D01*
G01X10411Y13657D01*
G01X10411Y13474D01*
G01X10502Y13289D01*
G01X10596Y13195D01*
G01X10782Y13103D01*
G01X11335Y12918D01*
G01X11518Y12827D01*
G01X11612Y12735D01*
G01X11704Y12550D01*
G01X11704Y12273D01*
G01X11518Y12087D01*
G01X11241Y11996D01*
G01X10873Y11996D01*
G01X10596Y12087D01*
G01X10411Y12273D01*
G01X12961Y13934D02*
G01X12961Y11996D01*
G01X12313Y13934D02*
G01X13606Y13934D01*
G01X4444Y21554D02*
G01X4444Y20170D01*
G01X4536Y19893D01*
G01X4721Y19707D01*
G01X4998Y19616D01*
G01X5184Y19616D01*
G01X5460Y19707D01*
G01X5646Y19893D01*
G01X5737Y20170D01*
G01X5737Y21554D01*
G01X7640Y21277D02*
G01X7454Y21463D01*
G01X7177Y21554D01*
G01X6809Y21554D01*
G01X6532Y21463D01*
G01X6347Y21277D01*
G01X6347Y21094D01*
G01X6438Y20909D01*
G01X6532Y20815D01*
G01X6718Y20723D01*
G01X7271Y20538D01*
G01X7454Y20447D01*
G01X7548Y20355D01*
G01X7640Y20170D01*
G01X7640Y19893D01*
G01X7454Y19707D01*
G01X7177Y19616D01*
G01X6809Y19616D01*
G01X6532Y19707D01*
G01X6347Y19893D01*
G01X8249Y21554D02*
G01X8249Y19616D01*
G01X8249Y21554D02*
G01X9080Y21554D01*
G01X9359Y21463D01*
G01X9451Y21371D01*
G01X9542Y21186D01*
G01X9542Y21000D01*
G01X9451Y20815D01*
G01X9359Y20723D01*
G01X9080Y20632D01*
G01X8249Y20632D02*
G01X9080Y20632D01*
G01X9359Y20538D01*
G01X9451Y20447D01*
G01X9542Y20261D01*
G01X9542Y19984D01*
G01X9451Y19799D01*
G01X9359Y19707D01*
G01X9080Y19616D01*
G01X8249Y19616D01*
G01X51780Y30099D02*
G01X49842Y29636D01*
G01X51780Y29174D02*
G01X49842Y29636D01*
G01X51780Y29174D02*
G01X49842Y28714D01*
G01X51780Y28252D02*
G01X49842Y28714D01*
G01X51780Y27642D02*
G01X49842Y27642D01*
G01X51780Y27033D02*
G01X49842Y27033D01*
G01X51780Y27033D02*
G01X51780Y25831D01*
G01X50858Y27033D02*
G01X50858Y26294D01*
G01X51780Y25222D02*
G01X49842Y25222D01*
G01X49194Y24612D02*
G01X49194Y22948D01*
G01X51780Y22339D02*
G01X49842Y22339D01*
G01X51780Y21046D02*
G01X50487Y22339D01*
G01X50949Y21879D02*
G01X49842Y21046D01*
G01X51780Y20436D02*
G01X51688Y20345D01*
G01X51780Y20253D01*
G01X51874Y20345D01*
G01X51780Y20436D01*
G01X51135Y20345D02*
G01X49842Y20345D01*
G01X51780Y19367D02*
G01X50210Y19367D01*
G01X49933Y19273D01*
G01X49842Y19088D01*
G01X49842Y18905D01*
G01X51135Y19644D02*
G01X51135Y18996D01*
G01X49194Y18295D02*
G01X49194Y16631D01*
G01X51780Y15836D02*
G01X51780Y14820D01*
G01X51041Y15377D01*
G01X51041Y15100D01*
G01X50949Y14914D01*
G01X50858Y14820D01*
G01X50581Y14729D01*
G01X50396Y14729D01*
G01X50119Y14820D01*
G01X49933Y15006D01*
G01X49842Y15283D01*
G01X49842Y15560D01*
G01X49933Y15836D01*
G01X50025Y15930D01*
G01X50210Y16022D01*
G01X51320Y14028D02*
G01X51412Y14028D01*
G01X51597Y13934D01*
G01X51688Y13843D01*
G01X51780Y13657D01*
G01X51780Y13289D01*
G01X51688Y13103D01*
G01X51597Y13012D01*
G01X51412Y12918D01*
G01X51226Y12918D01*
G01X51041Y13012D01*
G01X50764Y13195D01*
G01X49842Y14119D01*
G01X49842Y12827D01*
G54D25*
G01X155183Y34795D02*
G01X154352Y34795D01*
G01X154194Y34848D01*
G01X154144Y34899D01*
G01X154093Y35003D01*
G01X154093Y35107D01*
G01X154144Y35211D01*
G01X154194Y35265D01*
G01X154352Y35315D01*
G01X154456Y35315D01*
G01X155183Y34350D02*
G01X155183Y33779D01*
G01X154766Y34089D01*
G01X154766Y33934D01*
G01X154715Y33830D01*
G01X154664Y33779D01*
G01X154507Y33725D01*
G01X154403Y33725D01*
G01X154248Y33779D01*
G01X154144Y33880D01*
G01X154093Y34038D01*
G01X154093Y34193D01*
G01X154144Y34350D01*
G01X154194Y34401D01*
G01X154299Y34452D01*
G01X80020Y53594D02*
G01X79240Y53594D01*
G01X79085Y53543D01*
G01X78981Y53439D01*
G01X78930Y53281D01*
G01X78930Y53177D01*
G01X78981Y53022D01*
G01X79085Y52918D01*
G01X79240Y52867D01*
G01X80020Y52867D01*
G01X79811Y52524D02*
G01X79865Y52420D01*
G01X80020Y52263D01*
G01X78930Y52263D01*
G54D27*
G01X75303Y73660D02*
G01X74348Y73660D01*
G01X75303Y73360D02*
G01X74348Y73360D01*
G01X75303Y73360D02*
G01X74348Y72722D01*
G01X75303Y72722D02*
G01X74348Y72722D01*
G01X75168Y72014D02*
G01X74348Y72014D01*
G01X74759Y72423D02*
G01X74759Y71605D01*
G01X61587Y73914D02*
G01X60632Y73914D01*
G01X61587Y73614D02*
G01X60632Y73614D01*
G01X61587Y73614D02*
G01X60632Y72976D01*
G01X61587Y72976D02*
G01X60632Y72976D01*
G01X61043Y72677D02*
G01X61043Y71859D01*
G01X75303Y35923D02*
G01X75257Y36012D01*
G01X75168Y36103D01*
G01X75077Y36149D01*
G01X74940Y36195D01*
G01X74714Y36195D01*
G01X74576Y36149D01*
G01X74485Y36103D01*
G01X74394Y36012D01*
G01X74348Y35923D01*
G01X74348Y35740D01*
G01X74394Y35648D01*
G01X74485Y35557D01*
G01X74576Y35514D01*
G01X74714Y35468D01*
G01X74940Y35468D01*
G01X75077Y35514D01*
G01X75168Y35557D01*
G01X75257Y35648D01*
G01X75303Y35740D01*
G01X75303Y35923D01*
G01X75303Y35168D02*
G01X74622Y35168D01*
G01X74485Y35123D01*
G01X74394Y35031D01*
G01X74348Y34894D01*
G01X74348Y34803D01*
G01X74394Y34668D01*
G01X74485Y34577D01*
G01X74622Y34531D01*
G01X75303Y34531D01*
G01X75303Y33914D02*
G01X74348Y33914D01*
G01X75303Y34231D02*
G01X75303Y33594D01*
G01X75168Y32885D02*
G01X74348Y32885D01*
G01X74759Y33294D02*
G01X74759Y32476D01*
G01X61587Y35923D02*
G01X61541Y36012D01*
G01X61452Y36103D01*
G01X61361Y36149D01*
G01X61224Y36195D01*
G01X60998Y36195D01*
G01X60860Y36149D01*
G01X60769Y36103D01*
G01X60678Y36012D01*
G01X60632Y35923D01*
G01X60632Y35740D01*
G01X60678Y35648D01*
G01X60769Y35557D01*
G01X60860Y35514D01*
G01X60998Y35468D01*
G01X61224Y35468D01*
G01X61361Y35514D01*
G01X61452Y35557D01*
G01X61541Y35648D01*
G01X61587Y35740D01*
G01X61587Y35923D01*
G01X61587Y35168D02*
G01X60906Y35168D01*
G01X60769Y35123D01*
G01X60678Y35031D01*
G01X60632Y34894D01*
G01X60632Y34803D01*
G01X60678Y34668D01*
G01X60769Y34577D01*
G01X60906Y34531D01*
G01X61587Y34531D01*
G01X61587Y33914D02*
G01X60632Y33914D01*
G01X61587Y34231D02*
G01X61587Y33594D01*
G01X61043Y33294D02*
G01X61043Y32476D01*
G54D28*
G01X70086Y61468D02*
G01X67701Y61468D01*
G01X67701Y61468D02*
G01X67701Y60104D01*
G01X70086Y59354D02*
G01X67701Y59354D01*
G01X70086Y59354D02*
G01X67701Y58445D01*
G01X70086Y57536D02*
G01X67701Y58445D01*
G01X70086Y57536D02*
G01X67701Y57536D01*
G01X69519Y54922D02*
G01X69631Y54922D01*
G01X69860Y54808D01*
G01X69971Y54696D01*
G01X70086Y54467D01*
G01X70086Y54013D01*
G01X69971Y53787D01*
G01X69860Y53672D01*
G01X69631Y53558D01*
G01X69405Y53558D01*
G01X69176Y53672D01*
G01X68836Y53898D01*
G01X67701Y55036D01*
G01X67701Y53444D01*
G01X70086Y51330D02*
G01X70086Y52468D01*
G01X69065Y52580D01*
G01X69176Y52468D01*
G01X69291Y52125D01*
G01X69291Y51785D01*
G01X69176Y51445D01*
G01X68950Y51219D01*
G01X68610Y51104D01*
G01X68381Y51104D01*
G01X68041Y51219D01*
G01X67812Y51445D01*
G01X67701Y51785D01*
G01X67701Y52125D01*
G01X67812Y52468D01*
G01X67927Y52580D01*
G01X68155Y52694D01*
G01X69291Y48877D02*
G01X68950Y48991D01*
G01X68722Y49217D01*
G01X68610Y49557D01*
G01X68610Y49672D01*
G01X68722Y50012D01*
G01X68950Y50241D01*
G01X69291Y50355D01*
G01X69405Y50355D01*
G01X69745Y50241D01*
G01X69971Y50012D01*
G01X70086Y49672D01*
G01X70086Y49557D01*
G01X69971Y49217D01*
G01X69745Y48991D01*
G01X69291Y48877D01*
G01X68722Y48877D01*
G01X68155Y48991D01*
G01X67812Y49217D01*
G01X67701Y49557D01*
G01X67701Y49786D01*
G01X67812Y50126D01*
G01X68041Y50241D01*
G01X69745Y46763D02*
G01X69971Y46878D01*
G01X70086Y47218D01*
G01X70086Y47444D01*
G01X69971Y47785D01*
G01X69631Y48013D01*
G01X69065Y48127D01*
G01X68496Y48127D01*
G01X68041Y48013D01*
G01X67812Y47785D01*
G01X67701Y47444D01*
G01X67701Y47332D01*
G01X67812Y46990D01*
G01X68041Y46763D01*
G01X68381Y46649D01*
G01X68496Y46649D01*
G01X68836Y46763D01*
G01X69065Y46990D01*
G01X69176Y47332D01*
G01X69176Y47444D01*
G01X69065Y47785D01*
G01X68836Y48013D01*
G01X68496Y48127D01*
G54D27*
G01X66441Y58374D02*
G01X66532Y58417D01*
G01X66621Y58508D01*
G01X66667Y58600D01*
G01X66667Y58783D01*
G01X66621Y58872D01*
G01X66532Y58963D01*
G01X66441Y59009D01*
G01X66304Y59055D01*
G01X66078Y59055D01*
G01X65940Y59009D01*
G01X65849Y58963D01*
G01X65758Y58872D01*
G01X65712Y58783D01*
G01X65712Y58600D01*
G01X65758Y58508D01*
G01X65849Y58417D01*
G01X65940Y58374D01*
G01X66349Y57845D02*
G01X66304Y57937D01*
G01X66212Y58028D01*
G01X66078Y58072D01*
G01X65986Y58072D01*
G01X65849Y58028D01*
G01X65758Y57937D01*
G01X65712Y57845D01*
G01X65712Y57708D01*
G01X65758Y57619D01*
G01X65849Y57528D01*
G01X65986Y57482D01*
G01X66078Y57482D01*
G01X66212Y57528D01*
G01X66304Y57619D01*
G01X66349Y57708D01*
G01X66349Y57845D01*
G01X66349Y57183D02*
G01X65712Y57183D01*
G01X66167Y57183D02*
G01X66304Y57045D01*
G01X66349Y56954D01*
G01X66349Y56819D01*
G01X66304Y56728D01*
G01X66167Y56682D01*
G01X65712Y56682D01*
G01X66349Y56382D02*
G01X65712Y56108D01*
G01X66349Y55836D02*
G01X65712Y56108D01*
G01X66078Y55537D02*
G01X66078Y54991D01*
G01X66167Y54991D01*
G01X66258Y55036D01*
G01X66304Y55082D01*
G01X66349Y55173D01*
G01X66349Y55308D01*
G01X66304Y55399D01*
G01X66212Y55491D01*
G01X66078Y55537D01*
G01X65986Y55537D01*
G01X65849Y55491D01*
G01X65758Y55399D01*
G01X65712Y55308D01*
G01X65712Y55173D01*
G01X65758Y55082D01*
G01X65849Y54991D01*
G01X66349Y54691D02*
G01X65712Y54691D01*
G01X66078Y54691D02*
G01X66212Y54645D01*
G01X66304Y54554D01*
G01X66349Y54465D01*
G01X66349Y54328D01*
G01X66667Y53891D02*
G01X65895Y53891D01*
G01X65758Y53845D01*
G01X65712Y53754D01*
G01X65712Y53665D01*
G01X66349Y54028D02*
G01X66349Y53708D01*
G01X66667Y52664D02*
G01X65712Y52664D01*
G01X66667Y52664D02*
G01X66667Y52346D01*
G01X66621Y52209D01*
G01X66532Y52118D01*
G01X66441Y52072D01*
G01X66304Y52026D01*
G01X66078Y52026D01*
G01X65940Y52072D01*
G01X65849Y52118D01*
G01X65758Y52209D01*
G01X65712Y52346D01*
G01X65712Y52664D01*
G01X66441Y51046D02*
G01X66532Y51092D01*
G01X66621Y51183D01*
G01X66667Y51272D01*
G01X66667Y51455D01*
G01X66621Y51546D01*
G01X66532Y51635D01*
G01X66441Y51681D01*
G01X66304Y51727D01*
G01X66078Y51727D01*
G01X65940Y51681D01*
G01X65849Y51635D01*
G01X65758Y51546D01*
G01X65712Y51455D01*
G01X65712Y51272D01*
G01X65758Y51183D01*
G01X65849Y51092D01*
G01X65940Y51046D01*
G01X66123Y50746D02*
G01X66123Y49928D01*
G01X66667Y49626D02*
G01X65712Y49626D01*
G01X66667Y49626D02*
G01X66667Y49309D01*
G01X66621Y49174D01*
G01X66532Y49082D01*
G01X66441Y49037D01*
G01X66304Y48991D01*
G01X66078Y48991D01*
G01X65940Y49037D01*
G01X65849Y49082D01*
G01X65758Y49174D01*
G01X65712Y49309D01*
G01X65712Y49626D01*
G01X66441Y48008D02*
G01X66532Y48054D01*
G01X66621Y48145D01*
G01X66667Y48237D01*
G01X66667Y48417D01*
G01X66621Y48508D01*
G01X66532Y48600D01*
G01X66441Y48646D01*
G01X66304Y48691D01*
G01X66078Y48691D01*
G01X65940Y48646D01*
G01X65849Y48600D01*
G01X65758Y48508D01*
G01X65712Y48417D01*
G01X65712Y48237D01*
G01X65758Y48145D01*
G01X65849Y48054D01*
G01X65940Y48008D01*
G54D25*
G01X98056Y13599D02*
G01X98056Y12768D01*
G01X98003Y12611D01*
G01X97952Y12560D01*
G01X97848Y12509D01*
G01X97744Y12509D01*
G01X97640Y12560D01*
G01X97586Y12611D01*
G01X97536Y12768D01*
G01X97536Y12872D01*
G01X98399Y13390D02*
G01X98501Y13444D01*
G01X98658Y13599D01*
G01X98658Y12509D01*
G01X109740Y13472D02*
G01X109740Y12641D01*
G01X109687Y12484D01*
G01X109636Y12433D01*
G01X109532Y12382D01*
G01X109428Y12382D01*
G01X109324Y12433D01*
G01X109270Y12484D01*
G01X109220Y12641D01*
G01X109220Y12745D01*
G01X110134Y13213D02*
G01X110134Y13263D01*
G01X110185Y13368D01*
G01X110238Y13421D01*
G01X110342Y13472D01*
G01X110550Y13472D01*
G01X110655Y13421D01*
G01X110705Y13368D01*
G01X110756Y13263D01*
G01X110756Y13159D01*
G01X110705Y13055D01*
G01X110601Y12900D01*
G01X110083Y12382D01*
G01X110810Y12382D01*
G54D24*
G75*
G01X152052Y33911D02*
G03X152052Y35711I-107J900D01*
G01*

%LPD*%
G36*
G01X49148Y15621D02*
G01X21970Y15621D01*
G01X21970Y13081D01*
G01X49148Y13081D01*
G01X49148Y15621D01*
G37*
M00*
M02*
