G04 Layer: TopSolderMaskLayer*
G04 EasyEDA v6.4.7, 2020-11-20T21:23:31--3:00*
G04 e52d193bf13c446e91f454a0656ad50a,09237c92188f4bc9b643e288e8680b3c,10*
G04 Gerber Generator version 0.2*
G04 Scale: 100 percent, Rotated: No, Reflected: No *
G04 Dimensions in millimeters *
G04 leading zeros omitted , absolute positions ,3 integer and 3 decimal *
%FSLAX33Y33*%
%MOMM*%
G90*
D02*

%ADD29C,2.203196*%
%ADD30C,1.701800*%
%ADD31C,2.743200*%
%ADD33C,2.082800*%
%ADD34C,1.727200*%

%LPD*%
G54D29*
G01X139951Y35810D02*
G01X139951Y33810D01*
G01X146052Y35810D02*
G01X146052Y33810D01*
G01X144052Y39611D02*
G01X142052Y39611D01*
G54D30*
G01X23749Y50419D03*
G54D31*
G01X29845Y83693D03*
G01X34671Y83693D03*
G01X39243Y83693D03*
G54D30*
G01X26289Y50419D03*
G36*
G01X30518Y49568D02*
G01X30518Y51269D01*
G01X32219Y51269D01*
G01X32219Y49568D01*
G01X30518Y49568D01*
G37*
G01X28829Y50419D03*
G54D31*
G01X15621Y83693D03*
G01X20447Y83693D03*
G01X25019Y83693D03*
G54D33*
G01X66421Y20955D03*
G01X68961Y20955D03*
G01X71501Y20955D03*
G01X74041Y20955D03*
G01X76581Y20955D03*
G01X79121Y20955D03*
G01X79121Y10795D03*
G01X76581Y10795D03*
G01X74041Y10795D03*
G01X71501Y10795D03*
G01X68961Y10795D03*
G01X66421Y10795D03*
G54D29*
G01X73568Y85979D03*
G01X78577Y85979D03*
G01X57312Y85979D03*
G01X62321Y85979D03*
G54D34*
G01X119380Y24130D03*
G01X119380Y26670D03*
G01X119380Y29210D03*
G01X119380Y31750D03*
G01X119380Y34290D03*
G01X119380Y36830D03*
G01X99060Y26670D03*
G01X99060Y29210D03*
G01X99060Y31750D03*
G01X99060Y34290D03*
G54D31*
G01X122174Y87757D03*
G01X127254Y87757D03*
G01X132334Y87757D03*
G54D34*
G01X114635Y87757D03*
G01X112095Y87757D03*
G01X109555Y87757D03*
G01X107015Y87757D03*
G54D31*
G01X137414Y78867D03*
G01X137414Y73787D03*
G01X99314Y78867D03*
G01X99314Y73787D03*
G54D34*
G01X104394Y87757D03*
G01X117094Y87757D03*
G01X27813Y32131D03*
G01X27813Y9271D03*
G01X7493Y9271D03*
G01X10033Y9271D03*
G01X12573Y9271D03*
G01X15113Y9271D03*
G01X17653Y9271D03*
G01X20193Y9271D03*
G01X22733Y9271D03*
G01X25273Y9271D03*
G01X30353Y9271D03*
G01X32893Y9271D03*
G01X35433Y9271D03*
G01X37973Y9271D03*
G01X40513Y9271D03*
G01X43053Y9271D03*
G01X45593Y9271D03*
G01X48133Y9271D03*
G01X50673Y9271D03*
G01X7493Y32131D03*
G01X10033Y32131D03*
G01X12573Y32131D03*
G01X15113Y32131D03*
G01X17653Y32131D03*
G01X20193Y32131D03*
G01X22733Y32131D03*
G01X25273Y32131D03*
G01X30353Y32131D03*
G01X32893Y32131D03*
G01X35433Y32131D03*
G01X37973Y32131D03*
G01X40513Y32131D03*
G01X43053Y32131D03*
G01X45593Y32131D03*
G01X48133Y32131D03*
G01X50673Y32131D03*
G01X76454Y72898D03*
G01X59563Y72898D03*
G01X76454Y33909D03*
G01X59563Y33909D03*
G54D33*
G01X94996Y10922D03*
G01X97536Y10922D03*
G01X100076Y10922D03*
G01X106680Y10795D03*
G01X109220Y10795D03*
G01X111760Y10795D03*
M00*
M02*
