;Layer: Drill PTH
;EasyEDA v6.4.7, 2020-11-20T21:23:31--3:00
;e52d193bf13c446e91f454a0656ad50a,09237c92188f4bc9b643e288e8680b3c,10
;Gerber Generator version 0.2
M48
METRIC,LZ,000.000
;Holesize 1 = 0.310 METRIC
T01C0.310
;Holesize 2 = 0.508 METRIC
T02C0.508
;Holesize 3 = 0.762 METRIC
T03C0.762
;Holesize 4 = 0.915 METRIC
T04C0.915
;Holesize 5 = 1.016 METRIC
T05C1.016
;Holesize 6 = 1.270 METRIC
T06C1.270
;Holesize 7 = 1.301 METRIC
T07C1.301
;Holesize 8 = 1.524 METRIC
T08C1.524
%
G05
G90
T01
X+073489Y+016901
X+039806Y+016184
T02
X+139951Y+035573G85X+139951Y+034049
X+146051Y+035573G85X+146051Y+034049
X+143813Y+039611G85X+142289Y+039611
T03
X+114635Y+087757
X+112095Y+087757
X+109555Y+087757
X+107015Y+087757
T04
X+023749Y+050419
X+026289Y+050419
X+031369Y+050419
X+028829Y+050419
X+119380Y+024130
X+119380Y+026670
X+119380Y+029210
X+119380Y+031750
X+119380Y+034290
X+119380Y+036830
X+099060Y+026670
X+099060Y+029210
X+099060Y+031750
X+099060Y+034290
X+104394Y+087757
X+117094Y+087757
X+027812Y+032131
X+027812Y+009271
X+007492Y+009271
X+010032Y+009271
X+012572Y+009271
X+015112Y+009271
X+017652Y+009271
X+020192Y+009271
X+022732Y+009271
X+025272Y+009271
X+030352Y+009271
X+032892Y+009271
X+035432Y+009271
X+037972Y+009271
X+040512Y+009271
X+043052Y+009271
X+045592Y+009271
X+048132Y+009271
X+050672Y+009271
X+007492Y+032131
X+010032Y+032131
X+012572Y+032131
X+015112Y+032131
X+017652Y+032131
X+020192Y+032131
X+022732Y+032131
X+025272Y+032131
X+030352Y+032131
X+032892Y+032131
X+035432Y+032131
X+037972Y+032131
X+040512Y+032131
X+043052Y+032131
X+045592Y+032131
X+048132Y+032131
X+050672Y+032131
X+076454Y+072898
X+059563Y+072898
X+076454Y+033909
X+059563Y+033909
T05
X+066421Y+020955
X+068961Y+020955
X+071501Y+020955
X+074041Y+020955
X+076581Y+020955
X+079121Y+020955
X+079121Y+010795
X+076581Y+010795
X+074041Y+010795
X+071501Y+010795
X+068961Y+010795
X+066421Y+010795
X+094996Y+010922
X+097536Y+010922
X+100076Y+010922
X+106680Y+010795
X+109220Y+010795
X+111760Y+010795
T06
X+122174Y+087757
X+127254Y+087757
X+132334Y+087757
X+137414Y+078867
X+137414Y+073787
X+099314Y+078867
X+099314Y+073787
T07
X+073568Y+085979
X+078577Y+085979
X+057312Y+085979
X+062321Y+085979
T08
X+029845Y+083693
X+034671Y+083693
X+039243Y+083693
X+015621Y+083693
X+020447Y+083693
X+025019Y+083693
M30
