G04 Layer: BottomSolderMaskLayer*
G04 EasyEDA v6.4.7, 2020-11-20T21:23:31--3:00*
G04 eeb6c147a42f4a1294c753b82ad487c9,09237c92188f4bc9b643e288e8680b3c,10*
G04 Gerber Generator version 0.2*
G04 Scale: 100 percent, Rotated: No, Reflected: No *
G04 Dimensions in millimeters *
G04 leading zeros omitted , absolute positions ,3 integer and 3 decimal *
%FSLAX33Y33*%
%MOMM*%
G90*
D02*

%ADD27C,1.703197*%
%ADD28C,0.463194*%
%ADD29C,1.727200*%
%ADD30C,0.403200*%
%ADD33C,2.903220*%
%ADD35R,2.235200X2.235200*%
%ADD36C,2.235200*%

%LPD*%
G54D27*
G01X116291Y2815D02*
G01X116291Y1615D01*
G01X101793Y2815D02*
G01X101793Y1615D01*
G01X116291Y9114D02*
G01X116291Y7314D01*
G01X101793Y9114D02*
G01X101793Y7314D01*
G01X102275Y32998D02*
G01X102275Y34198D01*
G01X116773Y32998D02*
G01X116773Y34198D01*
G01X102275Y26699D02*
G01X102275Y28499D01*
G01X116773Y26699D02*
G01X116773Y28499D01*
G01X9271Y38908D02*
G01X9271Y41608D01*
G01X3175Y38908D02*
G01X3175Y41608D01*
G01X7065Y44958D02*
G01X4365Y44958D01*
G54D28*
G01X104541Y11396D03*
G54D29*
G01X92583Y5080D03*
G54D28*
G01X126365Y29591D03*
G54D30*
G01X178562Y34163D03*
G54D28*
G01X187452Y28194D03*
G01X185547Y30226D03*
G01X135128Y31115D03*
G01X133858Y31623D03*
G01X186817Y28321D03*
G54D33*
G01X23616Y41777D03*
G36*
G01X22197Y57406D02*
G01X22197Y60309D01*
G01X25100Y60309D01*
G01X25100Y57406D01*
G01X22197Y57406D01*
G37*
G36*
G01X61793Y57348D02*
G01X61793Y60251D01*
G01X64696Y60251D01*
G01X64696Y57348D01*
G01X61793Y57348D01*
G37*
G01X63246Y41783D03*
G54D35*
G01X89077Y28575D03*
G54D36*
G01X94056Y28575D03*
G54D35*
G01X129336Y7493D03*
G54D36*
G01X134315Y7493D03*
G54D29*
G01X5132Y65278D03*
G01X11631Y65278D03*
M00*
M02*
