G04 Layer: TopLayer*
G04 EasyEDA v6.4.7, 2020-11-20T21:23:31--3:00*
G04 eeb6c147a42f4a1294c753b82ad487c9,09237c92188f4bc9b643e288e8680b3c,10*
G04 Gerber Generator version 0.2*
G04 Scale: 100 percent, Rotated: No, Reflected: No *
G04 Dimensions in millimeters *
G04 leading zeros omitted , absolute positions ,3 integer and 3 decimal *
%FSLAX33Y33*%
%MOMM*%
G90*
D02*

%ADD11C,0.259994*%
%ADD12C,1.270000*%
%ADD13C,0.280010*%
%ADD14C,0.609600*%
%ADD15R,2.999994X1.899996*%
%ADD16R,0.399999X1.350010*%
%ADD17C,1.524000*%
%ADD18C,0.200000*%
%ADD19C,2.700020*%
%ADD21R,2.032000X2.032000*%
%ADD22C,2.032000*%
%ADD23C,1.499997*%

%LPD*%
G54D11*
G01X102275Y27599D02*
G01X102275Y27726D01*
G01X103251Y28702D01*
G01X105003Y28702D01*
G01X105524Y28181D01*
G01X105524Y26840D01*
G01X186817Y28321D02*
G01X186832Y31493D01*
G01X129032Y30607D02*
G01X173990Y30607D01*
G01X177165Y27432D01*
G01X184531Y27432D01*
G01X186182Y29083D01*
G01X186182Y31492D01*
G01X187452Y28194D02*
G01X187481Y28223D01*
G01X187481Y31492D01*
G01X31592Y4447D02*
G01X31623Y16510D01*
G01X36195Y21082D01*
G01X89535Y21082D01*
G01X100076Y31623D01*
G01X133858Y31623D01*
G01X100457Y31242D02*
G01X135128Y31115D01*
G01X185547Y30226D02*
G01X185531Y31493D01*
G01X182626Y34163D02*
G01X184882Y31906D01*
G01X184882Y31492D01*
G01X36957Y18923D02*
G01X90297Y18923D01*
G01X101059Y29685D01*
G01X101600Y29685D01*
G01X101600Y29591D01*
G01X126365Y29591D01*
G01X178562Y34163D02*
G01X182626Y34163D01*
G01X32893Y4447D02*
G01X32893Y16383D01*
G01X36703Y20066D01*
G01X89916Y20066D01*
G01X100457Y30607D01*
G01X129032Y30607D01*
G01X33543Y4447D02*
G01X33543Y16398D01*
G01X36830Y19558D01*
G01X90170Y19558D01*
G01X100711Y30099D01*
G01X129032Y30099D01*
G01X32242Y4447D02*
G01X32242Y16367D01*
G01X36449Y20574D01*
G01X89789Y20574D01*
G01X100457Y31242D01*
G01X34193Y4447D02*
G01X34036Y4605D01*
G01X34036Y16256D01*
G01X36957Y18923D01*
G01X189738Y34163D02*
G01X182626Y34163D01*
G01X29337Y1778D02*
G01X36449Y1778D01*
G01X36449Y1778D02*
G01X34192Y4034D01*
G01X34192Y4448D01*
G54D12*
G01X63245Y58799D02*
G01X63245Y49530D01*
G01X68961Y43815D01*
G01X68961Y33909D01*
G01X72771Y30099D01*
G01X80518Y30099D01*
G01X83693Y33274D01*
G01X89357Y33274D01*
G01X94056Y28575D01*
G01X63246Y41783D02*
G01X63246Y30480D01*
G01X69088Y24638D01*
G01X86868Y24638D01*
G01X89154Y26924D01*
G01X89077Y27000D01*
G01X89077Y28575D01*
G01X11631Y65278D02*
G01X18051Y58858D01*
G01X23647Y58858D01*
G01X3175Y40259D02*
G01X2032Y41402D01*
G01X2032Y62177D01*
G01X5132Y65278D01*
G01X23616Y41777D02*
G01X22098Y40259D01*
G01X9271Y40259D01*
G01X9271Y40259D02*
G01X5715Y43815D01*
G01X5715Y44958D01*
G54D11*
G01X116773Y27599D02*
G01X116773Y27625D01*
G01X115697Y28702D01*
G01X113411Y28702D01*
G01X113024Y28315D01*
G01X113024Y26839D01*
G01X113411Y28702D02*
G01X110617Y28702D01*
G01X110025Y28110D01*
G01X110025Y26839D01*
G01X110617Y28702D02*
G01X106045Y28702D01*
G01X105524Y28181D01*
G01X116291Y8214D02*
G01X115189Y7112D01*
G01X113284Y7112D01*
G01X113042Y7353D01*
G01X113042Y8973D01*
G54D12*
G01X129336Y7493D02*
G01X129336Y7416D01*
G01X127000Y5080D01*
G01X92583Y5080D01*
G54D11*
G01X108526Y28702D02*
G01X108524Y26840D01*
G01X107025Y26839D02*
G01X107025Y28229D01*
G01X106553Y28702D01*
G01X105003Y28702D02*
G01X106045Y28702D01*
G01X105241Y28463D02*
G01X105785Y28463D01*
G01X107025Y26839D02*
G01X107025Y28285D01*
G01X107442Y28702D01*
G01X106756Y28498D02*
G01X107229Y28498D01*
G01X108524Y27033D02*
G01X108524Y28381D01*
G01X108204Y28702D01*
G01X108524Y26840D02*
G01X108524Y28391D01*
G01X108834Y28702D01*
G01X110025Y26984D02*
G01X110025Y28144D01*
G01X109467Y28702D01*
G01X109721Y28447D02*
G01X110331Y28447D01*
G01X113024Y27137D02*
G01X113024Y28456D01*
G01X112779Y28702D01*
G01X105542Y7371D02*
G01X105571Y7371D01*
G01X105830Y7112D01*
G01X108541Y7403D02*
G01X108474Y7403D01*
G01X108183Y7112D01*
G01X105254Y7112D01*
G01X108541Y8974D02*
G01X108541Y7389D01*
G01X108627Y7389D01*
G01X108904Y7112D01*
G01X110617Y7112D01*
G01X108904Y7112D02*
G01X108261Y7112D01*
G01X108541Y7403D02*
G01X108541Y7112D01*
G01X110042Y7686D02*
G01X110042Y7508D01*
G01X109646Y7112D01*
G01X109865Y7331D02*
G01X110400Y7331D01*
G01X113284Y7112D02*
G01X110617Y7112D01*
G01X110042Y7686D01*
G01X110042Y8974D01*
G01X111541Y7513D02*
G01X111960Y7112D01*
G01X111207Y7112D02*
G01X111207Y7179D01*
G01X111541Y7513D01*
G01X111541Y8973D01*
G01X111541Y7513D02*
G01X111541Y7112D01*
G01X113042Y7353D02*
G01X113042Y7323D01*
G01X112830Y7112D01*
G01X104541Y8974D02*
G01X104541Y11396D01*
G01X114046Y22987D02*
G01X114046Y26924D01*
G01X113538Y22987D02*
G01X113525Y26840D01*
G01X106542Y8974D02*
G01X106553Y8984D01*
G01X106553Y16764D01*
G01X112522Y22987D02*
G01X112524Y26840D01*
G01X112014Y22987D02*
G01X112024Y26840D01*
G01X106042Y8974D02*
G01X106042Y14986D01*
G01X107043Y17889D02*
G01X107043Y17889D01*
G01X107043Y8974D01*
G01X111523Y26839D02*
G01X111523Y22970D01*
G01X105041Y8974D02*
G01X105029Y12827D01*
G01X101793Y8214D02*
G01X101793Y8188D01*
G01X102870Y7112D01*
G01X105283Y7112D01*
G01X105542Y7371D01*
G01X105542Y8973D01*
G01X107543Y8974D02*
G01X107543Y12954D01*
G01X108041Y8974D02*
G01X108041Y13081D01*
G01X109042Y8974D02*
G01X109042Y12700D01*
G01X110998Y23622D02*
G01X111023Y23647D01*
G01X111023Y26839D01*
G01X110490Y24130D02*
G01X110525Y24165D01*
G01X110525Y26839D01*
G01X109474Y24638D02*
G01X109524Y24688D01*
G01X109524Y26839D01*
G01X105410Y24765D02*
G01X106024Y25379D01*
G01X106024Y26839D01*
G01X112041Y8974D02*
G01X112041Y20292D01*
G01X109474Y22860D01*
G01X111041Y8973D02*
G01X111041Y20530D01*
G01X108712Y22860D01*
G01X110543Y8973D02*
G01X110543Y20139D01*
G01X108077Y22860D01*
G01X108023Y22913D01*
G01X108023Y26839D01*
G01X110042Y8973D02*
G01X110042Y20005D01*
G01X107025Y23022D01*
G01X107025Y26839D01*
G01X113543Y8973D02*
G01X113543Y20314D01*
G01X110871Y22987D01*
G01X112542Y8973D02*
G01X112542Y20553D01*
G01X110109Y22987D01*
G01X104013Y24765D02*
G01X105023Y25775D01*
G01X105023Y26839D01*
G01X109542Y8974D02*
G01X109542Y18981D01*
G01X106807Y21717D01*
G01X106299Y24765D02*
G01X106525Y24991D01*
G01X106525Y26839D01*
G01X107442Y24765D02*
G01X107525Y24848D01*
G01X107525Y26839D01*
G01X108966Y24130D02*
G01X109024Y24188D01*
G01X109024Y26839D01*
G54D13*
G01X109042Y10134D02*
G01X109042Y7814D01*
G01X109542Y10134D02*
G01X109542Y7814D01*
G01X110042Y10134D02*
G01X110042Y7814D01*
G01X110543Y10134D02*
G01X110543Y7814D01*
G01X111041Y10134D02*
G01X111041Y7814D01*
G01X111541Y10134D02*
G01X111541Y7814D01*
G01X112041Y10134D02*
G01X112041Y7814D01*
G01X112542Y10134D02*
G01X112542Y7814D01*
G01X113042Y10134D02*
G01X113042Y7814D01*
G01X113543Y10134D02*
G01X113543Y7814D01*
G01X108541Y10134D02*
G01X108541Y7814D01*
G01X108041Y10134D02*
G01X108041Y7814D01*
G01X107543Y10134D02*
G01X107543Y7814D01*
G01X107043Y10134D02*
G01X107043Y7814D01*
G01X106542Y10134D02*
G01X106542Y7814D01*
G01X106042Y10134D02*
G01X106042Y7814D01*
G01X105542Y10134D02*
G01X105542Y7814D01*
G01X105041Y10134D02*
G01X105041Y7814D01*
G01X104541Y10134D02*
G01X104541Y7814D01*
G01X109524Y25679D02*
G01X109524Y27999D01*
G01X109024Y25679D02*
G01X109024Y27999D01*
G01X108524Y25679D02*
G01X108524Y27999D01*
G01X108023Y25679D02*
G01X108023Y27999D01*
G01X107525Y25679D02*
G01X107525Y27999D01*
G01X107025Y25679D02*
G01X107025Y27999D01*
G01X106525Y25679D02*
G01X106525Y27999D01*
G01X106024Y25679D02*
G01X106024Y27999D01*
G01X105524Y25679D02*
G01X105524Y27999D01*
G01X105023Y25679D02*
G01X105023Y27999D01*
G01X110025Y25679D02*
G01X110025Y27999D01*
G01X110525Y25679D02*
G01X110525Y27999D01*
G01X111023Y25679D02*
G01X111023Y27999D01*
G01X111523Y25679D02*
G01X111523Y27999D01*
G01X112024Y25679D02*
G01X112024Y27999D01*
G01X112524Y25679D02*
G01X112524Y27999D01*
G01X113024Y25679D02*
G01X113024Y27999D01*
G01X113525Y25679D02*
G01X113525Y27999D01*
G01X114025Y25679D02*
G01X114025Y27999D01*
G54D15*
G01X189738Y34163D03*
G01X182626Y34163D03*
G54D16*
G01X186182Y31492D03*
G01X185532Y31492D03*
G01X184882Y31492D03*
G01X186831Y31492D03*
G01X187481Y31492D03*
G36*
G01X27837Y2727D02*
G01X30836Y2727D01*
G01X30836Y827D01*
G01X27837Y827D01*
G01X27837Y2727D01*
G37*
G36*
G01X34949Y2727D02*
G01X37948Y2727D01*
G01X37948Y827D01*
G01X34949Y827D01*
G01X34949Y2727D01*
G37*
G36*
G01X32693Y5123D02*
G01X33092Y5123D01*
G01X33092Y3772D01*
G01X32693Y3772D01*
G01X32693Y5123D01*
G37*
G36*
G01X33343Y5123D02*
G01X33743Y5123D01*
G01X33743Y3772D01*
G01X33343Y3772D01*
G01X33343Y5123D01*
G37*
G36*
G01X33992Y5123D02*
G01X34392Y5123D01*
G01X34392Y3772D01*
G01X33992Y3772D01*
G01X33992Y5123D01*
G37*
G36*
G01X32042Y5123D02*
G01X32442Y5123D01*
G01X32442Y3772D01*
G01X32042Y3772D01*
G01X32042Y5123D01*
G37*
G36*
G01X31393Y5123D02*
G01X31793Y5123D01*
G01X31793Y3772D01*
G01X31393Y3772D01*
G01X31393Y5123D01*
G37*
G54D11*
G01X104541Y11396D03*
G54D17*
G01X92583Y5080D03*
G54D11*
G01X126365Y29591D03*
G54D18*
G01X178562Y34163D03*
G54D11*
G01X187452Y28194D03*
G01X185547Y30226D03*
G01X135128Y31115D03*
G01X133858Y31623D03*
G01X186817Y28321D03*
G54D19*
G01X23616Y41777D03*
G36*
G01X22297Y60208D02*
G01X24997Y60208D01*
G01X24997Y57509D01*
G01X22297Y57509D01*
G01X22297Y60208D01*
G37*
G36*
G01X61895Y60149D02*
G01X64595Y60149D01*
G01X64595Y57449D01*
G01X61895Y57449D01*
G01X61895Y60149D01*
G37*
G01X63246Y41783D03*
G54D21*
G01X89077Y28575D03*
G54D22*
G01X94056Y28575D03*
G54D21*
G01X129336Y7493D03*
G54D22*
G01X134315Y7493D03*
G54D17*
G01X5132Y65278D03*
G01X11631Y65278D03*
G54D11*
G01X107043Y17889D03*
G01X111523Y22970D03*
G01X112014Y22987D03*
G01X112522Y22987D03*
G01X106042Y14986D03*
G01X106553Y16764D03*
G01X113538Y22987D03*
G01X105029Y12827D03*
G01X114046Y22987D03*
G01X129032Y30099D03*
G01X107543Y12954D03*
G01X108041Y13081D03*
G01X109042Y12700D03*
G01X110998Y23622D03*
G01X110490Y24130D03*
G01X109474Y24638D03*
G01X110871Y22987D03*
G01X110109Y22987D03*
G01X104013Y24765D03*
G01X105410Y24765D03*
G01X109474Y22860D03*
G01X108712Y22860D03*
G01X106807Y21717D03*
G01X108966Y24130D03*
G01X107442Y24765D03*
G01X106299Y24765D03*
G54D14*
G01X105254Y7112D03*
G54D23*
G01X116291Y2815D02*
G01X116291Y1615D01*
G01X101793Y2815D02*
G01X101793Y1615D01*
G01X116291Y9114D02*
G01X116291Y7314D01*
G01X101793Y9114D02*
G01X101793Y7314D01*
G01X102275Y32998D02*
G01X102275Y34198D01*
G01X116773Y32998D02*
G01X116773Y34198D01*
G01X102275Y26699D02*
G01X102275Y28499D01*
G01X116773Y26699D02*
G01X116773Y28499D01*
G01X9271Y38908D02*
G01X9271Y41608D01*
G01X3175Y38908D02*
G01X3175Y41608D01*
G01X7065Y44958D02*
G01X4365Y44958D01*
M00*
M02*
