;Layer: Drill PTH
;EasyEDA v6.4.7, 2020-11-20T21:23:31--3:00
;eeb6c147a42f4a1294c753b82ad487c9,09237c92188f4bc9b643e288e8680b3c,10
;Gerber Generator version 0.2
M48
METRIC,LZ,000.000
;Holesize 1 = 0.260 METRIC
T01C0.260
;Holesize 2 = 0.305 METRIC
T02C0.305
;Holesize 3 = 0.800 METRIC
T03C0.800
;Holesize 4 = 0.901 METRIC
T04C0.901
;Holesize 5 = 0.915 METRIC
T05C0.915
;Holesize 6 = 1.169 METRIC
T06C1.169
;Holesize 7 = 1.200 METRIC
T07C1.200
;Holesize 8 = 1.501 METRIC
T08C1.501
%
G05
G90
T01
X+126365Y+029591
X+178562Y+034163
X+187452Y+028194
X+185547Y+030226
X+135128Y+031115
X+133858Y+031623
X+186817Y+028321
X+129032Y+030099
T02
X+104541Y+011396
X+107043Y+017889
X+111523Y+022970
X+112014Y+022987
X+112522Y+022987
X+106042Y+014986
X+106553Y+016764
X+113538Y+022987
X+105029Y+012827
X+114046Y+022987
X+107543Y+012954
X+108041Y+013081
X+109042Y+012700
X+110998Y+023622
X+110490Y+024130
X+109474Y+024638
X+110871Y+022987
X+110109Y+022987
X+104013Y+024765
X+105410Y+024765
X+109474Y+022860
X+108712Y+022860
X+106807Y+021717
X+108966Y+024130
X+107442Y+024765
X+106299Y+024765
X+105254Y+007112
T03
X+009271Y+039059G85X+009271Y+041458
X+003175Y+039059G85X+003175Y+041458
X+006914Y+044958G85X+004515Y+044958
T04
X+116292Y+001614G85X+116292Y+002814
X+101792Y+001614G85X+101792Y+002814
X+116292Y+007314G85X+116292Y+009114
X+101792Y+007314G85X+101792Y+009114
X+102274Y+034199G85X+102274Y+032999
X+116774Y+034199G85X+116774Y+032999
X+102274Y+028499G85X+102274Y+026699
X+116774Y+028499G85X+116774Y+026699
T05
X+092583Y+005080
T06
X+089077Y+028575
X+094056Y+028575
X+129336Y+007493
X+134315Y+007493
T07
X+005132Y+065278
X+011631Y+065278
T08
X+023616Y+041777
X+023647Y+058858
X+063245Y+058799
X+063246Y+041783
M30
