G04 Layer: TopSolderMaskLayer*
G04 EasyEDA v6.4.7, 2020-11-20T21:23:31--3:00*
G04 eeb6c147a42f4a1294c753b82ad487c9,09237c92188f4bc9b643e288e8680b3c,10*
G04 Gerber Generator version 0.2*
G04 Scale: 100 percent, Rotated: No, Reflected: No *
G04 Dimensions in millimeters *
G04 leading zeros omitted , absolute positions ,3 integer and 3 decimal *
%FSLAX33Y33*%
%MOMM*%
G90*
D02*

%ADD26C,0.483210*%
%ADD27C,1.703197*%
%ADD28C,0.463194*%
%ADD29C,1.727200*%
%ADD30C,0.403200*%
%ADD33C,2.903220*%
%ADD35R,2.235200X2.235200*%
%ADD36C,2.235200*%

%LPD*%
G54D26*
G01X109042Y10134D02*
G01X109042Y7814D01*
G01X109542Y10134D02*
G01X109542Y7814D01*
G01X110042Y10134D02*
G01X110042Y7814D01*
G01X110543Y10134D02*
G01X110543Y7814D01*
G01X111041Y10134D02*
G01X111041Y7814D01*
G01X111541Y10134D02*
G01X111541Y7814D01*
G01X112041Y10134D02*
G01X112041Y7814D01*
G01X112542Y10134D02*
G01X112542Y7814D01*
G01X113042Y10134D02*
G01X113042Y7814D01*
G01X113543Y10134D02*
G01X113543Y7814D01*
G01X108541Y10134D02*
G01X108541Y7814D01*
G01X108041Y10134D02*
G01X108041Y7814D01*
G01X107543Y10134D02*
G01X107543Y7814D01*
G01X107043Y10134D02*
G01X107043Y7814D01*
G01X106542Y10134D02*
G01X106542Y7814D01*
G01X106042Y10134D02*
G01X106042Y7814D01*
G01X105542Y10134D02*
G01X105542Y7814D01*
G01X105041Y10134D02*
G01X105041Y7814D01*
G01X104541Y10134D02*
G01X104541Y7814D01*
G54D27*
G01X116291Y2815D02*
G01X116291Y1615D01*
G01X101793Y2815D02*
G01X101793Y1615D01*
G01X116291Y9114D02*
G01X116291Y7314D01*
G01X101793Y9114D02*
G01X101793Y7314D01*
G54D26*
G01X109524Y25679D02*
G01X109524Y27999D01*
G01X109024Y25679D02*
G01X109024Y27999D01*
G01X108524Y25679D02*
G01X108524Y27999D01*
G01X108023Y25679D02*
G01X108023Y27999D01*
G01X107525Y25679D02*
G01X107525Y27999D01*
G01X107025Y25679D02*
G01X107025Y27999D01*
G01X106525Y25679D02*
G01X106525Y27999D01*
G01X106024Y25679D02*
G01X106024Y27999D01*
G01X105524Y25679D02*
G01X105524Y27999D01*
G01X105023Y25679D02*
G01X105023Y27999D01*
G01X110025Y25679D02*
G01X110025Y27999D01*
G01X110525Y25679D02*
G01X110525Y27999D01*
G01X111023Y25679D02*
G01X111023Y27999D01*
G01X111523Y25679D02*
G01X111523Y27999D01*
G01X112024Y25679D02*
G01X112024Y27999D01*
G01X112524Y25679D02*
G01X112524Y27999D01*
G01X113024Y25679D02*
G01X113024Y27999D01*
G01X113525Y25679D02*
G01X113525Y27999D01*
G01X114025Y25679D02*
G01X114025Y27999D01*
G54D27*
G01X102275Y32998D02*
G01X102275Y34198D01*
G01X116773Y32998D02*
G01X116773Y34198D01*
G01X102275Y26699D02*
G01X102275Y28499D01*
G01X116773Y26699D02*
G01X116773Y28499D01*
G01X9271Y38908D02*
G01X9271Y41608D01*
G01X3175Y38908D02*
G01X3175Y41608D01*
G01X7065Y44958D02*
G01X4365Y44958D01*
G54D28*
G01X104541Y11396D03*
G54D29*
G01X92583Y5080D03*
G54D28*
G01X126365Y29591D03*
G54D30*
G01X178562Y34163D03*
G54D28*
G01X187452Y28194D03*
G01X185547Y30226D03*
G01X135128Y31115D03*
G01X133858Y31623D03*
G01X186817Y28321D03*
G36*
G01X188135Y33111D02*
G01X188135Y35214D01*
G01X191340Y35214D01*
G01X191340Y33111D01*
G01X188135Y33111D01*
G37*
G36*
G01X181023Y33111D02*
G01X181023Y35214D01*
G01X184228Y35214D01*
G01X184228Y33111D01*
G01X181023Y33111D01*
G37*
G36*
G01X185879Y30716D02*
G01X185879Y32270D01*
G01X186484Y32270D01*
G01X186484Y30716D01*
G01X185879Y30716D01*
G37*
G36*
G01X185229Y30716D02*
G01X185229Y32270D01*
G01X185834Y32270D01*
G01X185834Y30716D01*
G01X185229Y30716D01*
G37*
G36*
G01X184579Y30716D02*
G01X184579Y32270D01*
G01X185183Y32270D01*
G01X185183Y30716D01*
G01X184579Y30716D01*
G37*
G36*
G01X186529Y30716D02*
G01X186529Y32270D01*
G01X187134Y32270D01*
G01X187134Y30716D01*
G01X186529Y30716D01*
G37*
G36*
G01X187180Y30716D02*
G01X187180Y32270D01*
G01X187784Y32270D01*
G01X187784Y30716D01*
G01X187180Y30716D01*
G37*
G36*
G01X27734Y726D02*
G01X27734Y2829D01*
G01X30939Y2829D01*
G01X30939Y726D01*
G01X27734Y726D01*
G37*
G36*
G01X34846Y726D02*
G01X34846Y2829D01*
G01X38051Y2829D01*
G01X38051Y726D01*
G01X34846Y726D01*
G37*
G36*
G01X32590Y3670D02*
G01X32590Y5224D01*
G01X33195Y5224D01*
G01X33195Y3670D01*
G01X32590Y3670D01*
G37*
G36*
G01X33240Y3670D02*
G01X33240Y5224D01*
G01X33845Y5224D01*
G01X33845Y3670D01*
G01X33240Y3670D01*
G37*
G36*
G01X33891Y3670D02*
G01X33891Y5224D01*
G01X34495Y5224D01*
G01X34495Y3670D01*
G01X33891Y3670D01*
G37*
G36*
G01X31940Y3670D02*
G01X31940Y5224D01*
G01X32545Y5224D01*
G01X32545Y3670D01*
G01X31940Y3670D01*
G37*
G36*
G01X31290Y3670D02*
G01X31290Y5224D01*
G01X31894Y5224D01*
G01X31894Y3670D01*
G01X31290Y3670D01*
G37*
G54D33*
G01X23616Y41777D03*
G36*
G01X22197Y57406D02*
G01X22197Y60309D01*
G01X25100Y60309D01*
G01X25100Y57406D01*
G01X22197Y57406D01*
G37*
G36*
G01X61793Y57348D02*
G01X61793Y60251D01*
G01X64696Y60251D01*
G01X64696Y57348D01*
G01X61793Y57348D01*
G37*
G01X63246Y41783D03*
G54D35*
G01X89077Y28575D03*
G54D36*
G01X94056Y28575D03*
G54D35*
G01X129336Y7493D03*
G54D36*
G01X134315Y7493D03*
G54D29*
G01X5132Y65278D03*
G01X11631Y65278D03*
M00*
M02*
