G04 Layer: TopSilkLayer*
G04 EasyEDA v6.4.7, 2020-11-20T11:11:39--3:00*
G04 4594473581034ba9b9ea50e3a3b0936a,09237c92188f4bc9b643e288e8680b3c,10*
G04 Gerber Generator version 0.2*
G04 Scale: 100 percent, Rotated: No, Reflected: No *
G04 Dimensions in millimeters *
G04 leading zeros omitted , absolute positions ,3 integer and 3 decimal *
%FSLAX33Y33*%
%MOMM*%
G90*
D02*

%ADD10C,0.254000*%
%ADD13C,0.203200*%
%ADD18C,0.152400*%

%LPD*%

%LPD*%
G36*
G01X139435Y54937D02*
G01X139392Y54941D01*
G01X139349Y54932D01*
G01X139314Y54907D01*
G01X139290Y54869D01*
G01X139281Y54823D01*
G01X139290Y54783D01*
G01X139314Y54760D01*
G01X139349Y54757D01*
G01X139392Y54775D01*
G01X139435Y54805D01*
G01X139471Y54838D01*
G01X139495Y54868D01*
G01X139503Y54892D01*
G01X139495Y54911D01*
G01X139471Y54927D01*
G01X139435Y54937D01*
G37*

%LPD*%
G36*
G01X139213Y55270D02*
G01X139170Y55274D01*
G01X139127Y55251D01*
G01X139094Y55185D01*
G01X139073Y55088D01*
G01X139067Y54969D01*
G01X139070Y54880D01*
G01X139074Y54814D01*
G01X139080Y54772D01*
G01X139089Y54752D01*
G01X139102Y54754D01*
G01X139119Y54778D01*
G01X139142Y54821D01*
G01X139170Y54886D01*
G01X139213Y54989D01*
G01X139243Y55074D01*
G01X139262Y55142D01*
G01X139268Y55194D01*
G01X139262Y55231D01*
G01X139243Y55256D01*
G01X139213Y55270D01*
G37*

%LPD*%
G36*
G01X138808Y55380D02*
G01X138781Y55386D01*
G01X138754Y55380D01*
G01X138731Y55362D01*
G01X138713Y55334D01*
G01X138701Y55296D01*
G01X138693Y55248D01*
G01X138691Y55191D01*
G01X138694Y55126D01*
G01X138702Y55052D01*
G01X138723Y54923D01*
G01X138745Y54817D01*
G01X138766Y54745D01*
G01X138781Y54719D01*
G01X138797Y54745D01*
G01X138817Y54817D01*
G01X138839Y54923D01*
G01X138860Y55052D01*
G01X138869Y55126D01*
G01X138872Y55191D01*
G01X138869Y55248D01*
G01X138862Y55296D01*
G01X138849Y55334D01*
G01X138831Y55362D01*
G01X138808Y55380D01*
G37*

%LPD*%
G36*
G01X134929Y54385D02*
G01X133897Y54385D01*
G01X133792Y54383D01*
G01X133694Y54381D01*
G01X133601Y54377D01*
G01X133515Y54372D01*
G01X133434Y54366D01*
G01X133360Y54359D01*
G01X133293Y54350D01*
G01X133231Y54341D01*
G01X133175Y54331D01*
G01X133126Y54319D01*
G01X133083Y54307D01*
G01X133047Y54294D01*
G01X133017Y54279D01*
G01X132994Y54264D01*
G01X132977Y54247D01*
G01X132971Y54237D01*
G01X132963Y54221D01*
G01X132954Y54199D01*
G01X132943Y54172D01*
G01X132931Y54140D01*
G01X132918Y54103D01*
G01X132903Y54060D01*
G01X132888Y54014D01*
G01X132870Y53963D01*
G01X132853Y53908D01*
G01X132834Y53850D01*
G01X132815Y53787D01*
G01X132794Y53722D01*
G01X132772Y53652D01*
G01X132751Y53581D01*
G01X132728Y53507D01*
G01X132705Y53430D01*
G01X132681Y53351D01*
G01X132657Y53270D01*
G01X132633Y53187D01*
G01X132608Y53103D01*
G01X132558Y52931D01*
G01X132533Y52844D01*
G01X132508Y52756D01*
G01X132483Y52667D01*
G01X132457Y52579D01*
G01X132433Y52491D01*
G01X132408Y52403D01*
G01X132384Y52316D01*
G01X132336Y52144D01*
G01X132313Y52060D01*
G01X132291Y51978D01*
G01X132269Y51897D01*
G01X132248Y51819D01*
G01X132227Y51742D01*
G01X132208Y51668D01*
G01X132189Y51597D01*
G01X132171Y51528D01*
G01X132155Y51463D01*
G01X132139Y51401D01*
G01X132125Y51343D01*
G01X132112Y51288D01*
G01X132100Y51238D01*
G01X132090Y51192D01*
G01X132081Y51151D01*
G01X132073Y51114D01*
G01X132067Y51082D01*
G01X132063Y51056D01*
G01X132060Y51035D01*
G01X132059Y51020D01*
G01X132064Y51012D01*
G01X132080Y51004D01*
G01X132104Y50997D01*
G01X132138Y50989D01*
G01X132180Y50982D01*
G01X132230Y50976D01*
G01X132288Y50970D01*
G01X132353Y50964D01*
G01X132424Y50959D01*
G01X132501Y50954D01*
G01X132583Y50951D01*
G01X132671Y50947D01*
G01X132762Y50945D01*
G01X132858Y50943D01*
G01X132957Y50942D01*
G01X133059Y50941D01*
G01X133189Y50942D01*
G01X133310Y50943D01*
G01X133421Y50945D01*
G01X133521Y50949D01*
G01X133612Y50953D01*
G01X133694Y50959D01*
G01X133767Y50965D01*
G01X133831Y50973D01*
G01X133887Y50982D01*
G01X133934Y50992D01*
G01X133974Y51003D01*
G01X134005Y51016D01*
G01X134030Y51030D01*
G01X134047Y51045D01*
G01X134057Y51062D01*
G01X134061Y51080D01*
G01X134062Y51113D01*
G01X134066Y51154D01*
G01X134073Y51200D01*
G01X134081Y51252D01*
G01X134091Y51305D01*
G01X134103Y51361D01*
G01X134116Y51416D01*
G01X134129Y51469D01*
G01X134142Y51523D01*
G01X134151Y51568D01*
G01X134153Y51606D01*
G01X134147Y51637D01*
G01X134133Y51662D01*
G01X134108Y51681D01*
G01X134073Y51696D01*
G01X134025Y51706D01*
G01X133963Y51713D01*
G01X133886Y51716D01*
G01X133793Y51718D01*
G01X133683Y51719D01*
G01X133592Y51719D01*
G01X133512Y51722D01*
G01X133440Y51726D01*
G01X133379Y51732D01*
G01X133327Y51741D01*
G01X133283Y51753D01*
G01X133248Y51767D01*
G01X133220Y51786D01*
G01X133201Y51807D01*
G01X133188Y51834D01*
G01X133181Y51865D01*
G01X133182Y51900D01*
G01X133188Y51941D01*
G01X133199Y51988D01*
G01X133216Y52040D01*
G01X133238Y52099D01*
G01X133252Y52128D01*
G01X133271Y52154D01*
G01X133296Y52178D01*
G01X133326Y52199D01*
G01X133362Y52217D01*
G01X133404Y52233D01*
G01X133452Y52246D01*
G01X133506Y52256D01*
G01X133566Y52265D01*
G01X133634Y52270D01*
G01X133708Y52273D01*
G01X133789Y52275D01*
G01X133876Y52276D01*
G01X133955Y52279D01*
G01X134025Y52285D01*
G01X134088Y52294D01*
G01X134144Y52306D01*
G01X134193Y52321D01*
G01X134237Y52340D01*
G01X134276Y52362D01*
G01X134310Y52388D01*
G01X134339Y52417D01*
G01X134366Y52451D01*
G01X134388Y52490D01*
G01X134421Y52553D01*
G01X134449Y52612D01*
G01X134472Y52666D01*
G01X134489Y52716D01*
G01X134502Y52762D01*
G01X134509Y52804D01*
G01X134511Y52842D01*
G01X134507Y52876D01*
G01X134498Y52907D01*
G01X134483Y52935D01*
G01X134463Y52959D01*
G01X134437Y52980D01*
G01X134404Y52998D01*
G01X134366Y53013D01*
G01X134321Y53026D01*
G01X134271Y53036D01*
G01X134214Y53043D01*
G01X134150Y53048D01*
G01X134080Y53051D01*
G01X134003Y53052D01*
G01X133903Y53053D01*
G01X133809Y53056D01*
G01X133724Y53061D01*
G01X133650Y53067D01*
G01X133589Y53074D01*
G01X133543Y53082D01*
G01X133514Y53091D01*
G01X133503Y53101D01*
G01X133512Y53141D01*
G01X133534Y53217D01*
G01X133568Y53316D01*
G01X133610Y53428D01*
G01X133632Y53483D01*
G01X133656Y53531D01*
G01X133683Y53572D01*
G01X133714Y53607D01*
G01X133750Y53637D01*
G01X133792Y53662D01*
G01X133842Y53682D01*
G01X133900Y53699D01*
G01X133968Y53712D01*
G01X134046Y53724D01*
G01X134137Y53733D01*
G01X134241Y53740D01*
G01X134350Y53748D01*
G01X134443Y53757D01*
G01X134522Y53768D01*
G01X134590Y53781D01*
G01X134646Y53799D01*
G01X134692Y53820D01*
G01X134731Y53846D01*
G01X134762Y53878D01*
G01X134788Y53917D01*
G01X134810Y53963D01*
G01X134829Y54017D01*
G01X134848Y54080D01*
G01X134929Y54385D01*
G37*

%LPD*%
G36*
G01X132262Y54385D02*
G01X130680Y54385D01*
G01X130574Y54384D01*
G01X130476Y54382D01*
G01X130388Y54380D01*
G01X130309Y54377D01*
G01X130237Y54374D01*
G01X130173Y54370D01*
G01X130116Y54365D01*
G01X130066Y54358D01*
G01X130022Y54350D01*
G01X129983Y54342D01*
G01X129950Y54332D01*
G01X129922Y54320D01*
G01X129897Y54307D01*
G01X129876Y54293D01*
G01X129859Y54276D01*
G01X129844Y54257D01*
G01X129832Y54237D01*
G01X129821Y54215D01*
G01X129812Y54191D01*
G01X129804Y54164D01*
G01X129796Y54136D01*
G01X129772Y54045D01*
G01X129754Y53968D01*
G01X129743Y53905D01*
G01X129739Y53853D01*
G01X129743Y53812D01*
G01X129755Y53780D01*
G01X129778Y53757D01*
G01X129810Y53740D01*
G01X129854Y53729D01*
G01X129909Y53723D01*
G01X129977Y53719D01*
G01X130059Y53719D01*
G01X130188Y53715D01*
G01X130294Y53703D01*
G01X130366Y53686D01*
G01X130392Y53665D01*
G01X130391Y53657D01*
G01X130388Y53640D01*
G01X130383Y53617D01*
G01X130375Y53585D01*
G01X130366Y53548D01*
G01X130355Y53503D01*
G01X130342Y53453D01*
G01X130328Y53396D01*
G01X130312Y53334D01*
G01X130294Y53267D01*
G01X130276Y53195D01*
G01X130256Y53119D01*
G01X130234Y53038D01*
G01X130212Y52954D01*
G01X130188Y52866D01*
G01X130164Y52775D01*
G01X130139Y52681D01*
G01X130113Y52585D01*
G01X130086Y52486D01*
G01X130059Y52385D01*
G01X130032Y52285D01*
G01X130005Y52186D01*
G01X129979Y52089D01*
G01X129954Y51994D01*
G01X129930Y51901D01*
G01X129906Y51811D01*
G01X129884Y51725D01*
G01X129863Y51642D01*
G01X129842Y51563D01*
G01X129823Y51488D01*
G01X129806Y51418D01*
G01X129790Y51352D01*
G01X129776Y51292D01*
G01X129763Y51238D01*
G01X129752Y51190D01*
G01X129743Y51147D01*
G01X129736Y51112D01*
G01X129730Y51084D01*
G01X129727Y51064D01*
G01X129725Y51050D01*
G01X129735Y51029D01*
G01X129759Y51008D01*
G01X129799Y50989D01*
G01X129851Y50973D01*
G01X129914Y50960D01*
G01X129987Y50950D01*
G01X130067Y50943D01*
G01X130153Y50941D01*
G01X130580Y50941D01*
G01X130892Y52136D01*
G01X130914Y52217D01*
G01X130935Y52299D01*
G01X130979Y52457D01*
G01X131001Y52535D01*
G01X131022Y52611D01*
G01X131043Y52684D01*
G01X131064Y52756D01*
G01X131085Y52826D01*
G01X131105Y52893D01*
G01X131125Y52958D01*
G01X131144Y53020D01*
G01X131163Y53079D01*
G01X131181Y53135D01*
G01X131199Y53187D01*
G01X131215Y53235D01*
G01X131231Y53281D01*
G01X131260Y53358D01*
G01X131272Y53390D01*
G01X131284Y53417D01*
G01X131295Y53440D01*
G01X131304Y53457D01*
G01X131312Y53470D01*
G01X131341Y53499D01*
G01X131381Y53531D01*
G01X131431Y53563D01*
G01X131489Y53594D01*
G01X131552Y53624D01*
G01X131620Y53652D01*
G01X131690Y53676D01*
G01X131761Y53697D01*
G01X131818Y53714D01*
G01X131871Y53733D01*
G01X131919Y53754D01*
G01X131964Y53778D01*
G01X132004Y53805D01*
G01X132040Y53835D01*
G01X132072Y53868D01*
G01X132101Y53905D01*
G01X132126Y53945D01*
G01X132148Y53988D01*
G01X132166Y54034D01*
G01X132182Y54085D01*
G01X132262Y54385D01*
G37*

%LPD*%
G36*
G01X128175Y54385D02*
G01X128099Y54385D01*
G01X128033Y54384D01*
G01X127975Y54381D01*
G01X127924Y54376D01*
G01X127880Y54368D01*
G01X127841Y54356D01*
G01X127807Y54341D01*
G01X127778Y54320D01*
G01X127752Y54295D01*
G01X127729Y54263D01*
G01X127708Y54224D01*
G01X127688Y54179D01*
G01X127670Y54126D01*
G01X127650Y54064D01*
G01X127630Y53994D01*
G01X127609Y53914D01*
G01X127601Y53884D01*
G01X127592Y53851D01*
G01X127582Y53814D01*
G01X127572Y53774D01*
G01X127560Y53731D01*
G01X127548Y53684D01*
G01X127535Y53636D01*
G01X127521Y53584D01*
G01X127506Y53530D01*
G01X127491Y53474D01*
G01X127475Y53415D01*
G01X127459Y53355D01*
G01X127442Y53293D01*
G01X127425Y53229D01*
G01X127408Y53163D01*
G01X127390Y53096D01*
G01X127371Y53028D01*
G01X127353Y52959D01*
G01X127334Y52889D01*
G01X127296Y52747D01*
G01X127276Y52675D01*
G01X127257Y52603D01*
G01X127237Y52531D01*
G01X127199Y52387D01*
G01X127160Y52245D01*
G01X127134Y52147D01*
G01X127108Y52051D01*
G01X127083Y51957D01*
G01X127058Y51865D01*
G01X127035Y51776D01*
G01X127012Y51691D01*
G01X126990Y51608D01*
G01X126970Y51529D01*
G01X126950Y51454D01*
G01X126932Y51384D01*
G01X126915Y51319D01*
G01X126899Y51258D01*
G01X126885Y51203D01*
G01X126873Y51154D01*
G01X126862Y51110D01*
G01X126853Y51073D01*
G01X126846Y51043D01*
G01X126841Y51019D01*
G01X126838Y51003D01*
G01X126837Y50995D01*
G01X126842Y50989D01*
G01X126857Y50984D01*
G01X126881Y50979D01*
G01X126915Y50974D01*
G01X126956Y50969D01*
G01X127006Y50965D01*
G01X127063Y50961D01*
G01X127127Y50957D01*
G01X127197Y50953D01*
G01X127273Y50950D01*
G01X127354Y50948D01*
G01X127440Y50945D01*
G01X127531Y50944D01*
G01X127625Y50942D01*
G01X127723Y50941D01*
G01X127957Y50941D01*
G01X128077Y50942D01*
G01X128187Y50943D01*
G01X128284Y50945D01*
G01X128372Y50947D01*
G01X128449Y50951D01*
G01X128518Y50955D01*
G01X128578Y50962D01*
G01X128631Y50969D01*
G01X128676Y50978D01*
G01X128715Y50989D01*
G01X128748Y51002D01*
G01X128775Y51016D01*
G01X128798Y51033D01*
G01X128817Y51053D01*
G01X128833Y51075D01*
G01X128847Y51099D01*
G01X128858Y51127D01*
G01X128868Y51158D01*
G01X128878Y51191D01*
G01X128900Y51276D01*
G01X128918Y51352D01*
G01X128930Y51418D01*
G01X128938Y51476D01*
G01X128940Y51526D01*
G01X128935Y51569D01*
G01X128924Y51605D01*
G01X128906Y51635D01*
G01X128880Y51659D01*
G01X128846Y51678D01*
G01X128803Y51693D01*
G01X128752Y51704D01*
G01X128691Y51711D01*
G01X128621Y51716D01*
G01X128540Y51718D01*
G01X128448Y51719D01*
G01X128347Y51720D01*
G01X128254Y51723D01*
G01X128169Y51728D01*
G01X128095Y51735D01*
G01X128034Y51743D01*
G01X127988Y51752D01*
G01X127958Y51762D01*
G01X127948Y51773D01*
G01X127949Y51781D01*
G01X127953Y51798D01*
G01X127958Y51821D01*
G01X127965Y51853D01*
G01X127974Y51890D01*
G01X127985Y51935D01*
G01X127998Y51985D01*
G01X128012Y52042D01*
G01X128028Y52104D01*
G01X128046Y52171D01*
G01X128065Y52243D01*
G01X128085Y52319D01*
G01X128106Y52400D01*
G01X128128Y52484D01*
G01X128152Y52572D01*
G01X128176Y52663D01*
G01X128201Y52757D01*
G01X128227Y52853D01*
G01X128254Y52952D01*
G01X128281Y53052D01*
G01X128309Y53153D01*
G01X128335Y53251D01*
G01X128361Y53348D01*
G01X128386Y53442D01*
G01X128411Y53533D01*
G01X128434Y53620D01*
G01X128456Y53705D01*
G01X128478Y53786D01*
G01X128498Y53862D01*
G01X128516Y53934D01*
G01X128534Y54001D01*
G01X128550Y54063D01*
G01X128565Y54119D01*
G01X128577Y54170D01*
G01X128588Y54214D01*
G01X128598Y54252D01*
G01X128605Y54283D01*
G01X128610Y54307D01*
G01X128613Y54323D01*
G01X128614Y54332D01*
G01X128606Y54343D01*
G01X128580Y54353D01*
G01X128539Y54362D01*
G01X128485Y54370D01*
G01X128420Y54376D01*
G01X128345Y54381D01*
G01X128263Y54384D01*
G01X128175Y54385D01*
G37*

%LPD*%
G36*
G01X127040Y54385D02*
G01X126008Y54385D01*
G01X125904Y54383D01*
G01X125805Y54381D01*
G01X125712Y54377D01*
G01X125626Y54372D01*
G01X125546Y54366D01*
G01X125471Y54359D01*
G01X125403Y54350D01*
G01X125342Y54341D01*
G01X125287Y54331D01*
G01X125237Y54319D01*
G01X125195Y54307D01*
G01X125159Y54294D01*
G01X125129Y54279D01*
G01X125105Y54264D01*
G01X125088Y54247D01*
G01X125082Y54237D01*
G01X125075Y54221D01*
G01X125066Y54200D01*
G01X125055Y54173D01*
G01X125043Y54141D01*
G01X125030Y54103D01*
G01X125016Y54061D01*
G01X125000Y54014D01*
G01X124983Y53963D01*
G01X124965Y53908D01*
G01X124947Y53849D01*
G01X124927Y53787D01*
G01X124907Y53721D01*
G01X124886Y53651D01*
G01X124864Y53579D01*
G01X124841Y53504D01*
G01X124818Y53427D01*
G01X124794Y53347D01*
G01X124770Y53266D01*
G01X124746Y53183D01*
G01X124721Y53098D01*
G01X124696Y53012D01*
G01X124671Y52924D01*
G01X124646Y52837D01*
G01X124595Y52660D01*
G01X124545Y52482D01*
G01X124520Y52394D01*
G01X124496Y52306D01*
G01X124472Y52219D01*
G01X124448Y52133D01*
G01X124425Y52049D01*
G01X124403Y51966D01*
G01X124381Y51885D01*
G01X124359Y51805D01*
G01X124339Y51729D01*
G01X124320Y51654D01*
G01X124301Y51582D01*
G01X124283Y51514D01*
G01X124266Y51448D01*
G01X124251Y51386D01*
G01X124236Y51328D01*
G01X124223Y51273D01*
G01X124211Y51223D01*
G01X124201Y51177D01*
G01X124192Y51135D01*
G01X124184Y51099D01*
G01X124178Y51068D01*
G01X124173Y51041D01*
G01X124171Y51021D01*
G01X124170Y51006D01*
G01X124176Y51000D01*
G01X124191Y50993D01*
G01X124215Y50987D01*
G01X124249Y50981D01*
G01X124291Y50975D01*
G01X124342Y50970D01*
G01X124399Y50965D01*
G01X124464Y50961D01*
G01X124535Y50956D01*
G01X124612Y50952D01*
G01X124695Y50949D01*
G01X124782Y50946D01*
G01X124874Y50944D01*
G01X124969Y50943D01*
G01X125068Y50942D01*
G01X125170Y50941D01*
G01X125301Y50942D01*
G01X125421Y50943D01*
G01X125532Y50945D01*
G01X125632Y50949D01*
G01X125723Y50953D01*
G01X125805Y50959D01*
G01X125878Y50965D01*
G01X125942Y50973D01*
G01X125998Y50982D01*
G01X126045Y50992D01*
G01X126085Y51003D01*
G01X126117Y51016D01*
G01X126141Y51030D01*
G01X126158Y51045D01*
G01X126168Y51062D01*
G01X126171Y51080D01*
G01X126173Y51113D01*
G01X126178Y51154D01*
G01X126184Y51200D01*
G01X126192Y51252D01*
G01X126202Y51305D01*
G01X126214Y51361D01*
G01X126227Y51416D01*
G01X126240Y51469D01*
G01X126254Y51523D01*
G01X126262Y51568D01*
G01X126264Y51606D01*
G01X126258Y51637D01*
G01X126244Y51662D01*
G01X126220Y51681D01*
G01X126184Y51696D01*
G01X126136Y51706D01*
G01X126074Y51713D01*
G01X125997Y51716D01*
G01X125904Y51718D01*
G01X125794Y51719D01*
G01X125703Y51719D01*
G01X125623Y51722D01*
G01X125552Y51726D01*
G01X125490Y51732D01*
G01X125438Y51741D01*
G01X125394Y51753D01*
G01X125359Y51767D01*
G01X125332Y51786D01*
G01X125312Y51807D01*
G01X125299Y51834D01*
G01X125293Y51865D01*
G01X125293Y51900D01*
G01X125299Y51941D01*
G01X125310Y51988D01*
G01X125327Y52040D01*
G01X125349Y52099D01*
G01X125363Y52128D01*
G01X125383Y52154D01*
G01X125407Y52178D01*
G01X125437Y52199D01*
G01X125473Y52217D01*
G01X125515Y52233D01*
G01X125563Y52246D01*
G01X125617Y52256D01*
G01X125678Y52265D01*
G01X125745Y52270D01*
G01X125819Y52273D01*
G01X125900Y52275D01*
G01X125987Y52276D01*
G01X126065Y52279D01*
G01X126136Y52285D01*
G01X126198Y52294D01*
G01X126255Y52306D01*
G01X126304Y52321D01*
G01X126348Y52340D01*
G01X126387Y52362D01*
G01X126421Y52388D01*
G01X126450Y52417D01*
G01X126476Y52451D01*
G01X126500Y52490D01*
G01X126532Y52553D01*
G01X126560Y52612D01*
G01X126583Y52666D01*
G01X126601Y52716D01*
G01X126613Y52762D01*
G01X126620Y52804D01*
G01X126622Y52842D01*
G01X126619Y52876D01*
G01X126609Y52907D01*
G01X126595Y52935D01*
G01X126574Y52959D01*
G01X126548Y52980D01*
G01X126515Y52998D01*
G01X126477Y53013D01*
G01X126433Y53026D01*
G01X126382Y53036D01*
G01X126325Y53043D01*
G01X126261Y53048D01*
G01X126191Y53051D01*
G01X126115Y53052D01*
G01X126014Y53053D01*
G01X125921Y53056D01*
G01X125836Y53061D01*
G01X125762Y53067D01*
G01X125700Y53074D01*
G01X125654Y53082D01*
G01X125625Y53091D01*
G01X125615Y53101D01*
G01X125623Y53141D01*
G01X125646Y53217D01*
G01X125679Y53316D01*
G01X125720Y53428D01*
G01X125743Y53483D01*
G01X125768Y53531D01*
G01X125795Y53572D01*
G01X125826Y53607D01*
G01X125862Y53637D01*
G01X125904Y53662D01*
G01X125953Y53682D01*
G01X126011Y53699D01*
G01X126079Y53712D01*
G01X126157Y53724D01*
G01X126248Y53733D01*
G01X126352Y53740D01*
G01X126461Y53748D01*
G01X126554Y53757D01*
G01X126634Y53768D01*
G01X126701Y53781D01*
G01X126757Y53799D01*
G01X126803Y53820D01*
G01X126842Y53846D01*
G01X126873Y53878D01*
G01X126899Y53917D01*
G01X126921Y53963D01*
G01X126941Y54017D01*
G01X126959Y54080D01*
G01X127040Y54385D01*
G37*

%LPD*%
G36*
G01X137448Y54483D02*
G01X137379Y54483D01*
G01X137310Y54482D01*
G01X137240Y54479D01*
G01X137100Y54467D01*
G01X137030Y54458D01*
G01X136892Y54434D01*
G01X136824Y54419D01*
G01X136757Y54402D01*
G01X136691Y54384D01*
G01X136638Y54367D01*
G01X136585Y54348D01*
G01X136534Y54328D01*
G01X136482Y54306D01*
G01X136431Y54282D01*
G01X136381Y54257D01*
G01X136330Y54231D01*
G01X136281Y54202D01*
G01X136232Y54172D01*
G01X136185Y54141D01*
G01X136137Y54109D01*
G01X136091Y54075D01*
G01X136044Y54039D01*
G01X135999Y54002D01*
G01X135955Y53964D01*
G01X135911Y53925D01*
G01X135869Y53885D01*
G01X135827Y53843D01*
G01X135786Y53801D01*
G01X135746Y53758D01*
G01X135707Y53713D01*
G01X135631Y53621D01*
G01X135595Y53573D01*
G01X135561Y53525D01*
G01X135527Y53476D01*
G01X135494Y53426D01*
G01X135463Y53376D01*
G01X135432Y53324D01*
G01X135403Y53272D01*
G01X135375Y53220D01*
G01X135349Y53167D01*
G01X135324Y53113D01*
G01X135300Y53059D01*
G01X135277Y53004D01*
G01X135257Y52949D01*
G01X135237Y52893D01*
G01X135218Y52838D01*
G01X135202Y52782D01*
G01X135187Y52725D01*
G01X135173Y52669D01*
G01X135161Y52612D01*
G01X135151Y52555D01*
G01X135142Y52498D01*
G01X135135Y52441D01*
G01X135125Y52327D01*
G01X135124Y52270D01*
G01X135124Y52206D01*
G01X135126Y52143D01*
G01X135130Y52082D01*
G01X135137Y52022D01*
G01X135145Y51962D01*
G01X135156Y51904D01*
G01X135169Y51848D01*
G01X135184Y51793D01*
G01X135201Y51738D01*
G01X135220Y51685D01*
G01X135241Y51634D01*
G01X135263Y51584D01*
G01X135288Y51536D01*
G01X135314Y51489D01*
G01X135342Y51443D01*
G01X135372Y51399D01*
G01X135404Y51356D01*
G01X135438Y51315D01*
G01X135473Y51276D01*
G01X135510Y51238D01*
G01X135548Y51202D01*
G01X135588Y51167D01*
G01X135629Y51134D01*
G01X135673Y51103D01*
G01X135717Y51074D01*
G01X135763Y51046D01*
G01X135810Y51020D01*
G01X135859Y50997D01*
G01X135909Y50974D01*
G01X135961Y50954D01*
G01X136013Y50936D01*
G01X136067Y50919D01*
G01X136123Y50905D01*
G01X136179Y50892D01*
G01X136236Y50882D01*
G01X136295Y50873D01*
G01X136355Y50867D01*
G01X136415Y50863D01*
G01X136477Y50860D01*
G01X136540Y50860D01*
G01X136604Y50863D01*
G01X136669Y50867D01*
G01X136734Y50874D01*
G01X136800Y50883D01*
G01X136876Y50895D01*
G01X136946Y50908D01*
G01X137010Y50923D01*
G01X137069Y50940D01*
G01X137123Y50959D01*
G01X137172Y50981D01*
G01X137217Y51006D01*
G01X137259Y51034D01*
G01X137297Y51065D01*
G01X137331Y51101D01*
G01X137363Y51141D01*
G01X137392Y51186D01*
G01X137418Y51236D01*
G01X137442Y51292D01*
G01X137465Y51353D01*
G01X137487Y51421D01*
G01X137507Y51495D01*
G01X137526Y51576D01*
G01X137545Y51665D01*
G01X137564Y51761D01*
G01X137644Y52188D01*
G01X137359Y52001D01*
G01X137307Y51969D01*
G01X137253Y51941D01*
G01X137199Y51916D01*
G01X137143Y51895D01*
G01X137086Y51877D01*
G01X137029Y51864D01*
G01X136973Y51853D01*
G01X136916Y51846D01*
G01X136859Y51842D01*
G01X136802Y51842D01*
G01X136746Y51845D01*
G01X136692Y51852D01*
G01X136638Y51861D01*
G01X136585Y51874D01*
G01X136534Y51891D01*
G01X136485Y51910D01*
G01X136438Y51932D01*
G01X136393Y51958D01*
G01X136350Y51987D01*
G01X136310Y52019D01*
G01X136273Y52054D01*
G01X136240Y52091D01*
G01X136209Y52132D01*
G01X136182Y52176D01*
G01X136160Y52218D01*
G01X136141Y52261D01*
G01X136126Y52304D01*
G01X136115Y52347D01*
G01X136105Y52391D01*
G01X136099Y52434D01*
G01X136096Y52478D01*
G01X136096Y52523D01*
G01X136098Y52567D01*
G01X136103Y52611D01*
G01X136111Y52655D01*
G01X136121Y52698D01*
G01X136133Y52742D01*
G01X136148Y52785D01*
G01X136165Y52828D01*
G01X136205Y52912D01*
G01X136229Y52953D01*
G01X136254Y52994D01*
G01X136281Y53034D01*
G01X136309Y53073D01*
G01X136339Y53111D01*
G01X136371Y53148D01*
G01X136404Y53185D01*
G01X136439Y53220D01*
G01X136475Y53254D01*
G01X136512Y53287D01*
G01X136550Y53319D01*
G01X136590Y53349D01*
G01X136630Y53378D01*
G01X136671Y53406D01*
G01X136712Y53431D01*
G01X136755Y53456D01*
G01X136799Y53479D01*
G01X136843Y53500D01*
G01X136887Y53519D01*
G01X136931Y53537D01*
G01X136977Y53552D01*
G01X137022Y53566D01*
G01X137067Y53577D01*
G01X137112Y53586D01*
G01X137157Y53594D01*
G01X137203Y53598D01*
G01X137248Y53601D01*
G01X137293Y53601D01*
G01X137337Y53599D01*
G01X137381Y53594D01*
G01X137425Y53586D01*
G01X137467Y53577D01*
G01X137510Y53564D01*
G01X137551Y53548D01*
G01X137591Y53529D01*
G01X137630Y53508D01*
G01X137669Y53484D01*
G01X137706Y53456D01*
G01X137742Y53426D01*
G01X137799Y53377D01*
G01X137845Y53342D01*
G01X137883Y53319D01*
G01X137914Y53310D01*
G01X137939Y53313D01*
G01X137959Y53329D01*
G01X137976Y53357D01*
G01X137992Y53398D01*
G01X138003Y53437D01*
G01X138019Y53487D01*
G01X138038Y53547D01*
G01X138060Y53614D01*
G01X138083Y53687D01*
G01X138107Y53764D01*
G01X138132Y53841D01*
G01X138156Y53918D01*
G01X138181Y53996D01*
G01X138199Y54063D01*
G01X138213Y54120D01*
G01X138219Y54169D01*
G01X138219Y54209D01*
G01X138212Y54244D01*
G01X138197Y54273D01*
G01X138173Y54299D01*
G01X138142Y54322D01*
G01X138102Y54344D01*
G01X138052Y54367D01*
G01X137992Y54390D01*
G01X137940Y54408D01*
G01X137886Y54424D01*
G01X137830Y54438D01*
G01X137771Y54450D01*
G01X137709Y54461D01*
G01X137646Y54469D01*
G01X137581Y54475D01*
G01X137515Y54480D01*
G01X137448Y54483D01*
G37*

%LPD*%
G36*
G01X134386Y50249D02*
G01X134334Y50251D01*
G01X134281Y50250D01*
G01X134228Y50244D01*
G01X134175Y50235D01*
G01X134122Y50221D01*
G01X134070Y50203D01*
G01X134020Y50181D01*
G01X133970Y50155D01*
G01X133924Y50125D01*
G01X133879Y50091D01*
G01X133837Y50052D01*
G01X133784Y49994D01*
G01X133739Y49932D01*
G01X133701Y49867D01*
G01X133672Y49800D01*
G01X133650Y49731D01*
G01X133637Y49661D01*
G01X133632Y49589D01*
G01X133636Y49518D01*
G01X133644Y49455D01*
G01X133654Y49403D01*
G01X133668Y49358D01*
G01X133685Y49321D01*
G01X133708Y49291D01*
G01X133737Y49268D01*
G01X133774Y49250D01*
G01X133819Y49237D01*
G01X133875Y49228D01*
G01X133942Y49223D01*
G01X134021Y49220D01*
G01X134113Y49219D01*
G01X134202Y49220D01*
G01X134280Y49224D01*
G01X134348Y49231D01*
G01X134408Y49241D01*
G01X134459Y49257D01*
G01X134505Y49277D01*
G01X134545Y49303D01*
G01X134581Y49335D01*
G01X134615Y49376D01*
G01X134647Y49423D01*
G01X134679Y49479D01*
G01X134711Y49544D01*
G01X134748Y49624D01*
G01X134775Y49699D01*
G01X134793Y49768D01*
G01X134803Y49832D01*
G01X134804Y49891D01*
G01X134797Y49946D01*
G01X134782Y49996D01*
G01X134758Y50044D01*
G01X134730Y50083D01*
G01X134697Y50118D01*
G01X134661Y50148D01*
G01X134622Y50175D01*
G01X134579Y50198D01*
G01X134534Y50217D01*
G01X134486Y50232D01*
G01X134437Y50242D01*
G01X134386Y50249D01*
G37*

%LPC*%
G36*
G01X134334Y50042D02*
G01X134291Y50046D01*
G01X134244Y50036D01*
G01X134194Y50012D01*
G01X134139Y49972D01*
G01X134081Y49919D01*
G01X134039Y49869D01*
G01X134005Y49815D01*
G01X133980Y49757D01*
G01X133963Y49698D01*
G01X133954Y49639D01*
G01X133952Y49582D01*
G01X133960Y49530D01*
G01X133974Y49483D01*
G01X133997Y49443D01*
G01X134027Y49412D01*
G01X134065Y49392D01*
G01X134110Y49386D01*
G01X134159Y49394D01*
G01X134209Y49416D01*
G01X134258Y49451D01*
G01X134305Y49495D01*
G01X134348Y49548D01*
G01X134387Y49606D01*
G01X134420Y49667D01*
G01X134445Y49729D01*
G01X134462Y49790D01*
G01X134469Y49848D01*
G01X134464Y49899D01*
G01X134446Y49944D01*
G01X134412Y49991D01*
G01X134374Y50024D01*
G01X134334Y50042D01*
G37*

%LPD*%
G36*
G01X131391Y50274D02*
G01X131364Y50276D01*
G01X131334Y50272D01*
G01X131302Y50264D01*
G01X131268Y50250D01*
G01X131232Y50232D01*
G01X131194Y50209D01*
G01X131155Y50181D01*
G01X131114Y50149D01*
G01X131073Y50112D01*
G01X131030Y50071D01*
G01X130986Y50025D01*
G01X130942Y49975D01*
G01X130898Y49920D01*
G01X130853Y49862D01*
G01X130808Y49799D01*
G01X130763Y49733D01*
G01X130411Y49194D01*
G01X131022Y49203D01*
G01X131632Y49212D01*
G01X131568Y49535D01*
G01X131555Y49604D01*
G01X131543Y49677D01*
G01X131532Y49751D01*
G01X131522Y49824D01*
G01X131515Y49895D01*
G01X131509Y49960D01*
G01X131505Y50018D01*
G01X131503Y50066D01*
G01X131501Y50112D01*
G01X131496Y50151D01*
G01X131486Y50185D01*
G01X131473Y50214D01*
G01X131457Y50237D01*
G01X131438Y50254D01*
G01X131416Y50267D01*
G01X131391Y50274D01*
G37*

%LPC*%
G36*
G01X131133Y49821D02*
G01X131108Y49830D01*
G01X131089Y49821D01*
G01X131073Y49797D01*
G01X131063Y49762D01*
G01X131059Y49719D01*
G01X131068Y49676D01*
G01X131093Y49641D01*
G01X131131Y49617D01*
G01X131177Y49608D01*
G01X131217Y49617D01*
G01X131240Y49641D01*
G01X131243Y49676D01*
G01X131226Y49719D01*
G01X131195Y49762D01*
G01X131163Y49797D01*
G01X131133Y49821D01*
G37*

%LPD*%
G36*
G01X124725Y50274D02*
G01X124697Y50276D01*
G01X124667Y50272D01*
G01X124635Y50264D01*
G01X124601Y50250D01*
G01X124565Y50232D01*
G01X124528Y50209D01*
G01X124488Y50181D01*
G01X124448Y50149D01*
G01X124406Y50112D01*
G01X124363Y50071D01*
G01X124320Y50025D01*
G01X124276Y49975D01*
G01X124231Y49920D01*
G01X124186Y49862D01*
G01X124141Y49799D01*
G01X124096Y49733D01*
G01X123744Y49194D01*
G01X124966Y49212D01*
G01X124901Y49535D01*
G01X124888Y49604D01*
G01X124876Y49677D01*
G01X124865Y49751D01*
G01X124856Y49824D01*
G01X124848Y49895D01*
G01X124842Y49960D01*
G01X124838Y50018D01*
G01X124837Y50066D01*
G01X124835Y50112D01*
G01X124829Y50151D01*
G01X124820Y50185D01*
G01X124807Y50214D01*
G01X124791Y50237D01*
G01X124771Y50254D01*
G01X124750Y50267D01*
G01X124725Y50274D01*
G37*

%LPD*%
G36*
G01X127181Y50275D02*
G01X127108Y50275D01*
G01X127036Y50274D01*
G01X126968Y50270D01*
G01X126903Y50264D01*
G01X126845Y50256D01*
G01X126792Y50246D01*
G01X126748Y50233D01*
G01X126713Y50218D01*
G01X126689Y50201D01*
G01X126649Y50153D01*
G01X126625Y50106D01*
G01X126616Y50062D01*
G01X126622Y50023D01*
G01X126642Y49990D01*
G01X126675Y49964D01*
G01X126722Y49947D01*
G01X126781Y49941D01*
G01X126863Y49941D01*
G01X126892Y49939D01*
G01X126914Y49933D01*
G01X126928Y49921D01*
G01X126935Y49900D01*
G01X126935Y49871D01*
G01X126929Y49830D01*
G01X126916Y49776D01*
G01X126897Y49707D01*
G01X126873Y49621D01*
G01X126843Y49517D01*
G01X126814Y49411D01*
G01X126794Y49327D01*
G01X126786Y49265D01*
G01X126789Y49221D01*
G01X126803Y49193D01*
G01X126830Y49179D01*
G01X126869Y49177D01*
G01X126922Y49185D01*
G01X126961Y49199D01*
G01X127002Y49226D01*
G01X127042Y49265D01*
G01X127082Y49313D01*
G01X127119Y49369D01*
G01X127153Y49432D01*
G01X127183Y49500D01*
G01X127207Y49571D01*
G01X127232Y49643D01*
G01X127263Y49712D01*
G01X127299Y49777D01*
G01X127340Y49835D01*
G01X127383Y49887D01*
G01X127428Y49928D01*
G01X127472Y49959D01*
G01X127517Y49977D01*
G01X127598Y50008D01*
G01X127664Y50051D01*
G01X127709Y50102D01*
G01X127725Y50153D01*
G01X127719Y50172D01*
G01X127700Y50189D01*
G01X127670Y50206D01*
G01X127630Y50220D01*
G01X127581Y50233D01*
G01X127525Y50245D01*
G01X127463Y50254D01*
G01X127397Y50262D01*
G01X127327Y50268D01*
G01X127254Y50273D01*
G01X127181Y50275D01*
G37*

%LPD*%
G36*
G01X128488Y50280D02*
G01X128446Y50282D01*
G01X128403Y50281D01*
G01X128358Y50276D01*
G01X128313Y50268D01*
G01X128267Y50254D01*
G01X128221Y50238D01*
G01X128174Y50217D01*
G01X128127Y50191D01*
G01X128081Y50161D01*
G01X128033Y50127D01*
G01X127987Y50089D01*
G01X127941Y50046D01*
G01X127901Y50001D01*
G01X127866Y49955D01*
G01X127835Y49905D01*
G01X127809Y49853D01*
G01X127787Y49800D01*
G01X127770Y49746D01*
G01X127757Y49691D01*
G01X127749Y49636D01*
G01X127745Y49582D01*
G01X127745Y49530D01*
G01X127750Y49479D01*
G01X127759Y49429D01*
G01X127773Y49383D01*
G01X127790Y49341D01*
G01X127812Y49301D01*
G01X127838Y49267D01*
G01X127869Y49237D01*
G01X127903Y49213D01*
G01X127942Y49194D01*
G01X127985Y49183D01*
G01X128057Y49171D01*
G01X128127Y49165D01*
G01X128196Y49165D01*
G01X128262Y49170D01*
G01X128326Y49179D01*
G01X128388Y49194D01*
G01X128447Y49214D01*
G01X128503Y49238D01*
G01X128556Y49267D01*
G01X128605Y49300D01*
G01X128650Y49338D01*
G01X128692Y49380D01*
G01X128729Y49426D01*
G01X128762Y49476D01*
G01X128790Y49530D01*
G01X128813Y49588D01*
G01X128831Y49646D01*
G01X128845Y49702D01*
G01X128854Y49756D01*
G01X128858Y49807D01*
G01X128859Y49857D01*
G01X128856Y49904D01*
G01X128848Y49950D01*
G01X128837Y49992D01*
G01X128823Y50032D01*
G01X128806Y50070D01*
G01X128785Y50105D01*
G01X128762Y50137D01*
G01X128735Y50166D01*
G01X128706Y50191D01*
G01X128675Y50214D01*
G01X128641Y50234D01*
G01X128606Y50251D01*
G01X128568Y50264D01*
G01X128529Y50274D01*
G01X128488Y50280D01*
G37*

%LPC*%
G36*
G01X128390Y49979D02*
G01X128352Y49989D01*
G01X128312Y49987D01*
G01X128272Y49973D01*
G01X128231Y49949D01*
G01X128193Y49915D01*
G01X128157Y49872D01*
G01X128125Y49823D01*
G01X128098Y49767D01*
G01X128077Y49707D01*
G01X128064Y49643D01*
G01X128059Y49577D01*
G01X128063Y49531D01*
G01X128075Y49491D01*
G01X128094Y49459D01*
G01X128118Y49434D01*
G01X128147Y49416D01*
G01X128180Y49406D01*
G01X128215Y49402D01*
G01X128252Y49405D01*
G01X128289Y49415D01*
G01X128326Y49430D01*
G01X128362Y49452D01*
G01X128395Y49480D01*
G01X128425Y49514D01*
G01X128451Y49553D01*
G01X128471Y49599D01*
G01X128485Y49649D01*
G01X128493Y49736D01*
G01X128483Y49823D01*
G01X128461Y49898D01*
G01X128425Y49953D01*
G01X128390Y49979D01*
G37*

%LPD*%
G36*
G01X133420Y50263D02*
G01X133353Y50275D01*
G01X133311Y50267D01*
G01X133270Y50243D01*
G01X133230Y50205D01*
G01X133191Y50151D01*
G01X133153Y50084D01*
G01X133117Y50003D01*
G01X133084Y49909D01*
G01X133052Y49802D01*
G01X133025Y49706D01*
G01X132999Y49612D01*
G01X132973Y49524D01*
G01X132948Y49444D01*
G01X132925Y49374D01*
G01X132904Y49316D01*
G01X132887Y49273D01*
G01X132875Y49247D01*
G01X132872Y49215D01*
G01X132902Y49188D01*
G01X132960Y49170D01*
G01X133040Y49163D01*
G01X133097Y49168D01*
G01X133145Y49184D01*
G01X133188Y49211D01*
G01X133225Y49252D01*
G01X133257Y49305D01*
G01X133285Y49375D01*
G01X133309Y49459D01*
G01X133331Y49560D01*
G01X133347Y49643D01*
G01X133365Y49727D01*
G01X133383Y49809D01*
G01X133401Y49887D01*
G01X133420Y49959D01*
G01X133437Y50023D01*
G01X133453Y50076D01*
G01X133466Y50116D01*
G01X133479Y50181D01*
G01X133463Y50231D01*
G01X133420Y50263D01*
G37*

%LPD*%
G36*
G01X130370Y50282D02*
G01X130336Y50287D01*
G01X130299Y50286D01*
G01X130260Y50280D01*
G01X130220Y50268D01*
G01X130178Y50249D01*
G01X130135Y50225D01*
G01X130092Y50197D01*
G01X130051Y50161D01*
G01X130009Y50121D01*
G01X129970Y50076D01*
G01X129934Y50025D01*
G01X129900Y49969D01*
G01X129735Y49664D01*
G01X129730Y49969D01*
G01X129726Y50049D01*
G01X129717Y50114D01*
G01X129701Y50168D01*
G01X129678Y50209D01*
G01X129647Y50239D01*
G01X129608Y50259D01*
G01X129559Y50271D01*
G01X129500Y50275D01*
G01X129408Y50264D01*
G01X129327Y50234D01*
G01X129264Y50189D01*
G01X129228Y50136D01*
G01X129191Y50021D01*
G01X129158Y49914D01*
G01X129129Y49812D01*
G01X129103Y49718D01*
G01X129081Y49632D01*
G01X129064Y49552D01*
G01X129050Y49479D01*
G01X129040Y49414D01*
G01X129034Y49356D01*
G01X129032Y49305D01*
G01X129034Y49262D01*
G01X129039Y49227D01*
G01X129049Y49199D01*
G01X129062Y49179D01*
G01X129080Y49167D01*
G01X129102Y49163D01*
G01X129132Y49170D01*
G01X129165Y49188D01*
G01X129199Y49216D01*
G01X129234Y49253D01*
G01X129268Y49298D01*
G01X129301Y49350D01*
G01X129332Y49408D01*
G01X129359Y49469D01*
G01X129480Y49774D01*
G01X129492Y49469D01*
G01X129504Y49350D01*
G01X129531Y49253D01*
G01X129568Y49188D01*
G01X129611Y49163D01*
G01X129636Y49170D01*
G01X129667Y49188D01*
G01X129701Y49216D01*
G01X129739Y49253D01*
G01X129778Y49298D01*
G01X129818Y49350D01*
G01X129857Y49408D01*
G01X129895Y49469D01*
G01X130070Y49774D01*
G01X130007Y49469D01*
G01X129994Y49393D01*
G01X129987Y49329D01*
G01X129987Y49277D01*
G01X129995Y49235D01*
G01X130009Y49203D01*
G01X130031Y49181D01*
G01X130061Y49168D01*
G01X130099Y49163D01*
G01X130131Y49170D01*
G01X130164Y49188D01*
G01X130196Y49216D01*
G01X130227Y49253D01*
G01X130256Y49298D01*
G01X130282Y49350D01*
G01X130304Y49408D01*
G01X130320Y49469D01*
G01X130335Y49536D01*
G01X130352Y49607D01*
G01X130370Y49682D01*
G01X130388Y49758D01*
G01X130407Y49833D01*
G01X130425Y49903D01*
G01X130443Y49968D01*
G01X130458Y50024D01*
G01X130470Y50079D01*
G01X130475Y50126D01*
G01X130472Y50168D01*
G01X130462Y50203D01*
G01X130447Y50232D01*
G01X130425Y50254D01*
G01X130400Y50272D01*
G01X130370Y50282D01*
G37*

%LPD*%
G36*
G01X125590Y50291D02*
G01X125569Y50295D01*
G01X125547Y50292D01*
G01X125524Y50283D01*
G01X125500Y50267D01*
G01X125476Y50245D01*
G01X125450Y50216D01*
G01X125425Y50180D01*
G01X125399Y50138D01*
G01X125374Y50089D01*
G01X125350Y50034D01*
G01X125326Y49972D01*
G01X125302Y49903D01*
G01X125280Y49828D01*
G01X125260Y49748D01*
G01X125242Y49674D01*
G01X125229Y49607D01*
G01X125218Y49546D01*
G01X125212Y49490D01*
G01X125209Y49440D01*
G01X125210Y49395D01*
G01X125216Y49355D01*
G01X125226Y49319D01*
G01X125240Y49288D01*
G01X125260Y49261D01*
G01X125283Y49238D01*
G01X125312Y49218D01*
G01X125346Y49202D01*
G01X125385Y49189D01*
G01X125429Y49179D01*
G01X125479Y49172D01*
G01X125534Y49167D01*
G01X125596Y49164D01*
G01X125663Y49163D01*
G01X125725Y49164D01*
G01X125783Y49167D01*
G01X125837Y49173D01*
G01X125886Y49181D01*
G01X125933Y49192D01*
G01X125976Y49205D01*
G01X126016Y49223D01*
G01X126053Y49243D01*
G01X126088Y49268D01*
G01X126120Y49297D01*
G01X126150Y49330D01*
G01X126179Y49367D01*
G01X126206Y49410D01*
G01X126231Y49457D01*
G01X126256Y49511D01*
G01X126280Y49569D01*
G01X126304Y49634D01*
G01X126327Y49704D01*
G01X126350Y49781D01*
G01X126374Y49865D01*
G01X126406Y49987D01*
G01X126427Y50083D01*
G01X126438Y50155D01*
G01X126438Y50206D01*
G01X126425Y50239D01*
G01X126402Y50256D01*
G01X126366Y50260D01*
G01X126316Y50253D01*
G01X126279Y50239D01*
G01X126239Y50210D01*
G01X126198Y50169D01*
G01X126157Y50117D01*
G01X126118Y50057D01*
G01X126080Y49989D01*
G01X126046Y49916D01*
G01X126018Y49838D01*
G01X125990Y49761D01*
G01X125957Y49686D01*
G01X125921Y49617D01*
G01X125883Y49555D01*
G01X125845Y49501D01*
G01X125807Y49457D01*
G01X125771Y49425D01*
G01X125737Y49407D01*
G01X125695Y49398D01*
G01X125663Y49403D01*
G01X125641Y49422D01*
G01X125627Y49459D01*
G01X125622Y49515D01*
G01X125625Y49591D01*
G01X125637Y49691D01*
G01X125655Y49816D01*
G01X125665Y49891D01*
G01X125672Y49960D01*
G01X125675Y50023D01*
G01X125674Y50080D01*
G01X125670Y50129D01*
G01X125663Y50173D01*
G01X125653Y50209D01*
G01X125641Y50240D01*
G01X125625Y50263D01*
G01X125609Y50280D01*
G01X125590Y50291D01*
G37*

%LPD*%
G36*
G01X135405Y50256D02*
G01X135375Y50261D01*
G01X135346Y50257D01*
G01X135316Y50247D01*
G01X135287Y50230D01*
G01X135259Y50206D01*
G01X135230Y50175D01*
G01X135203Y50137D01*
G01X135176Y50092D01*
G01X135149Y50041D01*
G01X135124Y49983D01*
G01X135100Y49917D01*
G01X135077Y49845D01*
G01X135047Y49744D01*
G01X135021Y49654D01*
G01X135000Y49573D01*
G01X134983Y49501D01*
G01X134970Y49437D01*
G01X134961Y49382D01*
G01X134957Y49333D01*
G01X134957Y49293D01*
G01X134961Y49258D01*
G01X134970Y49230D01*
G01X134983Y49208D01*
G01X135001Y49191D01*
G01X135022Y49178D01*
G01X135048Y49169D01*
G01X135079Y49165D01*
G01X135115Y49163D01*
G01X135180Y49181D01*
G01X135233Y49228D01*
G01X135268Y49299D01*
G01X135281Y49386D01*
G01X135285Y49453D01*
G01X135295Y49507D01*
G01X135310Y49549D01*
G01X135331Y49579D01*
G01X135355Y49596D01*
G01X135380Y49601D01*
G01X135408Y49594D01*
G01X135437Y49575D01*
G01X135465Y49543D01*
G01X135492Y49500D01*
G01X135517Y49444D01*
G01X135538Y49376D01*
G01X135553Y49327D01*
G01X135570Y49285D01*
G01X135589Y49248D01*
G01X135609Y49218D01*
G01X135631Y49194D01*
G01X135655Y49176D01*
G01X135680Y49164D01*
G01X135706Y49158D01*
G01X135733Y49158D01*
G01X135760Y49163D01*
G01X135788Y49173D01*
G01X135817Y49189D01*
G01X135845Y49209D01*
G01X135874Y49236D01*
G01X135903Y49267D01*
G01X135931Y49303D01*
G01X135959Y49344D01*
G01X135986Y49389D01*
G01X136012Y49439D01*
G01X136037Y49493D01*
G01X136062Y49552D01*
G01X136085Y49615D01*
G01X136105Y49682D01*
G01X136125Y49753D01*
G01X136153Y49864D01*
G01X136176Y49958D01*
G01X136192Y50036D01*
G01X136203Y50101D01*
G01X136209Y50153D01*
G01X136209Y50193D01*
G01X136203Y50222D01*
G01X136191Y50243D01*
G01X136173Y50254D01*
G01X136149Y50259D01*
G01X136119Y50258D01*
G01X136082Y50252D01*
G01X136044Y50240D01*
G01X136006Y50217D01*
G01X135969Y50186D01*
G01X135934Y50147D01*
G01X135901Y50101D01*
G01X135872Y50051D01*
G01X135848Y49997D01*
G01X135830Y49940D01*
G01X135757Y49664D01*
G01X135633Y49969D01*
G01X135606Y50030D01*
G01X135579Y50084D01*
G01X135551Y50130D01*
G01X135522Y50170D01*
G01X135493Y50202D01*
G01X135464Y50227D01*
G01X135435Y50245D01*
G01X135405Y50256D01*
G37*

%LPD*%
G36*
G01X132474Y50273D02*
G01X132392Y50275D01*
G01X132293Y50274D01*
G01X132205Y50271D01*
G01X132128Y50266D01*
G01X132062Y50259D01*
G01X132005Y50250D01*
G01X131957Y50239D01*
G01X131918Y50224D01*
G01X131887Y50207D01*
G01X131865Y50187D01*
G01X131849Y50164D01*
G01X131840Y50138D01*
G01X131837Y50108D01*
G01X131849Y50043D01*
G01X131883Y49990D01*
G01X131934Y49954D01*
G01X131996Y49941D01*
G01X132037Y49937D01*
G01X132069Y49925D01*
G01X132090Y49903D01*
G01X132102Y49869D01*
G01X132103Y49823D01*
G01X132096Y49761D01*
G01X132079Y49683D01*
G01X132053Y49587D01*
G01X132034Y49515D01*
G01X132018Y49446D01*
G01X132005Y49382D01*
G01X131996Y49323D01*
G01X131991Y49273D01*
G01X131990Y49232D01*
G01X131993Y49202D01*
G01X132001Y49185D01*
G01X132034Y49161D01*
G01X132071Y49151D01*
G01X132111Y49153D01*
G01X132153Y49167D01*
G01X132196Y49192D01*
G01X132238Y49227D01*
G01X132279Y49270D01*
G01X132317Y49321D01*
G01X132352Y49379D01*
G01X132383Y49443D01*
G01X132408Y49511D01*
G01X132426Y49584D01*
G01X132445Y49658D01*
G01X132470Y49726D01*
G01X132500Y49787D01*
G01X132535Y49840D01*
G01X132576Y49887D01*
G01X132620Y49924D01*
G01X132668Y49953D01*
G01X132720Y49972D01*
G01X132781Y49990D01*
G01X132832Y50008D01*
G01X132875Y50027D01*
G01X132908Y50047D01*
G01X132933Y50067D01*
G01X132949Y50088D01*
G01X132956Y50108D01*
G01X132956Y50128D01*
G01X132948Y50147D01*
G01X132931Y50166D01*
G01X132908Y50184D01*
G01X132877Y50201D01*
G01X132839Y50217D01*
G01X132794Y50231D01*
G01X132742Y50243D01*
G01X132685Y50254D01*
G01X132620Y50263D01*
G01X132550Y50269D01*
G01X132474Y50273D01*
G37*

%LPD*%
G36*
G01X122948Y55985D02*
G01X122559Y56143D01*
G01X122555Y55626D01*
G01X122553Y55581D01*
G01X122551Y55534D01*
G01X122548Y55483D01*
G01X122543Y55429D01*
G01X122537Y55374D01*
G01X122531Y55317D01*
G01X122523Y55257D01*
G01X122514Y55197D01*
G01X122505Y55135D01*
G01X122495Y55072D01*
G01X122483Y55009D01*
G01X122472Y54946D01*
G01X122446Y54820D01*
G01X122432Y54758D01*
G01X122418Y54697D01*
G01X122403Y54637D01*
G01X122388Y54579D01*
G01X122373Y54523D01*
G01X122357Y54469D01*
G01X122323Y54357D01*
G01X122292Y54258D01*
G01X122264Y54173D01*
G01X122239Y54100D01*
G01X122213Y54038D01*
G01X122188Y53986D01*
G01X122161Y53944D01*
G01X122133Y53910D01*
G01X122101Y53884D01*
G01X122066Y53864D01*
G01X122026Y53850D01*
G01X121980Y53840D01*
G01X121928Y53834D01*
G01X121869Y53831D01*
G01X121800Y53830D01*
G01X121722Y53830D01*
G01X121634Y53831D01*
G01X121551Y53835D01*
G01X121476Y53841D01*
G01X121411Y53849D01*
G01X121357Y53858D01*
G01X121316Y53868D01*
G01X121290Y53880D01*
G01X121281Y53892D01*
G01X121284Y53915D01*
G01X121291Y53955D01*
G01X121302Y54011D01*
G01X121318Y54080D01*
G01X121336Y54160D01*
G01X121357Y54250D01*
G01X121380Y54345D01*
G01X121405Y54445D01*
G01X121425Y54530D01*
G01X121443Y54612D01*
G01X121457Y54689D01*
G01X121468Y54763D01*
G01X121476Y54834D01*
G01X121481Y54901D01*
G01X121482Y54965D01*
G01X121481Y55026D01*
G01X121475Y55084D01*
G01X121466Y55140D01*
G01X121454Y55193D01*
G01X121438Y55243D01*
G01X121419Y55292D01*
G01X121395Y55338D01*
G01X121368Y55383D01*
G01X121338Y55425D01*
G01X121303Y55466D01*
G01X121265Y55505D01*
G01X121223Y55543D01*
G01X121176Y55580D01*
G01X121126Y55615D01*
G01X121072Y55650D01*
G01X121013Y55684D01*
G01X120951Y55717D01*
G01X120854Y55767D01*
G01X120698Y55845D01*
G01X120637Y55874D01*
G01X120585Y55896D01*
G01X120543Y55912D01*
G01X120510Y55920D01*
G01X120484Y55921D01*
G01X120466Y55915D01*
G01X120454Y55902D01*
G01X120448Y55882D01*
G01X120446Y55854D01*
G01X120449Y55819D01*
G01X120455Y55776D01*
G01X120464Y55726D01*
G01X120475Y55669D01*
G01X120477Y55652D01*
G01X120478Y55632D01*
G01X120478Y55607D01*
G01X120476Y55578D01*
G01X120474Y55546D01*
G01X120470Y55509D01*
G01X120465Y55469D01*
G01X120459Y55425D01*
G01X120452Y55379D01*
G01X120444Y55328D01*
G01X120435Y55275D01*
G01X120424Y55219D01*
G01X120413Y55159D01*
G01X120402Y55097D01*
G01X120389Y55033D01*
G01X120375Y54966D01*
G01X120361Y54896D01*
G01X120345Y54824D01*
G01X120329Y54751D01*
G01X120313Y54675D01*
G01X120295Y54597D01*
G01X120277Y54518D01*
G01X120258Y54437D01*
G01X120238Y54355D01*
G01X120218Y54271D01*
G01X120197Y54186D01*
G01X120176Y54100D01*
G01X120154Y54014D01*
G01X120131Y53926D01*
G01X120085Y53748D01*
G01X120061Y53659D01*
G01X120035Y53561D01*
G01X120010Y53465D01*
G01X119985Y53370D01*
G01X119962Y53277D01*
G01X119938Y53186D01*
G01X119916Y53097D01*
G01X119895Y53010D01*
G01X119874Y52924D01*
G01X119854Y52841D01*
G01X119836Y52760D01*
G01X119817Y52681D01*
G01X119801Y52604D01*
G01X119784Y52530D01*
G01X119769Y52458D01*
G01X119754Y52389D01*
G01X119741Y52322D01*
G01X119728Y52257D01*
G01X119717Y52196D01*
G01X119706Y52137D01*
G01X119696Y52081D01*
G01X119688Y52027D01*
G01X119681Y51977D01*
G01X119674Y51930D01*
G01X119669Y51886D01*
G01X119664Y51844D01*
G01X119660Y51807D01*
G01X119658Y51772D01*
G01X119657Y51741D01*
G01X119657Y51713D01*
G01X119658Y51689D01*
G01X119660Y51668D01*
G01X119663Y51650D01*
G01X119677Y51610D01*
G01X119698Y51568D01*
G01X119724Y51524D01*
G01X119757Y51478D01*
G01X119795Y51431D01*
G01X119838Y51384D01*
G01X119884Y51337D01*
G01X119934Y51290D01*
G01X119987Y51244D01*
G01X120042Y51200D01*
G01X120098Y51158D01*
G01X120155Y51118D01*
G01X120213Y51080D01*
G01X120270Y51046D01*
G01X120326Y51016D01*
G01X120381Y50991D01*
G01X120434Y50970D01*
G01X120483Y50955D01*
G01X120529Y50945D01*
G01X120571Y50942D01*
G01X120615Y50961D01*
G01X120645Y51014D01*
G01X120656Y51094D01*
G01X120647Y51191D01*
G01X120643Y51221D01*
G01X120642Y51257D01*
G01X120643Y51300D01*
G01X120645Y51350D01*
G01X120651Y51405D01*
G01X120657Y51464D01*
G01X120666Y51528D01*
G01X120676Y51596D01*
G01X120688Y51668D01*
G01X120702Y51742D01*
G01X120717Y51819D01*
G01X120733Y51897D01*
G01X120752Y51977D01*
G01X120770Y52058D01*
G01X120791Y52139D01*
G01X120813Y52219D01*
G01X121025Y52997D01*
G01X121487Y53031D01*
G01X121579Y53037D01*
G01X121666Y53040D01*
G01X121744Y53041D01*
G01X121812Y53040D01*
G01X121869Y53036D01*
G01X121911Y53031D01*
G01X121938Y53023D01*
G01X121948Y53013D01*
G01X121947Y53008D01*
G01X121945Y52996D01*
G01X121941Y52980D01*
G01X121936Y52958D01*
G01X121930Y52932D01*
G01X121913Y52864D01*
G01X121892Y52779D01*
G01X121879Y52730D01*
G01X121865Y52677D01*
G01X121850Y52620D01*
G01X121835Y52560D01*
G01X121818Y52496D01*
G01X121800Y52429D01*
G01X121782Y52358D01*
G01X121763Y52285D01*
G01X121742Y52208D01*
G01X121721Y52129D01*
G01X121700Y52048D01*
G01X121677Y51964D01*
G01X121654Y51878D01*
G01X121631Y51790D01*
G01X121607Y51700D01*
G01X121582Y51608D01*
G01X121557Y51515D01*
G01X121531Y51420D01*
G01X121505Y51324D01*
G01X121483Y51239D01*
G01X121461Y51156D01*
G01X121439Y51072D01*
G01X121418Y50989D01*
G01X121397Y50908D01*
G01X121377Y50827D01*
G01X121358Y50747D01*
G01X121339Y50668D01*
G01X121321Y50591D01*
G01X121303Y50515D01*
G01X121286Y50440D01*
G01X121269Y50367D01*
G01X121254Y50296D01*
G01X121239Y50226D01*
G01X121225Y50159D01*
G01X121211Y50093D01*
G01X121199Y50030D01*
G01X121187Y49970D01*
G01X121177Y49912D01*
G01X121167Y49856D01*
G01X121158Y49803D01*
G01X121150Y49753D01*
G01X121143Y49706D01*
G01X121137Y49662D01*
G01X121132Y49621D01*
G01X121128Y49583D01*
G01X121124Y49549D01*
G01X121122Y49519D01*
G01X121121Y49492D01*
G01X121122Y49469D01*
G01X121123Y49450D01*
G01X121126Y49435D01*
G01X121140Y49386D01*
G01X121159Y49336D01*
G01X121182Y49287D01*
G01X121208Y49238D01*
G01X121239Y49190D01*
G01X121273Y49141D01*
G01X121311Y49093D01*
G01X121352Y49046D01*
G01X121397Y48999D01*
G01X121445Y48953D01*
G01X121496Y48908D01*
G01X121550Y48865D01*
G01X121607Y48821D01*
G01X121667Y48780D01*
G01X121730Y48739D01*
G01X121795Y48700D01*
G01X121863Y48662D01*
G01X121934Y48626D01*
G01X122006Y48592D01*
G01X122081Y48559D01*
G01X122489Y48389D01*
G01X122429Y48760D01*
G01X122426Y48775D01*
G01X122425Y48792D01*
G01X122424Y48811D01*
G01X122423Y48832D01*
G01X122423Y48853D01*
G01X122424Y48877D01*
G01X122425Y48902D01*
G01X122428Y48929D01*
G01X122430Y48957D01*
G01X122433Y48987D01*
G01X122436Y49018D01*
G01X122440Y49052D01*
G01X122445Y49087D01*
G01X122450Y49124D01*
G01X122456Y49162D01*
G01X122463Y49202D01*
G01X122470Y49243D01*
G01X122477Y49287D01*
G01X122485Y49332D01*
G01X122494Y49379D01*
G01X122503Y49427D01*
G01X122513Y49478D01*
G01X122535Y49584D01*
G01X122547Y49640D01*
G01X122560Y49698D01*
G01X122572Y49757D01*
G01X122586Y49818D01*
G01X122600Y49882D01*
G01X122615Y49946D01*
G01X122631Y50013D01*
G01X122646Y50082D01*
G01X122663Y50152D01*
G01X122680Y50224D01*
G01X122699Y50299D01*
G01X122717Y50375D01*
G01X122736Y50453D01*
G01X122756Y50533D01*
G01X122777Y50615D01*
G01X122798Y50699D01*
G01X122820Y50785D01*
G01X122843Y50873D01*
G01X122865Y50963D01*
G01X122889Y51055D01*
G01X122914Y51148D01*
G01X122964Y51342D01*
G01X122991Y51442D01*
G01X123018Y51544D01*
G01X123045Y51648D01*
G01X123074Y51754D01*
G01X123103Y51862D01*
G01X123128Y51956D01*
G01X123153Y52049D01*
G01X123177Y52142D01*
G01X123202Y52235D01*
G01X123226Y52327D01*
G01X123250Y52418D01*
G01X123274Y52508D01*
G01X123297Y52598D01*
G01X123321Y52687D01*
G01X123343Y52776D01*
G01X123366Y52863D01*
G01X123388Y52949D01*
G01X123409Y53035D01*
G01X123431Y53119D01*
G01X123452Y53202D01*
G01X123472Y53284D01*
G01X123493Y53365D01*
G01X123513Y53444D01*
G01X123532Y53522D01*
G01X123551Y53599D01*
G01X123569Y53674D01*
G01X123587Y53747D01*
G01X123604Y53820D01*
G01X123621Y53890D01*
G01X123638Y53958D01*
G01X123653Y54025D01*
G01X123669Y54090D01*
G01X123683Y54153D01*
G01X123698Y54214D01*
G01X123711Y54273D01*
G01X123724Y54331D01*
G01X123736Y54385D01*
G01X123748Y54438D01*
G01X123759Y54489D01*
G01X123769Y54537D01*
G01X123779Y54583D01*
G01X123788Y54626D01*
G01X123796Y54667D01*
G01X123804Y54706D01*
G01X123810Y54742D01*
G01X123816Y54775D01*
G01X123822Y54805D01*
G01X123827Y54833D01*
G01X123830Y54858D01*
G01X123833Y54880D01*
G01X123835Y54899D01*
G01X123836Y54915D01*
G01X123837Y54928D01*
G01X123835Y54979D01*
G01X123829Y55031D01*
G01X123820Y55082D01*
G01X123807Y55134D01*
G01X123791Y55185D01*
G01X123772Y55236D01*
G01X123749Y55287D01*
G01X123722Y55336D01*
G01X123693Y55386D01*
G01X123661Y55435D01*
G01X123626Y55483D01*
G01X123589Y55530D01*
G01X123548Y55576D01*
G01X123505Y55621D01*
G01X123459Y55665D01*
G01X123411Y55707D01*
G01X123360Y55748D01*
G01X123307Y55788D01*
G01X123252Y55825D01*
G01X123196Y55861D01*
G01X123136Y55895D01*
G01X123075Y55927D01*
G01X123013Y55957D01*
G01X122948Y55985D01*
G37*

%LPD*%
G54D10*
G01X1611Y32129D02*
G01X10611Y32129D01*
G01X1641Y21629D02*
G01X10641Y21629D01*
G01X1611Y21629D02*
G01X1611Y32129D01*
G01X3441Y21599D02*
G01X3441Y32099D01*
G01X2211Y21629D02*
G01X2211Y32129D01*
G01X10641Y21629D02*
G01X10641Y32129D01*
G01X-1782Y10169D02*
G01X-1782Y19169D01*
G01X-1782Y19169D02*
G01X12617Y19169D01*
G01X1917Y10169D02*
G01X1917Y19169D01*
G01X1997Y11469D02*
G01X12617Y11469D01*
G01X1997Y17869D02*
G01X12617Y17869D01*
G01X12617Y19169D02*
G01X12617Y17093D01*
G01X12617Y12244D02*
G01X12617Y10169D01*
G01X-1782Y10169D02*
G01X6602Y10169D01*
G01X11631Y10169D02*
G01X12617Y10169D01*
G01X14114Y29676D02*
G01X57513Y29676D01*
G01X14114Y8677D02*
G01X57513Y8677D01*
G01X57513Y29676D02*
G01X57513Y8677D01*
G01X14114Y29676D02*
G01X14114Y8677D01*
G01X28194Y21717D02*
G01X40894Y21717D01*
G01X38354Y24257D02*
G01X40894Y21717D01*
G01X38354Y19177D01*
G01X66675Y79883D02*
G01X90805Y79883D01*
G01X90805Y37719D01*
G01X66675Y37719D01*
G01X66675Y79883D01*
G01X85786Y74244D02*
G01X85786Y79146D01*
G01X70498Y79146D01*
G01X72197Y65186D02*
G01X85786Y65151D01*
G01X85786Y65862D01*
G01X70496Y76860D02*
G01X70496Y79146D01*
G01X72197Y75158D02*
G01X72180Y65227D01*
G01X85786Y65811D02*
G01X85784Y74246D01*
G01X107823Y34798D02*
G01X143891Y34798D01*
G01X143891Y8636D01*
G01X107823Y8636D01*
G01X107823Y34798D01*
G01X110109Y34798D01*
G01X88900Y7874D02*
G01X88900Y19304D01*
G01X73660Y19304D01*
G01X73660Y7874D01*
G01X88900Y7874D01*
G01X96901Y54610D02*
G01X103505Y54610D01*
G01X104013Y54102D01*
G01X104013Y48514D01*
G01X103505Y48006D01*
G01X96901Y48006D01*
G01X96901Y54610D01*
G01X115696Y61214D02*
G01X115696Y45466D01*
G01X142874Y61214D02*
G01X142874Y45466D01*
G01X142874Y45466D02*
G01X115696Y45466D01*
G01X115696Y61214D02*
G01X142874Y61214D01*
G01X145668Y38608D02*
G01X99949Y38608D01*
G01X99949Y64008D02*
G01X145668Y64008D01*
G01X145668Y38608D02*
G01X145668Y43688D01*
G01X148208Y46228D01*
G01X148208Y56388D01*
G01X145668Y58928D01*
G01X145668Y64008D01*
G01X99948Y64008D02*
G01X97408Y61468D01*
G01X97408Y41148D01*
G01X99948Y38608D01*
G01X146684Y53340D02*
G01X143636Y53340D01*
G01X143636Y50292D01*
G01X146684Y50292D01*
G01X146684Y53340D01*
G01X98171Y45212D02*
G01X98171Y42164D01*
G01X101219Y42164D01*
G01X101219Y45212D01*
G01X98171Y45212D01*
G01X98170Y60706D02*
G01X98170Y57658D01*
G01X101218Y57658D01*
G01X101218Y60706D01*
G01X98170Y60706D01*
G01X6376Y35236D02*
G01X6376Y74236D01*
G01X57376Y74236D01*
G01X57376Y35236D01*
G01X6376Y35236D01*
G01X52876Y57317D02*
G01X52876Y67517D01*
G01X55876Y67517D01*
G01X55876Y57317D01*
G01X52876Y57317D01*
G01X52876Y44416D02*
G01X52876Y52416D01*
G01X55876Y52416D01*
G01X55876Y44416D01*
G01X52876Y44416D01*
G01X18877Y55237D02*
G01X18877Y70237D01*
G01X37377Y70237D01*
G01X37377Y55237D01*
G01X18877Y55237D01*
G01X18877Y39236D02*
G01X18877Y54236D01*
G01X37377Y54236D01*
G01X37377Y39236D01*
G01X18877Y39236D01*
G01X10877Y55237D02*
G01X10877Y70237D01*
G01X18377Y70237D01*
G01X18377Y55237D01*
G01X10877Y55237D01*
G01X10877Y39236D02*
G01X10877Y54236D01*
G01X18377Y54236D01*
G01X18377Y39236D01*
G01X10877Y39236D01*
G54D18*
G01X132Y26685D02*
G01X1221Y26685D01*
G01X132Y26685D02*
G01X132Y27152D01*
G01X182Y27307D01*
G01X236Y27360D01*
G01X340Y27411D01*
G01X495Y27411D01*
G01X599Y27360D01*
G01X650Y27307D01*
G01X703Y27152D01*
G01X703Y26685D01*
G01X340Y27754D02*
G01X287Y27858D01*
G01X132Y28016D01*
G01X1221Y28016D01*
G01X5299Y20902D02*
G01X5299Y19812D01*
G01X5299Y20902D02*
G01X5662Y20902D01*
G01X5820Y20851D01*
G01X5921Y20747D01*
G01X5975Y20643D01*
G01X6025Y20485D01*
G01X6025Y20226D01*
G01X5975Y20071D01*
G01X5921Y19967D01*
G01X5820Y19863D01*
G01X5662Y19812D01*
G01X5299Y19812D01*
G01X7148Y20643D02*
G01X7097Y20747D01*
G01X6993Y20851D01*
G01X6889Y20902D01*
G01X6681Y20902D01*
G01X6577Y20851D01*
G01X6472Y20747D01*
G01X6422Y20643D01*
G01X6368Y20485D01*
G01X6368Y20226D01*
G01X6422Y20071D01*
G01X6472Y19967D01*
G01X6577Y19863D01*
G01X6681Y19812D01*
G01X6889Y19812D01*
G01X6993Y19863D01*
G01X7097Y19967D01*
G01X7148Y20071D01*
G01X7491Y20694D02*
G01X7595Y20747D01*
G01X7750Y20902D01*
G01X7750Y19812D01*
G01X32893Y31506D02*
G01X32893Y30416D01*
G01X32893Y31506D02*
G01X33309Y30416D01*
G01X33723Y31506D02*
G01X33309Y30416D01*
G01X33723Y31506D02*
G01X33723Y30416D01*
G01X34066Y31297D02*
G01X34170Y31351D01*
G01X34328Y31506D01*
G01X34328Y30416D01*
G54D13*
G01X25146Y15620D02*
G01X25146Y13682D01*
G01X25146Y13682D02*
G01X26253Y13682D01*
G01X26863Y15620D02*
G01X26863Y13682D01*
G01X26863Y15620D02*
G01X27602Y13682D01*
G01X28341Y15620D02*
G01X27602Y13682D01*
G01X28341Y15620D02*
G01X28341Y13682D01*
G01X29044Y15161D02*
G01X29044Y15252D01*
G01X29136Y15438D01*
G01X29227Y15529D01*
G01X29413Y15620D01*
G01X29781Y15620D01*
G01X29966Y15529D01*
G01X30060Y15438D01*
G01X30152Y15252D01*
G01X30152Y15067D01*
G01X30060Y14881D01*
G01X29875Y14604D01*
G01X28950Y13682D01*
G01X30243Y13682D01*
G01X31963Y15620D02*
G01X31038Y15620D01*
G01X30947Y14790D01*
G01X31038Y14881D01*
G01X31315Y14975D01*
G01X31592Y14975D01*
G01X31869Y14881D01*
G01X32054Y14698D01*
G01X32146Y14422D01*
G01X32146Y14236D01*
G01X32054Y13959D01*
G01X31869Y13774D01*
G01X31592Y13682D01*
G01X31315Y13682D01*
G01X31038Y13774D01*
G01X30947Y13865D01*
G01X30853Y14051D01*
G01X33957Y14975D02*
G01X33865Y14698D01*
G01X33680Y14513D01*
G01X33403Y14422D01*
G01X33312Y14422D01*
G01X33032Y14513D01*
G01X32849Y14698D01*
G01X32755Y14975D01*
G01X32755Y15067D01*
G01X32849Y15344D01*
G01X33032Y15529D01*
G01X33312Y15620D01*
G01X33403Y15620D01*
G01X33680Y15529D01*
G01X33865Y15344D01*
G01X33957Y14975D01*
G01X33957Y14513D01*
G01X33865Y14051D01*
G01X33680Y13774D01*
G01X33403Y13682D01*
G01X33218Y13682D01*
G01X32941Y13774D01*
G01X32849Y13959D01*
G01X35674Y15344D02*
G01X35582Y15529D01*
G01X35306Y15620D01*
G01X35120Y15620D01*
G01X34843Y15529D01*
G01X34658Y15252D01*
G01X34566Y14790D01*
G01X34566Y14328D01*
G01X34658Y13959D01*
G01X34843Y13774D01*
G01X35120Y13682D01*
G01X35214Y13682D01*
G01X35491Y13774D01*
G01X35674Y13959D01*
G01X35768Y14236D01*
G01X35768Y14328D01*
G01X35674Y14604D01*
G01X35491Y14790D01*
G01X35214Y14881D01*
G01X35120Y14881D01*
G01X34843Y14790D01*
G01X34658Y14604D01*
G01X34566Y14328D01*
G01X37800Y15620D02*
G01X37800Y13682D01*
G01X37800Y15620D02*
G01X38445Y15620D01*
G01X38722Y15529D01*
G01X38907Y15344D01*
G01X39001Y15161D01*
G01X39093Y14881D01*
G01X39093Y14422D01*
G01X39001Y14145D01*
G01X38907Y13959D01*
G01X38722Y13774D01*
G01X38445Y13682D01*
G01X37800Y13682D01*
G01X41087Y15161D02*
G01X40995Y15344D01*
G01X40810Y15529D01*
G01X40627Y15620D01*
G01X40256Y15620D01*
G01X40071Y15529D01*
G01X39888Y15344D01*
G01X39794Y15161D01*
G01X39702Y14881D01*
G01X39702Y14422D01*
G01X39794Y14145D01*
G01X39888Y13959D01*
G01X40071Y13774D01*
G01X40256Y13682D01*
G01X40627Y13682D01*
G01X40810Y13774D01*
G01X40995Y13959D01*
G01X41087Y14145D01*
G01X41696Y14513D02*
G01X43360Y14513D01*
G01X43969Y15620D02*
G01X43969Y13682D01*
G01X43969Y15620D02*
G01X44615Y15620D01*
G01X44894Y15529D01*
G01X45077Y15344D01*
G01X45171Y15161D01*
G01X45262Y14881D01*
G01X45262Y14422D01*
G01X45171Y14145D01*
G01X45077Y13959D01*
G01X44894Y13774D01*
G01X44615Y13682D01*
G01X43969Y13682D01*
G01X47256Y15161D02*
G01X47165Y15344D01*
G01X46979Y15529D01*
G01X46796Y15620D01*
G01X46426Y15620D01*
G01X46240Y15529D01*
G01X46057Y15344D01*
G01X45963Y15161D01*
G01X45872Y14881D01*
G01X45872Y14422D01*
G01X45963Y14145D01*
G01X46057Y13959D01*
G01X46240Y13774D01*
G01X46426Y13682D01*
G01X46796Y13682D01*
G01X46979Y13774D01*
G01X47165Y13959D01*
G01X47256Y14145D01*
G01X18034Y27904D02*
G01X18034Y25966D01*
G01X18643Y27904D02*
G01X18643Y25966D01*
G01X18643Y27904D02*
G01X19936Y25966D01*
G01X19936Y27904D02*
G01X19936Y25966D01*
G01X21376Y27627D02*
G01X21376Y25966D01*
G01X20546Y26797D02*
G01X22209Y26797D01*
G01X18034Y12664D02*
G01X18034Y10726D01*
G01X18643Y12664D02*
G01X18643Y10726D01*
G01X18643Y12664D02*
G01X19936Y10726D01*
G01X19936Y12664D02*
G01X19936Y10726D01*
G01X20546Y11557D02*
G01X22209Y11557D01*
G01X46527Y12664D02*
G01X46342Y12573D01*
G01X46159Y12387D01*
G01X46065Y12204D01*
G01X45974Y11925D01*
G01X45974Y11465D01*
G01X46065Y11188D01*
G01X46159Y11003D01*
G01X46342Y10817D01*
G01X46527Y10726D01*
G01X46898Y10726D01*
G01X47081Y10817D01*
G01X47266Y11003D01*
G01X47358Y11188D01*
G01X47452Y11465D01*
G01X47452Y11925D01*
G01X47358Y12204D01*
G01X47266Y12387D01*
G01X47081Y12573D01*
G01X46898Y12664D01*
G01X46527Y12664D01*
G01X48061Y12664D02*
G01X48061Y11280D01*
G01X48153Y11003D01*
G01X48338Y10817D01*
G01X48615Y10726D01*
G01X48801Y10726D01*
G01X49077Y10817D01*
G01X49263Y11003D01*
G01X49354Y11280D01*
G01X49354Y12664D01*
G01X50609Y12664D02*
G01X50609Y10726D01*
G01X49964Y12664D02*
G01X51257Y12664D01*
G01X51866Y11557D02*
G01X53530Y11557D01*
G01X46527Y27904D02*
G01X46342Y27813D01*
G01X46159Y27627D01*
G01X46065Y27444D01*
G01X45974Y27165D01*
G01X45974Y26705D01*
G01X46065Y26428D01*
G01X46159Y26243D01*
G01X46342Y26057D01*
G01X46527Y25966D01*
G01X46898Y25966D01*
G01X47081Y26057D01*
G01X47266Y26243D01*
G01X47358Y26428D01*
G01X47452Y26705D01*
G01X47452Y27165D01*
G01X47358Y27444D01*
G01X47266Y27627D01*
G01X47081Y27813D01*
G01X46898Y27904D01*
G01X46527Y27904D01*
G01X48061Y27904D02*
G01X48061Y26520D01*
G01X48153Y26243D01*
G01X48338Y26057D01*
G01X48615Y25966D01*
G01X48801Y25966D01*
G01X49077Y26057D01*
G01X49263Y26243D01*
G01X49354Y26520D01*
G01X49354Y27904D01*
G01X50609Y27904D02*
G01X50609Y25966D01*
G01X49964Y27904D02*
G01X51257Y27904D01*
G01X52697Y27627D02*
G01X52697Y25966D01*
G01X51866Y26797D02*
G01X53530Y26797D01*
G54D18*
G01X81534Y36586D02*
G01X81534Y35496D01*
G01X81534Y36586D02*
G01X81950Y35496D01*
G01X82364Y36586D02*
G01X81950Y35496D01*
G01X82364Y36586D02*
G01X82364Y35496D01*
G01X82707Y36586D02*
G01X82707Y35496D01*
G01X82707Y36586D02*
G01X83383Y36586D01*
G01X82707Y36068D02*
G01X83124Y36068D01*
G01X82707Y35496D02*
G01X83383Y35496D01*
G01X83726Y36377D02*
G01X83830Y36431D01*
G01X83985Y36586D01*
G01X83985Y35496D01*
G54D13*
G01X84203Y43517D02*
G01X84101Y43466D01*
G01X84000Y43365D01*
G01X83946Y43261D01*
G01X83946Y43055D01*
G01X84000Y42953D01*
G01X84101Y42849D01*
G01X84203Y42798D01*
G01X84358Y42748D01*
G01X84614Y42748D01*
G01X84769Y42798D01*
G01X84871Y42849D01*
G01X84975Y42953D01*
G01X85026Y43055D01*
G01X85026Y43261D01*
G01X84975Y43365D01*
G01X84871Y43466D01*
G01X84769Y43517D01*
G01X84101Y44576D02*
G01X84000Y44472D01*
G01X83946Y44320D01*
G01X83946Y44114D01*
G01X84000Y43959D01*
G01X84101Y43858D01*
G01X84203Y43858D01*
G01X84307Y43908D01*
G01X84358Y43959D01*
G01X84409Y44063D01*
G01X84513Y44371D01*
G01X84564Y44472D01*
G01X84614Y44526D01*
G01X84719Y44576D01*
G01X84871Y44576D01*
G01X84975Y44472D01*
G01X85026Y44320D01*
G01X85026Y44114D01*
G01X84975Y43959D01*
G01X84871Y43858D01*
G01X81561Y43426D02*
G01X81460Y43324D01*
G01X81407Y43169D01*
G01X81407Y42964D01*
G01X81460Y42809D01*
G01X81561Y42707D01*
G01X81663Y42707D01*
G01X81767Y42758D01*
G01X81818Y42809D01*
G01X81869Y42913D01*
G01X81973Y43220D01*
G01X82024Y43324D01*
G01X82075Y43375D01*
G01X82179Y43426D01*
G01X82331Y43426D01*
G01X82435Y43324D01*
G01X82486Y43169D01*
G01X82486Y42964D01*
G01X82435Y42809D01*
G01X82331Y42707D01*
G01X81663Y44536D02*
G01X81561Y44485D01*
G01X81460Y44381D01*
G01X81407Y44279D01*
G01X81407Y44074D01*
G01X81460Y43969D01*
G01X81561Y43868D01*
G01X81663Y43817D01*
G01X81818Y43766D01*
G01X82075Y43766D01*
G01X82229Y43817D01*
G01X82331Y43868D01*
G01X82435Y43969D01*
G01X82486Y44074D01*
G01X82486Y44279D01*
G01X82435Y44381D01*
G01X82331Y44485D01*
G01X82229Y44536D01*
G01X81407Y44874D02*
G01X82486Y44874D01*
G01X81407Y45593D02*
G01X82125Y44874D01*
G01X81869Y45130D02*
G01X82486Y45593D01*
G01X78613Y42720D02*
G01X79692Y42720D01*
G01X78613Y42720D02*
G01X79692Y43131D01*
G01X78613Y43543D02*
G01X79692Y43131D01*
G01X78613Y43543D02*
G01X79692Y43543D01*
G01X78613Y44188D02*
G01X78666Y44086D01*
G01X78767Y43982D01*
G01X78869Y43931D01*
G01X79024Y43881D01*
G01X79281Y43881D01*
G01X79435Y43931D01*
G01X79537Y43982D01*
G01X79641Y44086D01*
G01X79692Y44188D01*
G01X79692Y44394D01*
G01X79641Y44498D01*
G01X79537Y44599D01*
G01X79435Y44650D01*
G01X79281Y44704D01*
G01X79024Y44704D01*
G01X78869Y44650D01*
G01X78767Y44599D01*
G01X78666Y44498D01*
G01X78613Y44394D01*
G01X78613Y44188D01*
G01X78767Y45760D02*
G01X78666Y45659D01*
G01X78613Y45504D01*
G01X78613Y45298D01*
G01X78666Y45143D01*
G01X78767Y45041D01*
G01X78869Y45041D01*
G01X78973Y45092D01*
G01X79024Y45143D01*
G01X79075Y45247D01*
G01X79179Y45554D01*
G01X79230Y45659D01*
G01X79281Y45709D01*
G01X79385Y45760D01*
G01X79537Y45760D01*
G01X79641Y45659D01*
G01X79692Y45504D01*
G01X79692Y45298D01*
G01X79641Y45143D01*
G01X79537Y45041D01*
G01X78613Y46101D02*
G01X79692Y46101D01*
G01X76327Y42720D02*
G01X77406Y42720D01*
G01X76327Y42720D02*
G01X77406Y43131D01*
G01X76327Y43543D02*
G01X77406Y43131D01*
G01X76327Y43543D02*
G01X77406Y43543D01*
G01X76327Y43881D02*
G01X77406Y43881D01*
G01X76481Y44940D02*
G01X76380Y44836D01*
G01X76327Y44681D01*
G01X76327Y44477D01*
G01X76380Y44323D01*
G01X76481Y44218D01*
G01X76583Y44218D01*
G01X76687Y44272D01*
G01X76738Y44323D01*
G01X76789Y44424D01*
G01X76893Y44734D01*
G01X76944Y44836D01*
G01X76995Y44886D01*
G01X77099Y44940D01*
G01X77251Y44940D01*
G01X77355Y44836D01*
G01X77406Y44681D01*
G01X77406Y44477D01*
G01X77355Y44323D01*
G01X77251Y44218D01*
G01X76327Y45585D02*
G01X76380Y45483D01*
G01X76481Y45379D01*
G01X76583Y45328D01*
G01X76738Y45278D01*
G01X76995Y45278D01*
G01X77149Y45328D01*
G01X77251Y45379D01*
G01X77355Y45483D01*
G01X77406Y45585D01*
G01X77406Y45791D01*
G01X77355Y45895D01*
G01X77251Y45996D01*
G01X77149Y46047D01*
G01X76995Y46101D01*
G01X76738Y46101D01*
G01X76583Y46047D01*
G01X76481Y45996D01*
G01X76380Y45895D01*
G01X76327Y45791D01*
G01X76327Y45585D01*
G01X73677Y42798D02*
G01X74757Y43210D01*
G01X73677Y43621D02*
G01X74757Y43210D01*
G01X73934Y44729D02*
G01X73832Y44678D01*
G01X73731Y44576D01*
G01X73677Y44472D01*
G01X73677Y44267D01*
G01X73731Y44165D01*
G01X73832Y44061D01*
G01X73934Y44010D01*
G01X74089Y43959D01*
G01X74345Y43959D01*
G01X74500Y44010D01*
G01X74602Y44061D01*
G01X74706Y44165D01*
G01X74757Y44267D01*
G01X74757Y44472D01*
G01X74706Y44576D01*
G01X74602Y44678D01*
G01X74500Y44729D01*
G01X73934Y45839D02*
G01X73832Y45788D01*
G01X73731Y45684D01*
G01X73677Y45582D01*
G01X73677Y45377D01*
G01X73731Y45275D01*
G01X73832Y45171D01*
G01X73934Y45120D01*
G01X74089Y45069D01*
G01X74345Y45069D01*
G01X74500Y45120D01*
G01X74602Y45171D01*
G01X74706Y45275D01*
G01X74757Y45377D01*
G01X74757Y45582D01*
G01X74706Y45684D01*
G01X74602Y45788D01*
G01X74500Y45839D01*
G01X71394Y43568D02*
G01X71292Y43517D01*
G01X71191Y43416D01*
G01X71137Y43312D01*
G01X71137Y43106D01*
G01X71191Y43004D01*
G01X71292Y42900D01*
G01X71394Y42849D01*
G01X71549Y42799D01*
G01X71805Y42799D01*
G01X71960Y42849D01*
G01X72062Y42900D01*
G01X72166Y43004D01*
G01X72217Y43106D01*
G01X72217Y43312D01*
G01X72166Y43416D01*
G01X72062Y43517D01*
G01X71960Y43568D01*
G01X71805Y43568D01*
G01X71805Y43312D02*
G01X71805Y43568D01*
G01X71137Y43908D02*
G01X72217Y43908D01*
G01X71137Y43908D02*
G01X72217Y44627D01*
G01X71137Y44627D02*
G01X72217Y44627D01*
G01X71137Y44965D02*
G01X72217Y44965D01*
G01X71137Y44965D02*
G01X71137Y45326D01*
G01X71191Y45481D01*
G01X71292Y45582D01*
G01X71394Y45633D01*
G01X71549Y45684D01*
G01X71805Y45684D01*
G01X71960Y45633D01*
G01X72062Y45582D01*
G01X72166Y45481D01*
G01X72217Y45326D01*
G01X72217Y44965D01*
G54D18*
G01X126636Y37724D02*
G01X126583Y37828D01*
G01X126479Y37932D01*
G01X126377Y37983D01*
G01X126169Y37983D01*
G01X126065Y37932D01*
G01X125961Y37828D01*
G01X125907Y37724D01*
G01X125857Y37566D01*
G01X125857Y37307D01*
G01X125907Y37152D01*
G01X125961Y37048D01*
G01X126065Y36944D01*
G01X126169Y36893D01*
G01X126377Y36893D01*
G01X126479Y36944D01*
G01X126583Y37048D01*
G01X126636Y37152D01*
G01X126636Y37307D01*
G01X126377Y37307D02*
G01X126636Y37307D01*
G01X126979Y37983D02*
G01X126979Y36893D01*
G01X126979Y37983D02*
G01X127447Y37983D01*
G01X127601Y37932D01*
G01X127655Y37879D01*
G01X127706Y37774D01*
G01X127706Y37619D01*
G01X127655Y37515D01*
G01X127601Y37465D01*
G01X127447Y37411D01*
G01X126979Y37411D01*
G01X128778Y37828D02*
G01X128673Y37932D01*
G01X128516Y37983D01*
G01X128308Y37983D01*
G01X128153Y37932D01*
G01X128049Y37828D01*
G01X128049Y37724D01*
G01X128102Y37619D01*
G01X128153Y37566D01*
G01X128257Y37515D01*
G01X128569Y37411D01*
G01X128673Y37360D01*
G01X128724Y37307D01*
G01X128778Y37203D01*
G01X128778Y37048D01*
G01X128673Y36944D01*
G01X128516Y36893D01*
G01X128308Y36893D01*
G01X128153Y36944D01*
G01X128049Y37048D01*
G01X129743Y37828D02*
G01X129692Y37932D01*
G01X129534Y37983D01*
G01X129430Y37983D01*
G01X129275Y37932D01*
G01X129171Y37774D01*
G01X129120Y37515D01*
G01X129120Y37256D01*
G01X129171Y37048D01*
G01X129275Y36944D01*
G01X129430Y36893D01*
G01X129484Y36893D01*
G01X129639Y36944D01*
G01X129743Y37048D01*
G01X129794Y37203D01*
G01X129794Y37256D01*
G01X129743Y37411D01*
G01X129639Y37515D01*
G01X129484Y37566D01*
G01X129430Y37566D01*
G01X129275Y37515D01*
G01X129171Y37411D01*
G01X129120Y37256D01*
G01X130136Y37983D02*
G01X130136Y36893D01*
G01X130136Y37983D02*
G01X130553Y36893D01*
G01X130970Y37983D02*
G01X130553Y36893D01*
G01X130970Y37983D02*
G01X130970Y36893D01*
G01X131312Y37983D02*
G01X131726Y36893D01*
G01X132143Y37983D02*
G01X131726Y36893D01*
G01X132537Y37724D02*
G01X132537Y37774D01*
G01X132590Y37879D01*
G01X132641Y37932D01*
G01X132745Y37983D01*
G01X132953Y37983D01*
G01X133057Y37932D01*
G01X133108Y37879D01*
G01X133162Y37774D01*
G01X133162Y37670D01*
G01X133108Y37566D01*
G01X133007Y37411D01*
G01X132486Y36893D01*
G01X133212Y36893D01*
G01X133921Y38191D02*
G01X133817Y38087D01*
G01X133713Y37932D01*
G01X133609Y37724D01*
G01X133555Y37465D01*
G01X133555Y37256D01*
G01X133609Y36995D01*
G01X133713Y36789D01*
G01X133817Y36631D01*
G01X133921Y36527D01*
G01X135041Y37724D02*
G01X134990Y37828D01*
G01X134886Y37932D01*
G01X134782Y37983D01*
G01X134574Y37983D01*
G01X134470Y37932D01*
G01X134366Y37828D01*
G01X134315Y37724D01*
G01X134264Y37566D01*
G01X134264Y37307D01*
G01X134315Y37152D01*
G01X134366Y37048D01*
G01X134470Y36944D01*
G01X134574Y36893D01*
G01X134782Y36893D01*
G01X134886Y36944D01*
G01X134990Y37048D01*
G01X135041Y37152D01*
G01X135041Y37307D01*
G01X134782Y37307D02*
G01X135041Y37307D01*
G01X135384Y37983D02*
G01X135801Y37465D01*
G01X135801Y36893D01*
G01X136217Y37983D02*
G01X135801Y37465D01*
G01X136560Y37360D02*
G01X137495Y37360D01*
G01X137838Y37983D02*
G01X137838Y36893D01*
G01X137838Y37983D02*
G01X138564Y36893D01*
G01X138564Y37983D02*
G01X138564Y36893D01*
G01X138907Y37983D02*
G01X138907Y36893D01*
G01X138907Y37983D02*
G01X139583Y37983D01*
G01X138907Y37465D02*
G01X139324Y37465D01*
G01X138907Y36893D02*
G01X139583Y36893D01*
G01X140238Y37983D02*
G01X140134Y37932D01*
G01X140030Y37828D01*
G01X139979Y37724D01*
G01X139926Y37566D01*
G01X139926Y37307D01*
G01X139979Y37152D01*
G01X140030Y37048D01*
G01X140134Y36944D01*
G01X140238Y36893D01*
G01X140446Y36893D01*
G01X140550Y36944D01*
G01X140652Y37048D01*
G01X140705Y37152D01*
G01X140756Y37307D01*
G01X140756Y37566D01*
G01X140705Y37724D01*
G01X140652Y37828D01*
G01X140550Y37932D01*
G01X140446Y37983D01*
G01X140238Y37983D01*
G01X141724Y37828D02*
G01X141671Y37932D01*
G01X141516Y37983D01*
G01X141411Y37983D01*
G01X141257Y37932D01*
G01X141152Y37774D01*
G01X141099Y37515D01*
G01X141099Y37256D01*
G01X141152Y37048D01*
G01X141257Y36944D01*
G01X141411Y36893D01*
G01X141465Y36893D01*
G01X141620Y36944D01*
G01X141724Y37048D01*
G01X141775Y37203D01*
G01X141775Y37256D01*
G01X141724Y37411D01*
G01X141620Y37515D01*
G01X141465Y37566D01*
G01X141411Y37566D01*
G01X141257Y37515D01*
G01X141152Y37411D01*
G01X141099Y37256D01*
G01X142118Y37983D02*
G01X142118Y36893D01*
G01X142118Y37983D02*
G01X142534Y36893D01*
G01X142951Y37983D02*
G01X142534Y36893D01*
G01X142951Y37983D02*
G01X142951Y36893D01*
G01X143294Y37983D02*
G01X143708Y36893D01*
G01X144124Y37983D02*
G01X143708Y36893D01*
G01X144518Y37724D02*
G01X144518Y37774D01*
G01X144571Y37879D01*
G01X144622Y37932D01*
G01X144726Y37983D01*
G01X144934Y37983D01*
G01X145039Y37932D01*
G01X145089Y37879D01*
G01X145143Y37774D01*
G01X145143Y37670D01*
G01X145089Y37566D01*
G01X144985Y37411D01*
G01X144467Y36893D01*
G01X145194Y36893D01*
G01X145536Y38191D02*
G01X145641Y38087D01*
G01X145745Y37932D01*
G01X145849Y37724D01*
G01X145900Y37465D01*
G01X145900Y37256D01*
G01X145849Y36995D01*
G01X145745Y36789D01*
G01X145641Y36631D01*
G01X145536Y36527D01*
G01X125857Y36205D02*
G01X125857Y35425D01*
G01X125907Y35270D01*
G01X126011Y35166D01*
G01X126169Y35115D01*
G01X126273Y35115D01*
G01X126428Y35166D01*
G01X126532Y35270D01*
G01X126583Y35425D01*
G01X126583Y36205D01*
G01X127030Y36205D02*
G01X127601Y36205D01*
G01X127292Y35788D01*
G01X127447Y35788D01*
G01X127551Y35737D01*
G01X127601Y35687D01*
G01X127655Y35529D01*
G01X127655Y35425D01*
G01X127601Y35270D01*
G01X127497Y35166D01*
G01X127342Y35115D01*
G01X127187Y35115D01*
G01X127030Y35166D01*
G01X126979Y35217D01*
G01X126926Y35321D01*
G54D13*
G01X113329Y34061D02*
G01X113286Y34152D01*
G01X113195Y34244D01*
G01X113103Y34290D01*
G01X112920Y34290D01*
G01X112831Y34244D01*
G01X112740Y34152D01*
G01X112694Y34061D01*
G01X112649Y33926D01*
G01X112649Y33698D01*
G01X112694Y33561D01*
G01X112740Y33472D01*
G01X112831Y33380D01*
G01X112920Y33334D01*
G01X113103Y33334D01*
G01X113195Y33380D01*
G01X113286Y33472D01*
G01X113329Y33561D01*
G01X113329Y33698D01*
G01X113103Y33698D02*
G01X113329Y33698D01*
G01X113631Y34290D02*
G01X113995Y33835D01*
G01X113995Y33334D01*
G01X114358Y34290D02*
G01X113995Y33835D01*
G01X114658Y33743D02*
G01X115476Y33743D01*
G01X115775Y34290D02*
G01X115775Y33334D01*
G01X115775Y34290D02*
G01X116413Y33334D01*
G01X116413Y34290D02*
G01X116413Y33334D01*
G01X116713Y34290D02*
G01X116713Y33334D01*
G01X116713Y34290D02*
G01X117302Y34290D01*
G01X116713Y33835D02*
G01X117076Y33835D01*
G01X116713Y33334D02*
G01X117302Y33334D01*
G01X117876Y34290D02*
G01X117784Y34244D01*
G01X117693Y34152D01*
G01X117650Y34061D01*
G01X117604Y33926D01*
G01X117604Y33698D01*
G01X117650Y33561D01*
G01X117693Y33472D01*
G01X117784Y33380D01*
G01X117876Y33334D01*
G01X118059Y33334D01*
G01X118148Y33380D01*
G01X118239Y33472D01*
G01X118285Y33561D01*
G01X118330Y33698D01*
G01X118330Y33926D01*
G01X118285Y34061D01*
G01X118239Y34152D01*
G01X118148Y34244D01*
G01X118059Y34290D01*
G01X117876Y34290D01*
G01X119176Y34152D02*
G01X119131Y34244D01*
G01X118993Y34290D01*
G01X118902Y34290D01*
G01X118767Y34244D01*
G01X118676Y34107D01*
G01X118630Y33881D01*
G01X118630Y33652D01*
G01X118676Y33472D01*
G01X118767Y33380D01*
G01X118902Y33334D01*
G01X118948Y33334D01*
G01X119085Y33380D01*
G01X119176Y33472D01*
G01X119222Y33606D01*
G01X119222Y33652D01*
G01X119176Y33789D01*
G01X119085Y33881D01*
G01X118948Y33926D01*
G01X118902Y33926D01*
G01X118767Y33881D01*
G01X118676Y33789D01*
G01X118630Y33652D01*
G01X119522Y34290D02*
G01X119522Y33334D01*
G01X119522Y34290D02*
G01X119885Y33334D01*
G01X120248Y34290D02*
G01X119885Y33334D01*
G01X120248Y34290D02*
G01X120248Y33334D01*
G01X120548Y34290D02*
G01X120911Y33334D01*
G01X121277Y34290D02*
G01X120911Y33334D01*
G01X121622Y34061D02*
G01X121622Y34107D01*
G01X121666Y34198D01*
G01X121711Y34244D01*
G01X121803Y34290D01*
G01X121986Y34290D01*
G01X122077Y34244D01*
G01X122120Y34198D01*
G01X122166Y34107D01*
G01X122166Y34015D01*
G01X122120Y33926D01*
G01X122031Y33789D01*
G01X121577Y33334D01*
G01X122212Y33334D01*
G01X111805Y25933D02*
G01X111762Y26024D01*
G01X111671Y26116D01*
G01X111579Y26162D01*
G01X111396Y26162D01*
G01X111307Y26116D01*
G01X111216Y26024D01*
G01X111170Y25933D01*
G01X111125Y25798D01*
G01X111125Y25570D01*
G01X111170Y25433D01*
G01X111216Y25344D01*
G01X111307Y25252D01*
G01X111396Y25206D01*
G01X111579Y25206D01*
G01X111671Y25252D01*
G01X111762Y25344D01*
G01X111805Y25433D01*
G01X111805Y25570D01*
G01X111579Y25570D02*
G01X111805Y25570D01*
G01X112107Y26162D02*
G01X112107Y25206D01*
G01X112107Y26162D02*
G01X112742Y25206D01*
G01X112742Y26162D02*
G01X112742Y25206D01*
G01X113042Y26162D02*
G01X113042Y25206D01*
G01X113042Y26162D02*
G01X113360Y26162D01*
G01X113497Y26116D01*
G01X113588Y26024D01*
G01X113634Y25933D01*
G01X113680Y25798D01*
G01X113680Y25570D01*
G01X113634Y25433D01*
G01X113588Y25344D01*
G01X113497Y25252D01*
G01X113360Y25206D01*
G01X113042Y25206D01*
G01X111442Y23621D02*
G01X111442Y22666D01*
G01X111125Y23621D02*
G01X111762Y23621D01*
G01X112062Y23621D02*
G01X112697Y22666D01*
G01X112697Y23621D02*
G01X112062Y22666D01*
G01X112996Y23621D02*
G01X112996Y22666D01*
G01X112996Y23621D02*
G01X113317Y23621D01*
G01X113451Y23576D01*
G01X113543Y23484D01*
G01X113588Y23393D01*
G01X113634Y23258D01*
G01X113634Y23030D01*
G01X113588Y22892D01*
G01X113543Y22804D01*
G01X113451Y22712D01*
G01X113317Y22666D01*
G01X112996Y22666D01*
G01X111125Y21082D02*
G01X111125Y20126D01*
G01X111125Y21082D02*
G01X111533Y21082D01*
G01X111671Y21036D01*
G01X111716Y20990D01*
G01X111762Y20899D01*
G01X111762Y20807D01*
G01X111716Y20718D01*
G01X111671Y20673D01*
G01X111533Y20627D01*
G01X111125Y20627D01*
G01X111442Y20627D02*
G01X111762Y20126D01*
G01X112062Y21082D02*
G01X112697Y20126D01*
G01X112697Y21082D02*
G01X112062Y20126D01*
G01X112996Y21082D02*
G01X112996Y20126D01*
G01X112996Y21082D02*
G01X113317Y21082D01*
G01X113451Y21036D01*
G01X113543Y20944D01*
G01X113588Y20853D01*
G01X113634Y20718D01*
G01X113634Y20490D01*
G01X113588Y20353D01*
G01X113543Y20264D01*
G01X113451Y20172D01*
G01X113317Y20126D01*
G01X112996Y20126D01*
G01X111125Y18542D02*
G01X111488Y17586D01*
G01X111851Y18542D02*
G01X111488Y17586D01*
G01X112834Y18313D02*
G01X112788Y18404D01*
G01X112697Y18496D01*
G01X112605Y18542D01*
G01X112425Y18542D01*
G01X112334Y18496D01*
G01X112242Y18404D01*
G01X112196Y18313D01*
G01X112151Y18178D01*
G01X112151Y17950D01*
G01X112196Y17813D01*
G01X112242Y17724D01*
G01X112334Y17632D01*
G01X112425Y17586D01*
G01X112605Y17586D01*
G01X112697Y17632D01*
G01X112788Y17724D01*
G01X112834Y17813D01*
G01X113814Y18313D02*
G01X113771Y18404D01*
G01X113680Y18496D01*
G01X113588Y18542D01*
G01X113405Y18542D01*
G01X113317Y18496D01*
G01X113225Y18404D01*
G01X113179Y18313D01*
G01X113134Y18178D01*
G01X113134Y17950D01*
G01X113179Y17813D01*
G01X113225Y17724D01*
G01X113317Y17632D01*
G01X113405Y17586D01*
G01X113588Y17586D01*
G01X113680Y17632D01*
G01X113771Y17724D01*
G01X113814Y17813D01*
G54D18*
G01X78105Y7122D02*
G01X78105Y6032D01*
G01X78105Y7122D02*
G01X78572Y7122D01*
G01X78727Y7071D01*
G01X78780Y7018D01*
G01X78831Y6913D01*
G01X78831Y6809D01*
G01X78780Y6705D01*
G01X78727Y6654D01*
G01X78572Y6604D01*
G01X78105Y6604D02*
G01X78572Y6604D01*
G01X78727Y6550D01*
G01X78780Y6499D01*
G01X78831Y6395D01*
G01X78831Y6238D01*
G01X78780Y6134D01*
G01X78727Y6083D01*
G01X78572Y6032D01*
G01X78105Y6032D01*
G01X79174Y7122D02*
G01X79174Y6032D01*
G01X79174Y7122D02*
G01X79590Y6032D01*
G01X80007Y7122D02*
G01X79590Y6032D01*
G01X80007Y7122D02*
G01X80007Y6032D01*
G01X80350Y7122D02*
G01X80350Y6032D01*
G01X80350Y7122D02*
G01X80817Y7122D01*
G01X80972Y7071D01*
G01X81026Y7018D01*
G01X81076Y6913D01*
G01X81076Y6758D01*
G01X81026Y6654D01*
G01X80972Y6604D01*
G01X80817Y6550D01*
G01X80350Y6550D01*
G01X81470Y6863D02*
G01X81470Y6913D01*
G01X81523Y7018D01*
G01X81574Y7071D01*
G01X81678Y7122D01*
G01X81887Y7122D01*
G01X81991Y7071D01*
G01X82042Y7018D01*
G01X82095Y6913D01*
G01X82095Y6809D01*
G01X82042Y6705D01*
G01X81940Y6550D01*
G01X81419Y6032D01*
G01X82146Y6032D01*
G01X82750Y7122D02*
G01X82593Y7071D01*
G01X82542Y6967D01*
G01X82542Y6863D01*
G01X82593Y6758D01*
G01X82697Y6705D01*
G01X82905Y6654D01*
G01X83060Y6604D01*
G01X83164Y6499D01*
G01X83218Y6395D01*
G01X83218Y6238D01*
G01X83164Y6134D01*
G01X83113Y6083D01*
G01X82956Y6032D01*
G01X82750Y6032D01*
G01X82593Y6083D01*
G01X82542Y6134D01*
G01X82489Y6238D01*
G01X82489Y6395D01*
G01X82542Y6499D01*
G01X82646Y6604D01*
G01X82801Y6654D01*
G01X83009Y6705D01*
G01X83113Y6758D01*
G01X83164Y6863D01*
G01X83164Y6967D01*
G01X83113Y7071D01*
G01X82956Y7122D01*
G01X82750Y7122D01*
G01X83870Y7122D02*
G01X83715Y7071D01*
G01X83611Y6913D01*
G01X83560Y6654D01*
G01X83560Y6499D01*
G01X83611Y6238D01*
G01X83715Y6083D01*
G01X83870Y6032D01*
G01X83974Y6032D01*
G01X84132Y6083D01*
G01X84236Y6238D01*
G01X84287Y6499D01*
G01X84287Y6654D01*
G01X84236Y6913D01*
G01X84132Y7071D01*
G01X83974Y7122D01*
G01X83870Y7122D01*
G01X72252Y13462D02*
G01X73032Y13462D01*
G01X73187Y13512D01*
G01X73291Y13616D01*
G01X73342Y13774D01*
G01X73342Y13878D01*
G01X73291Y14033D01*
G01X73187Y14137D01*
G01X73032Y14188D01*
G01X72252Y14188D01*
G01X72461Y14531D02*
G01X72407Y14635D01*
G01X72252Y14792D01*
G01X73342Y14792D01*
G54D13*
G01X74422Y13970D02*
G01X75377Y14333D01*
G01X74422Y14696D02*
G01X75377Y14333D01*
G01X74650Y15679D02*
G01X74559Y15633D01*
G01X74467Y15542D01*
G01X74422Y15450D01*
G01X74422Y15270D01*
G01X74467Y15179D01*
G01X74559Y15087D01*
G01X74650Y15041D01*
G01X74785Y14996D01*
G01X75013Y14996D01*
G01X75150Y15041D01*
G01X75239Y15087D01*
G01X75331Y15179D01*
G01X75377Y15270D01*
G01X75377Y15450D01*
G01X75331Y15542D01*
G01X75239Y15633D01*
G01X75150Y15679D01*
G01X74650Y16659D02*
G01X74559Y16616D01*
G01X74467Y16525D01*
G01X74422Y16433D01*
G01X74422Y16250D01*
G01X74467Y16162D01*
G01X74559Y16070D01*
G01X74650Y16024D01*
G01X74785Y15979D01*
G01X75013Y15979D01*
G01X75150Y16024D01*
G01X75239Y16070D01*
G01X75331Y16162D01*
G01X75377Y16250D01*
G01X75377Y16433D01*
G01X75331Y16525D01*
G01X75239Y16616D01*
G01X75150Y16659D01*
G01X77152Y14650D02*
G01X77061Y14607D01*
G01X76969Y14516D01*
G01X76923Y14424D01*
G01X76923Y14241D01*
G01X76969Y14152D01*
G01X77061Y14061D01*
G01X77152Y14015D01*
G01X77287Y13970D01*
G01X77515Y13970D01*
G01X77652Y14015D01*
G01X77741Y14061D01*
G01X77833Y14152D01*
G01X77878Y14241D01*
G01X77878Y14424D01*
G01X77833Y14516D01*
G01X77741Y14607D01*
G01X77652Y14650D01*
G01X77515Y14650D01*
G01X77515Y14424D02*
G01X77515Y14650D01*
G01X76923Y14952D02*
G01X77878Y14952D01*
G01X76923Y14952D02*
G01X77878Y15587D01*
G01X76923Y15587D02*
G01X77878Y15587D01*
G01X76923Y15887D02*
G01X77878Y15887D01*
G01X76923Y15887D02*
G01X76923Y16205D01*
G01X76969Y16342D01*
G01X77061Y16433D01*
G01X77152Y16479D01*
G01X77287Y16525D01*
G01X77515Y16525D01*
G01X77652Y16479D01*
G01X77741Y16433D01*
G01X77833Y16342D01*
G01X77878Y16205D01*
G01X77878Y15887D01*
G01X79601Y14607D02*
G01X79509Y14516D01*
G01X79463Y14378D01*
G01X79463Y14196D01*
G01X79509Y14061D01*
G01X79601Y13970D01*
G01X79692Y13970D01*
G01X79783Y14015D01*
G01X79827Y14061D01*
G01X79872Y14152D01*
G01X79964Y14424D01*
G01X80010Y14516D01*
G01X80055Y14561D01*
G01X80147Y14607D01*
G01X80281Y14607D01*
G01X80373Y14516D01*
G01X80418Y14378D01*
G01X80418Y14196D01*
G01X80373Y14061D01*
G01X80281Y13970D01*
G01X79692Y15587D02*
G01X79601Y15542D01*
G01X79509Y15450D01*
G01X79463Y15361D01*
G01X79463Y15179D01*
G01X79509Y15087D01*
G01X79601Y14996D01*
G01X79692Y14952D01*
G01X79827Y14907D01*
G01X80055Y14907D01*
G01X80192Y14952D01*
G01X80281Y14996D01*
G01X80373Y15087D01*
G01X80418Y15179D01*
G01X80418Y15361D01*
G01X80373Y15450D01*
G01X80281Y15542D01*
G01X80192Y15587D01*
G01X79463Y15887D02*
G01X80418Y15887D01*
G01X80418Y15887D02*
G01X80418Y16433D01*
G01X82141Y14607D02*
G01X82049Y14516D01*
G01X82003Y14378D01*
G01X82003Y14196D01*
G01X82049Y14061D01*
G01X82141Y13970D01*
G01X82232Y13970D01*
G01X82323Y14015D01*
G01X82367Y14061D01*
G01X82412Y14152D01*
G01X82504Y14424D01*
G01X82550Y14516D01*
G01X82595Y14561D01*
G01X82687Y14607D01*
G01X82821Y14607D01*
G01X82913Y14516D01*
G01X82958Y14378D01*
G01X82958Y14196D01*
G01X82913Y14061D01*
G01X82821Y13970D01*
G01X82003Y14907D02*
G01X82958Y14907D01*
G01X82003Y14907D02*
G01X82003Y15224D01*
G01X82049Y15361D01*
G01X82141Y15450D01*
G01X82232Y15496D01*
G01X82367Y15542D01*
G01X82595Y15542D01*
G01X82732Y15496D01*
G01X82821Y15450D01*
G01X82913Y15361D01*
G01X82958Y15224D01*
G01X82958Y14907D01*
G01X82003Y16205D02*
G01X82958Y15841D01*
G01X82003Y16205D02*
G01X82958Y16570D01*
G01X82641Y15979D02*
G01X82641Y16433D01*
G01X84772Y14650D02*
G01X84681Y14607D01*
G01X84589Y14516D01*
G01X84543Y14424D01*
G01X84543Y14241D01*
G01X84589Y14152D01*
G01X84681Y14061D01*
G01X84772Y14015D01*
G01X84907Y13970D01*
G01X85135Y13970D01*
G01X85272Y14015D01*
G01X85361Y14061D01*
G01X85453Y14152D01*
G01X85498Y14241D01*
G01X85498Y14424D01*
G01X85453Y14516D01*
G01X85361Y14607D01*
G01X85272Y14650D01*
G01X84681Y15587D02*
G01X84589Y15496D01*
G01X84543Y15361D01*
G01X84543Y15179D01*
G01X84589Y15041D01*
G01X84681Y14952D01*
G01X84772Y14952D01*
G01X84863Y14996D01*
G01X84907Y15041D01*
G01X84952Y15133D01*
G01X85044Y15405D01*
G01X85090Y15496D01*
G01X85135Y15542D01*
G01X85227Y15587D01*
G01X85361Y15587D01*
G01X85453Y15496D01*
G01X85498Y15361D01*
G01X85498Y15179D01*
G01X85453Y15041D01*
G01X85361Y14952D01*
G01X84543Y16116D02*
G01X84589Y15979D01*
G01X84681Y15933D01*
G01X84772Y15933D01*
G01X84863Y15979D01*
G01X84907Y16070D01*
G01X84952Y16250D01*
G01X84998Y16388D01*
G01X85090Y16479D01*
G01X85181Y16525D01*
G01X85316Y16525D01*
G01X85407Y16479D01*
G01X85453Y16433D01*
G01X85498Y16296D01*
G01X85498Y16116D01*
G01X85453Y15979D01*
G01X85407Y15933D01*
G01X85316Y15887D01*
G01X85181Y15887D01*
G01X85090Y15933D01*
G01X84998Y16024D01*
G01X84952Y16162D01*
G01X84907Y16342D01*
G01X84863Y16433D01*
G01X84772Y16479D01*
G01X84681Y16479D01*
G01X84589Y16433D01*
G01X84543Y16296D01*
G01X84543Y16116D01*
G01X87221Y14607D02*
G01X87129Y14516D01*
G01X87083Y14378D01*
G01X87083Y14196D01*
G01X87129Y14061D01*
G01X87221Y13970D01*
G01X87312Y13970D01*
G01X87403Y14015D01*
G01X87447Y14061D01*
G01X87492Y14152D01*
G01X87584Y14424D01*
G01X87630Y14516D01*
G01X87675Y14561D01*
G01X87767Y14607D01*
G01X87901Y14607D01*
G01X87993Y14516D01*
G01X88038Y14378D01*
G01X88038Y14196D01*
G01X87993Y14061D01*
G01X87901Y13970D01*
G01X87083Y14907D02*
G01X88038Y14907D01*
G01X87083Y14907D02*
G01X87083Y15224D01*
G01X87129Y15361D01*
G01X87221Y15450D01*
G01X87312Y15496D01*
G01X87447Y15542D01*
G01X87675Y15542D01*
G01X87812Y15496D01*
G01X87901Y15450D01*
G01X87993Y15361D01*
G01X88038Y15224D01*
G01X88038Y14907D01*
G01X87083Y16116D02*
G01X87129Y16024D01*
G01X87221Y15933D01*
G01X87312Y15887D01*
G01X87447Y15841D01*
G01X87675Y15841D01*
G01X87812Y15887D01*
G01X87901Y15933D01*
G01X87993Y16024D01*
G01X88038Y16116D01*
G01X88038Y16296D01*
G01X87993Y16388D01*
G01X87901Y16479D01*
G01X87812Y16525D01*
G01X87675Y16570D01*
G01X87447Y16570D01*
G01X87312Y16525D01*
G01X87221Y16479D01*
G01X87129Y16388D01*
G01X87083Y16296D01*
G01X87083Y16116D01*
G01X79209Y9398D02*
G01X80164Y9398D01*
G01X79209Y9398D02*
G01X79209Y9806D01*
G01X79255Y9944D01*
G01X79301Y9989D01*
G01X79392Y10035D01*
G01X79484Y10035D01*
G01X79573Y9989D01*
G01X79618Y9944D01*
G01X79664Y9806D01*
G01X79664Y9398D02*
G01X79664Y9806D01*
G01X79710Y9944D01*
G01X79755Y9989D01*
G01X79847Y10035D01*
G01X79982Y10035D01*
G01X80073Y9989D01*
G01X80119Y9944D01*
G01X80164Y9806D01*
G01X80164Y9398D01*
G01X79209Y10335D02*
G01X80164Y10335D01*
G01X79209Y10335D02*
G01X80164Y10698D01*
G01X79209Y11061D02*
G01X80164Y10698D01*
G01X79209Y11061D02*
G01X80164Y11061D01*
G01X79209Y11361D02*
G01X80164Y11361D01*
G01X79209Y11361D02*
G01X79209Y11770D01*
G01X79255Y11907D01*
G01X79301Y11953D01*
G01X79392Y11998D01*
G01X79529Y11998D01*
G01X79618Y11953D01*
G01X79664Y11907D01*
G01X79710Y11770D01*
G01X79710Y11361D01*
G01X81452Y9443D02*
G01X81409Y9443D01*
G01X81318Y9489D01*
G01X81272Y9535D01*
G01X81226Y9624D01*
G01X81226Y9806D01*
G01X81272Y9898D01*
G01X81318Y9944D01*
G01X81409Y9989D01*
G01X81498Y9989D01*
G01X81589Y9944D01*
G01X81727Y9852D01*
G01X82181Y9398D01*
G01X82181Y10035D01*
G01X81226Y10561D02*
G01X81272Y10424D01*
G01X81363Y10380D01*
G01X81452Y10380D01*
G01X81544Y10424D01*
G01X81589Y10515D01*
G01X81635Y10698D01*
G01X81681Y10833D01*
G01X81772Y10924D01*
G01X81861Y10970D01*
G01X81998Y10970D01*
G01X82090Y10924D01*
G01X82135Y10878D01*
G01X82181Y10744D01*
G01X82181Y10561D01*
G01X82135Y10424D01*
G01X82090Y10380D01*
G01X81998Y10335D01*
G01X81861Y10335D01*
G01X81772Y10380D01*
G01X81681Y10469D01*
G01X81635Y10607D01*
G01X81589Y10789D01*
G01X81544Y10878D01*
G01X81452Y10924D01*
G01X81363Y10924D01*
G01X81272Y10878D01*
G01X81226Y10744D01*
G01X81226Y10561D01*
G01X81226Y11544D02*
G01X81272Y11407D01*
G01X81409Y11315D01*
G01X81635Y11269D01*
G01X81772Y11269D01*
G01X81998Y11315D01*
G01X82135Y11407D01*
G01X82181Y11544D01*
G01X82181Y11633D01*
G01X82135Y11770D01*
G01X81998Y11861D01*
G01X81772Y11907D01*
G01X81635Y11907D01*
G01X81409Y11861D01*
G01X81272Y11770D01*
G01X81226Y11633D01*
G01X81226Y11544D01*
G54D18*
G01X122554Y67193D02*
G01X122554Y66103D01*
G01X122554Y67193D02*
G01X123230Y67193D01*
G01X122554Y66674D02*
G01X122971Y66674D01*
G01X122554Y66103D02*
G01X123230Y66103D01*
G01X124299Y67038D02*
G01X124195Y67142D01*
G01X124040Y67193D01*
G01X123832Y67193D01*
G01X123677Y67142D01*
G01X123573Y67038D01*
G01X123573Y66934D01*
G01X123624Y66829D01*
G01X123677Y66776D01*
G01X123781Y66725D01*
G01X124091Y66621D01*
G01X124195Y66570D01*
G01X124249Y66517D01*
G01X124299Y66413D01*
G01X124299Y66258D01*
G01X124195Y66154D01*
G01X124040Y66103D01*
G01X123832Y66103D01*
G01X123677Y66154D01*
G01X123573Y66258D01*
G01X124642Y67193D02*
G01X124642Y66103D01*
G01X124642Y67193D02*
G01X125110Y67193D01*
G01X125267Y67142D01*
G01X125318Y67088D01*
G01X125371Y66984D01*
G01X125371Y66829D01*
G01X125318Y66725D01*
G01X125267Y66674D01*
G01X125110Y66621D01*
G01X124642Y66621D01*
G01X125818Y67193D02*
G01X126390Y67193D01*
G01X126077Y66776D01*
G01X126232Y66776D01*
G01X126337Y66725D01*
G01X126390Y66674D01*
G01X126441Y66517D01*
G01X126441Y66413D01*
G01X126390Y66258D01*
G01X126286Y66154D01*
G01X126128Y66103D01*
G01X125973Y66103D01*
G01X125818Y66154D01*
G01X125765Y66205D01*
G01X125714Y66309D01*
G01X126834Y66934D02*
G01X126834Y66984D01*
G01X126888Y67088D01*
G01X126938Y67142D01*
G01X127043Y67193D01*
G01X127251Y67193D01*
G01X127355Y67142D01*
G01X127406Y67088D01*
G01X127459Y66984D01*
G01X127459Y66880D01*
G01X127406Y66776D01*
G01X127304Y66621D01*
G01X126784Y66103D01*
G01X127510Y66103D01*
G01X127853Y66570D02*
G01X128790Y66570D01*
G01X129133Y67193D02*
G01X129392Y66103D01*
G01X129651Y67193D02*
G01X129392Y66103D01*
G01X129651Y67193D02*
G01X129910Y66103D01*
G01X130172Y67193D02*
G01X129910Y66103D01*
G01X130515Y67193D02*
G01X130515Y66103D01*
G01X130858Y67193D02*
G01X130858Y66103D01*
G01X130858Y67193D02*
G01X131533Y67193D01*
G01X130858Y66674D02*
G01X131272Y66674D01*
G01X131876Y67193D02*
G01X131876Y66103D01*
G01X132219Y66570D02*
G01X133154Y66570D01*
G01X133497Y67193D02*
G01X133497Y66103D01*
G01X133497Y66103D02*
G01X134119Y66103D01*
G01X134721Y66829D02*
G01X134619Y66776D01*
G01X134515Y66674D01*
G01X134462Y66517D01*
G01X134462Y66413D01*
G01X134515Y66258D01*
G01X134619Y66154D01*
G01X134721Y66103D01*
G01X134879Y66103D01*
G01X134983Y66154D01*
G01X135087Y66258D01*
G01X135138Y66413D01*
G01X135138Y66517D01*
G01X135087Y66674D01*
G01X134983Y66776D01*
G01X134879Y66829D01*
G01X134721Y66829D01*
G01X135481Y67193D02*
G01X135481Y66103D01*
G01X135481Y67193D02*
G01X135948Y67193D01*
G01X136105Y67142D01*
G01X136156Y67088D01*
G01X136207Y66984D01*
G01X136207Y66880D01*
G01X136156Y66776D01*
G01X136105Y66725D01*
G01X135948Y66674D01*
G01X135481Y66674D01*
G01X135844Y66674D02*
G01X136207Y66103D01*
G01X137175Y66829D02*
G01X137175Y66103D01*
G01X137175Y66674D02*
G01X137071Y66776D01*
G01X136966Y66829D01*
G01X136811Y66829D01*
G01X136707Y66776D01*
G01X136603Y66674D01*
G01X136550Y66517D01*
G01X136550Y66413D01*
G01X136603Y66258D01*
G01X136707Y66154D01*
G01X136811Y66103D01*
G01X136966Y66103D01*
G01X137071Y66154D01*
G01X137175Y66258D01*
G01X137518Y66570D02*
G01X138452Y66570D01*
G01X138899Y67193D02*
G01X139471Y67193D01*
G01X139158Y66776D01*
G01X139316Y66776D01*
G01X139420Y66725D01*
G01X139471Y66674D01*
G01X139522Y66517D01*
G01X139522Y66413D01*
G01X139471Y66258D01*
G01X139367Y66154D01*
G01X139212Y66103D01*
G01X139054Y66103D01*
G01X138899Y66154D01*
G01X138849Y66205D01*
G01X138795Y66309D01*
G01X139918Y66934D02*
G01X139918Y66984D01*
G01X139969Y67088D01*
G01X140022Y67142D01*
G01X140126Y67193D01*
G01X140334Y67193D01*
G01X140436Y67142D01*
G01X140489Y67088D01*
G01X140540Y66984D01*
G01X140540Y66880D01*
G01X140489Y66776D01*
G01X140385Y66621D01*
G01X139865Y66103D01*
G01X140594Y66103D01*
G01X122554Y65415D02*
G01X122554Y64635D01*
G01X122605Y64480D01*
G01X122709Y64376D01*
G01X122867Y64325D01*
G01X122971Y64325D01*
G01X123126Y64376D01*
G01X123230Y64480D01*
G01X123281Y64635D01*
G01X123281Y65415D01*
G01X123677Y65156D02*
G01X123677Y65206D01*
G01X123728Y65311D01*
G01X123781Y65364D01*
G01X123885Y65415D01*
G01X124091Y65415D01*
G01X124195Y65364D01*
G01X124249Y65311D01*
G01X124299Y65206D01*
G01X124299Y65102D01*
G01X124249Y64998D01*
G01X124144Y64843D01*
G01X123624Y64325D01*
G01X124353Y64325D01*
G54D13*
G01X105409Y57040D02*
G01X105409Y55102D01*
G01X105409Y57040D02*
G01X106611Y57040D01*
G01X105409Y56118D02*
G01X106149Y56118D01*
G01X105409Y55102D02*
G01X106611Y55102D01*
G01X108513Y56763D02*
G01X108328Y56949D01*
G01X108051Y57040D01*
G01X107683Y57040D01*
G01X107403Y56949D01*
G01X107220Y56763D01*
G01X107220Y56578D01*
G01X107312Y56395D01*
G01X107403Y56301D01*
G01X107589Y56210D01*
G01X108142Y56024D01*
G01X108328Y55933D01*
G01X108419Y55841D01*
G01X108513Y55656D01*
G01X108513Y55379D01*
G01X108328Y55194D01*
G01X108051Y55102D01*
G01X107683Y55102D01*
G01X107403Y55194D01*
G01X107220Y55379D01*
G01X109123Y57040D02*
G01X109123Y55102D01*
G01X109123Y57040D02*
G01X109954Y57040D01*
G01X110230Y56949D01*
G01X110324Y56857D01*
G01X110416Y56672D01*
G01X110416Y56395D01*
G01X110324Y56210D01*
G01X110230Y56118D01*
G01X109954Y56024D01*
G01X109123Y56024D01*
G01X111211Y57040D02*
G01X112227Y57040D01*
G01X111671Y56301D01*
G01X111950Y56301D01*
G01X112133Y56210D01*
G01X112227Y56118D01*
G01X112318Y55841D01*
G01X112318Y55656D01*
G01X112227Y55379D01*
G01X112041Y55194D01*
G01X111765Y55102D01*
G01X111488Y55102D01*
G01X111211Y55194D01*
G01X111117Y55285D01*
G01X111025Y55471D01*
G01X113019Y56578D02*
G01X113019Y56672D01*
G01X113113Y56857D01*
G01X113205Y56949D01*
G01X113390Y57040D01*
G01X113758Y57040D01*
G01X113944Y56949D01*
G01X114035Y56857D01*
G01X114129Y56672D01*
G01X114129Y56487D01*
G01X114035Y56301D01*
G01X113852Y56024D01*
G01X112928Y55102D01*
G01X114221Y55102D01*
G01X105409Y53992D02*
G01X105872Y52054D01*
G01X106334Y53992D02*
G01X105872Y52054D01*
G01X106334Y53992D02*
G01X106794Y52054D01*
G01X107256Y53992D02*
G01X106794Y52054D01*
G01X107866Y53992D02*
G01X107866Y52054D01*
G01X108475Y53992D02*
G01X108475Y52054D01*
G01X108475Y53992D02*
G01X109677Y53992D01*
G01X108475Y53070D02*
G01X109214Y53070D01*
G01X110286Y53992D02*
G01X110286Y52054D01*
G01X105409Y50944D02*
G01X105409Y49006D01*
G01X105409Y49006D02*
G01X106517Y49006D01*
G01X107589Y50299D02*
G01X107403Y50205D01*
G01X107220Y50022D01*
G01X107126Y49745D01*
G01X107126Y49560D01*
G01X107220Y49283D01*
G01X107403Y49098D01*
G01X107589Y49006D01*
G01X107866Y49006D01*
G01X108051Y49098D01*
G01X108236Y49283D01*
G01X108328Y49560D01*
G01X108328Y49745D01*
G01X108236Y50022D01*
G01X108051Y50205D01*
G01X107866Y50299D01*
G01X107589Y50299D01*
G01X108938Y50944D02*
G01X108938Y49006D01*
G01X108938Y50944D02*
G01X109768Y50944D01*
G01X110045Y50853D01*
G01X110139Y50761D01*
G01X110230Y50576D01*
G01X110230Y50391D01*
G01X110139Y50205D01*
G01X110045Y50114D01*
G01X109768Y50022D01*
G01X108938Y50022D01*
G01X109585Y50022D02*
G01X110230Y49006D01*
G01X111950Y50299D02*
G01X111950Y49006D01*
G01X111950Y50022D02*
G01X111765Y50205D01*
G01X111579Y50299D01*
G01X111302Y50299D01*
G01X111117Y50205D01*
G01X110934Y50022D01*
G01X110840Y49745D01*
G01X110840Y49560D01*
G01X110934Y49283D01*
G01X111117Y49098D01*
G01X111302Y49006D01*
G01X111579Y49006D01*
G01X111765Y49098D01*
G01X111950Y49283D01*
G01X105595Y47896D02*
G01X106611Y47896D01*
G01X106057Y47157D01*
G01X106334Y47157D01*
G01X106517Y47066D01*
G01X106611Y46974D01*
G01X106702Y46697D01*
G01X106702Y46512D01*
G01X106611Y46235D01*
G01X106425Y46050D01*
G01X106149Y45958D01*
G01X105872Y45958D01*
G01X105595Y46050D01*
G01X105501Y46141D01*
G01X105409Y46327D01*
G01X107403Y47434D02*
G01X107403Y47528D01*
G01X107497Y47713D01*
G01X107589Y47805D01*
G01X107774Y47896D01*
G01X108142Y47896D01*
G01X108328Y47805D01*
G01X108419Y47713D01*
G01X108513Y47528D01*
G01X108513Y47343D01*
G01X108419Y47157D01*
G01X108236Y46880D01*
G01X107312Y45958D01*
G01X108605Y45958D01*
G01X117012Y60289D02*
G01X116827Y60197D01*
G01X116644Y60012D01*
G01X116550Y59829D01*
G01X116458Y59550D01*
G01X116458Y59090D01*
G01X116550Y58813D01*
G01X116644Y58628D01*
G01X116827Y58442D01*
G01X117012Y58351D01*
G01X117383Y58351D01*
G01X117566Y58442D01*
G01X117751Y58628D01*
G01X117843Y58813D01*
G01X117937Y59090D01*
G01X117937Y59550D01*
G01X117843Y59829D01*
G01X117751Y60012D01*
G01X117566Y60197D01*
G01X117383Y60289D01*
G01X117012Y60289D01*
G01X118546Y60289D02*
G01X118546Y58351D01*
G01X118546Y58351D02*
G01X119654Y58351D01*
G01X120263Y60289D02*
G01X120263Y58351D01*
G01X120263Y60289D02*
G01X121465Y60289D01*
G01X120263Y59367D02*
G01X121003Y59367D01*
G01X120263Y58351D02*
G01X121465Y58351D01*
G01X122074Y60289D02*
G01X122074Y58351D01*
G01X122074Y60289D02*
G01X122720Y60289D01*
G01X122999Y60197D01*
G01X123182Y60012D01*
G01X123276Y59829D01*
G01X123367Y59550D01*
G01X123367Y59090D01*
G01X123276Y58813D01*
G01X123182Y58628D01*
G01X122999Y58442D01*
G01X122720Y58351D01*
G01X122074Y58351D01*
G01X101980Y60035D02*
G01X101980Y58097D01*
G01X101980Y60035D02*
G01X102811Y60035D01*
G01X103088Y59944D01*
G01X103182Y59852D01*
G01X103273Y59667D01*
G01X103273Y59390D01*
G01X103182Y59204D01*
G01X103088Y59113D01*
G01X102811Y59019D01*
G01X101980Y59019D01*
G01X103883Y60035D02*
G01X103883Y58097D01*
G01X103883Y60035D02*
G01X104713Y60035D01*
G01X104990Y59944D01*
G01X105084Y59852D01*
G01X105176Y59667D01*
G01X105176Y59481D01*
G01X105084Y59296D01*
G01X104990Y59204D01*
G01X104713Y59113D01*
G01X103883Y59113D01*
G01X104531Y59113D02*
G01X105176Y58097D01*
G01X107172Y59575D02*
G01X107078Y59758D01*
G01X106895Y59944D01*
G01X106710Y60035D01*
G01X106339Y60035D01*
G01X106156Y59944D01*
G01X105971Y59758D01*
G01X105879Y59575D01*
G01X105785Y59296D01*
G01X105785Y58836D01*
G01X105879Y58559D01*
G01X105971Y58374D01*
G01X106156Y58188D01*
G01X106339Y58097D01*
G01X106710Y58097D01*
G01X106895Y58188D01*
G01X107078Y58374D01*
G01X107172Y58559D01*
G01X107172Y58836D01*
G01X106710Y58836D02*
G01X107172Y58836D01*
G01X102234Y44541D02*
G01X102234Y42603D01*
G01X102234Y44541D02*
G01X103065Y44541D01*
G01X103342Y44450D01*
G01X103436Y44358D01*
G01X103527Y44173D01*
G01X103527Y43987D01*
G01X103436Y43802D01*
G01X103342Y43710D01*
G01X103065Y43619D01*
G01X102234Y43619D01*
G01X102882Y43619D02*
G01X103527Y42603D01*
G01X105430Y44264D02*
G01X105244Y44450D01*
G01X104967Y44541D01*
G01X104599Y44541D01*
G01X104322Y44450D01*
G01X104137Y44264D01*
G01X104137Y44081D01*
G01X104228Y43896D01*
G01X104322Y43802D01*
G01X104508Y43710D01*
G01X105061Y43525D01*
G01X105244Y43434D01*
G01X105338Y43342D01*
G01X105430Y43157D01*
G01X105430Y42880D01*
G01X105244Y42694D01*
G01X104967Y42603D01*
G01X104599Y42603D01*
G01X104322Y42694D01*
G01X104137Y42880D01*
G01X106687Y44541D02*
G01X106687Y42603D01*
G01X106039Y44541D02*
G01X107332Y44541D01*
G01X98043Y52161D02*
G01X98043Y50777D01*
G01X98135Y50500D01*
G01X98320Y50314D01*
G01X98597Y50223D01*
G01X98783Y50223D01*
G01X99059Y50314D01*
G01X99245Y50500D01*
G01X99336Y50777D01*
G01X99336Y52161D01*
G01X101239Y51884D02*
G01X101053Y52070D01*
G01X100776Y52161D01*
G01X100408Y52161D01*
G01X100131Y52070D01*
G01X99946Y51884D01*
G01X99946Y51701D01*
G01X100037Y51516D01*
G01X100131Y51422D01*
G01X100317Y51330D01*
G01X100870Y51145D01*
G01X101053Y51054D01*
G01X101147Y50962D01*
G01X101239Y50777D01*
G01X101239Y50500D01*
G01X101053Y50314D01*
G01X100776Y50223D01*
G01X100408Y50223D01*
G01X100131Y50314D01*
G01X99946Y50500D01*
G01X101848Y52161D02*
G01X101848Y50223D01*
G01X101848Y52161D02*
G01X102679Y52161D01*
G01X102958Y52070D01*
G01X103050Y51978D01*
G01X103141Y51793D01*
G01X103141Y51607D01*
G01X103050Y51422D01*
G01X102958Y51330D01*
G01X102679Y51239D01*
G01X101848Y51239D02*
G01X102679Y51239D01*
G01X102958Y51145D01*
G01X103050Y51054D01*
G01X103141Y50868D01*
G01X103141Y50591D01*
G01X103050Y50406D01*
G01X102958Y50314D01*
G01X102679Y50223D01*
G01X101848Y50223D01*
G01X143890Y56151D02*
G01X144630Y54213D01*
G01X145369Y56151D02*
G01X144630Y54213D01*
G01X146070Y55689D02*
G01X146070Y55783D01*
G01X146164Y55968D01*
G01X146255Y56060D01*
G01X146441Y56151D01*
G01X146809Y56151D01*
G01X146994Y56060D01*
G01X147086Y55968D01*
G01X147180Y55783D01*
G01X147180Y55598D01*
G01X147086Y55412D01*
G01X146900Y55135D01*
G01X145978Y54213D01*
G01X147271Y54213D01*
G54D18*
G01X23799Y76459D02*
G01X23799Y76509D01*
G01X23853Y76614D01*
G01X23903Y76667D01*
G01X24008Y76718D01*
G01X24216Y76718D01*
G01X24320Y76667D01*
G01X24371Y76614D01*
G01X24424Y76509D01*
G01X24424Y76405D01*
G01X24371Y76301D01*
G01X24269Y76146D01*
G01X23749Y75628D01*
G01X24475Y75628D01*
G01X24818Y76095D02*
G01X25755Y76095D01*
G01X26875Y76459D02*
G01X26824Y76563D01*
G01X26720Y76667D01*
G01X26616Y76718D01*
G01X26408Y76718D01*
G01X26304Y76667D01*
G01X26200Y76563D01*
G01X26149Y76459D01*
G01X26098Y76301D01*
G01X26098Y76042D01*
G01X26149Y75887D01*
G01X26200Y75783D01*
G01X26304Y75679D01*
G01X26408Y75628D01*
G01X26616Y75628D01*
G01X26720Y75679D01*
G01X26824Y75783D01*
G01X26875Y75887D01*
G01X27218Y76718D02*
G01X27218Y75628D01*
G01X27947Y76718D02*
G01X27947Y75628D01*
G01X27218Y76200D02*
G01X27947Y76200D01*
G01X28704Y76718D02*
G01X28290Y75628D01*
G01X28704Y76718D02*
G01X29121Y75628D01*
G01X28445Y75991D02*
G01X28966Y75991D01*
G01X29464Y76718D02*
G01X29464Y75628D01*
G01X29464Y76718D02*
G01X30190Y75628D01*
G01X30190Y76718D02*
G01X30190Y75628D01*
G01X30533Y76718D02*
G01X30533Y75628D01*
G01X30533Y76718D02*
G01X31262Y75628D01*
G01X31262Y76718D02*
G01X31262Y75628D01*
G01X31605Y76718D02*
G01X31605Y75628D01*
G01X31605Y76718D02*
G01X32280Y76718D01*
G01X31605Y76200D02*
G01X32019Y76200D01*
G01X31605Y75628D02*
G01X32280Y75628D01*
G01X32623Y76718D02*
G01X32623Y75628D01*
G01X32623Y75628D02*
G01X33246Y75628D01*
G01X33588Y76095D02*
G01X34523Y76095D01*
G01X34866Y76718D02*
G01X34866Y75628D01*
G01X34866Y76718D02*
G01X35333Y76718D01*
G01X35491Y76667D01*
G01X35542Y76614D01*
G01X35595Y76509D01*
G01X35595Y76405D01*
G01X35542Y76301D01*
G01X35491Y76250D01*
G01X35333Y76200D01*
G01X34866Y76200D01*
G01X35229Y76200D02*
G01X35595Y75628D01*
G01X35938Y76718D02*
G01X35938Y75628D01*
G01X35938Y76718D02*
G01X36614Y76718D01*
G01X35938Y76200D02*
G01X36352Y76200D01*
G01X35938Y75628D02*
G01X36614Y75628D01*
G01X36957Y76718D02*
G01X36957Y75628D01*
G01X36957Y75628D02*
G01X37579Y75628D01*
G01X38338Y76718D02*
G01X37922Y75628D01*
G01X38338Y76718D02*
G01X38752Y75628D01*
G01X38077Y75991D02*
G01X38597Y75991D01*
G01X39095Y76718D02*
G01X39512Y76200D01*
G01X39512Y75628D01*
G01X39928Y76718D02*
G01X39512Y76200D01*
G01X4815Y54483D02*
G01X5595Y54483D01*
G01X5750Y54533D01*
G01X5854Y54637D01*
G01X5905Y54795D01*
G01X5905Y54899D01*
G01X5854Y55054D01*
G01X5750Y55158D01*
G01X5595Y55209D01*
G01X4815Y55209D01*
G01X4815Y56281D02*
G01X5905Y55760D01*
G01X4815Y55552D02*
G01X4815Y56281D01*
G54D13*
G01X44782Y41620D02*
G01X44691Y41620D01*
G01X44505Y41714D01*
G01X44414Y41805D01*
G01X44323Y41991D01*
G01X44323Y42359D01*
G01X44414Y42545D01*
G01X44505Y42636D01*
G01X44691Y42730D01*
G01X44876Y42730D01*
G01X45062Y42636D01*
G01X45339Y42453D01*
G01X46261Y41529D01*
G01X46261Y42821D01*
G01X45430Y43431D02*
G01X45430Y45095D01*
G01X44782Y47089D02*
G01X44599Y46997D01*
G01X44414Y46812D01*
G01X44323Y46626D01*
G01X44323Y46258D01*
G01X44414Y46073D01*
G01X44599Y45887D01*
G01X44782Y45796D01*
G01X45062Y45704D01*
G01X45521Y45704D01*
G01X45798Y45796D01*
G01X45984Y45887D01*
G01X46169Y46073D01*
G01X46261Y46258D01*
G01X46261Y46626D01*
G01X46169Y46812D01*
G01X45984Y46997D01*
G01X45798Y47089D01*
G01X44323Y48437D02*
G01X46261Y47698D01*
G01X44323Y48437D02*
G01X46261Y49176D01*
G01X45615Y47975D02*
G01X45615Y48900D01*
G01X44323Y49786D02*
G01X46261Y49786D01*
G01X44323Y49786D02*
G01X46261Y51079D01*
G01X44323Y51079D02*
G01X46261Y51079D01*
G01X44323Y51689D02*
G01X46261Y51689D01*
G01X44323Y51689D02*
G01X46261Y52981D01*
G01X44323Y52981D02*
G01X46261Y52981D01*
G01X44323Y53591D02*
G01X46261Y53591D01*
G01X44323Y53591D02*
G01X44323Y54792D01*
G01X45245Y53591D02*
G01X45245Y54330D01*
G01X46261Y53591D02*
G01X46261Y54792D01*
G01X44323Y55402D02*
G01X46261Y55402D01*
G01X46261Y55402D02*
G01X46261Y56509D01*
G01X45430Y57119D02*
G01X45430Y58783D01*
G01X44323Y59392D02*
G01X46261Y59392D01*
G01X44323Y59392D02*
G01X44323Y60223D01*
G01X44414Y60500D01*
G01X44505Y60591D01*
G01X44691Y60685D01*
G01X44876Y60685D01*
G01X45062Y60591D01*
G01X45153Y60500D01*
G01X45245Y60223D01*
G01X45245Y59392D01*
G01X45245Y60037D02*
G01X46261Y60685D01*
G01X44323Y61295D02*
G01X46261Y61295D01*
G01X44323Y61295D02*
G01X44323Y62496D01*
G01X45245Y61295D02*
G01X45245Y62034D01*
G01X46261Y61295D02*
G01X46261Y62496D01*
G01X44323Y63106D02*
G01X46261Y63106D01*
G01X46261Y63106D02*
G01X46261Y64213D01*
G01X44323Y65562D02*
G01X46261Y64823D01*
G01X44323Y65562D02*
G01X46261Y66301D01*
G01X45615Y65100D02*
G01X45615Y66024D01*
G01X44323Y66911D02*
G01X45245Y67650D01*
G01X46261Y67650D01*
G01X44323Y68389D02*
G01X45245Y67650D01*
G54D10*
G75*
G01X70487Y76851D02*
G03X71187Y76151I650J-50D01*
G01*
G75*
G01X71187Y76151D02*
G02X72187Y75151I-25J-1025D01*
G01*
G75*
G01X76962Y9906D02*
G03X76962Y9906I-1270J0D01*
G01*
G75*
G01X88138Y9906D02*
G03X88138Y9906I-1270J0D01*
G01*
G75*
G01X146208Y51816D02*
G03X146208Y51816I-1047J0D01*
G01*
G75*
G01X145415Y51816D02*
G03X145415Y51816I-254J0D01*
G01*
G75*
G01X100965Y43688D02*
G03X100965Y43688I-1270J0D01*
G01*
G75*
G01X100965Y59182D02*
G03X100965Y59182I-1270J0D01*
G01*
G75*
G01X16227Y58420D02*
G03X16227Y58420I-1350J0D01*
G01*
G75*
G01X16227Y62865D02*
G03X16227Y62865I-1350J0D01*
G01*
G75*
G01X16227Y67310D02*
G03X16227Y67310I-1350J0D01*
G01*
G75*
G01X16227Y42164D02*
G03X16227Y42164I-1350J0D01*
G01*
G75*
G01X16227Y46609D02*
G03X16227Y46609I-1350J0D01*
G01*
G75*
G01X16227Y51054D02*
G03X16227Y51054I-1350J0D01*
G01*

%LPD*%
G36*
G01X142874Y44704D02*
G01X115696Y44704D01*
G01X115696Y42164D01*
G01X142874Y42164D01*
G01X142874Y44704D01*
G37*
M00*
M02*
