G04 Layer: BottomSolderMaskLayer*
G04 EasyEDA v6.4.7, 2020-11-20T11:11:39--3:00*
G04 4594473581034ba9b9ea50e3a3b0936a,09237c92188f4bc9b643e288e8680b3c,10*
G04 Gerber Generator version 0.2*
G04 Scale: 100 percent, Rotated: No, Reflected: No *
G04 Dimensions in millimeters *
G04 leading zeros omitted , absolute positions ,3 integer and 3 decimal *
%FSLAX33Y33*%
%MOMM*%
G90*
D02*

%ADD19C,2.203196*%
%ADD20C,1.727200*%
%ADD21C,2.235200*%

%LPD*%
G54D19*
G01X12116Y15969D02*
G01X12116Y13369D01*
G01X5917Y13369D02*
G01X5917Y15969D01*
G01X10417Y9968D02*
G01X7817Y9968D01*
G01X5842Y24419D03*
G01X5842Y29428D03*
G01X15613Y28176D03*
G01X56014Y28176D03*
G01X56014Y10177D03*
G01X15613Y10177D03*
G54D20*
G01X71757Y40767D03*
G01X74297Y40767D03*
G01X76837Y40767D03*
G01X79377Y40767D03*
G01X81917Y40767D03*
G01X84457Y40767D03*
G54D21*
G01X109347Y18034D03*
G01X109347Y20574D03*
G01X109347Y23114D03*
G01X109347Y25654D03*
G54D20*
G01X74930Y18034D03*
G01X77470Y18034D03*
G01X80010Y18034D03*
G01X82550Y18034D03*
G01X85090Y18034D03*
G01X87630Y18034D03*
G01X121539Y62738D03*
G01X121539Y39878D03*
G01X101219Y39878D03*
G01X103759Y39878D03*
G01X106299Y39878D03*
G01X108839Y39878D03*
G01X111379Y39878D03*
G01X113919Y39878D03*
G01X116459Y39878D03*
G01X118999Y39878D03*
G01X124079Y39878D03*
G01X126619Y39878D03*
G01X129159Y39878D03*
G01X131699Y39878D03*
G01X134239Y39878D03*
G01X136779Y39878D03*
G01X139319Y39878D03*
G01X141859Y39878D03*
G01X144399Y39878D03*
G01X101219Y62738D03*
G01X103759Y62738D03*
G01X106299Y62738D03*
G01X108839Y62738D03*
G01X111379Y62738D03*
G01X113919Y62738D03*
G01X116459Y62738D03*
G01X118999Y62738D03*
G01X124079Y62738D03*
G01X126619Y62738D03*
G01X129159Y62738D03*
G01X131699Y62738D03*
G01X134239Y62738D03*
G01X136779Y62738D03*
G01X139319Y62738D03*
G01X141859Y62738D03*
G01X144399Y62738D03*
G01X54377Y58617D03*
G01X54377Y61157D03*
G01X54377Y63697D03*
G01X54377Y66237D03*
G01X54377Y50997D03*
G01X54377Y48457D03*
G01X54377Y45917D03*
M00*
M02*
