G04 Layer: TopLayer*
G04 EasyEDA v6.4.7, 2020-11-20T11:11:39--3:00*
G04 4594473581034ba9b9ea50e3a3b0936a,09237c92188f4bc9b643e288e8680b3c,10*
G04 Gerber Generator version 0.2*
G04 Scale: 100 percent, Rotated: No, Reflected: No *
G04 Dimensions in millimeters *
G04 leading zeros omitted , absolute positions ,3 integer and 3 decimal *
%FSLAX33Y33*%
%MOMM*%
G90*
D02*

%ADD11C,0.499999*%
%ADD12C,0.999998*%
%ADD13C,0.203200*%
%ADD14C,0.610006*%
%ADD15C,1.999996*%
%ADD16C,1.524000*%
%ADD17C,2.032000*%

%LPD*%
G36*
G01X100430Y81023D02*
G01X358Y81023D01*
G01X343Y81022D01*
G01X329Y81019D01*
G01X315Y81014D01*
G01X303Y81007D01*
G01X291Y80998D01*
G01X281Y80988D01*
G01X272Y80976D01*
G01X265Y80964D01*
G01X260Y80950D01*
G01X257Y80936D01*
G01X256Y80921D01*
G01X256Y358D01*
G01X257Y343D01*
G01X260Y329D01*
G01X265Y315D01*
G01X272Y303D01*
G01X281Y291D01*
G01X291Y281D01*
G01X303Y272D01*
G01X315Y265D01*
G01X329Y260D01*
G01X343Y257D01*
G01X358Y256D01*
G01X155641Y256D01*
G01X155655Y257D01*
G01X155669Y260D01*
G01X155683Y265D01*
G01X155695Y272D01*
G01X155707Y281D01*
G01X155717Y291D01*
G01X155726Y303D01*
G01X155733Y315D01*
G01X155738Y329D01*
G01X155741Y343D01*
G01X155742Y358D01*
G01X155742Y69618D01*
G01X155741Y69633D01*
G01X155738Y69647D01*
G01X155733Y69661D01*
G01X155726Y69673D01*
G01X155717Y69685D01*
G01X155707Y69695D01*
G01X155695Y69704D01*
G01X155683Y69711D01*
G01X155669Y69716D01*
G01X155655Y69719D01*
G01X155641Y69720D01*
G01X111125Y69720D01*
G01X111101Y69721D01*
G01X111078Y69724D01*
G01X111055Y69730D01*
G01X111033Y69737D01*
G01X111012Y69746D01*
G01X110991Y69758D01*
G01X110972Y69770D01*
G01X110954Y69785D01*
G01X110937Y69802D01*
G01X100505Y80990D01*
G01X100492Y81002D01*
G01X100478Y81011D01*
G01X100463Y81017D01*
G01X100447Y81021D01*
G01X100430Y81023D01*
G37*

%LPC*%
G36*
G01X4648Y7200D02*
G01X4572Y7201D01*
G01X4495Y7200D01*
G01X4420Y7197D01*
G01X4344Y7192D01*
G01X4268Y7184D01*
G01X4193Y7175D01*
G01X4118Y7163D01*
G01X4043Y7150D01*
G01X3969Y7134D01*
G01X3895Y7117D01*
G01X3821Y7097D01*
G01X3749Y7075D01*
G01X3676Y7052D01*
G01X3605Y7026D01*
G01X3534Y6998D01*
G01X3464Y6969D01*
G01X3395Y6937D01*
G01X3327Y6904D01*
G01X3259Y6869D01*
G01X3193Y6832D01*
G01X3128Y6793D01*
G01X3064Y6752D01*
G01X3001Y6710D01*
G01X2939Y6665D01*
G01X2878Y6620D01*
G01X2819Y6573D01*
G01X2761Y6523D01*
G01X2705Y6472D01*
G01X2649Y6420D01*
G01X2596Y6367D01*
G01X2544Y6311D01*
G01X2493Y6255D01*
G01X2443Y6197D01*
G01X2396Y6138D01*
G01X2351Y6077D01*
G01X2306Y6015D01*
G01X2264Y5952D01*
G01X2223Y5888D01*
G01X2184Y5823D01*
G01X2147Y5757D01*
G01X2112Y5689D01*
G01X2079Y5621D01*
G01X2047Y5552D01*
G01X2018Y5482D01*
G01X1990Y5411D01*
G01X1964Y5340D01*
G01X1941Y5267D01*
G01X1919Y5195D01*
G01X1899Y5121D01*
G01X1882Y5047D01*
G01X1866Y4973D01*
G01X1853Y4898D01*
G01X1841Y4823D01*
G01X1832Y4748D01*
G01X1824Y4672D01*
G01X1819Y4596D01*
G01X1816Y4521D01*
G01X1815Y4445D01*
G01X1816Y4368D01*
G01X1819Y4293D01*
G01X1824Y4217D01*
G01X1832Y4141D01*
G01X1841Y4066D01*
G01X1853Y3991D01*
G01X1866Y3916D01*
G01X1882Y3842D01*
G01X1899Y3768D01*
G01X1919Y3694D01*
G01X1941Y3622D01*
G01X1964Y3549D01*
G01X1990Y3478D01*
G01X2018Y3407D01*
G01X2047Y3337D01*
G01X2079Y3268D01*
G01X2112Y3200D01*
G01X2147Y3132D01*
G01X2184Y3066D01*
G01X2223Y3001D01*
G01X2264Y2937D01*
G01X2306Y2874D01*
G01X2351Y2812D01*
G01X2396Y2751D01*
G01X2443Y2692D01*
G01X2493Y2634D01*
G01X2544Y2578D01*
G01X2596Y2522D01*
G01X2649Y2469D01*
G01X2705Y2417D01*
G01X2761Y2366D01*
G01X2819Y2316D01*
G01X2878Y2269D01*
G01X2939Y2224D01*
G01X3001Y2179D01*
G01X3064Y2137D01*
G01X3128Y2096D01*
G01X3193Y2057D01*
G01X3259Y2020D01*
G01X3327Y1985D01*
G01X3395Y1952D01*
G01X3464Y1920D01*
G01X3534Y1891D01*
G01X3605Y1863D01*
G01X3676Y1837D01*
G01X3749Y1814D01*
G01X3821Y1792D01*
G01X3895Y1772D01*
G01X3969Y1755D01*
G01X4043Y1739D01*
G01X4118Y1726D01*
G01X4193Y1714D01*
G01X4268Y1705D01*
G01X4344Y1697D01*
G01X4420Y1692D01*
G01X4495Y1689D01*
G01X4572Y1688D01*
G01X4648Y1689D01*
G01X4723Y1692D01*
G01X4799Y1697D01*
G01X4875Y1705D01*
G01X4950Y1714D01*
G01X5025Y1726D01*
G01X5100Y1739D01*
G01X5174Y1755D01*
G01X5248Y1772D01*
G01X5322Y1792D01*
G01X5394Y1814D01*
G01X5467Y1837D01*
G01X5538Y1863D01*
G01X5609Y1891D01*
G01X5679Y1920D01*
G01X5748Y1952D01*
G01X5816Y1985D01*
G01X5884Y2020D01*
G01X5950Y2057D01*
G01X6015Y2096D01*
G01X6079Y2137D01*
G01X6142Y2179D01*
G01X6204Y2224D01*
G01X6265Y2269D01*
G01X6324Y2316D01*
G01X6382Y2366D01*
G01X6438Y2417D01*
G01X6494Y2469D01*
G01X6547Y2522D01*
G01X6599Y2578D01*
G01X6650Y2634D01*
G01X6700Y2692D01*
G01X6747Y2751D01*
G01X6792Y2812D01*
G01X6837Y2874D01*
G01X6879Y2937D01*
G01X6920Y3001D01*
G01X6959Y3066D01*
G01X6996Y3132D01*
G01X7031Y3200D01*
G01X7064Y3268D01*
G01X7096Y3337D01*
G01X7125Y3407D01*
G01X7153Y3478D01*
G01X7179Y3549D01*
G01X7202Y3622D01*
G01X7224Y3694D01*
G01X7244Y3768D01*
G01X7261Y3842D01*
G01X7277Y3916D01*
G01X7290Y3991D01*
G01X7302Y4066D01*
G01X7311Y4141D01*
G01X7319Y4217D01*
G01X7324Y4293D01*
G01X7327Y4368D01*
G01X7328Y4445D01*
G01X7327Y4521D01*
G01X7324Y4596D01*
G01X7319Y4672D01*
G01X7311Y4748D01*
G01X7302Y4823D01*
G01X7290Y4898D01*
G01X7277Y4973D01*
G01X7261Y5047D01*
G01X7244Y5121D01*
G01X7224Y5195D01*
G01X7202Y5267D01*
G01X7179Y5340D01*
G01X7153Y5411D01*
G01X7125Y5482D01*
G01X7096Y5552D01*
G01X7064Y5621D01*
G01X7031Y5689D01*
G01X6996Y5757D01*
G01X6959Y5823D01*
G01X6920Y5888D01*
G01X6879Y5952D01*
G01X6837Y6015D01*
G01X6792Y6077D01*
G01X6747Y6138D01*
G01X6700Y6197D01*
G01X6650Y6255D01*
G01X6599Y6311D01*
G01X6547Y6367D01*
G01X6494Y6420D01*
G01X6438Y6472D01*
G01X6382Y6523D01*
G01X6324Y6573D01*
G01X6265Y6620D01*
G01X6204Y6665D01*
G01X6142Y6710D01*
G01X6079Y6752D01*
G01X6015Y6793D01*
G01X5950Y6832D01*
G01X5884Y6869D01*
G01X5816Y6904D01*
G01X5748Y6937D01*
G01X5679Y6969D01*
G01X5609Y6998D01*
G01X5538Y7026D01*
G01X5467Y7052D01*
G01X5394Y7075D01*
G01X5322Y7097D01*
G01X5248Y7117D01*
G01X5174Y7134D01*
G01X5100Y7150D01*
G01X5025Y7163D01*
G01X4950Y7175D01*
G01X4875Y7184D01*
G01X4799Y7192D01*
G01X4723Y7197D01*
G01X4648Y7200D01*
G37*
G36*
G01X151079Y7581D02*
G01X151003Y7582D01*
G01X150926Y7581D01*
G01X150851Y7578D01*
G01X150775Y7573D01*
G01X150699Y7565D01*
G01X150624Y7556D01*
G01X150549Y7544D01*
G01X150474Y7531D01*
G01X150400Y7515D01*
G01X150326Y7498D01*
G01X150252Y7478D01*
G01X150180Y7456D01*
G01X150107Y7433D01*
G01X150036Y7407D01*
G01X149965Y7379D01*
G01X149895Y7350D01*
G01X149826Y7318D01*
G01X149758Y7285D01*
G01X149690Y7250D01*
G01X149624Y7213D01*
G01X149559Y7174D01*
G01X149495Y7133D01*
G01X149432Y7091D01*
G01X149370Y7046D01*
G01X149309Y7001D01*
G01X149250Y6954D01*
G01X149192Y6904D01*
G01X149136Y6853D01*
G01X149080Y6801D01*
G01X149027Y6748D01*
G01X148975Y6692D01*
G01X148924Y6636D01*
G01X148874Y6578D01*
G01X148827Y6519D01*
G01X148782Y6458D01*
G01X148737Y6396D01*
G01X148695Y6333D01*
G01X148654Y6269D01*
G01X148615Y6204D01*
G01X148578Y6138D01*
G01X148543Y6070D01*
G01X148510Y6002D01*
G01X148478Y5933D01*
G01X148449Y5863D01*
G01X148421Y5792D01*
G01X148395Y5721D01*
G01X148372Y5648D01*
G01X148350Y5576D01*
G01X148330Y5502D01*
G01X148313Y5428D01*
G01X148297Y5354D01*
G01X148284Y5279D01*
G01X148272Y5204D01*
G01X148263Y5129D01*
G01X148255Y5053D01*
G01X148250Y4977D01*
G01X148247Y4902D01*
G01X148246Y4826D01*
G01X148247Y4749D01*
G01X148250Y4674D01*
G01X148255Y4598D01*
G01X148263Y4522D01*
G01X148272Y4447D01*
G01X148284Y4372D01*
G01X148297Y4297D01*
G01X148313Y4223D01*
G01X148330Y4149D01*
G01X148350Y4075D01*
G01X148372Y4003D01*
G01X148395Y3930D01*
G01X148421Y3859D01*
G01X148449Y3788D01*
G01X148478Y3718D01*
G01X148510Y3649D01*
G01X148543Y3581D01*
G01X148578Y3513D01*
G01X148615Y3447D01*
G01X148654Y3382D01*
G01X148695Y3318D01*
G01X148737Y3255D01*
G01X148782Y3193D01*
G01X148827Y3132D01*
G01X148874Y3073D01*
G01X148924Y3015D01*
G01X148975Y2959D01*
G01X149027Y2903D01*
G01X149080Y2850D01*
G01X149136Y2798D01*
G01X149192Y2747D01*
G01X149250Y2697D01*
G01X149309Y2650D01*
G01X149370Y2605D01*
G01X149432Y2560D01*
G01X149495Y2518D01*
G01X149559Y2477D01*
G01X149624Y2438D01*
G01X149690Y2401D01*
G01X149758Y2366D01*
G01X149826Y2333D01*
G01X149895Y2301D01*
G01X149965Y2272D01*
G01X150036Y2244D01*
G01X150107Y2218D01*
G01X150180Y2195D01*
G01X150252Y2173D01*
G01X150326Y2153D01*
G01X150400Y2136D01*
G01X150474Y2120D01*
G01X150549Y2107D01*
G01X150624Y2095D01*
G01X150699Y2086D01*
G01X150775Y2078D01*
G01X150851Y2073D01*
G01X150926Y2070D01*
G01X151003Y2069D01*
G01X151079Y2070D01*
G01X151154Y2073D01*
G01X151230Y2078D01*
G01X151306Y2086D01*
G01X151381Y2095D01*
G01X151456Y2107D01*
G01X151531Y2120D01*
G01X151605Y2136D01*
G01X151679Y2153D01*
G01X151753Y2173D01*
G01X151825Y2195D01*
G01X151898Y2218D01*
G01X151969Y2244D01*
G01X152040Y2272D01*
G01X152110Y2301D01*
G01X152179Y2333D01*
G01X152247Y2366D01*
G01X152315Y2401D01*
G01X152381Y2438D01*
G01X152446Y2477D01*
G01X152510Y2518D01*
G01X152573Y2560D01*
G01X152635Y2605D01*
G01X152696Y2650D01*
G01X152755Y2697D01*
G01X152813Y2747D01*
G01X152869Y2798D01*
G01X152925Y2850D01*
G01X152978Y2903D01*
G01X153030Y2959D01*
G01X153081Y3015D01*
G01X153131Y3073D01*
G01X153178Y3132D01*
G01X153223Y3193D01*
G01X153268Y3255D01*
G01X153310Y3318D01*
G01X153351Y3382D01*
G01X153390Y3447D01*
G01X153427Y3513D01*
G01X153462Y3581D01*
G01X153495Y3649D01*
G01X153527Y3718D01*
G01X153556Y3788D01*
G01X153584Y3859D01*
G01X153610Y3930D01*
G01X153633Y4003D01*
G01X153655Y4075D01*
G01X153675Y4149D01*
G01X153692Y4223D01*
G01X153708Y4297D01*
G01X153721Y4372D01*
G01X153733Y4447D01*
G01X153742Y4522D01*
G01X153750Y4598D01*
G01X153755Y4674D01*
G01X153758Y4749D01*
G01X153759Y4826D01*
G01X153758Y4902D01*
G01X153755Y4977D01*
G01X153750Y5053D01*
G01X153742Y5129D01*
G01X153733Y5204D01*
G01X153721Y5279D01*
G01X153708Y5354D01*
G01X153692Y5428D01*
G01X153675Y5502D01*
G01X153655Y5576D01*
G01X153633Y5648D01*
G01X153610Y5721D01*
G01X153584Y5792D01*
G01X153556Y5863D01*
G01X153527Y5933D01*
G01X153495Y6002D01*
G01X153462Y6070D01*
G01X153427Y6138D01*
G01X153390Y6204D01*
G01X153351Y6269D01*
G01X153310Y6333D01*
G01X153268Y6396D01*
G01X153223Y6458D01*
G01X153178Y6519D01*
G01X153131Y6578D01*
G01X153081Y6636D01*
G01X153030Y6692D01*
G01X152978Y6748D01*
G01X152925Y6801D01*
G01X152869Y6853D01*
G01X152813Y6904D01*
G01X152755Y6954D01*
G01X152696Y7001D01*
G01X152635Y7046D01*
G01X152573Y7091D01*
G01X152510Y7133D01*
G01X152446Y7174D01*
G01X152381Y7213D01*
G01X152315Y7250D01*
G01X152247Y7285D01*
G01X152179Y7318D01*
G01X152110Y7350D01*
G01X152040Y7379D01*
G01X151969Y7407D01*
G01X151898Y7433D01*
G01X151825Y7456D01*
G01X151753Y7478D01*
G01X151679Y7498D01*
G01X151605Y7515D01*
G01X151531Y7531D01*
G01X151456Y7544D01*
G01X151381Y7556D01*
G01X151306Y7565D01*
G01X151230Y7573D01*
G01X151154Y7578D01*
G01X151079Y7581D01*
G37*
G36*
G01X92720Y5963D02*
G01X58064Y5963D01*
G01X58040Y5962D01*
G01X58017Y5959D01*
G01X57994Y5954D01*
G01X57971Y5946D01*
G01X57950Y5936D01*
G01X57929Y5925D01*
G01X57909Y5912D01*
G01X57891Y5896D01*
G01X57874Y5880D01*
G01X57859Y5861D01*
G01X57846Y5842D01*
G01X57834Y5821D01*
G01X57825Y5799D01*
G01X57817Y5777D01*
G01X57812Y5754D01*
G01X57808Y5731D01*
G01X57807Y5707D01*
G01X57807Y3566D01*
G01X57808Y3542D01*
G01X57812Y3518D01*
G01X57817Y3496D01*
G01X57825Y3473D01*
G01X57834Y3451D01*
G01X57846Y3431D01*
G01X57859Y3411D01*
G01X57874Y3393D01*
G01X57891Y3376D01*
G01X57909Y3361D01*
G01X57929Y3348D01*
G01X57950Y3336D01*
G01X57971Y3326D01*
G01X57994Y3319D01*
G01X58017Y3314D01*
G01X58040Y3310D01*
G01X58064Y3309D01*
G01X92720Y3309D01*
G01X92744Y3310D01*
G01X92767Y3314D01*
G01X92790Y3319D01*
G01X92812Y3326D01*
G01X92834Y3336D01*
G01X92855Y3348D01*
G01X92874Y3361D01*
G01X92892Y3376D01*
G01X92909Y3393D01*
G01X92924Y3411D01*
G01X92938Y3431D01*
G01X92949Y3451D01*
G01X92959Y3473D01*
G01X92967Y3496D01*
G01X92972Y3518D01*
G01X92975Y3542D01*
G01X92976Y3566D01*
G01X92976Y5707D01*
G01X92975Y5731D01*
G01X92972Y5754D01*
G01X92967Y5777D01*
G01X92959Y5799D01*
G01X92949Y5821D01*
G01X92938Y5842D01*
G01X92924Y5861D01*
G01X92909Y5880D01*
G01X92892Y5896D01*
G01X92874Y5912D01*
G01X92855Y5925D01*
G01X92834Y5936D01*
G01X92812Y5946D01*
G01X92790Y5954D01*
G01X92767Y5959D01*
G01X92744Y5962D01*
G01X92720Y5963D01*
G37*
G36*
G01X10417Y11225D02*
G01X7817Y11225D01*
G01X7766Y11224D01*
G01X7716Y11221D01*
G01X7665Y11216D01*
G01X7615Y11209D01*
G01X7565Y11199D01*
G01X7516Y11188D01*
G01X7467Y11175D01*
G01X7419Y11160D01*
G01X7371Y11143D01*
G01X7324Y11124D01*
G01X7278Y11103D01*
G01X7233Y11081D01*
G01X7189Y11057D01*
G01X7145Y11030D01*
G01X7103Y11002D01*
G01X7062Y10973D01*
G01X7022Y10942D01*
G01X6983Y10909D01*
G01X6946Y10874D01*
G01X6910Y10839D01*
G01X6876Y10802D01*
G01X6843Y10763D01*
G01X6812Y10723D01*
G01X6783Y10682D01*
G01X6755Y10640D01*
G01X6728Y10596D01*
G01X6704Y10552D01*
G01X6682Y10507D01*
G01X6661Y10461D01*
G01X6642Y10414D01*
G01X6625Y10366D01*
G01X6610Y10318D01*
G01X6597Y10269D01*
G01X6586Y10219D01*
G01X6577Y10170D01*
G01X6569Y10120D01*
G01X6564Y10070D01*
G01X6561Y10019D01*
G01X6560Y9968D01*
G01X6561Y9918D01*
G01X6564Y9867D01*
G01X6569Y9817D01*
G01X6577Y9767D01*
G01X6586Y9717D01*
G01X6597Y9668D01*
G01X6610Y9618D01*
G01X6625Y9570D01*
G01X6642Y9522D01*
G01X6661Y9476D01*
G01X6682Y9430D01*
G01X6704Y9384D01*
G01X6728Y9340D01*
G01X6755Y9297D01*
G01X6783Y9254D01*
G01X6812Y9214D01*
G01X6843Y9173D01*
G01X6876Y9135D01*
G01X6910Y9098D01*
G01X6946Y9062D01*
G01X6983Y9028D01*
G01X7022Y8995D01*
G01X7062Y8964D01*
G01X7103Y8934D01*
G01X7145Y8906D01*
G01X7189Y8880D01*
G01X7233Y8855D01*
G01X7278Y8833D01*
G01X7324Y8812D01*
G01X7371Y8793D01*
G01X7419Y8776D01*
G01X7467Y8761D01*
G01X7516Y8748D01*
G01X7565Y8737D01*
G01X7615Y8728D01*
G01X7665Y8721D01*
G01X7716Y8716D01*
G01X7766Y8713D01*
G01X7817Y8712D01*
G01X10417Y8712D01*
G01X10467Y8713D01*
G01X10518Y8716D01*
G01X10568Y8721D01*
G01X10618Y8728D01*
G01X10668Y8737D01*
G01X10717Y8748D01*
G01X10767Y8761D01*
G01X10815Y8776D01*
G01X10862Y8793D01*
G01X10909Y8812D01*
G01X10956Y8833D01*
G01X11001Y8855D01*
G01X11045Y8880D01*
G01X11088Y8906D01*
G01X11130Y8934D01*
G01X11171Y8964D01*
G01X11212Y8995D01*
G01X11250Y9028D01*
G01X11287Y9062D01*
G01X11323Y9098D01*
G01X11357Y9135D01*
G01X11390Y9173D01*
G01X11421Y9214D01*
G01X11451Y9254D01*
G01X11479Y9297D01*
G01X11505Y9340D01*
G01X11530Y9384D01*
G01X11552Y9430D01*
G01X11573Y9476D01*
G01X11592Y9522D01*
G01X11609Y9570D01*
G01X11624Y9618D01*
G01X11637Y9668D01*
G01X11648Y9717D01*
G01X11657Y9767D01*
G01X11664Y9817D01*
G01X11669Y9867D01*
G01X11672Y9918D01*
G01X11673Y9968D01*
G01X11672Y10019D01*
G01X11669Y10070D01*
G01X11664Y10120D01*
G01X11657Y10170D01*
G01X11648Y10219D01*
G01X11637Y10269D01*
G01X11624Y10318D01*
G01X11609Y10366D01*
G01X11592Y10414D01*
G01X11573Y10461D01*
G01X11552Y10507D01*
G01X11530Y10552D01*
G01X11505Y10596D01*
G01X11479Y10640D01*
G01X11451Y10682D01*
G01X11421Y10723D01*
G01X11390Y10763D01*
G01X11357Y10802D01*
G01X11323Y10839D01*
G01X11287Y10874D01*
G01X11250Y10909D01*
G01X11212Y10942D01*
G01X11171Y10973D01*
G01X11130Y11002D01*
G01X11088Y11030D01*
G01X11045Y11057D01*
G01X11001Y11081D01*
G01X10956Y11103D01*
G01X10909Y11124D01*
G01X10862Y11143D01*
G01X10815Y11160D01*
G01X10767Y11175D01*
G01X10717Y11188D01*
G01X10668Y11199D01*
G01X10618Y11209D01*
G01X10568Y11216D01*
G01X10518Y11221D01*
G01X10467Y11224D01*
G01X10417Y11225D01*
G37*
G36*
G01X15664Y11433D02*
G01X15613Y11434D01*
G01X15562Y11433D01*
G01X15512Y11430D01*
G01X15461Y11424D01*
G01X15411Y11417D01*
G01X15361Y11409D01*
G01X15312Y11397D01*
G01X15263Y11384D01*
G01X15215Y11369D01*
G01X15167Y11352D01*
G01X15120Y11333D01*
G01X15074Y11313D01*
G01X15029Y11290D01*
G01X14984Y11265D01*
G01X14941Y11240D01*
G01X14899Y11212D01*
G01X14858Y11182D01*
G01X14818Y11151D01*
G01X14780Y11118D01*
G01X14743Y11084D01*
G01X14707Y11047D01*
G01X14673Y11010D01*
G01X14640Y10972D01*
G01X14609Y10932D01*
G01X14579Y10891D01*
G01X14551Y10849D01*
G01X14525Y10806D01*
G01X14500Y10761D01*
G01X14478Y10716D01*
G01X14457Y10670D01*
G01X14438Y10623D01*
G01X14421Y10575D01*
G01X14406Y10527D01*
G01X14393Y10478D01*
G01X14381Y10429D01*
G01X14373Y10379D01*
G01X14366Y10329D01*
G01X14361Y10278D01*
G01X14358Y10228D01*
G01X14357Y10177D01*
G01X14358Y10126D01*
G01X14361Y10076D01*
G01X14366Y10026D01*
G01X14373Y9976D01*
G01X14381Y9926D01*
G01X14393Y9877D01*
G01X14406Y9828D01*
G01X14421Y9780D01*
G01X14438Y9732D01*
G01X14457Y9685D01*
G01X14478Y9639D01*
G01X14500Y9594D01*
G01X14525Y9549D01*
G01X14551Y9506D01*
G01X14579Y9464D01*
G01X14609Y9422D01*
G01X14640Y9383D01*
G01X14673Y9344D01*
G01X14707Y9307D01*
G01X14743Y9271D01*
G01X14780Y9237D01*
G01X14818Y9204D01*
G01X14858Y9173D01*
G01X14899Y9143D01*
G01X14941Y9115D01*
G01X14984Y9089D01*
G01X15029Y9065D01*
G01X15074Y9042D01*
G01X15120Y9021D01*
G01X15167Y9002D01*
G01X15263Y8970D01*
G01X15312Y8957D01*
G01X15361Y8946D01*
G01X15411Y8937D01*
G01X15461Y8930D01*
G01X15512Y8925D01*
G01X15562Y8922D01*
G01X15613Y8920D01*
G01X15664Y8922D01*
G01X15714Y8925D01*
G01X15764Y8930D01*
G01X15815Y8937D01*
G01X15864Y8946D01*
G01X15914Y8957D01*
G01X15963Y8970D01*
G01X16011Y8986D01*
G01X16059Y9003D01*
G01X16106Y9022D01*
G01X16152Y9042D01*
G01X16197Y9065D01*
G01X16242Y9089D01*
G01X16285Y9116D01*
G01X16327Y9144D01*
G01X16368Y9173D01*
G01X16408Y9204D01*
G01X16447Y9237D01*
G01X16484Y9272D01*
G01X16520Y9308D01*
G01X16554Y9345D01*
G01X16587Y9383D01*
G01X16597Y9394D01*
G01X16609Y9404D01*
G01X16622Y9411D01*
G01X16636Y9416D01*
G01X16651Y9420D01*
G01X16665Y9421D01*
G01X54962Y9421D01*
G01X54976Y9420D01*
G01X54991Y9416D01*
G01X55005Y9411D01*
G01X55018Y9404D01*
G01X55030Y9394D01*
G01X55040Y9383D01*
G01X55073Y9345D01*
G01X55107Y9308D01*
G01X55143Y9272D01*
G01X55180Y9237D01*
G01X55219Y9204D01*
G01X55259Y9173D01*
G01X55300Y9144D01*
G01X55342Y9116D01*
G01X55385Y9089D01*
G01X55430Y9065D01*
G01X55475Y9042D01*
G01X55521Y9022D01*
G01X55568Y9003D01*
G01X55616Y8986D01*
G01X55664Y8970D01*
G01X55713Y8957D01*
G01X55763Y8946D01*
G01X55812Y8937D01*
G01X55863Y8930D01*
G01X55913Y8925D01*
G01X55963Y8922D01*
G01X56014Y8920D01*
G01X56065Y8922D01*
G01X56115Y8925D01*
G01X56166Y8930D01*
G01X56216Y8937D01*
G01X56266Y8946D01*
G01X56315Y8957D01*
G01X56364Y8970D01*
G01X56460Y9002D01*
G01X56507Y9021D01*
G01X56553Y9042D01*
G01X56598Y9065D01*
G01X56643Y9089D01*
G01X56686Y9115D01*
G01X56728Y9143D01*
G01X56769Y9173D01*
G01X56809Y9204D01*
G01X56847Y9237D01*
G01X56884Y9271D01*
G01X56920Y9307D01*
G01X56954Y9344D01*
G01X56987Y9383D01*
G01X57018Y9422D01*
G01X57048Y9464D01*
G01X57076Y9506D01*
G01X57102Y9549D01*
G01X57127Y9594D01*
G01X57150Y9639D01*
G01X57170Y9685D01*
G01X57189Y9732D01*
G01X57206Y9780D01*
G01X57221Y9828D01*
G01X57234Y9877D01*
G01X57246Y9926D01*
G01X57254Y9976D01*
G01X57261Y10026D01*
G01X57266Y10076D01*
G01X57269Y10126D01*
G01X57271Y10177D01*
G01X57269Y10228D01*
G01X57266Y10278D01*
G01X57261Y10329D01*
G01X57254Y10379D01*
G01X57246Y10429D01*
G01X57234Y10478D01*
G01X57221Y10527D01*
G01X57206Y10575D01*
G01X57189Y10623D01*
G01X57170Y10670D01*
G01X57150Y10716D01*
G01X57127Y10761D01*
G01X57102Y10806D01*
G01X57076Y10849D01*
G01X57048Y10891D01*
G01X57018Y10932D01*
G01X56987Y10972D01*
G01X56954Y11010D01*
G01X56920Y11047D01*
G01X56884Y11084D01*
G01X56847Y11118D01*
G01X56809Y11151D01*
G01X56769Y11182D01*
G01X56728Y11212D01*
G01X56686Y11240D01*
G01X56643Y11265D01*
G01X56598Y11290D01*
G01X56553Y11313D01*
G01X56507Y11333D01*
G01X56460Y11352D01*
G01X56412Y11369D01*
G01X56364Y11384D01*
G01X56315Y11397D01*
G01X56266Y11409D01*
G01X56216Y11417D01*
G01X56166Y11424D01*
G01X56115Y11430D01*
G01X56065Y11433D01*
G01X56014Y11434D01*
G01X55963Y11433D01*
G01X55913Y11430D01*
G01X55863Y11424D01*
G01X55812Y11417D01*
G01X55763Y11408D01*
G01X55713Y11397D01*
G01X55664Y11384D01*
G01X55616Y11369D01*
G01X55568Y11352D01*
G01X55521Y11333D01*
G01X55475Y11312D01*
G01X55430Y11290D01*
G01X55385Y11265D01*
G01X55342Y11239D01*
G01X55300Y11211D01*
G01X55259Y11182D01*
G01X55219Y11150D01*
G01X55180Y11117D01*
G01X55143Y11083D01*
G01X55107Y11047D01*
G01X55073Y11010D01*
G01X55040Y10971D01*
G01X55030Y10960D01*
G01X55018Y10951D01*
G01X55005Y10944D01*
G01X54991Y10938D01*
G01X54976Y10935D01*
G01X54962Y10934D01*
G01X16665Y10934D01*
G01X16651Y10935D01*
G01X16636Y10938D01*
G01X16622Y10944D01*
G01X16609Y10951D01*
G01X16597Y10960D01*
G01X16587Y10971D01*
G01X16554Y11010D01*
G01X16520Y11047D01*
G01X16484Y11083D01*
G01X16447Y11117D01*
G01X16408Y11150D01*
G01X16368Y11182D01*
G01X16327Y11211D01*
G01X16285Y11239D01*
G01X16242Y11265D01*
G01X16197Y11290D01*
G01X16152Y11312D01*
G01X16106Y11333D01*
G01X16059Y11352D01*
G01X16011Y11369D01*
G01X15963Y11384D01*
G01X15914Y11397D01*
G01X15864Y11408D01*
G01X15815Y11417D01*
G01X15764Y11424D01*
G01X15714Y11430D01*
G01X15664Y11433D01*
G37*
G36*
G01X5892Y30683D02*
G01X5842Y30684D01*
G01X5791Y30683D01*
G01X5740Y30680D01*
G01X5690Y30675D01*
G01X5640Y30668D01*
G01X5590Y30659D01*
G01X5541Y30648D01*
G01X5492Y30635D01*
G01X5444Y30620D01*
G01X5396Y30603D01*
G01X5349Y30584D01*
G01X5303Y30563D01*
G01X5258Y30540D01*
G01X5213Y30516D01*
G01X5170Y30490D01*
G01X5128Y30462D01*
G01X5087Y30432D01*
G01X5047Y30401D01*
G01X5008Y30368D01*
G01X4971Y30334D01*
G01X4935Y30298D01*
G01X4901Y30261D01*
G01X4868Y30222D01*
G01X4837Y30183D01*
G01X4807Y30142D01*
G01X4779Y30100D01*
G01X4753Y30056D01*
G01X4729Y30012D01*
G01X4706Y29966D01*
G01X4685Y29921D01*
G01X4666Y29873D01*
G01X4650Y29826D01*
G01X4634Y29777D01*
G01X4621Y29729D01*
G01X4610Y29679D01*
G01X4601Y29630D01*
G01X4594Y29579D01*
G01X4589Y29529D01*
G01X4586Y29479D01*
G01X4585Y29428D01*
G01X4586Y29377D01*
G01X4589Y29327D01*
G01X4594Y29277D01*
G01X4601Y29226D01*
G01X4610Y29176D01*
G01X4621Y29127D01*
G01X4634Y29078D01*
G01X4666Y28982D01*
G01X4685Y28935D01*
G01X4706Y28889D01*
G01X4729Y28844D01*
G01X4753Y28800D01*
G01X4779Y28756D01*
G01X4807Y28714D01*
G01X4837Y28673D01*
G01X4868Y28633D01*
G01X4901Y28595D01*
G01X4935Y28558D01*
G01X4971Y28522D01*
G01X5008Y28488D01*
G01X5047Y28455D01*
G01X5087Y28424D01*
G01X5128Y28394D01*
G01X5170Y28366D01*
G01X5213Y28340D01*
G01X5258Y28315D01*
G01X5303Y28293D01*
G01X5349Y28272D01*
G01X5396Y28253D01*
G01X5444Y28236D01*
G01X5492Y28221D01*
G01X5541Y28208D01*
G01X5590Y28197D01*
G01X5640Y28188D01*
G01X5690Y28181D01*
G01X5740Y28176D01*
G01X5791Y28173D01*
G01X5842Y28172D01*
G01X5905Y28173D01*
G01X5969Y28178D01*
G01X5979Y28178D01*
G01X5995Y28177D01*
G01X6011Y28173D01*
G01X6025Y28167D01*
G01X6039Y28159D01*
G01X6051Y28149D01*
G01X6767Y27433D01*
G01X6778Y27420D01*
G01X6786Y27407D01*
G01X6792Y27392D01*
G01X6796Y27377D01*
G01X6797Y27360D01*
G01X6797Y25475D01*
G01X6796Y25461D01*
G01X6793Y25447D01*
G01X6788Y25433D01*
G01X6781Y25420D01*
G01X6772Y25409D01*
G01X6762Y25398D01*
G01X6750Y25390D01*
G01X6738Y25383D01*
G01X6724Y25378D01*
G01X6710Y25375D01*
G01X6695Y25374D01*
G01X6678Y25375D01*
G01X6661Y25380D01*
G01X6646Y25387D01*
G01X6631Y25396D01*
G01X6589Y25429D01*
G01X6545Y25460D01*
G01X6499Y25489D01*
G01X6453Y25517D01*
G01X6405Y25542D01*
G01X6405Y24982D01*
G01X6695Y24982D01*
G01X6710Y24981D01*
G01X6724Y24978D01*
G01X6738Y24973D01*
G01X6750Y24967D01*
G01X6762Y24958D01*
G01X6772Y24947D01*
G01X6781Y24936D01*
G01X6788Y24923D01*
G01X6793Y24910D01*
G01X6796Y24896D01*
G01X6797Y24881D01*
G01X6797Y23957D01*
G01X6796Y23943D01*
G01X6793Y23928D01*
G01X6788Y23915D01*
G01X6781Y23902D01*
G01X6772Y23891D01*
G01X6762Y23881D01*
G01X6750Y23871D01*
G01X6738Y23865D01*
G01X6724Y23860D01*
G01X6710Y23857D01*
G01X6695Y23856D01*
G01X6405Y23856D01*
G01X6405Y23296D01*
G01X6453Y23321D01*
G01X6499Y23349D01*
G01X6545Y23378D01*
G01X6589Y23409D01*
G01X6631Y23442D01*
G01X6646Y23451D01*
G01X6661Y23458D01*
G01X6678Y23463D01*
G01X6695Y23465D01*
G01X6710Y23464D01*
G01X6724Y23460D01*
G01X6738Y23455D01*
G01X6750Y23448D01*
G01X6762Y23440D01*
G01X6772Y23429D01*
G01X6781Y23418D01*
G01X6788Y23405D01*
G01X6793Y23391D01*
G01X6796Y23377D01*
G01X6797Y23363D01*
G01X6797Y17082D01*
G01X6796Y17067D01*
G01X6793Y17053D01*
G01X6788Y17039D01*
G01X6781Y17027D01*
G01X6772Y17015D01*
G01X6762Y17005D01*
G01X6750Y16996D01*
G01X6738Y16989D01*
G01X6724Y16984D01*
G01X6710Y16981D01*
G01X6695Y16980D01*
G01X6680Y16981D01*
G01X6665Y16984D01*
G01X6650Y16991D01*
G01X6637Y16998D01*
G01X6594Y17027D01*
G01X6551Y17054D01*
G01X6506Y17078D01*
G01X6461Y17101D01*
G01X6414Y17123D01*
G01X6367Y17142D01*
G01X6319Y17159D01*
G01X6270Y17174D01*
G01X6220Y17188D01*
G01X6171Y17199D01*
G01X6120Y17209D01*
G01X6070Y17216D01*
G01X6019Y17221D01*
G01X5968Y17224D01*
G01X5917Y17225D01*
G01X5866Y17224D01*
G01X5816Y17221D01*
G01X5765Y17216D01*
G01X5715Y17209D01*
G01X5665Y17200D01*
G01X5616Y17189D01*
G01X5567Y17175D01*
G01X5519Y17161D01*
G01X5471Y17143D01*
G01X5424Y17125D01*
G01X5378Y17104D01*
G01X5332Y17082D01*
G01X5288Y17057D01*
G01X5245Y17031D01*
G01X5203Y17003D01*
G01X5162Y16973D01*
G01X5122Y16942D01*
G01X5084Y16909D01*
G01X5046Y16875D01*
G01X5010Y16839D01*
G01X4976Y16802D01*
G01X4943Y16764D01*
G01X4912Y16723D01*
G01X4882Y16683D01*
G01X4854Y16641D01*
G01X4804Y16553D01*
G01X4781Y16507D01*
G01X4760Y16461D01*
G01X4742Y16415D01*
G01X4725Y16367D01*
G01X4710Y16318D01*
G01X4696Y16269D01*
G01X4685Y16220D01*
G01X4676Y16170D01*
G01X4669Y16120D01*
G01X4664Y16070D01*
G01X4661Y16019D01*
G01X4660Y15968D01*
G01X4660Y13369D01*
G01X4661Y13318D01*
G01X4664Y13267D01*
G01X4669Y13217D01*
G01X4676Y13167D01*
G01X4685Y13118D01*
G01X4696Y13068D01*
G01X4710Y13019D01*
G01X4725Y12971D01*
G01X4742Y12923D01*
G01X4760Y12876D01*
G01X4781Y12830D01*
G01X4804Y12785D01*
G01X4854Y12697D01*
G01X4882Y12655D01*
G01X4912Y12614D01*
G01X4943Y12574D01*
G01X4976Y12535D01*
G01X5010Y12498D01*
G01X5046Y12463D01*
G01X5084Y12428D01*
G01X5122Y12395D01*
G01X5162Y12364D01*
G01X5203Y12335D01*
G01X5245Y12307D01*
G01X5288Y12280D01*
G01X5332Y12256D01*
G01X5378Y12234D01*
G01X5424Y12213D01*
G01X5471Y12194D01*
G01X5519Y12177D01*
G01X5567Y12162D01*
G01X5616Y12149D01*
G01X5665Y12138D01*
G01X5715Y12129D01*
G01X5765Y12121D01*
G01X5816Y12116D01*
G01X5866Y12113D01*
G01X5917Y12112D01*
G01X5967Y12113D01*
G01X6018Y12116D01*
G01X6068Y12121D01*
G01X6118Y12129D01*
G01X6168Y12138D01*
G01X6217Y12149D01*
G01X6266Y12162D01*
G01X6314Y12177D01*
G01X6362Y12194D01*
G01X6409Y12213D01*
G01X6455Y12234D01*
G01X6500Y12256D01*
G01X6545Y12280D01*
G01X6588Y12307D01*
G01X6630Y12335D01*
G01X6672Y12364D01*
G01X6711Y12395D01*
G01X6750Y12428D01*
G01X6787Y12463D01*
G01X6823Y12498D01*
G01X6857Y12535D01*
G01X6890Y12574D01*
G01X6921Y12614D01*
G01X6951Y12655D01*
G01X6978Y12697D01*
G01X7005Y12741D01*
G01X7029Y12785D01*
G01X7052Y12830D01*
G01X7072Y12876D01*
G01X7092Y12923D01*
G01X7124Y13019D01*
G01X7137Y13068D01*
G01X7148Y13118D01*
G01X7157Y13167D01*
G01X7164Y13217D01*
G01X7169Y13267D01*
G01X7172Y13318D01*
G01X7173Y13369D01*
G01X7173Y14811D01*
G01X7174Y14828D01*
G01X7178Y14843D01*
G01X7184Y14857D01*
G01X7193Y14871D01*
G01X7203Y14883D01*
G01X8088Y15769D01*
G01X8116Y15797D01*
G01X8166Y15859D01*
G01X8188Y15892D01*
G01X8209Y15925D01*
G01X8228Y15960D01*
G01X8260Y16032D01*
G01X8273Y16070D01*
G01X8284Y16108D01*
G01X8294Y16146D01*
G01X8301Y16185D01*
G01X8306Y16225D01*
G01X8309Y16264D01*
G01X8310Y16304D01*
G01X8310Y27716D01*
G01X8309Y27756D01*
G01X8306Y27795D01*
G01X8301Y27834D01*
G01X8294Y27873D01*
G01X8284Y27912D01*
G01X8273Y27950D01*
G01X8260Y27987D01*
G01X8244Y28024D01*
G01X8228Y28059D01*
G01X8209Y28094D01*
G01X8188Y28128D01*
G01X8166Y28160D01*
G01X8141Y28192D01*
G01X8116Y28222D01*
G01X8088Y28251D01*
G01X7121Y29219D01*
G01X7110Y29231D01*
G01X7102Y29244D01*
G01X7096Y29259D01*
G01X7092Y29275D01*
G01X7091Y29290D01*
G01X7092Y29300D01*
G01X7096Y29364D01*
G01X7098Y29428D01*
G01X7097Y29479D01*
G01X7094Y29529D01*
G01X7089Y29579D01*
G01X7082Y29630D01*
G01X7073Y29679D01*
G01X7062Y29729D01*
G01X7049Y29777D01*
G01X7033Y29826D01*
G01X7017Y29873D01*
G01X6998Y29921D01*
G01X6977Y29966D01*
G01X6954Y30012D01*
G01X6930Y30056D01*
G01X6904Y30100D01*
G01X6876Y30142D01*
G01X6846Y30183D01*
G01X6815Y30222D01*
G01X6782Y30261D01*
G01X6748Y30298D01*
G01X6712Y30334D01*
G01X6675Y30368D01*
G01X6636Y30401D01*
G01X6596Y30432D01*
G01X6555Y30462D01*
G01X6513Y30490D01*
G01X6470Y30516D01*
G01X6425Y30540D01*
G01X6380Y30563D01*
G01X6334Y30584D01*
G01X6287Y30603D01*
G01X6239Y30620D01*
G01X6191Y30635D01*
G01X6142Y30648D01*
G01X6093Y30659D01*
G01X6043Y30668D01*
G01X5993Y30675D01*
G01X5943Y30680D01*
G01X5892Y30683D01*
G37*
G36*
G01X11553Y13455D02*
G01X10860Y13455D01*
G01X10860Y13369D01*
G01X10861Y13317D01*
G01X10864Y13266D01*
G01X10869Y13215D01*
G01X10877Y13164D01*
G01X10886Y13113D01*
G01X10898Y13063D01*
G01X10911Y13013D01*
G01X10927Y12964D01*
G01X10944Y12916D01*
G01X10964Y12868D01*
G01X10985Y12821D01*
G01X11008Y12776D01*
G01X11034Y12731D01*
G01X11061Y12687D01*
G01X11090Y12644D01*
G01X11120Y12603D01*
G01X11152Y12563D01*
G01X11186Y12524D01*
G01X11221Y12487D01*
G01X11258Y12451D01*
G01X11296Y12417D01*
G01X11336Y12384D01*
G01X11377Y12353D01*
G01X11419Y12323D01*
G01X11463Y12296D01*
G01X11507Y12270D01*
G01X11553Y12245D01*
G01X11553Y13455D01*
G37*
G36*
G01X13373Y13455D02*
G01X12680Y13455D01*
G01X12680Y12245D01*
G01X12725Y12270D01*
G01X12770Y12296D01*
G01X12813Y12323D01*
G01X12855Y12353D01*
G01X12897Y12384D01*
G01X12936Y12417D01*
G01X12974Y12451D01*
G01X13011Y12487D01*
G01X13046Y12524D01*
G01X13081Y12563D01*
G01X13113Y12603D01*
G01X13143Y12644D01*
G01X13172Y12687D01*
G01X13199Y12731D01*
G01X13224Y12776D01*
G01X13248Y12821D01*
G01X13269Y12868D01*
G01X13288Y12916D01*
G01X13306Y12964D01*
G01X13322Y13013D01*
G01X13335Y13063D01*
G01X13347Y13113D01*
G01X13356Y13164D01*
G01X13363Y13215D01*
G01X13369Y13266D01*
G01X13372Y13317D01*
G01X13373Y13369D01*
G01X13373Y13455D01*
G37*
G36*
G01X11553Y15882D02*
G01X11553Y17092D01*
G01X11507Y17068D01*
G01X11463Y17042D01*
G01X11419Y17014D01*
G01X11377Y16985D01*
G01X11336Y16953D01*
G01X11296Y16921D01*
G01X11258Y16886D01*
G01X11221Y16851D01*
G01X11186Y16813D01*
G01X11152Y16775D01*
G01X11120Y16735D01*
G01X11090Y16693D01*
G01X11061Y16650D01*
G01X11034Y16607D01*
G01X11008Y16562D01*
G01X10985Y16516D01*
G01X10964Y16469D01*
G01X10944Y16421D01*
G01X10927Y16373D01*
G01X10911Y16324D01*
G01X10898Y16274D01*
G01X10886Y16224D01*
G01X10877Y16174D01*
G01X10869Y16122D01*
G01X10864Y16072D01*
G01X10861Y16020D01*
G01X10860Y15968D01*
G01X10860Y15882D01*
G01X11553Y15882D01*
G37*
G36*
G01X12725Y17068D02*
G01X12680Y17092D01*
G01X12680Y15882D01*
G01X13373Y15882D01*
G01X13373Y15968D01*
G01X13372Y16020D01*
G01X13369Y16072D01*
G01X13363Y16122D01*
G01X13356Y16174D01*
G01X13347Y16224D01*
G01X13335Y16274D01*
G01X13322Y16324D01*
G01X13306Y16373D01*
G01X13288Y16421D01*
G01X13269Y16469D01*
G01X13248Y16516D01*
G01X13224Y16562D01*
G01X13199Y16607D01*
G01X13172Y16650D01*
G01X13143Y16693D01*
G01X13113Y16735D01*
G01X13081Y16775D01*
G01X13011Y16851D01*
G01X12974Y16886D01*
G01X12936Y16921D01*
G01X12897Y16953D01*
G01X12855Y16985D01*
G01X12813Y17014D01*
G01X12770Y17042D01*
G01X12725Y17068D01*
G37*
G36*
G01X123897Y43034D02*
G01X123863Y43035D01*
G01X123824Y43034D01*
G01X123786Y43030D01*
G01X123748Y43023D01*
G01X123711Y43014D01*
G01X123674Y43002D01*
G01X123639Y42988D01*
G01X123619Y42982D01*
G01X123598Y42980D01*
G01X78544Y42980D01*
G01X78511Y42979D01*
G01X78478Y42976D01*
G01X78445Y42970D01*
G01X78413Y42963D01*
G01X78381Y42953D01*
G01X78350Y42941D01*
G01X78320Y42928D01*
G01X78290Y42912D01*
G01X78262Y42895D01*
G01X78236Y42875D01*
G01X78210Y42854D01*
G01X78186Y42832D01*
G01X77144Y41790D01*
G01X77132Y41779D01*
G01X77118Y41771D01*
G01X77104Y41765D01*
G01X77088Y41761D01*
G01X77072Y41760D01*
G01X77051Y41762D01*
G01X76998Y41772D01*
G01X76945Y41779D01*
G01X76891Y41784D01*
G01X76837Y41785D01*
G01X76791Y41784D01*
G01X76746Y41781D01*
G01X76700Y41776D01*
G01X76655Y41769D01*
G01X76610Y41760D01*
G01X76566Y41748D01*
G01X76522Y41735D01*
G01X76479Y41720D01*
G01X76437Y41703D01*
G01X76395Y41684D01*
G01X76354Y41664D01*
G01X76315Y41641D01*
G01X76276Y41616D01*
G01X76238Y41590D01*
G01X76202Y41563D01*
G01X76167Y41534D01*
G01X76133Y41503D01*
G01X76101Y41471D01*
G01X76070Y41437D01*
G01X76040Y41402D01*
G01X76013Y41365D01*
G01X75987Y41328D01*
G01X75963Y41289D01*
G01X75940Y41249D01*
G01X75900Y41167D01*
G01X75884Y41125D01*
G01X75868Y41081D01*
G01X75855Y41037D01*
G01X75844Y40993D01*
G01X75835Y40948D01*
G01X75828Y40903D01*
G01X75823Y40858D01*
G01X75820Y40812D01*
G01X75819Y40767D01*
G01X75820Y40718D01*
G01X75823Y40670D01*
G01X75829Y40622D01*
G01X75837Y40575D01*
G01X75847Y40528D01*
G01X75859Y40481D01*
G01X75874Y40435D01*
G01X75891Y40390D01*
G01X75909Y40346D01*
G01X75930Y40302D01*
G01X75953Y40260D01*
G01X75979Y40219D01*
G01X75985Y40206D01*
G01X75990Y40192D01*
G01X75993Y40179D01*
G01X75994Y40164D01*
G01X75993Y40150D01*
G01X75990Y40136D01*
G01X75985Y40122D01*
G01X75978Y40109D01*
G01X75969Y40097D01*
G01X75959Y40087D01*
G01X75948Y40079D01*
G01X75935Y40072D01*
G01X75921Y40066D01*
G01X75907Y40063D01*
G01X75893Y40062D01*
G01X75241Y40062D01*
G01X75227Y40063D01*
G01X75213Y40066D01*
G01X75199Y40072D01*
G01X75187Y40079D01*
G01X75175Y40087D01*
G01X75165Y40097D01*
G01X75156Y40109D01*
G01X75149Y40122D01*
G01X75144Y40136D01*
G01X75141Y40150D01*
G01X75140Y40164D01*
G01X75141Y40179D01*
G01X75144Y40192D01*
G01X75149Y40206D01*
G01X75156Y40219D01*
G01X75181Y40260D01*
G01X75204Y40302D01*
G01X75225Y40346D01*
G01X75243Y40390D01*
G01X75260Y40435D01*
G01X75275Y40481D01*
G01X75287Y40528D01*
G01X75297Y40575D01*
G01X75305Y40622D01*
G01X75311Y40670D01*
G01X75315Y40718D01*
G01X75316Y40767D01*
G01X75315Y40812D01*
G01X75312Y40858D01*
G01X75306Y40903D01*
G01X75299Y40948D01*
G01X75290Y40993D01*
G01X75279Y41037D01*
G01X75266Y41081D01*
G01X75251Y41125D01*
G01X75234Y41167D01*
G01X75194Y41249D01*
G01X75171Y41289D01*
G01X75147Y41328D01*
G01X75121Y41365D01*
G01X75094Y41402D01*
G01X75064Y41437D01*
G01X75033Y41471D01*
G01X75001Y41503D01*
G01X74967Y41534D01*
G01X74932Y41563D01*
G01X74896Y41590D01*
G01X74858Y41616D01*
G01X74819Y41641D01*
G01X74780Y41664D01*
G01X74739Y41684D01*
G01X74697Y41703D01*
G01X74655Y41720D01*
G01X74612Y41735D01*
G01X74568Y41748D01*
G01X74524Y41760D01*
G01X74479Y41769D01*
G01X74434Y41776D01*
G01X74388Y41781D01*
G01X74343Y41784D01*
G01X74297Y41785D01*
G01X74251Y41784D01*
G01X74206Y41781D01*
G01X74160Y41776D01*
G01X74115Y41769D01*
G01X74070Y41760D01*
G01X74026Y41748D01*
G01X73982Y41735D01*
G01X73939Y41720D01*
G01X73897Y41703D01*
G01X73855Y41684D01*
G01X73814Y41664D01*
G01X73775Y41641D01*
G01X73736Y41616D01*
G01X73698Y41590D01*
G01X73662Y41563D01*
G01X73627Y41534D01*
G01X73593Y41503D01*
G01X73561Y41471D01*
G01X73530Y41437D01*
G01X73500Y41402D01*
G01X73473Y41365D01*
G01X73447Y41328D01*
G01X73423Y41289D01*
G01X73400Y41249D01*
G01X73360Y41167D01*
G01X73344Y41125D01*
G01X73328Y41081D01*
G01X73315Y41037D01*
G01X73304Y40993D01*
G01X73295Y40948D01*
G01X73288Y40903D01*
G01X73283Y40858D01*
G01X73280Y40812D01*
G01X73279Y40767D01*
G01X73280Y40714D01*
G01X73284Y40661D01*
G01X73291Y40609D01*
G01X73300Y40557D01*
G01X73302Y40536D01*
G01X73301Y40522D01*
G01X73298Y40508D01*
G01X73293Y40494D01*
G01X73286Y40482D01*
G01X73277Y40470D01*
G01X73267Y40460D01*
G01X73256Y40451D01*
G01X73243Y40444D01*
G01X73229Y40439D01*
G01X73216Y40436D01*
G01X73201Y40435D01*
G01X73185Y40436D01*
G01X73169Y40440D01*
G01X73155Y40446D01*
G01X73141Y40454D01*
G01X73129Y40464D01*
G01X72801Y40792D01*
G01X72790Y40806D01*
G01X72781Y40821D01*
G01X72775Y40838D01*
G01X72772Y40855D01*
G01X72766Y40901D01*
G01X72760Y40946D01*
G01X72751Y40991D01*
G01X72740Y41035D01*
G01X72712Y41123D01*
G01X72676Y41207D01*
G01X72655Y41248D01*
G01X72632Y41287D01*
G01X72608Y41326D01*
G01X72582Y41364D01*
G01X72554Y41400D01*
G01X72525Y41436D01*
G01X72494Y41470D01*
G01X72462Y41502D01*
G01X72428Y41533D01*
G01X72393Y41562D01*
G01X72356Y41590D01*
G01X72319Y41616D01*
G01X72280Y41640D01*
G01X72241Y41663D01*
G01X72200Y41684D01*
G01X72158Y41703D01*
G01X72116Y41720D01*
G01X72073Y41735D01*
G01X72028Y41748D01*
G01X71984Y41760D01*
G01X71939Y41769D01*
G01X71894Y41776D01*
G01X71848Y41781D01*
G01X71803Y41784D01*
G01X71757Y41785D01*
G01X71711Y41784D01*
G01X71666Y41781D01*
G01X71620Y41776D01*
G01X71575Y41769D01*
G01X71530Y41760D01*
G01X71486Y41748D01*
G01X71442Y41735D01*
G01X71399Y41720D01*
G01X71357Y41703D01*
G01X71315Y41684D01*
G01X71274Y41664D01*
G01X71235Y41641D01*
G01X71196Y41616D01*
G01X71158Y41590D01*
G01X71122Y41563D01*
G01X71087Y41534D01*
G01X71053Y41503D01*
G01X71021Y41471D01*
G01X70990Y41437D01*
G01X70960Y41402D01*
G01X70933Y41365D01*
G01X70907Y41328D01*
G01X70883Y41289D01*
G01X70860Y41249D01*
G01X70820Y41167D01*
G01X70804Y41125D01*
G01X70788Y41081D01*
G01X70775Y41037D01*
G01X70764Y40993D01*
G01X70755Y40948D01*
G01X70748Y40903D01*
G01X70743Y40858D01*
G01X70740Y40812D01*
G01X70739Y40767D01*
G01X70740Y40721D01*
G01X70743Y40675D01*
G01X70748Y40629D01*
G01X70755Y40584D01*
G01X70764Y40539D01*
G01X70775Y40495D01*
G01X70788Y40451D01*
G01X70804Y40408D01*
G01X70821Y40366D01*
G01X70840Y40324D01*
G01X70860Y40283D01*
G01X70883Y40243D01*
G01X70908Y40205D01*
G01X70934Y40167D01*
G01X70962Y40130D01*
G01X70991Y40095D01*
G01X71022Y40062D01*
G01X71054Y40029D01*
G01X71088Y39998D01*
G01X71123Y39969D01*
G01X71160Y39942D01*
G01X71197Y39916D01*
G01X71236Y39891D01*
G01X71276Y39869D01*
G01X71317Y39848D01*
G01X71358Y39829D01*
G01X71401Y39812D01*
G01X71444Y39797D01*
G01X71488Y39784D01*
G01X71533Y39773D01*
G01X71577Y39764D01*
G01X71623Y39757D01*
G01X71668Y39752D01*
G01X71685Y39749D01*
G01X71702Y39743D01*
G01X71717Y39734D01*
G01X71731Y39723D01*
G01X72683Y38771D01*
G01X72711Y38744D01*
G01X72742Y38718D01*
G01X72773Y38694D01*
G01X72806Y38672D01*
G01X72839Y38651D01*
G01X72874Y38632D01*
G01X72910Y38615D01*
G01X72946Y38600D01*
G01X72984Y38587D01*
G01X73022Y38575D01*
G01X73060Y38566D01*
G01X73099Y38559D01*
G01X73138Y38554D01*
G01X73178Y38551D01*
G01X73218Y38550D01*
G01X100360Y38550D01*
G01X100375Y38549D01*
G01X100389Y38546D01*
G01X100403Y38540D01*
G01X100415Y38533D01*
G01X100427Y38525D01*
G01X100437Y38515D01*
G01X100446Y38503D01*
G01X100453Y38490D01*
G01X100458Y38476D01*
G01X100461Y38462D01*
G01X100462Y38448D01*
G01X100462Y33782D01*
G01X100463Y33742D01*
G01X100466Y33702D01*
G01X100471Y33663D01*
G01X100478Y33624D01*
G01X100487Y33586D01*
G01X100499Y33548D01*
G01X100512Y33510D01*
G01X100544Y33438D01*
G01X100563Y33403D01*
G01X100584Y33370D01*
G01X100606Y33337D01*
G01X100656Y33275D01*
G01X108053Y25878D01*
G01X108063Y25865D01*
G01X108071Y25852D01*
G01X108078Y25837D01*
G01X108081Y25822D01*
G01X108083Y25805D01*
G01X108082Y25794D01*
G01X108076Y25724D01*
G01X108074Y25654D01*
G01X108075Y25602D01*
G01X108078Y25550D01*
G01X108084Y25499D01*
G01X108091Y25447D01*
G01X108100Y25396D01*
G01X108112Y25346D01*
G01X108125Y25296D01*
G01X108141Y25247D01*
G01X108158Y25198D01*
G01X108178Y25150D01*
G01X108199Y25103D01*
G01X108222Y25057D01*
G01X108248Y25012D01*
G01X108275Y24968D01*
G01X108304Y24925D01*
G01X108334Y24883D01*
G01X108366Y24842D01*
G01X108400Y24803D01*
G01X108435Y24766D01*
G01X108472Y24729D01*
G01X108510Y24694D01*
G01X108550Y24661D01*
G01X108591Y24629D01*
G01X108633Y24600D01*
G01X108676Y24571D01*
G01X108721Y24545D01*
G01X108767Y24521D01*
G01X108813Y24498D01*
G01X108860Y24477D01*
G01X108874Y24471D01*
G01X108886Y24462D01*
G01X108897Y24452D01*
G01X108906Y24440D01*
G01X108914Y24427D01*
G01X108919Y24413D01*
G01X108922Y24398D01*
G01X108923Y24384D01*
G01X108922Y24369D01*
G01X108919Y24354D01*
G01X108914Y24340D01*
G01X108906Y24327D01*
G01X108897Y24315D01*
G01X108886Y24305D01*
G01X108874Y24296D01*
G01X108860Y24290D01*
G01X108813Y24269D01*
G01X108767Y24246D01*
G01X108721Y24222D01*
G01X108676Y24196D01*
G01X108633Y24167D01*
G01X108591Y24138D01*
G01X108550Y24106D01*
G01X108510Y24073D01*
G01X108472Y24038D01*
G01X108435Y24001D01*
G01X108400Y23964D01*
G01X108366Y23925D01*
G01X108334Y23884D01*
G01X108304Y23842D01*
G01X108275Y23799D01*
G01X108248Y23755D01*
G01X108222Y23710D01*
G01X108199Y23664D01*
G01X108178Y23617D01*
G01X108158Y23569D01*
G01X108141Y23520D01*
G01X108125Y23471D01*
G01X108112Y23421D01*
G01X108100Y23371D01*
G01X108091Y23320D01*
G01X108084Y23268D01*
G01X108078Y23217D01*
G01X108075Y23165D01*
G01X108074Y23114D01*
G01X108075Y23062D01*
G01X108078Y23010D01*
G01X108084Y22959D01*
G01X108091Y22907D01*
G01X108100Y22856D01*
G01X108112Y22806D01*
G01X108125Y22756D01*
G01X108141Y22707D01*
G01X108158Y22658D01*
G01X108178Y22610D01*
G01X108199Y22563D01*
G01X108222Y22517D01*
G01X108248Y22472D01*
G01X108275Y22428D01*
G01X108304Y22385D01*
G01X108334Y22343D01*
G01X108366Y22302D01*
G01X108400Y22263D01*
G01X108435Y22226D01*
G01X108472Y22189D01*
G01X108510Y22154D01*
G01X108550Y22121D01*
G01X108591Y22089D01*
G01X108633Y22060D01*
G01X108676Y22031D01*
G01X108721Y22005D01*
G01X108767Y21981D01*
G01X108813Y21958D01*
G01X108860Y21937D01*
G01X108874Y21931D01*
G01X108886Y21922D01*
G01X108897Y21912D01*
G01X108906Y21900D01*
G01X108914Y21887D01*
G01X108919Y21873D01*
G01X108922Y21858D01*
G01X108923Y21844D01*
G01X108922Y21829D01*
G01X108919Y21814D01*
G01X108914Y21800D01*
G01X108906Y21787D01*
G01X108897Y21775D01*
G01X108886Y21765D01*
G01X108874Y21756D01*
G01X108860Y21750D01*
G01X108813Y21729D01*
G01X108767Y21706D01*
G01X108721Y21682D01*
G01X108676Y21656D01*
G01X108633Y21627D01*
G01X108591Y21598D01*
G01X108550Y21566D01*
G01X108510Y21533D01*
G01X108472Y21498D01*
G01X108435Y21461D01*
G01X108400Y21424D01*
G01X108366Y21385D01*
G01X108334Y21344D01*
G01X108304Y21302D01*
G01X108275Y21259D01*
G01X108248Y21215D01*
G01X108222Y21170D01*
G01X108199Y21124D01*
G01X108178Y21077D01*
G01X108158Y21029D01*
G01X108141Y20980D01*
G01X108125Y20931D01*
G01X108112Y20881D01*
G01X108100Y20831D01*
G01X108091Y20780D01*
G01X108084Y20728D01*
G01X108078Y20677D01*
G01X108075Y20625D01*
G01X108074Y20574D01*
G01X108075Y20522D01*
G01X108078Y20470D01*
G01X108084Y20419D01*
G01X108091Y20367D01*
G01X108100Y20316D01*
G01X108112Y20266D01*
G01X108125Y20216D01*
G01X108141Y20167D01*
G01X108158Y20118D01*
G01X108178Y20070D01*
G01X108199Y20023D01*
G01X108222Y19977D01*
G01X108248Y19932D01*
G01X108275Y19888D01*
G01X108304Y19845D01*
G01X108334Y19803D01*
G01X108366Y19762D01*
G01X108400Y19723D01*
G01X108435Y19686D01*
G01X108472Y19649D01*
G01X108510Y19614D01*
G01X108550Y19581D01*
G01X108591Y19549D01*
G01X108633Y19520D01*
G01X108676Y19491D01*
G01X108721Y19465D01*
G01X108767Y19441D01*
G01X108813Y19418D01*
G01X108860Y19397D01*
G01X108874Y19391D01*
G01X108886Y19382D01*
G01X108897Y19372D01*
G01X108906Y19360D01*
G01X108914Y19347D01*
G01X108919Y19333D01*
G01X108922Y19318D01*
G01X108923Y19304D01*
G01X108922Y19289D01*
G01X108919Y19274D01*
G01X108914Y19260D01*
G01X108906Y19247D01*
G01X108897Y19235D01*
G01X108886Y19225D01*
G01X108874Y19216D01*
G01X108860Y19210D01*
G01X108813Y19189D01*
G01X108767Y19166D01*
G01X108721Y19142D01*
G01X108676Y19116D01*
G01X108633Y19087D01*
G01X108591Y19058D01*
G01X108550Y19026D01*
G01X108510Y18993D01*
G01X108472Y18958D01*
G01X108435Y18921D01*
G01X108400Y18884D01*
G01X108366Y18845D01*
G01X108334Y18804D01*
G01X108304Y18762D01*
G01X108275Y18719D01*
G01X108248Y18675D01*
G01X108222Y18630D01*
G01X108199Y18584D01*
G01X108178Y18537D01*
G01X108158Y18489D01*
G01X108141Y18440D01*
G01X108125Y18391D01*
G01X108112Y18341D01*
G01X108100Y18291D01*
G01X108091Y18240D01*
G01X108084Y18188D01*
G01X108078Y18137D01*
G01X108075Y18085D01*
G01X108074Y18034D01*
G01X108075Y17982D01*
G01X108078Y17931D01*
G01X108083Y17880D01*
G01X108090Y17829D01*
G01X108100Y17779D01*
G01X108111Y17729D01*
G01X108124Y17679D01*
G01X108139Y17631D01*
G01X108157Y17582D01*
G01X108176Y17535D01*
G01X108197Y17488D01*
G01X108220Y17442D01*
G01X108245Y17397D01*
G01X108271Y17353D01*
G01X108299Y17311D01*
G01X108329Y17269D01*
G01X108361Y17229D01*
G01X108394Y17190D01*
G01X108429Y17152D01*
G01X108465Y17116D01*
G01X108503Y17081D01*
G01X108542Y17048D01*
G01X108582Y17016D01*
G01X108624Y16986D01*
G01X108666Y16958D01*
G01X108710Y16932D01*
G01X108755Y16907D01*
G01X108801Y16884D01*
G01X108848Y16863D01*
G01X108895Y16844D01*
G01X108944Y16826D01*
G01X108992Y16811D01*
G01X109042Y16798D01*
G01X109092Y16787D01*
G01X109142Y16777D01*
G01X109193Y16770D01*
G01X109244Y16765D01*
G01X109295Y16762D01*
G01X109347Y16761D01*
G01X109398Y16762D01*
G01X109449Y16765D01*
G01X109500Y16770D01*
G01X109551Y16777D01*
G01X109601Y16787D01*
G01X109651Y16798D01*
G01X109701Y16811D01*
G01X109749Y16826D01*
G01X109798Y16844D01*
G01X109845Y16863D01*
G01X109892Y16884D01*
G01X109938Y16907D01*
G01X109983Y16932D01*
G01X110027Y16958D01*
G01X110069Y16986D01*
G01X110111Y17016D01*
G01X110151Y17048D01*
G01X110190Y17081D01*
G01X110228Y17116D01*
G01X110264Y17152D01*
G01X110299Y17190D01*
G01X110332Y17229D01*
G01X110364Y17269D01*
G01X110394Y17311D01*
G01X110422Y17353D01*
G01X110448Y17397D01*
G01X110473Y17442D01*
G01X110496Y17488D01*
G01X110517Y17535D01*
G01X110536Y17582D01*
G01X110554Y17631D01*
G01X110569Y17679D01*
G01X110582Y17729D01*
G01X110593Y17779D01*
G01X110603Y17829D01*
G01X110610Y17880D01*
G01X110615Y17931D01*
G01X110618Y17982D01*
G01X110619Y18034D01*
G01X110618Y18085D01*
G01X110615Y18137D01*
G01X110609Y18188D01*
G01X110602Y18240D01*
G01X110593Y18291D01*
G01X110581Y18341D01*
G01X110568Y18391D01*
G01X110552Y18440D01*
G01X110535Y18489D01*
G01X110515Y18537D01*
G01X110494Y18584D01*
G01X110471Y18630D01*
G01X110445Y18675D01*
G01X110418Y18719D01*
G01X110389Y18762D01*
G01X110359Y18804D01*
G01X110327Y18845D01*
G01X110293Y18884D01*
G01X110258Y18921D01*
G01X110221Y18958D01*
G01X110183Y18993D01*
G01X110143Y19026D01*
G01X110102Y19058D01*
G01X110060Y19087D01*
G01X110017Y19116D01*
G01X109972Y19142D01*
G01X109926Y19166D01*
G01X109880Y19189D01*
G01X109833Y19210D01*
G01X109819Y19216D01*
G01X109807Y19225D01*
G01X109796Y19235D01*
G01X109787Y19247D01*
G01X109779Y19260D01*
G01X109774Y19274D01*
G01X109771Y19289D01*
G01X109770Y19304D01*
G01X109771Y19318D01*
G01X109774Y19333D01*
G01X109779Y19347D01*
G01X109787Y19360D01*
G01X109796Y19372D01*
G01X109807Y19382D01*
G01X109819Y19391D01*
G01X109833Y19397D01*
G01X109880Y19418D01*
G01X109926Y19441D01*
G01X109972Y19465D01*
G01X110017Y19491D01*
G01X110060Y19520D01*
G01X110102Y19549D01*
G01X110143Y19581D01*
G01X110183Y19614D01*
G01X110221Y19649D01*
G01X110258Y19686D01*
G01X110293Y19723D01*
G01X110327Y19762D01*
G01X110359Y19803D01*
G01X110389Y19845D01*
G01X110418Y19888D01*
G01X110445Y19932D01*
G01X110471Y19977D01*
G01X110494Y20023D01*
G01X110515Y20070D01*
G01X110535Y20118D01*
G01X110552Y20167D01*
G01X110568Y20216D01*
G01X110581Y20266D01*
G01X110593Y20316D01*
G01X110602Y20367D01*
G01X110609Y20419D01*
G01X110615Y20470D01*
G01X110618Y20522D01*
G01X110619Y20574D01*
G01X110618Y20625D01*
G01X110615Y20677D01*
G01X110609Y20728D01*
G01X110602Y20780D01*
G01X110593Y20831D01*
G01X110581Y20881D01*
G01X110568Y20931D01*
G01X110552Y20980D01*
G01X110535Y21029D01*
G01X110515Y21077D01*
G01X110494Y21124D01*
G01X110471Y21170D01*
G01X110445Y21215D01*
G01X110418Y21259D01*
G01X110389Y21302D01*
G01X110359Y21344D01*
G01X110327Y21385D01*
G01X110293Y21424D01*
G01X110258Y21461D01*
G01X110221Y21498D01*
G01X110183Y21533D01*
G01X110143Y21566D01*
G01X110102Y21598D01*
G01X110060Y21627D01*
G01X110017Y21656D01*
G01X109972Y21682D01*
G01X109926Y21706D01*
G01X109880Y21729D01*
G01X109833Y21750D01*
G01X109819Y21756D01*
G01X109807Y21765D01*
G01X109796Y21775D01*
G01X109787Y21787D01*
G01X109779Y21800D01*
G01X109774Y21814D01*
G01X109771Y21829D01*
G01X109770Y21844D01*
G01X109771Y21858D01*
G01X109774Y21873D01*
G01X109779Y21887D01*
G01X109787Y21900D01*
G01X109796Y21912D01*
G01X109807Y21922D01*
G01X109819Y21931D01*
G01X109833Y21937D01*
G01X109880Y21958D01*
G01X109926Y21981D01*
G01X109972Y22005D01*
G01X110017Y22031D01*
G01X110060Y22060D01*
G01X110102Y22089D01*
G01X110143Y22121D01*
G01X110183Y22154D01*
G01X110221Y22189D01*
G01X110258Y22226D01*
G01X110293Y22263D01*
G01X110327Y22302D01*
G01X110359Y22343D01*
G01X110389Y22385D01*
G01X110418Y22428D01*
G01X110445Y22472D01*
G01X110471Y22517D01*
G01X110494Y22563D01*
G01X110515Y22610D01*
G01X110535Y22658D01*
G01X110552Y22707D01*
G01X110568Y22756D01*
G01X110581Y22806D01*
G01X110593Y22856D01*
G01X110602Y22907D01*
G01X110609Y22959D01*
G01X110615Y23010D01*
G01X110618Y23062D01*
G01X110619Y23114D01*
G01X110618Y23165D01*
G01X110615Y23217D01*
G01X110609Y23268D01*
G01X110602Y23320D01*
G01X110593Y23371D01*
G01X110581Y23421D01*
G01X110568Y23471D01*
G01X110552Y23520D01*
G01X110535Y23569D01*
G01X110515Y23617D01*
G01X110494Y23664D01*
G01X110471Y23710D01*
G01X110445Y23755D01*
G01X110418Y23799D01*
G01X110389Y23842D01*
G01X110359Y23884D01*
G01X110327Y23925D01*
G01X110293Y23964D01*
G01X110258Y24001D01*
G01X110221Y24038D01*
G01X110183Y24073D01*
G01X110143Y24106D01*
G01X110102Y24138D01*
G01X110060Y24167D01*
G01X110017Y24196D01*
G01X109972Y24222D01*
G01X109926Y24246D01*
G01X109880Y24269D01*
G01X109833Y24290D01*
G01X109819Y24296D01*
G01X109807Y24305D01*
G01X109796Y24315D01*
G01X109787Y24327D01*
G01X109779Y24340D01*
G01X109774Y24354D01*
G01X109771Y24369D01*
G01X109770Y24384D01*
G01X109771Y24398D01*
G01X109774Y24413D01*
G01X109779Y24427D01*
G01X109787Y24440D01*
G01X109796Y24452D01*
G01X109807Y24462D01*
G01X109819Y24471D01*
G01X109833Y24477D01*
G01X109880Y24498D01*
G01X109926Y24521D01*
G01X109972Y24545D01*
G01X110017Y24571D01*
G01X110060Y24600D01*
G01X110102Y24629D01*
G01X110143Y24661D01*
G01X110183Y24694D01*
G01X110221Y24729D01*
G01X110258Y24766D01*
G01X110293Y24803D01*
G01X110327Y24842D01*
G01X110359Y24883D01*
G01X110389Y24925D01*
G01X110418Y24968D01*
G01X110445Y25012D01*
G01X110471Y25057D01*
G01X110494Y25103D01*
G01X110515Y25150D01*
G01X110535Y25198D01*
G01X110552Y25247D01*
G01X110568Y25296D01*
G01X110581Y25346D01*
G01X110593Y25396D01*
G01X110602Y25447D01*
G01X110609Y25499D01*
G01X110615Y25550D01*
G01X110618Y25602D01*
G01X110619Y25654D01*
G01X110618Y25705D01*
G01X110615Y25756D01*
G01X110610Y25807D01*
G01X110603Y25858D01*
G01X110593Y25908D01*
G01X110582Y25958D01*
G01X110569Y26008D01*
G01X110554Y26056D01*
G01X110536Y26105D01*
G01X110517Y26152D01*
G01X110496Y26199D01*
G01X110473Y26245D01*
G01X110448Y26290D01*
G01X110422Y26334D01*
G01X110394Y26376D01*
G01X110364Y26418D01*
G01X110332Y26458D01*
G01X110299Y26497D01*
G01X110264Y26535D01*
G01X110228Y26571D01*
G01X110190Y26606D01*
G01X110151Y26639D01*
G01X110111Y26671D01*
G01X110069Y26701D01*
G01X110027Y26729D01*
G01X109983Y26755D01*
G01X109938Y26780D01*
G01X109892Y26803D01*
G01X109845Y26824D01*
G01X109798Y26843D01*
G01X109749Y26861D01*
G01X109701Y26876D01*
G01X109651Y26889D01*
G01X109601Y26900D01*
G01X109551Y26910D01*
G01X109500Y26917D01*
G01X109449Y26922D01*
G01X109398Y26925D01*
G01X109347Y26926D01*
G01X109276Y26924D01*
G01X109206Y26918D01*
G01X109195Y26917D01*
G01X109178Y26919D01*
G01X109163Y26922D01*
G01X109148Y26929D01*
G01X109135Y26937D01*
G01X109122Y26947D01*
G01X102005Y34065D01*
G01X101994Y34077D01*
G01X101986Y34091D01*
G01X101980Y34106D01*
G01X101976Y34121D01*
G01X101975Y34137D01*
G01X101975Y39158D01*
G01X101976Y39175D01*
G01X101981Y39192D01*
G01X101989Y39208D01*
G01X101999Y39223D01*
G01X102028Y39260D01*
G01X102056Y39298D01*
G01X102082Y39338D01*
G01X102106Y39379D01*
G01X102129Y39420D01*
G01X102149Y39463D01*
G01X102167Y39507D01*
G01X102183Y39551D01*
G01X102197Y39597D01*
G01X102210Y39643D01*
G01X102219Y39689D01*
G01X102227Y39736D01*
G01X102232Y39783D01*
G01X102236Y39830D01*
G01X102237Y39878D01*
G01X102236Y39926D01*
G01X102232Y39975D01*
G01X102226Y40023D01*
G01X102219Y40071D01*
G01X102208Y40118D01*
G01X102196Y40165D01*
G01X102181Y40211D01*
G01X102164Y40256D01*
G01X102145Y40301D01*
G01X102124Y40344D01*
G01X102100Y40387D01*
G01X102075Y40429D01*
G01X102068Y40441D01*
G01X102063Y40455D01*
G01X102060Y40469D01*
G01X102059Y40484D01*
G01X102060Y40498D01*
G01X102063Y40512D01*
G01X102068Y40526D01*
G01X102075Y40538D01*
G01X102084Y40550D01*
G01X102094Y40560D01*
G01X102105Y40569D01*
G01X102118Y40576D01*
G01X102132Y40581D01*
G01X102146Y40584D01*
G01X102160Y40585D01*
G01X102816Y40585D01*
G01X102831Y40584D01*
G01X102845Y40581D01*
G01X102858Y40576D01*
G01X102872Y40569D01*
G01X102883Y40560D01*
G01X102893Y40550D01*
G01X102902Y40538D01*
G01X102909Y40526D01*
G01X102914Y40512D01*
G01X102917Y40498D01*
G01X102918Y40484D01*
G01X102917Y40469D01*
G01X102914Y40455D01*
G01X102909Y40441D01*
G01X102902Y40429D01*
G01X102877Y40387D01*
G01X102853Y40344D01*
G01X102832Y40301D01*
G01X102813Y40256D01*
G01X102796Y40211D01*
G01X102781Y40165D01*
G01X102768Y40118D01*
G01X102758Y40071D01*
G01X102750Y40023D01*
G01X102745Y39975D01*
G01X102741Y39926D01*
G01X102740Y39878D01*
G01X102741Y39832D01*
G01X102744Y39786D01*
G01X102749Y39741D01*
G01X102756Y39696D01*
G01X102765Y39651D01*
G01X102777Y39607D01*
G01X102790Y39563D01*
G01X102805Y39520D01*
G01X102822Y39477D01*
G01X102841Y39436D01*
G01X102861Y39395D01*
G01X102884Y39355D01*
G01X102909Y39317D01*
G01X102935Y39279D01*
G01X102962Y39243D01*
G01X102991Y39207D01*
G01X103022Y39173D01*
G01X103054Y39141D01*
G01X103088Y39110D01*
G01X103124Y39081D01*
G01X103160Y39054D01*
G01X103197Y39028D01*
G01X103236Y39003D01*
G01X103276Y38980D01*
G01X103317Y38960D01*
G01X103358Y38941D01*
G01X103400Y38924D01*
G01X103444Y38909D01*
G01X103487Y38896D01*
G01X103532Y38884D01*
G01X103577Y38875D01*
G01X103622Y38868D01*
G01X103667Y38863D01*
G01X103713Y38860D01*
G01X103759Y38859D01*
G01X103804Y38860D01*
G01X103850Y38863D01*
G01X103895Y38868D01*
G01X103940Y38875D01*
G01X103985Y38884D01*
G01X104029Y38896D01*
G01X104073Y38909D01*
G01X104116Y38924D01*
G01X104159Y38941D01*
G01X104200Y38960D01*
G01X104241Y38980D01*
G01X104281Y39003D01*
G01X104319Y39028D01*
G01X104357Y39054D01*
G01X104394Y39081D01*
G01X104429Y39110D01*
G01X104462Y39141D01*
G01X104495Y39173D01*
G01X104526Y39207D01*
G01X104555Y39243D01*
G01X104582Y39279D01*
G01X104608Y39317D01*
G01X104633Y39355D01*
G01X104655Y39395D01*
G01X104676Y39436D01*
G01X104695Y39477D01*
G01X104712Y39520D01*
G01X104727Y39563D01*
G01X104740Y39607D01*
G01X104752Y39651D01*
G01X104761Y39696D01*
G01X104768Y39741D01*
G01X104773Y39786D01*
G01X104776Y39832D01*
G01X104777Y39878D01*
G01X104776Y39926D01*
G01X104772Y39975D01*
G01X104766Y40023D01*
G01X104759Y40071D01*
G01X104748Y40118D01*
G01X104736Y40165D01*
G01X104721Y40211D01*
G01X104704Y40256D01*
G01X104685Y40301D01*
G01X104664Y40344D01*
G01X104640Y40387D01*
G01X104615Y40429D01*
G01X104608Y40441D01*
G01X104603Y40455D01*
G01X104600Y40469D01*
G01X104599Y40484D01*
G01X104600Y40498D01*
G01X104603Y40512D01*
G01X104608Y40526D01*
G01X104615Y40538D01*
G01X104624Y40550D01*
G01X104634Y40560D01*
G01X104645Y40569D01*
G01X104658Y40576D01*
G01X104672Y40581D01*
G01X104686Y40584D01*
G01X104700Y40585D01*
G01X105356Y40585D01*
G01X105371Y40584D01*
G01X105385Y40581D01*
G01X105398Y40576D01*
G01X105412Y40569D01*
G01X105423Y40560D01*
G01X105433Y40550D01*
G01X105442Y40538D01*
G01X105449Y40526D01*
G01X105454Y40512D01*
G01X105457Y40498D01*
G01X105458Y40484D01*
G01X105457Y40469D01*
G01X105454Y40455D01*
G01X105449Y40441D01*
G01X105442Y40429D01*
G01X105417Y40387D01*
G01X105393Y40344D01*
G01X105372Y40301D01*
G01X105353Y40256D01*
G01X105336Y40211D01*
G01X105321Y40165D01*
G01X105308Y40118D01*
G01X105298Y40071D01*
G01X105290Y40023D01*
G01X105285Y39975D01*
G01X105281Y39926D01*
G01X105280Y39878D01*
G01X105281Y39832D01*
G01X105284Y39786D01*
G01X105289Y39741D01*
G01X105296Y39696D01*
G01X105305Y39651D01*
G01X105317Y39607D01*
G01X105330Y39563D01*
G01X105345Y39520D01*
G01X105362Y39477D01*
G01X105381Y39436D01*
G01X105401Y39395D01*
G01X105424Y39355D01*
G01X105449Y39317D01*
G01X105475Y39279D01*
G01X105502Y39243D01*
G01X105531Y39207D01*
G01X105562Y39173D01*
G01X105594Y39141D01*
G01X105628Y39110D01*
G01X105664Y39081D01*
G01X105700Y39054D01*
G01X105737Y39028D01*
G01X105776Y39003D01*
G01X105816Y38980D01*
G01X105857Y38960D01*
G01X105898Y38941D01*
G01X105940Y38924D01*
G01X105984Y38909D01*
G01X106027Y38896D01*
G01X106072Y38884D01*
G01X106117Y38875D01*
G01X106162Y38868D01*
G01X106207Y38863D01*
G01X106253Y38860D01*
G01X106299Y38859D01*
G01X106344Y38860D01*
G01X106390Y38863D01*
G01X106435Y38868D01*
G01X106480Y38875D01*
G01X106525Y38884D01*
G01X106569Y38896D01*
G01X106613Y38909D01*
G01X106656Y38924D01*
G01X106699Y38941D01*
G01X106740Y38960D01*
G01X106781Y38980D01*
G01X106821Y39003D01*
G01X106859Y39028D01*
G01X106897Y39054D01*
G01X106934Y39081D01*
G01X106969Y39110D01*
G01X107002Y39141D01*
G01X107035Y39173D01*
G01X107066Y39207D01*
G01X107095Y39243D01*
G01X107122Y39279D01*
G01X107148Y39317D01*
G01X107173Y39355D01*
G01X107195Y39395D01*
G01X107216Y39436D01*
G01X107235Y39477D01*
G01X107252Y39520D01*
G01X107267Y39563D01*
G01X107280Y39607D01*
G01X107292Y39651D01*
G01X107301Y39696D01*
G01X107308Y39741D01*
G01X107313Y39786D01*
G01X107316Y39832D01*
G01X107317Y39878D01*
G01X107316Y39926D01*
G01X107312Y39975D01*
G01X107306Y40023D01*
G01X107299Y40071D01*
G01X107288Y40118D01*
G01X107276Y40165D01*
G01X107261Y40211D01*
G01X107244Y40256D01*
G01X107225Y40301D01*
G01X107204Y40344D01*
G01X107180Y40387D01*
G01X107155Y40429D01*
G01X107148Y40441D01*
G01X107143Y40455D01*
G01X107140Y40469D01*
G01X107139Y40484D01*
G01X107140Y40498D01*
G01X107143Y40512D01*
G01X107148Y40526D01*
G01X107155Y40538D01*
G01X107164Y40550D01*
G01X107174Y40560D01*
G01X107185Y40569D01*
G01X107198Y40576D01*
G01X107212Y40581D01*
G01X107226Y40584D01*
G01X107240Y40585D01*
G01X107896Y40585D01*
G01X107911Y40584D01*
G01X107925Y40581D01*
G01X107938Y40576D01*
G01X107952Y40569D01*
G01X107963Y40560D01*
G01X107973Y40550D01*
G01X107982Y40538D01*
G01X107989Y40526D01*
G01X107994Y40512D01*
G01X107997Y40498D01*
G01X107998Y40484D01*
G01X107997Y40469D01*
G01X107994Y40455D01*
G01X107989Y40441D01*
G01X107982Y40429D01*
G01X107957Y40387D01*
G01X107933Y40344D01*
G01X107912Y40301D01*
G01X107893Y40256D01*
G01X107876Y40211D01*
G01X107861Y40165D01*
G01X107848Y40118D01*
G01X107838Y40071D01*
G01X107830Y40023D01*
G01X107825Y39975D01*
G01X107821Y39926D01*
G01X107820Y39878D01*
G01X107821Y39832D01*
G01X107824Y39786D01*
G01X107829Y39741D01*
G01X107836Y39696D01*
G01X107845Y39651D01*
G01X107857Y39607D01*
G01X107870Y39563D01*
G01X107885Y39520D01*
G01X107902Y39477D01*
G01X107921Y39436D01*
G01X107941Y39395D01*
G01X107964Y39355D01*
G01X107989Y39317D01*
G01X108015Y39279D01*
G01X108042Y39243D01*
G01X108071Y39207D01*
G01X108102Y39173D01*
G01X108134Y39141D01*
G01X108168Y39110D01*
G01X108204Y39081D01*
G01X108240Y39054D01*
G01X108277Y39028D01*
G01X108316Y39003D01*
G01X108356Y38980D01*
G01X108397Y38960D01*
G01X108438Y38941D01*
G01X108480Y38924D01*
G01X108524Y38909D01*
G01X108567Y38896D01*
G01X108612Y38884D01*
G01X108657Y38875D01*
G01X108702Y38868D01*
G01X108747Y38863D01*
G01X108793Y38860D01*
G01X108839Y38859D01*
G01X108884Y38860D01*
G01X108930Y38863D01*
G01X108975Y38868D01*
G01X109020Y38875D01*
G01X109065Y38884D01*
G01X109109Y38896D01*
G01X109153Y38909D01*
G01X109196Y38924D01*
G01X109239Y38941D01*
G01X109280Y38960D01*
G01X109321Y38980D01*
G01X109361Y39003D01*
G01X109399Y39028D01*
G01X109437Y39054D01*
G01X109474Y39081D01*
G01X109509Y39110D01*
G01X109542Y39141D01*
G01X109575Y39173D01*
G01X109606Y39207D01*
G01X109635Y39243D01*
G01X109662Y39279D01*
G01X109688Y39317D01*
G01X109713Y39355D01*
G01X109735Y39395D01*
G01X109756Y39436D01*
G01X109775Y39477D01*
G01X109792Y39520D01*
G01X109807Y39563D01*
G01X109820Y39607D01*
G01X109832Y39651D01*
G01X109841Y39696D01*
G01X109848Y39741D01*
G01X109853Y39786D01*
G01X109856Y39832D01*
G01X109857Y39878D01*
G01X109856Y39926D01*
G01X109852Y39975D01*
G01X109846Y40023D01*
G01X109839Y40071D01*
G01X109828Y40118D01*
G01X109816Y40165D01*
G01X109801Y40211D01*
G01X109784Y40256D01*
G01X109765Y40301D01*
G01X109744Y40344D01*
G01X109720Y40387D01*
G01X109695Y40429D01*
G01X109688Y40441D01*
G01X109683Y40455D01*
G01X109680Y40469D01*
G01X109679Y40484D01*
G01X109680Y40498D01*
G01X109683Y40512D01*
G01X109688Y40526D01*
G01X109695Y40538D01*
G01X109704Y40550D01*
G01X109714Y40560D01*
G01X109725Y40569D01*
G01X109738Y40576D01*
G01X109752Y40581D01*
G01X109766Y40584D01*
G01X109780Y40585D01*
G01X110436Y40585D01*
G01X110451Y40584D01*
G01X110465Y40581D01*
G01X110478Y40576D01*
G01X110492Y40569D01*
G01X110503Y40560D01*
G01X110513Y40550D01*
G01X110522Y40538D01*
G01X110529Y40526D01*
G01X110534Y40512D01*
G01X110537Y40498D01*
G01X110538Y40484D01*
G01X110537Y40469D01*
G01X110534Y40455D01*
G01X110529Y40441D01*
G01X110522Y40429D01*
G01X110497Y40387D01*
G01X110473Y40344D01*
G01X110452Y40301D01*
G01X110433Y40256D01*
G01X110416Y40211D01*
G01X110401Y40165D01*
G01X110388Y40118D01*
G01X110378Y40071D01*
G01X110370Y40023D01*
G01X110365Y39975D01*
G01X110361Y39926D01*
G01X110360Y39878D01*
G01X110361Y39832D01*
G01X110364Y39786D01*
G01X110369Y39741D01*
G01X110376Y39696D01*
G01X110385Y39651D01*
G01X110397Y39607D01*
G01X110410Y39563D01*
G01X110425Y39520D01*
G01X110442Y39477D01*
G01X110461Y39436D01*
G01X110481Y39395D01*
G01X110504Y39355D01*
G01X110529Y39317D01*
G01X110555Y39279D01*
G01X110582Y39243D01*
G01X110611Y39207D01*
G01X110642Y39173D01*
G01X110674Y39141D01*
G01X110708Y39110D01*
G01X110744Y39081D01*
G01X110780Y39054D01*
G01X110817Y39028D01*
G01X110856Y39003D01*
G01X110896Y38980D01*
G01X110937Y38960D01*
G01X110978Y38941D01*
G01X111020Y38924D01*
G01X111064Y38909D01*
G01X111107Y38896D01*
G01X111152Y38884D01*
G01X111197Y38875D01*
G01X111242Y38868D01*
G01X111287Y38863D01*
G01X111333Y38860D01*
G01X111379Y38859D01*
G01X111424Y38860D01*
G01X111470Y38863D01*
G01X111515Y38868D01*
G01X111560Y38875D01*
G01X111605Y38884D01*
G01X111649Y38896D01*
G01X111693Y38909D01*
G01X111736Y38924D01*
G01X111779Y38941D01*
G01X111820Y38960D01*
G01X111861Y38980D01*
G01X111901Y39003D01*
G01X111939Y39028D01*
G01X111977Y39054D01*
G01X112014Y39081D01*
G01X112049Y39110D01*
G01X112082Y39141D01*
G01X112115Y39173D01*
G01X112146Y39207D01*
G01X112175Y39243D01*
G01X112202Y39279D01*
G01X112228Y39317D01*
G01X112253Y39355D01*
G01X112275Y39395D01*
G01X112296Y39436D01*
G01X112315Y39477D01*
G01X112332Y39520D01*
G01X112347Y39563D01*
G01X112360Y39607D01*
G01X112372Y39651D01*
G01X112381Y39696D01*
G01X112388Y39741D01*
G01X112393Y39786D01*
G01X112396Y39832D01*
G01X112397Y39878D01*
G01X112396Y39926D01*
G01X112392Y39975D01*
G01X112386Y40023D01*
G01X112379Y40071D01*
G01X112368Y40118D01*
G01X112356Y40165D01*
G01X112341Y40211D01*
G01X112324Y40256D01*
G01X112305Y40301D01*
G01X112284Y40344D01*
G01X112260Y40387D01*
G01X112235Y40429D01*
G01X112228Y40441D01*
G01X112223Y40455D01*
G01X112220Y40469D01*
G01X112219Y40484D01*
G01X112220Y40498D01*
G01X112223Y40512D01*
G01X112228Y40526D01*
G01X112235Y40538D01*
G01X112244Y40550D01*
G01X112254Y40560D01*
G01X112265Y40569D01*
G01X112278Y40576D01*
G01X112292Y40581D01*
G01X112306Y40584D01*
G01X112320Y40585D01*
G01X112976Y40585D01*
G01X112991Y40584D01*
G01X113005Y40581D01*
G01X113018Y40576D01*
G01X113032Y40569D01*
G01X113043Y40560D01*
G01X113053Y40550D01*
G01X113062Y40538D01*
G01X113069Y40526D01*
G01X113074Y40512D01*
G01X113077Y40498D01*
G01X113078Y40484D01*
G01X113077Y40469D01*
G01X113074Y40455D01*
G01X113069Y40441D01*
G01X113062Y40429D01*
G01X113037Y40387D01*
G01X113013Y40344D01*
G01X112992Y40301D01*
G01X112973Y40256D01*
G01X112956Y40211D01*
G01X112941Y40165D01*
G01X112928Y40118D01*
G01X112918Y40071D01*
G01X112910Y40023D01*
G01X112905Y39975D01*
G01X112901Y39926D01*
G01X112900Y39878D01*
G01X112901Y39832D01*
G01X112904Y39786D01*
G01X112909Y39741D01*
G01X112916Y39696D01*
G01X112925Y39651D01*
G01X112937Y39607D01*
G01X112950Y39563D01*
G01X112965Y39520D01*
G01X112982Y39477D01*
G01X113001Y39436D01*
G01X113021Y39395D01*
G01X113044Y39355D01*
G01X113069Y39317D01*
G01X113095Y39279D01*
G01X113122Y39243D01*
G01X113151Y39207D01*
G01X113182Y39173D01*
G01X113214Y39141D01*
G01X113248Y39110D01*
G01X113284Y39081D01*
G01X113320Y39054D01*
G01X113357Y39028D01*
G01X113396Y39003D01*
G01X113436Y38980D01*
G01X113477Y38960D01*
G01X113518Y38941D01*
G01X113560Y38924D01*
G01X113604Y38909D01*
G01X113647Y38896D01*
G01X113692Y38884D01*
G01X113737Y38875D01*
G01X113782Y38868D01*
G01X113827Y38863D01*
G01X113873Y38860D01*
G01X113919Y38859D01*
G01X113964Y38860D01*
G01X114010Y38863D01*
G01X114055Y38868D01*
G01X114100Y38875D01*
G01X114145Y38884D01*
G01X114189Y38896D01*
G01X114233Y38909D01*
G01X114276Y38924D01*
G01X114319Y38941D01*
G01X114360Y38960D01*
G01X114401Y38980D01*
G01X114441Y39003D01*
G01X114479Y39028D01*
G01X114517Y39054D01*
G01X114554Y39081D01*
G01X114589Y39110D01*
G01X114622Y39141D01*
G01X114655Y39173D01*
G01X114686Y39207D01*
G01X114715Y39243D01*
G01X114742Y39279D01*
G01X114768Y39317D01*
G01X114793Y39355D01*
G01X114815Y39395D01*
G01X114836Y39436D01*
G01X114855Y39477D01*
G01X114872Y39520D01*
G01X114887Y39563D01*
G01X114900Y39607D01*
G01X114912Y39651D01*
G01X114921Y39696D01*
G01X114928Y39741D01*
G01X114933Y39786D01*
G01X114936Y39832D01*
G01X114937Y39878D01*
G01X114936Y39926D01*
G01X114932Y39975D01*
G01X114926Y40023D01*
G01X114919Y40071D01*
G01X114908Y40118D01*
G01X114896Y40165D01*
G01X114881Y40211D01*
G01X114864Y40256D01*
G01X114845Y40301D01*
G01X114824Y40344D01*
G01X114800Y40387D01*
G01X114775Y40429D01*
G01X114768Y40441D01*
G01X114763Y40455D01*
G01X114760Y40469D01*
G01X114759Y40484D01*
G01X114760Y40498D01*
G01X114763Y40512D01*
G01X114768Y40526D01*
G01X114775Y40538D01*
G01X114784Y40550D01*
G01X114794Y40560D01*
G01X114805Y40569D01*
G01X114818Y40576D01*
G01X114832Y40581D01*
G01X114846Y40584D01*
G01X114860Y40585D01*
G01X115516Y40585D01*
G01X115531Y40584D01*
G01X115545Y40581D01*
G01X115558Y40576D01*
G01X115572Y40569D01*
G01X115583Y40560D01*
G01X115593Y40550D01*
G01X115602Y40538D01*
G01X115609Y40526D01*
G01X115614Y40512D01*
G01X115617Y40498D01*
G01X115618Y40484D01*
G01X115617Y40469D01*
G01X115614Y40455D01*
G01X115609Y40441D01*
G01X115602Y40429D01*
G01X115577Y40387D01*
G01X115553Y40344D01*
G01X115532Y40301D01*
G01X115513Y40256D01*
G01X115496Y40211D01*
G01X115481Y40165D01*
G01X115468Y40118D01*
G01X115458Y40071D01*
G01X115450Y40023D01*
G01X115445Y39975D01*
G01X115441Y39926D01*
G01X115440Y39878D01*
G01X115441Y39832D01*
G01X115444Y39786D01*
G01X115449Y39741D01*
G01X115456Y39696D01*
G01X115465Y39651D01*
G01X115477Y39607D01*
G01X115490Y39563D01*
G01X115505Y39520D01*
G01X115522Y39477D01*
G01X115541Y39436D01*
G01X115561Y39395D01*
G01X115584Y39355D01*
G01X115609Y39317D01*
G01X115635Y39279D01*
G01X115662Y39243D01*
G01X115691Y39207D01*
G01X115722Y39173D01*
G01X115754Y39141D01*
G01X115788Y39110D01*
G01X115824Y39081D01*
G01X115860Y39054D01*
G01X115897Y39028D01*
G01X115936Y39003D01*
G01X115976Y38980D01*
G01X116017Y38960D01*
G01X116058Y38941D01*
G01X116100Y38924D01*
G01X116144Y38909D01*
G01X116187Y38896D01*
G01X116232Y38884D01*
G01X116277Y38875D01*
G01X116322Y38868D01*
G01X116367Y38863D01*
G01X116413Y38860D01*
G01X116459Y38859D01*
G01X116504Y38860D01*
G01X116550Y38863D01*
G01X116595Y38868D01*
G01X116640Y38875D01*
G01X116685Y38884D01*
G01X116729Y38896D01*
G01X116773Y38909D01*
G01X116816Y38924D01*
G01X116859Y38941D01*
G01X116900Y38960D01*
G01X116941Y38980D01*
G01X116981Y39003D01*
G01X117019Y39028D01*
G01X117057Y39054D01*
G01X117094Y39081D01*
G01X117129Y39110D01*
G01X117162Y39141D01*
G01X117195Y39173D01*
G01X117226Y39207D01*
G01X117255Y39243D01*
G01X117282Y39279D01*
G01X117308Y39317D01*
G01X117333Y39355D01*
G01X117355Y39395D01*
G01X117376Y39436D01*
G01X117395Y39477D01*
G01X117412Y39520D01*
G01X117427Y39563D01*
G01X117440Y39607D01*
G01X117452Y39651D01*
G01X117461Y39696D01*
G01X117468Y39741D01*
G01X117473Y39786D01*
G01X117476Y39832D01*
G01X117477Y39878D01*
G01X117476Y39926D01*
G01X117472Y39975D01*
G01X117466Y40023D01*
G01X117459Y40071D01*
G01X117448Y40118D01*
G01X117436Y40165D01*
G01X117421Y40211D01*
G01X117404Y40256D01*
G01X117385Y40301D01*
G01X117364Y40344D01*
G01X117340Y40387D01*
G01X117315Y40429D01*
G01X117308Y40441D01*
G01X117303Y40455D01*
G01X117300Y40469D01*
G01X117299Y40484D01*
G01X117300Y40498D01*
G01X117303Y40512D01*
G01X117308Y40526D01*
G01X117315Y40538D01*
G01X117324Y40550D01*
G01X117334Y40560D01*
G01X117345Y40569D01*
G01X117358Y40576D01*
G01X117372Y40581D01*
G01X117386Y40584D01*
G01X117400Y40585D01*
G01X118056Y40585D01*
G01X118071Y40584D01*
G01X118085Y40581D01*
G01X118098Y40576D01*
G01X118112Y40569D01*
G01X118123Y40560D01*
G01X118133Y40550D01*
G01X118142Y40538D01*
G01X118149Y40526D01*
G01X118154Y40512D01*
G01X118157Y40498D01*
G01X118158Y40484D01*
G01X118157Y40469D01*
G01X118154Y40455D01*
G01X118149Y40441D01*
G01X118142Y40429D01*
G01X118117Y40387D01*
G01X118093Y40344D01*
G01X118072Y40301D01*
G01X118053Y40256D01*
G01X118036Y40211D01*
G01X118021Y40165D01*
G01X118008Y40118D01*
G01X117998Y40071D01*
G01X117990Y40023D01*
G01X117985Y39975D01*
G01X117981Y39926D01*
G01X117980Y39878D01*
G01X117981Y39832D01*
G01X117984Y39786D01*
G01X117989Y39741D01*
G01X117996Y39696D01*
G01X118005Y39651D01*
G01X118017Y39607D01*
G01X118030Y39563D01*
G01X118045Y39520D01*
G01X118062Y39477D01*
G01X118081Y39436D01*
G01X118101Y39395D01*
G01X118124Y39355D01*
G01X118149Y39317D01*
G01X118175Y39279D01*
G01X118202Y39243D01*
G01X118231Y39207D01*
G01X118262Y39173D01*
G01X118294Y39141D01*
G01X118328Y39110D01*
G01X118364Y39081D01*
G01X118400Y39054D01*
G01X118437Y39028D01*
G01X118476Y39003D01*
G01X118516Y38980D01*
G01X118557Y38960D01*
G01X118598Y38941D01*
G01X118640Y38924D01*
G01X118684Y38909D01*
G01X118727Y38896D01*
G01X118772Y38884D01*
G01X118817Y38875D01*
G01X118862Y38868D01*
G01X118907Y38863D01*
G01X118953Y38860D01*
G01X118999Y38859D01*
G01X119044Y38860D01*
G01X119090Y38863D01*
G01X119135Y38868D01*
G01X119180Y38875D01*
G01X119225Y38884D01*
G01X119269Y38896D01*
G01X119313Y38909D01*
G01X119356Y38924D01*
G01X119399Y38941D01*
G01X119440Y38960D01*
G01X119481Y38980D01*
G01X119521Y39003D01*
G01X119559Y39028D01*
G01X119597Y39054D01*
G01X119634Y39081D01*
G01X119669Y39110D01*
G01X119702Y39141D01*
G01X119735Y39173D01*
G01X119766Y39207D01*
G01X119795Y39243D01*
G01X119822Y39279D01*
G01X119848Y39317D01*
G01X119873Y39355D01*
G01X119895Y39395D01*
G01X119916Y39436D01*
G01X119935Y39477D01*
G01X119952Y39520D01*
G01X119967Y39563D01*
G01X119980Y39607D01*
G01X119992Y39651D01*
G01X120001Y39696D01*
G01X120008Y39741D01*
G01X120013Y39786D01*
G01X120016Y39832D01*
G01X120017Y39878D01*
G01X120016Y39926D01*
G01X120012Y39975D01*
G01X120006Y40023D01*
G01X119999Y40071D01*
G01X119988Y40118D01*
G01X119976Y40165D01*
G01X119961Y40211D01*
G01X119944Y40256D01*
G01X119925Y40301D01*
G01X119904Y40344D01*
G01X119880Y40387D01*
G01X119855Y40429D01*
G01X119848Y40441D01*
G01X119843Y40455D01*
G01X119840Y40469D01*
G01X119839Y40484D01*
G01X119840Y40498D01*
G01X119843Y40512D01*
G01X119848Y40526D01*
G01X119855Y40538D01*
G01X119864Y40550D01*
G01X119874Y40560D01*
G01X119885Y40569D01*
G01X119898Y40576D01*
G01X119912Y40581D01*
G01X119926Y40584D01*
G01X119940Y40585D01*
G01X120596Y40585D01*
G01X120611Y40584D01*
G01X120625Y40581D01*
G01X120638Y40576D01*
G01X120652Y40569D01*
G01X120663Y40560D01*
G01X120673Y40550D01*
G01X120682Y40538D01*
G01X120689Y40526D01*
G01X120694Y40512D01*
G01X120697Y40498D01*
G01X120698Y40484D01*
G01X120697Y40469D01*
G01X120694Y40455D01*
G01X120689Y40441D01*
G01X120682Y40429D01*
G01X120657Y40387D01*
G01X120633Y40344D01*
G01X120612Y40301D01*
G01X120593Y40256D01*
G01X120576Y40211D01*
G01X120561Y40165D01*
G01X120548Y40118D01*
G01X120538Y40071D01*
G01X120530Y40023D01*
G01X120525Y39975D01*
G01X120521Y39926D01*
G01X120520Y39878D01*
G01X120521Y39832D01*
G01X120524Y39786D01*
G01X120529Y39741D01*
G01X120536Y39696D01*
G01X120545Y39651D01*
G01X120557Y39607D01*
G01X120570Y39563D01*
G01X120585Y39520D01*
G01X120602Y39477D01*
G01X120621Y39436D01*
G01X120641Y39395D01*
G01X120664Y39355D01*
G01X120689Y39317D01*
G01X120715Y39279D01*
G01X120742Y39243D01*
G01X120771Y39207D01*
G01X120802Y39173D01*
G01X120834Y39141D01*
G01X120868Y39110D01*
G01X120904Y39081D01*
G01X120940Y39054D01*
G01X120977Y39028D01*
G01X121016Y39003D01*
G01X121056Y38980D01*
G01X121097Y38960D01*
G01X121138Y38941D01*
G01X121180Y38924D01*
G01X121224Y38909D01*
G01X121267Y38896D01*
G01X121312Y38884D01*
G01X121357Y38875D01*
G01X121402Y38868D01*
G01X121447Y38863D01*
G01X121493Y38860D01*
G01X121539Y38859D01*
G01X121584Y38860D01*
G01X121630Y38863D01*
G01X121675Y38868D01*
G01X121720Y38875D01*
G01X121765Y38884D01*
G01X121809Y38896D01*
G01X121853Y38909D01*
G01X121896Y38924D01*
G01X121939Y38941D01*
G01X121980Y38960D01*
G01X122021Y38980D01*
G01X122061Y39003D01*
G01X122099Y39028D01*
G01X122137Y39054D01*
G01X122174Y39081D01*
G01X122209Y39110D01*
G01X122242Y39141D01*
G01X122275Y39173D01*
G01X122306Y39207D01*
G01X122335Y39243D01*
G01X122362Y39279D01*
G01X122388Y39317D01*
G01X122413Y39355D01*
G01X122435Y39395D01*
G01X122456Y39436D01*
G01X122475Y39477D01*
G01X122492Y39520D01*
G01X122507Y39563D01*
G01X122520Y39607D01*
G01X122532Y39651D01*
G01X122541Y39696D01*
G01X122548Y39741D01*
G01X122553Y39786D01*
G01X122556Y39832D01*
G01X122557Y39878D01*
G01X122556Y39926D01*
G01X122552Y39975D01*
G01X122546Y40023D01*
G01X122539Y40071D01*
G01X122528Y40118D01*
G01X122516Y40165D01*
G01X122501Y40211D01*
G01X122484Y40256D01*
G01X122465Y40301D01*
G01X122444Y40344D01*
G01X122420Y40387D01*
G01X122395Y40429D01*
G01X122388Y40441D01*
G01X122383Y40455D01*
G01X122380Y40469D01*
G01X122379Y40484D01*
G01X122380Y40498D01*
G01X122383Y40512D01*
G01X122388Y40526D01*
G01X122395Y40538D01*
G01X122404Y40550D01*
G01X122414Y40560D01*
G01X122425Y40569D01*
G01X122438Y40576D01*
G01X122452Y40581D01*
G01X122466Y40584D01*
G01X122480Y40585D01*
G01X123136Y40585D01*
G01X123151Y40584D01*
G01X123165Y40581D01*
G01X123178Y40576D01*
G01X123192Y40569D01*
G01X123203Y40560D01*
G01X123213Y40550D01*
G01X123222Y40538D01*
G01X123229Y40526D01*
G01X123234Y40512D01*
G01X123237Y40498D01*
G01X123238Y40484D01*
G01X123237Y40469D01*
G01X123234Y40455D01*
G01X123229Y40441D01*
G01X123222Y40429D01*
G01X123197Y40387D01*
G01X123173Y40344D01*
G01X123152Y40301D01*
G01X123133Y40256D01*
G01X123116Y40211D01*
G01X123101Y40165D01*
G01X123088Y40118D01*
G01X123078Y40071D01*
G01X123070Y40023D01*
G01X123065Y39975D01*
G01X123061Y39926D01*
G01X123060Y39878D01*
G01X123061Y39832D01*
G01X123064Y39786D01*
G01X123069Y39741D01*
G01X123076Y39696D01*
G01X123085Y39651D01*
G01X123097Y39607D01*
G01X123110Y39563D01*
G01X123125Y39520D01*
G01X123142Y39477D01*
G01X123161Y39436D01*
G01X123181Y39395D01*
G01X123204Y39355D01*
G01X123229Y39317D01*
G01X123255Y39279D01*
G01X123282Y39243D01*
G01X123311Y39207D01*
G01X123342Y39173D01*
G01X123374Y39141D01*
G01X123408Y39110D01*
G01X123444Y39081D01*
G01X123480Y39054D01*
G01X123517Y39028D01*
G01X123556Y39003D01*
G01X123596Y38980D01*
G01X123637Y38960D01*
G01X123678Y38941D01*
G01X123720Y38924D01*
G01X123764Y38909D01*
G01X123807Y38896D01*
G01X123852Y38884D01*
G01X123897Y38875D01*
G01X123942Y38868D01*
G01X123987Y38863D01*
G01X124033Y38860D01*
G01X124079Y38859D01*
G01X124124Y38860D01*
G01X124170Y38863D01*
G01X124215Y38868D01*
G01X124260Y38875D01*
G01X124305Y38884D01*
G01X124349Y38896D01*
G01X124393Y38909D01*
G01X124436Y38924D01*
G01X124479Y38941D01*
G01X124520Y38960D01*
G01X124561Y38980D01*
G01X124601Y39003D01*
G01X124639Y39028D01*
G01X124677Y39054D01*
G01X124714Y39081D01*
G01X124749Y39110D01*
G01X124782Y39141D01*
G01X124815Y39173D01*
G01X124846Y39207D01*
G01X124875Y39243D01*
G01X124902Y39279D01*
G01X124928Y39317D01*
G01X124953Y39355D01*
G01X124975Y39395D01*
G01X124996Y39436D01*
G01X125015Y39477D01*
G01X125032Y39520D01*
G01X125047Y39563D01*
G01X125060Y39607D01*
G01X125072Y39651D01*
G01X125081Y39696D01*
G01X125088Y39741D01*
G01X125093Y39786D01*
G01X125096Y39832D01*
G01X125097Y39878D01*
G01X125096Y39926D01*
G01X125092Y39975D01*
G01X125086Y40023D01*
G01X125079Y40071D01*
G01X125068Y40118D01*
G01X125056Y40165D01*
G01X125041Y40211D01*
G01X125024Y40256D01*
G01X125005Y40301D01*
G01X124984Y40344D01*
G01X124960Y40387D01*
G01X124935Y40429D01*
G01X124928Y40441D01*
G01X124923Y40455D01*
G01X124920Y40469D01*
G01X124919Y40484D01*
G01X124920Y40498D01*
G01X124923Y40512D01*
G01X124928Y40526D01*
G01X124935Y40538D01*
G01X124944Y40550D01*
G01X124954Y40560D01*
G01X124965Y40569D01*
G01X124978Y40576D01*
G01X124992Y40581D01*
G01X125006Y40584D01*
G01X125020Y40585D01*
G01X125676Y40585D01*
G01X125691Y40584D01*
G01X125705Y40581D01*
G01X125718Y40576D01*
G01X125732Y40569D01*
G01X125743Y40560D01*
G01X125753Y40550D01*
G01X125762Y40538D01*
G01X125769Y40526D01*
G01X125774Y40512D01*
G01X125777Y40498D01*
G01X125778Y40484D01*
G01X125777Y40469D01*
G01X125774Y40455D01*
G01X125769Y40441D01*
G01X125762Y40429D01*
G01X125737Y40387D01*
G01X125713Y40344D01*
G01X125692Y40301D01*
G01X125673Y40256D01*
G01X125656Y40211D01*
G01X125641Y40165D01*
G01X125628Y40118D01*
G01X125618Y40071D01*
G01X125610Y40023D01*
G01X125605Y39975D01*
G01X125601Y39926D01*
G01X125600Y39878D01*
G01X125601Y39832D01*
G01X125604Y39786D01*
G01X125609Y39741D01*
G01X125616Y39696D01*
G01X125625Y39651D01*
G01X125637Y39607D01*
G01X125650Y39563D01*
G01X125665Y39520D01*
G01X125682Y39477D01*
G01X125701Y39436D01*
G01X125721Y39395D01*
G01X125744Y39355D01*
G01X125769Y39317D01*
G01X125795Y39279D01*
G01X125822Y39243D01*
G01X125851Y39207D01*
G01X125882Y39173D01*
G01X125914Y39141D01*
G01X125948Y39110D01*
G01X125984Y39081D01*
G01X126020Y39054D01*
G01X126057Y39028D01*
G01X126096Y39003D01*
G01X126136Y38980D01*
G01X126177Y38960D01*
G01X126218Y38941D01*
G01X126260Y38924D01*
G01X126304Y38909D01*
G01X126347Y38896D01*
G01X126392Y38884D01*
G01X126437Y38875D01*
G01X126482Y38868D01*
G01X126527Y38863D01*
G01X126573Y38860D01*
G01X126619Y38859D01*
G01X126664Y38860D01*
G01X126710Y38863D01*
G01X126755Y38868D01*
G01X126800Y38875D01*
G01X126845Y38884D01*
G01X126889Y38896D01*
G01X126933Y38909D01*
G01X126976Y38924D01*
G01X127019Y38941D01*
G01X127060Y38960D01*
G01X127101Y38980D01*
G01X127141Y39003D01*
G01X127179Y39028D01*
G01X127217Y39054D01*
G01X127254Y39081D01*
G01X127289Y39110D01*
G01X127322Y39141D01*
G01X127355Y39173D01*
G01X127386Y39207D01*
G01X127415Y39243D01*
G01X127442Y39279D01*
G01X127468Y39317D01*
G01X127493Y39355D01*
G01X127515Y39395D01*
G01X127536Y39436D01*
G01X127555Y39477D01*
G01X127572Y39520D01*
G01X127587Y39563D01*
G01X127600Y39607D01*
G01X127612Y39651D01*
G01X127621Y39696D01*
G01X127628Y39741D01*
G01X127633Y39786D01*
G01X127636Y39832D01*
G01X127637Y39878D01*
G01X127636Y39926D01*
G01X127632Y39975D01*
G01X127626Y40023D01*
G01X127619Y40071D01*
G01X127608Y40118D01*
G01X127596Y40165D01*
G01X127581Y40211D01*
G01X127564Y40256D01*
G01X127545Y40301D01*
G01X127524Y40344D01*
G01X127500Y40387D01*
G01X127475Y40429D01*
G01X127468Y40441D01*
G01X127463Y40455D01*
G01X127460Y40469D01*
G01X127459Y40484D01*
G01X127460Y40498D01*
G01X127463Y40512D01*
G01X127468Y40526D01*
G01X127475Y40538D01*
G01X127484Y40550D01*
G01X127494Y40560D01*
G01X127505Y40569D01*
G01X127518Y40576D01*
G01X127532Y40581D01*
G01X127546Y40584D01*
G01X127560Y40585D01*
G01X127692Y40585D01*
G01X127708Y40584D01*
G01X127724Y40580D01*
G01X127739Y40574D01*
G01X127752Y40566D01*
G01X127765Y40555D01*
G01X128135Y40184D01*
G01X128146Y40173D01*
G01X128154Y40159D01*
G01X128160Y40144D01*
G01X128164Y40128D01*
G01X128165Y40113D01*
G01X128163Y40091D01*
G01X128153Y40039D01*
G01X128146Y39985D01*
G01X128141Y39931D01*
G01X128140Y39878D01*
G01X128141Y39832D01*
G01X128144Y39786D01*
G01X128149Y39741D01*
G01X128156Y39696D01*
G01X128165Y39651D01*
G01X128177Y39607D01*
G01X128190Y39563D01*
G01X128205Y39520D01*
G01X128222Y39477D01*
G01X128241Y39436D01*
G01X128261Y39395D01*
G01X128284Y39355D01*
G01X128309Y39317D01*
G01X128335Y39279D01*
G01X128362Y39243D01*
G01X128391Y39207D01*
G01X128422Y39173D01*
G01X128454Y39141D01*
G01X128488Y39110D01*
G01X128524Y39081D01*
G01X128560Y39054D01*
G01X128597Y39028D01*
G01X128636Y39003D01*
G01X128676Y38980D01*
G01X128717Y38960D01*
G01X128758Y38941D01*
G01X128800Y38924D01*
G01X128844Y38909D01*
G01X128887Y38896D01*
G01X128932Y38884D01*
G01X128977Y38875D01*
G01X129022Y38868D01*
G01X129067Y38863D01*
G01X129113Y38860D01*
G01X129159Y38859D01*
G01X129204Y38860D01*
G01X129250Y38863D01*
G01X129295Y38868D01*
G01X129340Y38875D01*
G01X129385Y38884D01*
G01X129429Y38896D01*
G01X129473Y38909D01*
G01X129516Y38924D01*
G01X129559Y38941D01*
G01X129600Y38960D01*
G01X129641Y38980D01*
G01X129681Y39003D01*
G01X129719Y39028D01*
G01X129757Y39054D01*
G01X129794Y39081D01*
G01X129829Y39110D01*
G01X129862Y39141D01*
G01X129895Y39173D01*
G01X129926Y39207D01*
G01X129955Y39243D01*
G01X129982Y39279D01*
G01X130008Y39317D01*
G01X130033Y39355D01*
G01X130055Y39395D01*
G01X130076Y39436D01*
G01X130095Y39477D01*
G01X130112Y39520D01*
G01X130127Y39563D01*
G01X130140Y39607D01*
G01X130152Y39651D01*
G01X130161Y39696D01*
G01X130168Y39741D01*
G01X130173Y39786D01*
G01X130176Y39832D01*
G01X130177Y39878D01*
G01X130176Y39923D01*
G01X130173Y39969D01*
G01X130168Y40014D01*
G01X130161Y40059D01*
G01X130152Y40104D01*
G01X130140Y40148D01*
G01X130127Y40192D01*
G01X130112Y40236D01*
G01X130095Y40278D01*
G01X130076Y40319D01*
G01X130055Y40360D01*
G01X130033Y40400D01*
G01X130008Y40439D01*
G01X129982Y40476D01*
G01X129955Y40513D01*
G01X129926Y40548D01*
G01X129895Y40582D01*
G01X129862Y40614D01*
G01X129829Y40645D01*
G01X129794Y40674D01*
G01X129757Y40701D01*
G01X129719Y40727D01*
G01X129681Y40752D01*
G01X129641Y40775D01*
G01X129600Y40795D01*
G01X129559Y40814D01*
G01X129516Y40831D01*
G01X129473Y40846D01*
G01X129429Y40859D01*
G01X129385Y40871D01*
G01X129340Y40880D01*
G01X129295Y40887D01*
G01X129250Y40892D01*
G01X129204Y40895D01*
G01X129159Y40896D01*
G01X129105Y40895D01*
G01X129051Y40890D01*
G01X128997Y40883D01*
G01X128945Y40873D01*
G01X128923Y40871D01*
G01X128908Y40872D01*
G01X128892Y40876D01*
G01X128877Y40882D01*
G01X128864Y40890D01*
G01X128852Y40901D01*
G01X128678Y41074D01*
G01X128667Y41087D01*
G01X128659Y41100D01*
G01X128653Y41115D01*
G01X128649Y41131D01*
G01X128648Y41146D01*
G01X128649Y41161D01*
G01X128652Y41175D01*
G01X128657Y41189D01*
G01X128664Y41201D01*
G01X128673Y41213D01*
G01X128683Y41223D01*
G01X128695Y41232D01*
G01X128707Y41239D01*
G01X128721Y41244D01*
G01X128735Y41247D01*
G01X128750Y41248D01*
G01X129569Y41248D01*
G01X129585Y41247D01*
G01X129601Y41243D01*
G01X129616Y41237D01*
G01X129629Y41229D01*
G01X129642Y41218D01*
G01X130675Y40184D01*
G01X130686Y40173D01*
G01X130694Y40159D01*
G01X130700Y40144D01*
G01X130704Y40128D01*
G01X130705Y40113D01*
G01X130703Y40091D01*
G01X130693Y40039D01*
G01X130686Y39985D01*
G01X130681Y39931D01*
G01X130680Y39878D01*
G01X130681Y39832D01*
G01X130684Y39786D01*
G01X130689Y39741D01*
G01X130696Y39696D01*
G01X130705Y39651D01*
G01X130717Y39607D01*
G01X130730Y39563D01*
G01X130745Y39520D01*
G01X130762Y39477D01*
G01X130781Y39436D01*
G01X130801Y39395D01*
G01X130824Y39355D01*
G01X130849Y39317D01*
G01X130875Y39279D01*
G01X130902Y39243D01*
G01X130931Y39207D01*
G01X130962Y39173D01*
G01X130994Y39141D01*
G01X131028Y39110D01*
G01X131064Y39081D01*
G01X131100Y39054D01*
G01X131137Y39028D01*
G01X131176Y39003D01*
G01X131216Y38980D01*
G01X131257Y38960D01*
G01X131298Y38941D01*
G01X131340Y38924D01*
G01X131384Y38909D01*
G01X131427Y38896D01*
G01X131472Y38884D01*
G01X131517Y38875D01*
G01X131562Y38868D01*
G01X131607Y38863D01*
G01X131653Y38860D01*
G01X131699Y38859D01*
G01X131744Y38860D01*
G01X131790Y38863D01*
G01X131835Y38868D01*
G01X131880Y38875D01*
G01X131925Y38884D01*
G01X131969Y38896D01*
G01X132013Y38909D01*
G01X132056Y38924D01*
G01X132099Y38941D01*
G01X132140Y38960D01*
G01X132181Y38980D01*
G01X132221Y39003D01*
G01X132259Y39028D01*
G01X132297Y39054D01*
G01X132334Y39081D01*
G01X132369Y39110D01*
G01X132402Y39141D01*
G01X132435Y39173D01*
G01X132466Y39207D01*
G01X132495Y39243D01*
G01X132522Y39279D01*
G01X132548Y39317D01*
G01X132573Y39355D01*
G01X132595Y39395D01*
G01X132616Y39436D01*
G01X132635Y39477D01*
G01X132652Y39520D01*
G01X132667Y39563D01*
G01X132680Y39607D01*
G01X132692Y39651D01*
G01X132701Y39696D01*
G01X132708Y39741D01*
G01X132713Y39786D01*
G01X132716Y39832D01*
G01X132717Y39878D01*
G01X132716Y39923D01*
G01X132713Y39969D01*
G01X132708Y40014D01*
G01X132701Y40059D01*
G01X132692Y40104D01*
G01X132680Y40148D01*
G01X132667Y40192D01*
G01X132652Y40236D01*
G01X132635Y40278D01*
G01X132616Y40319D01*
G01X132595Y40360D01*
G01X132573Y40400D01*
G01X132548Y40439D01*
G01X132522Y40476D01*
G01X132495Y40513D01*
G01X132466Y40548D01*
G01X132435Y40582D01*
G01X132402Y40614D01*
G01X132369Y40645D01*
G01X132334Y40674D01*
G01X132297Y40701D01*
G01X132259Y40727D01*
G01X132221Y40752D01*
G01X132181Y40775D01*
G01X132140Y40795D01*
G01X132099Y40814D01*
G01X132056Y40831D01*
G01X132013Y40846D01*
G01X131969Y40859D01*
G01X131925Y40871D01*
G01X131880Y40880D01*
G01X131835Y40887D01*
G01X131790Y40892D01*
G01X131744Y40895D01*
G01X131699Y40896D01*
G01X131645Y40895D01*
G01X131591Y40890D01*
G01X131537Y40883D01*
G01X131485Y40873D01*
G01X131463Y40871D01*
G01X131448Y40872D01*
G01X131432Y40876D01*
G01X131417Y40882D01*
G01X131404Y40890D01*
G01X131392Y40901D01*
G01X130180Y42113D01*
G01X130155Y42136D01*
G01X130130Y42156D01*
G01X130103Y42176D01*
G01X130075Y42193D01*
G01X130045Y42209D01*
G01X130015Y42222D01*
G01X129985Y42234D01*
G01X129953Y42244D01*
G01X129921Y42251D01*
G01X129887Y42257D01*
G01X129854Y42260D01*
G01X129821Y42261D01*
G01X124516Y42261D01*
G01X124502Y42262D01*
G01X124488Y42265D01*
G01X124474Y42270D01*
G01X124462Y42277D01*
G01X124450Y42286D01*
G01X124440Y42296D01*
G01X124431Y42308D01*
G01X124424Y42320D01*
G01X124419Y42334D01*
G01X124416Y42348D01*
G01X124415Y42363D01*
G01X124416Y42380D01*
G01X124422Y42426D01*
G01X124424Y42473D01*
G01X124423Y42507D01*
G01X124420Y42541D01*
G01X124415Y42574D01*
G01X124408Y42608D01*
G01X124399Y42641D01*
G01X124388Y42673D01*
G01X124375Y42704D01*
G01X124360Y42734D01*
G01X124343Y42764D01*
G01X124325Y42792D01*
G01X124305Y42820D01*
G01X124283Y42846D01*
G01X124260Y42871D01*
G01X124235Y42893D01*
G01X124209Y42915D01*
G01X124182Y42936D01*
G01X124153Y42954D01*
G01X124124Y42971D01*
G01X124062Y42999D01*
G01X124030Y43009D01*
G01X123997Y43018D01*
G01X123964Y43026D01*
G01X123930Y43031D01*
G01X123897Y43034D01*
G37*
G36*
G01X87675Y19051D02*
G01X87630Y19052D01*
G01X87584Y19051D01*
G01X87538Y19048D01*
G01X87493Y19043D01*
G01X87448Y19036D01*
G01X87403Y19027D01*
G01X87359Y19015D01*
G01X87315Y19002D01*
G01X87271Y18987D01*
G01X87229Y18970D01*
G01X87188Y18951D01*
G01X87147Y18931D01*
G01X87107Y18908D01*
G01X87068Y18883D01*
G01X87031Y18857D01*
G01X86995Y18830D01*
G01X86959Y18801D01*
G01X86925Y18770D01*
G01X86893Y18738D01*
G01X86862Y18704D01*
G01X86833Y18669D01*
G01X86806Y18632D01*
G01X86780Y18595D01*
G01X86755Y18556D01*
G01X86732Y18516D01*
G01X86712Y18475D01*
G01X86693Y18434D01*
G01X86676Y18392D01*
G01X86661Y18348D01*
G01X86648Y18304D01*
G01X86636Y18260D01*
G01X86627Y18215D01*
G01X86620Y18170D01*
G01X86615Y18125D01*
G01X86612Y18079D01*
G01X86611Y18034D01*
G01X86612Y17988D01*
G01X86615Y17942D01*
G01X86620Y17897D01*
G01X86627Y17852D01*
G01X86636Y17807D01*
G01X86648Y17763D01*
G01X86661Y17719D01*
G01X86676Y17675D01*
G01X86693Y17633D01*
G01X86712Y17592D01*
G01X86732Y17551D01*
G01X86755Y17511D01*
G01X86780Y17472D01*
G01X86806Y17435D01*
G01X86833Y17399D01*
G01X86862Y17363D01*
G01X86893Y17329D01*
G01X86925Y17297D01*
G01X86959Y17266D01*
G01X86995Y17237D01*
G01X87031Y17210D01*
G01X87068Y17184D01*
G01X87107Y17159D01*
G01X87147Y17136D01*
G01X87188Y17116D01*
G01X87229Y17097D01*
G01X87271Y17080D01*
G01X87315Y17065D01*
G01X87359Y17052D01*
G01X87403Y17040D01*
G01X87448Y17031D01*
G01X87493Y17024D01*
G01X87538Y17019D01*
G01X87584Y17016D01*
G01X87630Y17015D01*
G01X87675Y17016D01*
G01X87721Y17019D01*
G01X87766Y17024D01*
G01X87811Y17031D01*
G01X87856Y17040D01*
G01X87900Y17052D01*
G01X87944Y17065D01*
G01X87988Y17080D01*
G01X88030Y17097D01*
G01X88071Y17116D01*
G01X88112Y17136D01*
G01X88152Y17159D01*
G01X88191Y17184D01*
G01X88228Y17210D01*
G01X88265Y17237D01*
G01X88300Y17266D01*
G01X88334Y17297D01*
G01X88366Y17329D01*
G01X88397Y17363D01*
G01X88426Y17399D01*
G01X88453Y17435D01*
G01X88479Y17472D01*
G01X88504Y17511D01*
G01X88527Y17551D01*
G01X88547Y17592D01*
G01X88566Y17633D01*
G01X88583Y17675D01*
G01X88598Y17719D01*
G01X88611Y17763D01*
G01X88623Y17807D01*
G01X88632Y17852D01*
G01X88639Y17897D01*
G01X88644Y17942D01*
G01X88647Y17988D01*
G01X88648Y18034D01*
G01X88647Y18079D01*
G01X88644Y18125D01*
G01X88639Y18170D01*
G01X88632Y18215D01*
G01X88623Y18260D01*
G01X88611Y18304D01*
G01X88598Y18348D01*
G01X88583Y18392D01*
G01X88566Y18434D01*
G01X88547Y18475D01*
G01X88527Y18516D01*
G01X88504Y18556D01*
G01X88479Y18595D01*
G01X88453Y18632D01*
G01X88426Y18669D01*
G01X88397Y18704D01*
G01X88366Y18738D01*
G01X88334Y18770D01*
G01X88300Y18801D01*
G01X88265Y18830D01*
G01X88228Y18857D01*
G01X88191Y18883D01*
G01X88152Y18908D01*
G01X88112Y18931D01*
G01X88071Y18951D01*
G01X88030Y18970D01*
G01X87988Y18987D01*
G01X87944Y19002D01*
G01X87900Y19015D01*
G01X87856Y19027D01*
G01X87811Y19036D01*
G01X87766Y19043D01*
G01X87721Y19048D01*
G01X87675Y19051D01*
G37*
G36*
G01X85135Y19051D02*
G01X85090Y19052D01*
G01X85044Y19051D01*
G01X84998Y19048D01*
G01X84953Y19043D01*
G01X84908Y19036D01*
G01X84863Y19027D01*
G01X84819Y19015D01*
G01X84775Y19002D01*
G01X84731Y18987D01*
G01X84689Y18970D01*
G01X84648Y18951D01*
G01X84607Y18931D01*
G01X84567Y18908D01*
G01X84528Y18883D01*
G01X84491Y18857D01*
G01X84455Y18830D01*
G01X84419Y18801D01*
G01X84385Y18770D01*
G01X84353Y18738D01*
G01X84322Y18704D01*
G01X84293Y18669D01*
G01X84266Y18632D01*
G01X84240Y18595D01*
G01X84215Y18556D01*
G01X84192Y18516D01*
G01X84172Y18475D01*
G01X84153Y18434D01*
G01X84136Y18392D01*
G01X84121Y18348D01*
G01X84108Y18304D01*
G01X84096Y18260D01*
G01X84087Y18215D01*
G01X84080Y18170D01*
G01X84075Y18125D01*
G01X84072Y18079D01*
G01X84071Y18034D01*
G01X84072Y17988D01*
G01X84075Y17942D01*
G01X84080Y17897D01*
G01X84087Y17852D01*
G01X84096Y17807D01*
G01X84108Y17763D01*
G01X84121Y17719D01*
G01X84136Y17675D01*
G01X84153Y17633D01*
G01X84172Y17592D01*
G01X84192Y17551D01*
G01X84215Y17511D01*
G01X84240Y17472D01*
G01X84266Y17435D01*
G01X84293Y17399D01*
G01X84322Y17363D01*
G01X84353Y17329D01*
G01X84385Y17297D01*
G01X84419Y17266D01*
G01X84455Y17237D01*
G01X84491Y17210D01*
G01X84528Y17184D01*
G01X84567Y17159D01*
G01X84607Y17136D01*
G01X84648Y17116D01*
G01X84689Y17097D01*
G01X84731Y17080D01*
G01X84775Y17065D01*
G01X84819Y17052D01*
G01X84863Y17040D01*
G01X84908Y17031D01*
G01X84953Y17024D01*
G01X84998Y17019D01*
G01X85044Y17016D01*
G01X85090Y17015D01*
G01X85135Y17016D01*
G01X85181Y17019D01*
G01X85226Y17024D01*
G01X85271Y17031D01*
G01X85316Y17040D01*
G01X85360Y17052D01*
G01X85404Y17065D01*
G01X85448Y17080D01*
G01X85490Y17097D01*
G01X85531Y17116D01*
G01X85572Y17136D01*
G01X85612Y17159D01*
G01X85651Y17184D01*
G01X85688Y17210D01*
G01X85725Y17237D01*
G01X85760Y17266D01*
G01X85794Y17297D01*
G01X85826Y17329D01*
G01X85857Y17363D01*
G01X85886Y17399D01*
G01X85913Y17435D01*
G01X85939Y17472D01*
G01X85964Y17511D01*
G01X85987Y17551D01*
G01X86007Y17592D01*
G01X86026Y17633D01*
G01X86043Y17675D01*
G01X86058Y17719D01*
G01X86071Y17763D01*
G01X86083Y17807D01*
G01X86092Y17852D01*
G01X86099Y17897D01*
G01X86104Y17942D01*
G01X86107Y17988D01*
G01X86108Y18034D01*
G01X86107Y18079D01*
G01X86104Y18125D01*
G01X86099Y18170D01*
G01X86092Y18215D01*
G01X86083Y18260D01*
G01X86071Y18304D01*
G01X86058Y18348D01*
G01X86043Y18392D01*
G01X86026Y18434D01*
G01X86007Y18475D01*
G01X85987Y18516D01*
G01X85964Y18556D01*
G01X85939Y18595D01*
G01X85913Y18632D01*
G01X85886Y18669D01*
G01X85857Y18704D01*
G01X85826Y18738D01*
G01X85794Y18770D01*
G01X85760Y18801D01*
G01X85725Y18830D01*
G01X85688Y18857D01*
G01X85651Y18883D01*
G01X85612Y18908D01*
G01X85572Y18931D01*
G01X85531Y18951D01*
G01X85490Y18970D01*
G01X85448Y18987D01*
G01X85404Y19002D01*
G01X85360Y19015D01*
G01X85316Y19027D01*
G01X85271Y19036D01*
G01X85226Y19043D01*
G01X85181Y19048D01*
G01X85135Y19051D01*
G37*
G36*
G01X74975Y19051D02*
G01X74930Y19052D01*
G01X74884Y19051D01*
G01X74838Y19048D01*
G01X74793Y19043D01*
G01X74748Y19036D01*
G01X74703Y19027D01*
G01X74659Y19015D01*
G01X74615Y19002D01*
G01X74571Y18987D01*
G01X74529Y18970D01*
G01X74488Y18951D01*
G01X74447Y18931D01*
G01X74407Y18908D01*
G01X74368Y18883D01*
G01X74331Y18857D01*
G01X74295Y18830D01*
G01X74259Y18801D01*
G01X74225Y18770D01*
G01X74193Y18738D01*
G01X74162Y18704D01*
G01X74133Y18669D01*
G01X74106Y18632D01*
G01X74080Y18595D01*
G01X74055Y18556D01*
G01X74032Y18516D01*
G01X74012Y18475D01*
G01X73993Y18434D01*
G01X73976Y18392D01*
G01X73961Y18348D01*
G01X73948Y18304D01*
G01X73936Y18260D01*
G01X73927Y18215D01*
G01X73920Y18170D01*
G01X73915Y18125D01*
G01X73912Y18079D01*
G01X73911Y18034D01*
G01X73912Y17988D01*
G01X73915Y17942D01*
G01X73920Y17897D01*
G01X73927Y17852D01*
G01X73936Y17807D01*
G01X73948Y17763D01*
G01X73961Y17719D01*
G01X73976Y17675D01*
G01X73993Y17633D01*
G01X74012Y17592D01*
G01X74032Y17551D01*
G01X74055Y17511D01*
G01X74080Y17472D01*
G01X74106Y17435D01*
G01X74133Y17399D01*
G01X74162Y17363D01*
G01X74193Y17329D01*
G01X74225Y17297D01*
G01X74259Y17266D01*
G01X74295Y17237D01*
G01X74331Y17210D01*
G01X74368Y17184D01*
G01X74407Y17159D01*
G01X74447Y17136D01*
G01X74488Y17116D01*
G01X74529Y17097D01*
G01X74571Y17080D01*
G01X74615Y17065D01*
G01X74659Y17052D01*
G01X74703Y17040D01*
G01X74748Y17031D01*
G01X74793Y17024D01*
G01X74838Y17019D01*
G01X74884Y17016D01*
G01X74930Y17015D01*
G01X74975Y17016D01*
G01X75021Y17019D01*
G01X75066Y17024D01*
G01X75111Y17031D01*
G01X75156Y17040D01*
G01X75200Y17052D01*
G01X75244Y17065D01*
G01X75288Y17080D01*
G01X75330Y17097D01*
G01X75371Y17116D01*
G01X75412Y17136D01*
G01X75452Y17159D01*
G01X75491Y17184D01*
G01X75528Y17210D01*
G01X75565Y17237D01*
G01X75600Y17266D01*
G01X75634Y17297D01*
G01X75666Y17329D01*
G01X75697Y17363D01*
G01X75726Y17399D01*
G01X75753Y17435D01*
G01X75779Y17472D01*
G01X75804Y17511D01*
G01X75827Y17551D01*
G01X75847Y17592D01*
G01X75866Y17633D01*
G01X75883Y17675D01*
G01X75898Y17719D01*
G01X75911Y17763D01*
G01X75923Y17807D01*
G01X75932Y17852D01*
G01X75939Y17897D01*
G01X75944Y17942D01*
G01X75947Y17988D01*
G01X75948Y18034D01*
G01X75947Y18079D01*
G01X75944Y18125D01*
G01X75939Y18170D01*
G01X75932Y18215D01*
G01X75923Y18260D01*
G01X75911Y18304D01*
G01X75898Y18348D01*
G01X75883Y18392D01*
G01X75866Y18434D01*
G01X75847Y18475D01*
G01X75827Y18516D01*
G01X75804Y18556D01*
G01X75779Y18595D01*
G01X75753Y18632D01*
G01X75726Y18669D01*
G01X75697Y18704D01*
G01X75666Y18738D01*
G01X75634Y18770D01*
G01X75600Y18801D01*
G01X75565Y18830D01*
G01X75528Y18857D01*
G01X75491Y18883D01*
G01X75452Y18908D01*
G01X75412Y18931D01*
G01X75371Y18951D01*
G01X75330Y18970D01*
G01X75288Y18987D01*
G01X75244Y19002D01*
G01X75200Y19015D01*
G01X75156Y19027D01*
G01X75111Y19036D01*
G01X75066Y19043D01*
G01X75021Y19048D01*
G01X74975Y19051D01*
G37*
G36*
G01X77515Y19051D02*
G01X77470Y19052D01*
G01X77424Y19051D01*
G01X77378Y19048D01*
G01X77333Y19043D01*
G01X77288Y19036D01*
G01X77243Y19027D01*
G01X77199Y19015D01*
G01X77155Y19002D01*
G01X77111Y18987D01*
G01X77069Y18970D01*
G01X77028Y18951D01*
G01X76987Y18931D01*
G01X76947Y18908D01*
G01X76908Y18883D01*
G01X76871Y18857D01*
G01X76835Y18830D01*
G01X76799Y18801D01*
G01X76765Y18770D01*
G01X76733Y18738D01*
G01X76702Y18704D01*
G01X76673Y18669D01*
G01X76646Y18632D01*
G01X76620Y18595D01*
G01X76595Y18556D01*
G01X76572Y18516D01*
G01X76552Y18475D01*
G01X76533Y18434D01*
G01X76516Y18392D01*
G01X76501Y18348D01*
G01X76488Y18304D01*
G01X76476Y18260D01*
G01X76467Y18215D01*
G01X76460Y18170D01*
G01X76455Y18125D01*
G01X76452Y18079D01*
G01X76451Y18034D01*
G01X76452Y17988D01*
G01X76455Y17942D01*
G01X76460Y17897D01*
G01X76467Y17852D01*
G01X76476Y17807D01*
G01X76488Y17763D01*
G01X76501Y17719D01*
G01X76516Y17675D01*
G01X76533Y17633D01*
G01X76552Y17592D01*
G01X76572Y17551D01*
G01X76595Y17511D01*
G01X76620Y17472D01*
G01X76646Y17435D01*
G01X76673Y17399D01*
G01X76702Y17363D01*
G01X76733Y17329D01*
G01X76765Y17297D01*
G01X76799Y17266D01*
G01X76835Y17237D01*
G01X76871Y17210D01*
G01X76908Y17184D01*
G01X76947Y17159D01*
G01X76987Y17136D01*
G01X77028Y17116D01*
G01X77069Y17097D01*
G01X77111Y17080D01*
G01X77155Y17065D01*
G01X77199Y17052D01*
G01X77243Y17040D01*
G01X77288Y17031D01*
G01X77333Y17024D01*
G01X77378Y17019D01*
G01X77424Y17016D01*
G01X77470Y17015D01*
G01X77515Y17016D01*
G01X77561Y17019D01*
G01X77606Y17024D01*
G01X77651Y17031D01*
G01X77696Y17040D01*
G01X77740Y17052D01*
G01X77784Y17065D01*
G01X77828Y17080D01*
G01X77870Y17097D01*
G01X77911Y17116D01*
G01X77952Y17136D01*
G01X77992Y17159D01*
G01X78031Y17184D01*
G01X78068Y17210D01*
G01X78105Y17237D01*
G01X78140Y17266D01*
G01X78174Y17297D01*
G01X78206Y17329D01*
G01X78237Y17363D01*
G01X78266Y17399D01*
G01X78293Y17435D01*
G01X78319Y17472D01*
G01X78344Y17511D01*
G01X78367Y17551D01*
G01X78387Y17592D01*
G01X78406Y17633D01*
G01X78423Y17675D01*
G01X78438Y17719D01*
G01X78451Y17763D01*
G01X78463Y17807D01*
G01X78472Y17852D01*
G01X78479Y17897D01*
G01X78484Y17942D01*
G01X78487Y17988D01*
G01X78488Y18034D01*
G01X78487Y18079D01*
G01X78484Y18125D01*
G01X78479Y18170D01*
G01X78472Y18215D01*
G01X78463Y18260D01*
G01X78451Y18304D01*
G01X78438Y18348D01*
G01X78423Y18392D01*
G01X78406Y18434D01*
G01X78387Y18475D01*
G01X78367Y18516D01*
G01X78344Y18556D01*
G01X78319Y18595D01*
G01X78293Y18632D01*
G01X78266Y18669D01*
G01X78237Y18704D01*
G01X78206Y18738D01*
G01X78174Y18770D01*
G01X78140Y18801D01*
G01X78105Y18830D01*
G01X78068Y18857D01*
G01X78031Y18883D01*
G01X77992Y18908D01*
G01X77952Y18931D01*
G01X77911Y18951D01*
G01X77870Y18970D01*
G01X77828Y18987D01*
G01X77784Y19002D01*
G01X77740Y19015D01*
G01X77696Y19027D01*
G01X77651Y19036D01*
G01X77606Y19043D01*
G01X77561Y19048D01*
G01X77515Y19051D01*
G37*
G36*
G01X80055Y19051D02*
G01X80010Y19052D01*
G01X79964Y19051D01*
G01X79918Y19048D01*
G01X79873Y19043D01*
G01X79828Y19036D01*
G01X79783Y19027D01*
G01X79739Y19015D01*
G01X79695Y19002D01*
G01X79651Y18987D01*
G01X79609Y18970D01*
G01X79568Y18951D01*
G01X79527Y18931D01*
G01X79487Y18908D01*
G01X79448Y18883D01*
G01X79411Y18857D01*
G01X79375Y18830D01*
G01X79339Y18801D01*
G01X79305Y18770D01*
G01X79273Y18738D01*
G01X79242Y18704D01*
G01X79213Y18669D01*
G01X79186Y18632D01*
G01X79160Y18595D01*
G01X79135Y18556D01*
G01X79112Y18516D01*
G01X79092Y18475D01*
G01X79073Y18434D01*
G01X79056Y18392D01*
G01X79041Y18348D01*
G01X79028Y18304D01*
G01X79016Y18260D01*
G01X79007Y18215D01*
G01X79000Y18170D01*
G01X78995Y18125D01*
G01X78992Y18079D01*
G01X78991Y18034D01*
G01X78992Y17988D01*
G01X78995Y17942D01*
G01X79000Y17897D01*
G01X79007Y17852D01*
G01X79016Y17807D01*
G01X79028Y17763D01*
G01X79041Y17719D01*
G01X79056Y17675D01*
G01X79073Y17633D01*
G01X79092Y17592D01*
G01X79112Y17551D01*
G01X79135Y17511D01*
G01X79160Y17472D01*
G01X79186Y17435D01*
G01X79213Y17399D01*
G01X79242Y17363D01*
G01X79273Y17329D01*
G01X79305Y17297D01*
G01X79339Y17266D01*
G01X79375Y17237D01*
G01X79411Y17210D01*
G01X79448Y17184D01*
G01X79487Y17159D01*
G01X79527Y17136D01*
G01X79568Y17116D01*
G01X79609Y17097D01*
G01X79651Y17080D01*
G01X79695Y17065D01*
G01X79739Y17052D01*
G01X79783Y17040D01*
G01X79828Y17031D01*
G01X79873Y17024D01*
G01X79918Y17019D01*
G01X79964Y17016D01*
G01X80010Y17015D01*
G01X80055Y17016D01*
G01X80101Y17019D01*
G01X80146Y17024D01*
G01X80191Y17031D01*
G01X80236Y17040D01*
G01X80280Y17052D01*
G01X80324Y17065D01*
G01X80368Y17080D01*
G01X80410Y17097D01*
G01X80451Y17116D01*
G01X80492Y17136D01*
G01X80532Y17159D01*
G01X80571Y17184D01*
G01X80608Y17210D01*
G01X80645Y17237D01*
G01X80680Y17266D01*
G01X80714Y17297D01*
G01X80746Y17329D01*
G01X80777Y17363D01*
G01X80806Y17399D01*
G01X80833Y17435D01*
G01X80859Y17472D01*
G01X80884Y17511D01*
G01X80907Y17551D01*
G01X80927Y17592D01*
G01X80946Y17633D01*
G01X80963Y17675D01*
G01X80978Y17719D01*
G01X80991Y17763D01*
G01X81003Y17807D01*
G01X81012Y17852D01*
G01X81019Y17897D01*
G01X81024Y17942D01*
G01X81027Y17988D01*
G01X81028Y18034D01*
G01X81027Y18079D01*
G01X81024Y18125D01*
G01X81019Y18170D01*
G01X81012Y18215D01*
G01X81003Y18260D01*
G01X80991Y18304D01*
G01X80978Y18348D01*
G01X80963Y18392D01*
G01X80946Y18434D01*
G01X80927Y18475D01*
G01X80907Y18516D01*
G01X80884Y18556D01*
G01X80859Y18595D01*
G01X80833Y18632D01*
G01X80806Y18669D01*
G01X80777Y18704D01*
G01X80746Y18738D01*
G01X80714Y18770D01*
G01X80680Y18801D01*
G01X80645Y18830D01*
G01X80608Y18857D01*
G01X80571Y18883D01*
G01X80532Y18908D01*
G01X80492Y18931D01*
G01X80451Y18951D01*
G01X80410Y18970D01*
G01X80368Y18987D01*
G01X80324Y19002D01*
G01X80280Y19015D01*
G01X80236Y19027D01*
G01X80191Y19036D01*
G01X80146Y19043D01*
G01X80101Y19048D01*
G01X80055Y19051D01*
G37*
G36*
G01X82595Y19051D02*
G01X82550Y19052D01*
G01X82504Y19051D01*
G01X82458Y19048D01*
G01X82413Y19043D01*
G01X82368Y19036D01*
G01X82323Y19027D01*
G01X82279Y19015D01*
G01X82235Y19002D01*
G01X82191Y18987D01*
G01X82149Y18970D01*
G01X82108Y18951D01*
G01X82067Y18931D01*
G01X82027Y18908D01*
G01X81988Y18883D01*
G01X81951Y18857D01*
G01X81915Y18830D01*
G01X81879Y18801D01*
G01X81845Y18770D01*
G01X81813Y18738D01*
G01X81782Y18704D01*
G01X81753Y18669D01*
G01X81726Y18632D01*
G01X81700Y18595D01*
G01X81675Y18556D01*
G01X81652Y18516D01*
G01X81632Y18475D01*
G01X81613Y18434D01*
G01X81596Y18392D01*
G01X81581Y18348D01*
G01X81568Y18304D01*
G01X81556Y18260D01*
G01X81547Y18215D01*
G01X81540Y18170D01*
G01X81535Y18125D01*
G01X81532Y18079D01*
G01X81531Y18034D01*
G01X81532Y17988D01*
G01X81535Y17942D01*
G01X81540Y17897D01*
G01X81547Y17852D01*
G01X81556Y17807D01*
G01X81568Y17763D01*
G01X81581Y17719D01*
G01X81596Y17675D01*
G01X81613Y17633D01*
G01X81632Y17592D01*
G01X81652Y17551D01*
G01X81675Y17511D01*
G01X81700Y17472D01*
G01X81726Y17435D01*
G01X81753Y17399D01*
G01X81782Y17363D01*
G01X81813Y17329D01*
G01X81845Y17297D01*
G01X81879Y17266D01*
G01X81915Y17237D01*
G01X81951Y17210D01*
G01X81988Y17184D01*
G01X82027Y17159D01*
G01X82067Y17136D01*
G01X82108Y17116D01*
G01X82149Y17097D01*
G01X82191Y17080D01*
G01X82235Y17065D01*
G01X82279Y17052D01*
G01X82323Y17040D01*
G01X82368Y17031D01*
G01X82413Y17024D01*
G01X82458Y17019D01*
G01X82504Y17016D01*
G01X82550Y17015D01*
G01X82595Y17016D01*
G01X82641Y17019D01*
G01X82686Y17024D01*
G01X82731Y17031D01*
G01X82776Y17040D01*
G01X82820Y17052D01*
G01X82864Y17065D01*
G01X82908Y17080D01*
G01X82950Y17097D01*
G01X82991Y17116D01*
G01X83032Y17136D01*
G01X83072Y17159D01*
G01X83111Y17184D01*
G01X83148Y17210D01*
G01X83185Y17237D01*
G01X83220Y17266D01*
G01X83254Y17297D01*
G01X83286Y17329D01*
G01X83317Y17363D01*
G01X83346Y17399D01*
G01X83373Y17435D01*
G01X83399Y17472D01*
G01X83424Y17511D01*
G01X83447Y17551D01*
G01X83467Y17592D01*
G01X83486Y17633D01*
G01X83503Y17675D01*
G01X83518Y17719D01*
G01X83531Y17763D01*
G01X83543Y17807D01*
G01X83552Y17852D01*
G01X83559Y17897D01*
G01X83564Y17942D01*
G01X83567Y17988D01*
G01X83568Y18034D01*
G01X83567Y18079D01*
G01X83564Y18125D01*
G01X83559Y18170D01*
G01X83552Y18215D01*
G01X83543Y18260D01*
G01X83531Y18304D01*
G01X83518Y18348D01*
G01X83503Y18392D01*
G01X83486Y18434D01*
G01X83467Y18475D01*
G01X83447Y18516D01*
G01X83424Y18556D01*
G01X83399Y18595D01*
G01X83373Y18632D01*
G01X83346Y18669D01*
G01X83317Y18704D01*
G01X83286Y18738D01*
G01X83254Y18770D01*
G01X83220Y18801D01*
G01X83185Y18830D01*
G01X83148Y18857D01*
G01X83111Y18883D01*
G01X83072Y18908D01*
G01X83032Y18931D01*
G01X82991Y18951D01*
G01X82950Y18970D01*
G01X82908Y18987D01*
G01X82864Y19002D01*
G01X82820Y19015D01*
G01X82776Y19027D01*
G01X82731Y19036D01*
G01X82686Y19043D01*
G01X82641Y19048D01*
G01X82595Y19051D01*
G37*
G36*
G01X5278Y23856D02*
G01X4718Y23856D01*
G01X4744Y23808D01*
G01X4771Y23762D01*
G01X4800Y23716D01*
G01X4831Y23673D01*
G01X4864Y23630D01*
G01X4898Y23589D01*
G01X4934Y23550D01*
G01X4972Y23512D01*
G01X5012Y23476D01*
G01X5053Y23441D01*
G01X5095Y23408D01*
G01X5139Y23377D01*
G01X5184Y23348D01*
G01X5230Y23321D01*
G01X5278Y23296D01*
G01X5278Y23856D01*
G37*
G36*
G01X5278Y24982D02*
G01X5278Y25542D01*
G01X5230Y25517D01*
G01X5184Y25490D01*
G01X5139Y25461D01*
G01X5095Y25430D01*
G01X5053Y25397D01*
G01X5012Y25362D01*
G01X4972Y25326D01*
G01X4934Y25288D01*
G01X4898Y25249D01*
G01X4864Y25208D01*
G01X4831Y25165D01*
G01X4800Y25122D01*
G01X4771Y25076D01*
G01X4744Y25030D01*
G01X4718Y24982D01*
G01X5278Y24982D01*
G37*
G36*
G01X56065Y29431D02*
G01X56014Y29432D01*
G01X55963Y29431D01*
G01X55913Y29428D01*
G01X55863Y29423D01*
G01X55812Y29416D01*
G01X55763Y29407D01*
G01X55713Y29396D01*
G01X55665Y29383D01*
G01X55616Y29367D01*
G01X55569Y29351D01*
G01X55521Y29332D01*
G01X55476Y29311D01*
G01X55430Y29288D01*
G01X55386Y29264D01*
G01X55343Y29238D01*
G01X55300Y29210D01*
G01X55259Y29180D01*
G01X55220Y29149D01*
G01X55181Y29116D01*
G01X55144Y29082D01*
G01X55108Y29046D01*
G01X55074Y29009D01*
G01X55041Y28970D01*
G01X55010Y28931D01*
G01X54980Y28889D01*
G01X54952Y28847D01*
G01X54926Y28804D01*
G01X54902Y28759D01*
G01X54879Y28714D01*
G01X54858Y28668D01*
G01X54839Y28621D01*
G01X54822Y28573D01*
G01X54807Y28525D01*
G01X54794Y28476D01*
G01X54783Y28427D01*
G01X54774Y28377D01*
G01X54767Y28327D01*
G01X54762Y28277D01*
G01X54759Y28227D01*
G01X54758Y28176D01*
G01X54759Y28125D01*
G01X54762Y28075D01*
G01X54767Y28024D01*
G01X54774Y27974D01*
G01X54783Y27924D01*
G01X54794Y27875D01*
G01X54807Y27826D01*
G01X54822Y27778D01*
G01X54839Y27730D01*
G01X54858Y27683D01*
G01X54879Y27637D01*
G01X54902Y27592D01*
G01X54926Y27547D01*
G01X54952Y27504D01*
G01X54980Y27462D01*
G01X55010Y27421D01*
G01X55041Y27381D01*
G01X55074Y27343D01*
G01X55108Y27306D01*
G01X55144Y27269D01*
G01X55181Y27235D01*
G01X55220Y27202D01*
G01X55259Y27171D01*
G01X55300Y27141D01*
G01X55343Y27113D01*
G01X55386Y27088D01*
G01X55430Y27063D01*
G01X55476Y27040D01*
G01X55521Y27020D01*
G01X55569Y27001D01*
G01X55616Y26984D01*
G01X55665Y26969D01*
G01X55713Y26956D01*
G01X55763Y26944D01*
G01X55812Y26936D01*
G01X55863Y26929D01*
G01X55913Y26924D01*
G01X55963Y26920D01*
G01X56014Y26919D01*
G01X56065Y26920D01*
G01X56117Y26924D01*
G01X56168Y26929D01*
G01X56219Y26936D01*
G01X56270Y26945D01*
G01X56320Y26957D01*
G01X56370Y26971D01*
G01X56419Y26986D01*
G01X56467Y27004D01*
G01X56515Y27023D01*
G01X56562Y27045D01*
G01X56607Y27068D01*
G01X56652Y27093D01*
G01X56696Y27121D01*
G01X56739Y27149D01*
G01X56780Y27180D01*
G01X56820Y27212D01*
G01X56859Y27246D01*
G01X56897Y27281D01*
G01X56933Y27318D01*
G01X56967Y27356D01*
G01X57000Y27396D01*
G01X57031Y27437D01*
G01X57060Y27480D01*
G01X57088Y27523D01*
G01X57138Y27613D01*
G01X57146Y27627D01*
G01X57156Y27639D01*
G01X57168Y27649D01*
G01X57182Y27658D01*
G01X57197Y27664D01*
G01X57212Y27668D01*
G01X57229Y27669D01*
G01X91792Y27669D01*
G01X91813Y27667D01*
G01X91833Y27661D01*
G01X91868Y27647D01*
G01X91905Y27635D01*
G01X91942Y27626D01*
G01X91980Y27619D01*
G01X92018Y27615D01*
G01X92057Y27614D01*
G01X92091Y27615D01*
G01X92124Y27618D01*
G01X92158Y27624D01*
G01X92191Y27631D01*
G01X92224Y27640D01*
G01X92256Y27650D01*
G01X92318Y27678D01*
G01X92347Y27695D01*
G01X92376Y27713D01*
G01X92403Y27734D01*
G01X92429Y27756D01*
G01X92454Y27778D01*
G01X92477Y27803D01*
G01X92499Y27829D01*
G01X92519Y27857D01*
G01X92537Y27885D01*
G01X92554Y27915D01*
G01X92569Y27945D01*
G01X92582Y27977D01*
G01X92593Y28009D01*
G01X92602Y28041D01*
G01X92609Y28075D01*
G01X92614Y28108D01*
G01X92617Y28142D01*
G01X92618Y28176D01*
G01X92617Y28210D01*
G01X92614Y28243D01*
G01X92609Y28277D01*
G01X92602Y28310D01*
G01X92593Y28343D01*
G01X92582Y28375D01*
G01X92569Y28406D01*
G01X92554Y28437D01*
G01X92537Y28466D01*
G01X92519Y28495D01*
G01X92499Y28522D01*
G01X92477Y28548D01*
G01X92454Y28573D01*
G01X92429Y28596D01*
G01X92403Y28618D01*
G01X92376Y28638D01*
G01X92347Y28656D01*
G01X92318Y28673D01*
G01X92287Y28688D01*
G01X92256Y28701D01*
G01X92224Y28712D01*
G01X92191Y28721D01*
G01X92158Y28728D01*
G01X92124Y28733D01*
G01X92091Y28736D01*
G01X92057Y28737D01*
G01X92018Y28736D01*
G01X91980Y28732D01*
G01X91942Y28725D01*
G01X91905Y28716D01*
G01X91868Y28705D01*
G01X91833Y28691D01*
G01X91813Y28684D01*
G01X91792Y28682D01*
G01X57229Y28682D01*
G01X57212Y28684D01*
G01X57197Y28687D01*
G01X57182Y28693D01*
G01X57168Y28702D01*
G01X57156Y28712D01*
G01X57146Y28725D01*
G01X57138Y28739D01*
G01X57088Y28829D01*
G01X57060Y28872D01*
G01X57031Y28914D01*
G01X57000Y28955D01*
G01X56967Y28995D01*
G01X56933Y29033D01*
G01X56897Y29070D01*
G01X56859Y29105D01*
G01X56820Y29139D01*
G01X56780Y29172D01*
G01X56739Y29202D01*
G01X56696Y29231D01*
G01X56652Y29258D01*
G01X56607Y29283D01*
G01X56562Y29307D01*
G01X56515Y29328D01*
G01X56467Y29348D01*
G01X56419Y29365D01*
G01X56370Y29381D01*
G01X56320Y29394D01*
G01X56270Y29406D01*
G01X56219Y29415D01*
G01X56168Y29423D01*
G01X56117Y29428D01*
G01X56065Y29431D01*
G37*
G36*
G01X15050Y27612D02*
G01X14490Y27612D01*
G01X14515Y27565D01*
G01X14542Y27518D01*
G01X14571Y27473D01*
G01X14602Y27429D01*
G01X14635Y27387D01*
G01X14670Y27346D01*
G01X14706Y27307D01*
G01X14744Y27268D01*
G01X14783Y27232D01*
G01X14824Y27198D01*
G01X14867Y27165D01*
G01X14910Y27134D01*
G01X14956Y27105D01*
G01X15002Y27078D01*
G01X15050Y27053D01*
G01X15050Y27612D01*
G37*
G36*
G01X16736Y27612D02*
G01X16176Y27612D01*
G01X16176Y27053D01*
G01X16224Y27078D01*
G01X16270Y27105D01*
G01X16315Y27134D01*
G01X16359Y27165D01*
G01X16402Y27198D01*
G01X16442Y27232D01*
G01X16482Y27268D01*
G01X16520Y27307D01*
G01X16556Y27346D01*
G01X16591Y27387D01*
G01X16624Y27429D01*
G01X16655Y27473D01*
G01X16684Y27518D01*
G01X16711Y27565D01*
G01X16736Y27612D01*
G37*
G36*
G01X15050Y28739D02*
G01X15050Y29299D01*
G01X15002Y29274D01*
G01X14956Y29247D01*
G01X14910Y29218D01*
G01X14867Y29187D01*
G01X14824Y29154D01*
G01X14783Y29119D01*
G01X14744Y29083D01*
G01X14706Y29045D01*
G01X14670Y29005D01*
G01X14635Y28965D01*
G01X14602Y28922D01*
G01X14571Y28878D01*
G01X14542Y28833D01*
G01X14515Y28787D01*
G01X14490Y28739D01*
G01X15050Y28739D01*
G37*
G36*
G01X16224Y29274D02*
G01X16176Y29299D01*
G01X16176Y28739D01*
G01X16736Y28739D01*
G01X16711Y28787D01*
G01X16684Y28833D01*
G01X16655Y28878D01*
G01X16624Y28922D01*
G01X16591Y28965D01*
G01X16556Y29005D01*
G01X16520Y29045D01*
G01X16482Y29083D01*
G01X16442Y29119D01*
G01X16402Y29154D01*
G01X16359Y29187D01*
G01X16315Y29218D01*
G01X16270Y29247D01*
G01X16224Y29274D01*
G37*
G36*
G01X54937Y39492D02*
G01X54876Y39493D01*
G01X54816Y39492D01*
G01X54757Y39489D01*
G01X54697Y39484D01*
G01X54637Y39477D01*
G01X54578Y39468D01*
G01X54519Y39456D01*
G01X54461Y39443D01*
G01X54403Y39428D01*
G01X54345Y39411D01*
G01X54288Y39392D01*
G01X54232Y39371D01*
G01X54177Y39348D01*
G01X54122Y39323D01*
G01X54068Y39296D01*
G01X54016Y39267D01*
G01X53964Y39237D01*
G01X53913Y39205D01*
G01X53863Y39171D01*
G01X53815Y39136D01*
G01X53768Y39099D01*
G01X53722Y39061D01*
G01X53677Y39021D01*
G01X53635Y38978D01*
G01X53592Y38936D01*
G01X53552Y38891D01*
G01X53514Y38845D01*
G01X53477Y38798D01*
G01X53442Y38750D01*
G01X53408Y38700D01*
G01X53376Y38649D01*
G01X53346Y38597D01*
G01X53317Y38545D01*
G01X53290Y38491D01*
G01X53265Y38436D01*
G01X53242Y38381D01*
G01X53221Y38325D01*
G01X53202Y38268D01*
G01X53185Y38210D01*
G01X53170Y38152D01*
G01X53157Y38094D01*
G01X53145Y38035D01*
G01X53136Y37976D01*
G01X53129Y37916D01*
G01X53124Y37856D01*
G01X53121Y37797D01*
G01X53120Y37736D01*
G01X53121Y37676D01*
G01X53124Y37617D01*
G01X53129Y37557D01*
G01X53136Y37498D01*
G01X53145Y37438D01*
G01X53157Y37379D01*
G01X53170Y37321D01*
G01X53185Y37263D01*
G01X53202Y37205D01*
G01X53221Y37149D01*
G01X53242Y37092D01*
G01X53265Y37037D01*
G01X53290Y36982D01*
G01X53317Y36929D01*
G01X53346Y36876D01*
G01X53376Y36824D01*
G01X53408Y36773D01*
G01X53442Y36723D01*
G01X53477Y36675D01*
G01X53514Y36628D01*
G01X53552Y36582D01*
G01X53592Y36537D01*
G01X53635Y36495D01*
G01X53677Y36453D01*
G01X53722Y36412D01*
G01X53768Y36374D01*
G01X53815Y36337D01*
G01X53863Y36302D01*
G01X53913Y36268D01*
G01X53964Y36236D01*
G01X54016Y36206D01*
G01X54068Y36177D01*
G01X54122Y36150D01*
G01X54177Y36125D01*
G01X54232Y36103D01*
G01X54288Y36081D01*
G01X54345Y36062D01*
G01X54403Y36045D01*
G01X54461Y36030D01*
G01X54519Y36017D01*
G01X54578Y36006D01*
G01X54637Y35996D01*
G01X54697Y35989D01*
G01X54757Y35984D01*
G01X54816Y35981D01*
G01X54877Y35980D01*
G01X54937Y35981D01*
G01X54996Y35984D01*
G01X55056Y35989D01*
G01X55115Y35996D01*
G01X55175Y36006D01*
G01X55234Y36017D01*
G01X55292Y36030D01*
G01X55350Y36045D01*
G01X55408Y36062D01*
G01X55464Y36081D01*
G01X55521Y36103D01*
G01X55576Y36125D01*
G01X55631Y36150D01*
G01X55684Y36177D01*
G01X55737Y36206D01*
G01X55789Y36236D01*
G01X55840Y36268D01*
G01X55890Y36302D01*
G01X55938Y36337D01*
G01X55985Y36374D01*
G01X56031Y36412D01*
G01X56076Y36453D01*
G01X56160Y36537D01*
G01X56201Y36582D01*
G01X56239Y36628D01*
G01X56276Y36675D01*
G01X56311Y36723D01*
G01X56345Y36773D01*
G01X56377Y36824D01*
G01X56407Y36876D01*
G01X56436Y36929D01*
G01X56463Y36982D01*
G01X56488Y37037D01*
G01X56510Y37092D01*
G01X56532Y37149D01*
G01X56551Y37205D01*
G01X56568Y37263D01*
G01X56583Y37321D01*
G01X56596Y37379D01*
G01X56607Y37438D01*
G01X56617Y37498D01*
G01X56624Y37557D01*
G01X56629Y37617D01*
G01X56632Y37676D01*
G01X56633Y37736D01*
G01X56632Y37797D01*
G01X56629Y37856D01*
G01X56624Y37916D01*
G01X56617Y37976D01*
G01X56607Y38035D01*
G01X56596Y38094D01*
G01X56583Y38152D01*
G01X56568Y38210D01*
G01X56551Y38268D01*
G01X56532Y38325D01*
G01X56510Y38381D01*
G01X56488Y38436D01*
G01X56463Y38491D01*
G01X56436Y38545D01*
G01X56407Y38597D01*
G01X56377Y38649D01*
G01X56345Y38700D01*
G01X56311Y38750D01*
G01X56276Y38798D01*
G01X56239Y38845D01*
G01X56201Y38891D01*
G01X56160Y38936D01*
G01X56118Y38978D01*
G01X56076Y39021D01*
G01X56031Y39061D01*
G01X55985Y39099D01*
G01X55938Y39136D01*
G01X55890Y39171D01*
G01X55840Y39205D01*
G01X55789Y39237D01*
G01X55737Y39267D01*
G01X55684Y39296D01*
G01X55631Y39323D01*
G01X55576Y39348D01*
G01X55521Y39371D01*
G01X55464Y39392D01*
G01X55408Y39411D01*
G01X55350Y39428D01*
G01X55292Y39443D01*
G01X55234Y39456D01*
G01X55175Y39468D01*
G01X55115Y39477D01*
G01X55056Y39484D01*
G01X54996Y39489D01*
G01X54937Y39492D01*
G37*
G36*
G01X8937Y39492D02*
G01X8877Y39493D01*
G01X8816Y39492D01*
G01X8757Y39489D01*
G01X8697Y39484D01*
G01X8638Y39477D01*
G01X8578Y39468D01*
G01X8519Y39456D01*
G01X8461Y39443D01*
G01X8403Y39428D01*
G01X8345Y39411D01*
G01X8289Y39392D01*
G01X8232Y39371D01*
G01X8177Y39348D01*
G01X8122Y39323D01*
G01X8069Y39296D01*
G01X8016Y39267D01*
G01X7964Y39237D01*
G01X7913Y39205D01*
G01X7863Y39171D01*
G01X7815Y39136D01*
G01X7768Y39099D01*
G01X7722Y39061D01*
G01X7677Y39021D01*
G01X7635Y38978D01*
G01X7593Y38936D01*
G01X7552Y38891D01*
G01X7514Y38845D01*
G01X7477Y38798D01*
G01X7442Y38750D01*
G01X7408Y38700D01*
G01X7376Y38649D01*
G01X7346Y38597D01*
G01X7317Y38545D01*
G01X7290Y38491D01*
G01X7265Y38436D01*
G01X7243Y38381D01*
G01X7221Y38325D01*
G01X7202Y38268D01*
G01X7185Y38210D01*
G01X7170Y38152D01*
G01X7157Y38094D01*
G01X7146Y38035D01*
G01X7136Y37976D01*
G01X7129Y37916D01*
G01X7124Y37856D01*
G01X7121Y37797D01*
G01X7120Y37736D01*
G01X7121Y37676D01*
G01X7124Y37617D01*
G01X7129Y37557D01*
G01X7136Y37498D01*
G01X7146Y37438D01*
G01X7157Y37379D01*
G01X7170Y37321D01*
G01X7185Y37263D01*
G01X7202Y37205D01*
G01X7221Y37149D01*
G01X7243Y37092D01*
G01X7265Y37037D01*
G01X7290Y36982D01*
G01X7317Y36929D01*
G01X7346Y36876D01*
G01X7376Y36824D01*
G01X7408Y36773D01*
G01X7442Y36723D01*
G01X7477Y36675D01*
G01X7514Y36628D01*
G01X7552Y36582D01*
G01X7593Y36537D01*
G01X7677Y36453D01*
G01X7722Y36412D01*
G01X7768Y36374D01*
G01X7815Y36337D01*
G01X7863Y36302D01*
G01X7913Y36268D01*
G01X7964Y36236D01*
G01X8016Y36206D01*
G01X8069Y36177D01*
G01X8122Y36150D01*
G01X8177Y36125D01*
G01X8232Y36103D01*
G01X8289Y36081D01*
G01X8345Y36062D01*
G01X8403Y36045D01*
G01X8461Y36030D01*
G01X8519Y36017D01*
G01X8578Y36006D01*
G01X8638Y35996D01*
G01X8697Y35989D01*
G01X8757Y35984D01*
G01X8816Y35981D01*
G01X8877Y35980D01*
G01X8937Y35981D01*
G01X8996Y35984D01*
G01X9056Y35989D01*
G01X9116Y35996D01*
G01X9175Y36006D01*
G01X9234Y36017D01*
G01X9292Y36030D01*
G01X9350Y36045D01*
G01X9408Y36062D01*
G01X9465Y36081D01*
G01X9521Y36103D01*
G01X9576Y36125D01*
G01X9631Y36150D01*
G01X9685Y36177D01*
G01X9737Y36206D01*
G01X9789Y36236D01*
G01X9840Y36268D01*
G01X9890Y36302D01*
G01X9938Y36337D01*
G01X9985Y36374D01*
G01X10031Y36412D01*
G01X10076Y36453D01*
G01X10118Y36495D01*
G01X10161Y36537D01*
G01X10201Y36582D01*
G01X10239Y36628D01*
G01X10276Y36675D01*
G01X10311Y36723D01*
G01X10345Y36773D01*
G01X10377Y36824D01*
G01X10407Y36876D01*
G01X10436Y36929D01*
G01X10463Y36982D01*
G01X10488Y37037D01*
G01X10511Y37092D01*
G01X10532Y37149D01*
G01X10551Y37205D01*
G01X10568Y37263D01*
G01X10583Y37321D01*
G01X10596Y37379D01*
G01X10608Y37438D01*
G01X10617Y37498D01*
G01X10624Y37557D01*
G01X10629Y37617D01*
G01X10632Y37676D01*
G01X10633Y37736D01*
G01X10632Y37797D01*
G01X10629Y37856D01*
G01X10624Y37916D01*
G01X10617Y37976D01*
G01X10608Y38035D01*
G01X10596Y38094D01*
G01X10583Y38152D01*
G01X10568Y38210D01*
G01X10551Y38268D01*
G01X10532Y38325D01*
G01X10511Y38381D01*
G01X10488Y38436D01*
G01X10463Y38491D01*
G01X10436Y38545D01*
G01X10407Y38597D01*
G01X10377Y38649D01*
G01X10345Y38700D01*
G01X10311Y38750D01*
G01X10276Y38798D01*
G01X10239Y38845D01*
G01X10201Y38891D01*
G01X10161Y38936D01*
G01X10118Y38978D01*
G01X10076Y39021D01*
G01X10031Y39061D01*
G01X9985Y39099D01*
G01X9938Y39136D01*
G01X9890Y39171D01*
G01X9840Y39205D01*
G01X9789Y39237D01*
G01X9737Y39267D01*
G01X9685Y39296D01*
G01X9631Y39323D01*
G01X9576Y39348D01*
G01X9521Y39371D01*
G01X9465Y39392D01*
G01X9408Y39411D01*
G01X9350Y39428D01*
G01X9292Y39443D01*
G01X9234Y39456D01*
G01X9175Y39468D01*
G01X9116Y39477D01*
G01X9056Y39484D01*
G01X8996Y39489D01*
G01X8937Y39492D01*
G37*
G36*
G01X141904Y40895D02*
G01X141859Y40896D01*
G01X141813Y40895D01*
G01X141767Y40892D01*
G01X141722Y40887D01*
G01X141677Y40880D01*
G01X141632Y40871D01*
G01X141587Y40859D01*
G01X141544Y40846D01*
G01X141500Y40831D01*
G01X141458Y40814D01*
G01X141417Y40795D01*
G01X141376Y40775D01*
G01X141336Y40752D01*
G01X141297Y40727D01*
G01X141260Y40701D01*
G01X141224Y40674D01*
G01X141188Y40645D01*
G01X141154Y40614D01*
G01X141122Y40582D01*
G01X141091Y40548D01*
G01X141062Y40513D01*
G01X141035Y40476D01*
G01X141009Y40439D01*
G01X140984Y40400D01*
G01X140961Y40360D01*
G01X140941Y40319D01*
G01X140922Y40278D01*
G01X140905Y40236D01*
G01X140890Y40192D01*
G01X140877Y40148D01*
G01X140865Y40104D01*
G01X140856Y40059D01*
G01X140849Y40014D01*
G01X140844Y39969D01*
G01X140841Y39923D01*
G01X140840Y39878D01*
G01X140841Y39832D01*
G01X140844Y39786D01*
G01X140849Y39741D01*
G01X140856Y39696D01*
G01X140865Y39651D01*
G01X140877Y39607D01*
G01X140890Y39563D01*
G01X140905Y39520D01*
G01X140922Y39477D01*
G01X140941Y39436D01*
G01X140961Y39395D01*
G01X140984Y39355D01*
G01X141009Y39317D01*
G01X141035Y39279D01*
G01X141062Y39243D01*
G01X141091Y39207D01*
G01X141122Y39173D01*
G01X141154Y39141D01*
G01X141188Y39110D01*
G01X141224Y39081D01*
G01X141260Y39054D01*
G01X141297Y39028D01*
G01X141336Y39003D01*
G01X141376Y38980D01*
G01X141417Y38960D01*
G01X141458Y38941D01*
G01X141500Y38924D01*
G01X141544Y38909D01*
G01X141587Y38896D01*
G01X141632Y38884D01*
G01X141677Y38875D01*
G01X141722Y38868D01*
G01X141767Y38863D01*
G01X141813Y38860D01*
G01X141859Y38859D01*
G01X141904Y38860D01*
G01X141950Y38863D01*
G01X141995Y38868D01*
G01X142040Y38875D01*
G01X142085Y38884D01*
G01X142129Y38896D01*
G01X142173Y38909D01*
G01X142216Y38924D01*
G01X142259Y38941D01*
G01X142300Y38960D01*
G01X142341Y38980D01*
G01X142381Y39003D01*
G01X142419Y39028D01*
G01X142457Y39054D01*
G01X142494Y39081D01*
G01X142529Y39110D01*
G01X142562Y39141D01*
G01X142595Y39173D01*
G01X142626Y39207D01*
G01X142655Y39243D01*
G01X142682Y39279D01*
G01X142708Y39317D01*
G01X142733Y39355D01*
G01X142755Y39395D01*
G01X142776Y39436D01*
G01X142795Y39477D01*
G01X142812Y39520D01*
G01X142827Y39563D01*
G01X142840Y39607D01*
G01X142852Y39651D01*
G01X142861Y39696D01*
G01X142868Y39741D01*
G01X142873Y39786D01*
G01X142876Y39832D01*
G01X142877Y39878D01*
G01X142876Y39923D01*
G01X142873Y39969D01*
G01X142868Y40014D01*
G01X142861Y40059D01*
G01X142852Y40104D01*
G01X142840Y40148D01*
G01X142827Y40192D01*
G01X142812Y40236D01*
G01X142795Y40278D01*
G01X142776Y40319D01*
G01X142755Y40360D01*
G01X142733Y40400D01*
G01X142708Y40439D01*
G01X142682Y40476D01*
G01X142655Y40513D01*
G01X142626Y40548D01*
G01X142595Y40582D01*
G01X142562Y40614D01*
G01X142529Y40645D01*
G01X142494Y40674D01*
G01X142457Y40701D01*
G01X142419Y40727D01*
G01X142381Y40752D01*
G01X142341Y40775D01*
G01X142300Y40795D01*
G01X142259Y40814D01*
G01X142216Y40831D01*
G01X142173Y40846D01*
G01X142129Y40859D01*
G01X142085Y40871D01*
G01X142040Y40880D01*
G01X141995Y40887D01*
G01X141950Y40892D01*
G01X141904Y40895D01*
G37*
G36*
G01X134284Y40895D02*
G01X134239Y40896D01*
G01X134193Y40895D01*
G01X134147Y40892D01*
G01X134102Y40887D01*
G01X134057Y40880D01*
G01X134012Y40871D01*
G01X133967Y40859D01*
G01X133924Y40846D01*
G01X133880Y40831D01*
G01X133838Y40814D01*
G01X133797Y40795D01*
G01X133756Y40775D01*
G01X133716Y40752D01*
G01X133677Y40727D01*
G01X133640Y40701D01*
G01X133604Y40674D01*
G01X133568Y40645D01*
G01X133534Y40614D01*
G01X133502Y40582D01*
G01X133471Y40548D01*
G01X133442Y40513D01*
G01X133415Y40476D01*
G01X133389Y40439D01*
G01X133364Y40400D01*
G01X133341Y40360D01*
G01X133321Y40319D01*
G01X133302Y40278D01*
G01X133285Y40236D01*
G01X133270Y40192D01*
G01X133257Y40148D01*
G01X133245Y40104D01*
G01X133236Y40059D01*
G01X133229Y40014D01*
G01X133224Y39969D01*
G01X133221Y39923D01*
G01X133220Y39878D01*
G01X133221Y39832D01*
G01X133224Y39786D01*
G01X133229Y39741D01*
G01X133236Y39696D01*
G01X133245Y39651D01*
G01X133257Y39607D01*
G01X133270Y39563D01*
G01X133285Y39520D01*
G01X133302Y39477D01*
G01X133321Y39436D01*
G01X133341Y39395D01*
G01X133364Y39355D01*
G01X133389Y39317D01*
G01X133415Y39279D01*
G01X133442Y39243D01*
G01X133471Y39207D01*
G01X133502Y39173D01*
G01X133534Y39141D01*
G01X133568Y39110D01*
G01X133604Y39081D01*
G01X133640Y39054D01*
G01X133677Y39028D01*
G01X133716Y39003D01*
G01X133756Y38980D01*
G01X133797Y38960D01*
G01X133838Y38941D01*
G01X133880Y38924D01*
G01X133924Y38909D01*
G01X133967Y38896D01*
G01X134012Y38884D01*
G01X134057Y38875D01*
G01X134102Y38868D01*
G01X134147Y38863D01*
G01X134193Y38860D01*
G01X134239Y38859D01*
G01X134284Y38860D01*
G01X134330Y38863D01*
G01X134375Y38868D01*
G01X134420Y38875D01*
G01X134465Y38884D01*
G01X134509Y38896D01*
G01X134553Y38909D01*
G01X134596Y38924D01*
G01X134639Y38941D01*
G01X134680Y38960D01*
G01X134721Y38980D01*
G01X134761Y39003D01*
G01X134799Y39028D01*
G01X134837Y39054D01*
G01X134874Y39081D01*
G01X134909Y39110D01*
G01X134942Y39141D01*
G01X134975Y39173D01*
G01X135006Y39207D01*
G01X135035Y39243D01*
G01X135062Y39279D01*
G01X135088Y39317D01*
G01X135113Y39355D01*
G01X135135Y39395D01*
G01X135156Y39436D01*
G01X135175Y39477D01*
G01X135192Y39520D01*
G01X135207Y39563D01*
G01X135220Y39607D01*
G01X135232Y39651D01*
G01X135241Y39696D01*
G01X135248Y39741D01*
G01X135253Y39786D01*
G01X135256Y39832D01*
G01X135257Y39878D01*
G01X135256Y39923D01*
G01X135253Y39969D01*
G01X135248Y40014D01*
G01X135241Y40059D01*
G01X135232Y40104D01*
G01X135220Y40148D01*
G01X135207Y40192D01*
G01X135192Y40236D01*
G01X135175Y40278D01*
G01X135156Y40319D01*
G01X135135Y40360D01*
G01X135113Y40400D01*
G01X135088Y40439D01*
G01X135062Y40476D01*
G01X135035Y40513D01*
G01X135006Y40548D01*
G01X134975Y40582D01*
G01X134942Y40614D01*
G01X134909Y40645D01*
G01X134874Y40674D01*
G01X134837Y40701D01*
G01X134799Y40727D01*
G01X134761Y40752D01*
G01X134721Y40775D01*
G01X134680Y40795D01*
G01X134639Y40814D01*
G01X134596Y40831D01*
G01X134553Y40846D01*
G01X134509Y40859D01*
G01X134465Y40871D01*
G01X134420Y40880D01*
G01X134375Y40887D01*
G01X134330Y40892D01*
G01X134284Y40895D01*
G37*
G36*
G01X136824Y40895D02*
G01X136779Y40896D01*
G01X136733Y40895D01*
G01X136687Y40892D01*
G01X136642Y40887D01*
G01X136597Y40880D01*
G01X136552Y40871D01*
G01X136507Y40859D01*
G01X136464Y40846D01*
G01X136420Y40831D01*
G01X136378Y40814D01*
G01X136337Y40795D01*
G01X136296Y40775D01*
G01X136256Y40752D01*
G01X136217Y40727D01*
G01X136180Y40701D01*
G01X136144Y40674D01*
G01X136108Y40645D01*
G01X136074Y40614D01*
G01X136042Y40582D01*
G01X136011Y40548D01*
G01X135982Y40513D01*
G01X135955Y40476D01*
G01X135929Y40439D01*
G01X135904Y40400D01*
G01X135881Y40360D01*
G01X135861Y40319D01*
G01X135842Y40278D01*
G01X135825Y40236D01*
G01X135810Y40192D01*
G01X135797Y40148D01*
G01X135785Y40104D01*
G01X135776Y40059D01*
G01X135769Y40014D01*
G01X135764Y39969D01*
G01X135761Y39923D01*
G01X135760Y39878D01*
G01X135761Y39832D01*
G01X135764Y39786D01*
G01X135769Y39741D01*
G01X135776Y39696D01*
G01X135785Y39651D01*
G01X135797Y39607D01*
G01X135810Y39563D01*
G01X135825Y39520D01*
G01X135842Y39477D01*
G01X135861Y39436D01*
G01X135881Y39395D01*
G01X135904Y39355D01*
G01X135929Y39317D01*
G01X135955Y39279D01*
G01X135982Y39243D01*
G01X136011Y39207D01*
G01X136042Y39173D01*
G01X136074Y39141D01*
G01X136108Y39110D01*
G01X136144Y39081D01*
G01X136180Y39054D01*
G01X136217Y39028D01*
G01X136256Y39003D01*
G01X136296Y38980D01*
G01X136337Y38960D01*
G01X136378Y38941D01*
G01X136420Y38924D01*
G01X136464Y38909D01*
G01X136507Y38896D01*
G01X136552Y38884D01*
G01X136597Y38875D01*
G01X136642Y38868D01*
G01X136687Y38863D01*
G01X136733Y38860D01*
G01X136779Y38859D01*
G01X136824Y38860D01*
G01X136870Y38863D01*
G01X136915Y38868D01*
G01X136960Y38875D01*
G01X137005Y38884D01*
G01X137049Y38896D01*
G01X137093Y38909D01*
G01X137136Y38924D01*
G01X137179Y38941D01*
G01X137220Y38960D01*
G01X137261Y38980D01*
G01X137301Y39003D01*
G01X137339Y39028D01*
G01X137377Y39054D01*
G01X137414Y39081D01*
G01X137449Y39110D01*
G01X137482Y39141D01*
G01X137515Y39173D01*
G01X137546Y39207D01*
G01X137575Y39243D01*
G01X137602Y39279D01*
G01X137628Y39317D01*
G01X137653Y39355D01*
G01X137675Y39395D01*
G01X137696Y39436D01*
G01X137715Y39477D01*
G01X137732Y39520D01*
G01X137747Y39563D01*
G01X137760Y39607D01*
G01X137772Y39651D01*
G01X137781Y39696D01*
G01X137788Y39741D01*
G01X137793Y39786D01*
G01X137796Y39832D01*
G01X137797Y39878D01*
G01X137796Y39923D01*
G01X137793Y39969D01*
G01X137788Y40014D01*
G01X137781Y40059D01*
G01X137772Y40104D01*
G01X137760Y40148D01*
G01X137747Y40192D01*
G01X137732Y40236D01*
G01X137715Y40278D01*
G01X137696Y40319D01*
G01X137675Y40360D01*
G01X137653Y40400D01*
G01X137628Y40439D01*
G01X137602Y40476D01*
G01X137575Y40513D01*
G01X137546Y40548D01*
G01X137515Y40582D01*
G01X137482Y40614D01*
G01X137449Y40645D01*
G01X137414Y40674D01*
G01X137377Y40701D01*
G01X137339Y40727D01*
G01X137301Y40752D01*
G01X137261Y40775D01*
G01X137220Y40795D01*
G01X137179Y40814D01*
G01X137136Y40831D01*
G01X137093Y40846D01*
G01X137049Y40859D01*
G01X137005Y40871D01*
G01X136960Y40880D01*
G01X136915Y40887D01*
G01X136870Y40892D01*
G01X136824Y40895D01*
G37*
G36*
G01X139364Y40895D02*
G01X139319Y40896D01*
G01X139273Y40895D01*
G01X139227Y40892D01*
G01X139182Y40887D01*
G01X139137Y40880D01*
G01X139092Y40871D01*
G01X139047Y40859D01*
G01X139004Y40846D01*
G01X138960Y40831D01*
G01X138918Y40814D01*
G01X138877Y40795D01*
G01X138836Y40775D01*
G01X138796Y40752D01*
G01X138757Y40727D01*
G01X138720Y40701D01*
G01X138684Y40674D01*
G01X138648Y40645D01*
G01X138614Y40614D01*
G01X138582Y40582D01*
G01X138551Y40548D01*
G01X138522Y40513D01*
G01X138495Y40476D01*
G01X138469Y40439D01*
G01X138444Y40400D01*
G01X138421Y40360D01*
G01X138401Y40319D01*
G01X138382Y40278D01*
G01X138365Y40236D01*
G01X138350Y40192D01*
G01X138337Y40148D01*
G01X138325Y40104D01*
G01X138316Y40059D01*
G01X138309Y40014D01*
G01X138304Y39969D01*
G01X138301Y39923D01*
G01X138300Y39878D01*
G01X138301Y39832D01*
G01X138304Y39786D01*
G01X138309Y39741D01*
G01X138316Y39696D01*
G01X138325Y39651D01*
G01X138337Y39607D01*
G01X138350Y39563D01*
G01X138365Y39520D01*
G01X138382Y39477D01*
G01X138401Y39436D01*
G01X138421Y39395D01*
G01X138444Y39355D01*
G01X138469Y39317D01*
G01X138495Y39279D01*
G01X138522Y39243D01*
G01X138551Y39207D01*
G01X138582Y39173D01*
G01X138614Y39141D01*
G01X138648Y39110D01*
G01X138684Y39081D01*
G01X138720Y39054D01*
G01X138757Y39028D01*
G01X138796Y39003D01*
G01X138836Y38980D01*
G01X138877Y38960D01*
G01X138918Y38941D01*
G01X138960Y38924D01*
G01X139004Y38909D01*
G01X139047Y38896D01*
G01X139092Y38884D01*
G01X139137Y38875D01*
G01X139182Y38868D01*
G01X139227Y38863D01*
G01X139273Y38860D01*
G01X139319Y38859D01*
G01X139364Y38860D01*
G01X139410Y38863D01*
G01X139455Y38868D01*
G01X139500Y38875D01*
G01X139545Y38884D01*
G01X139589Y38896D01*
G01X139633Y38909D01*
G01X139676Y38924D01*
G01X139719Y38941D01*
G01X139760Y38960D01*
G01X139801Y38980D01*
G01X139841Y39003D01*
G01X139879Y39028D01*
G01X139917Y39054D01*
G01X139954Y39081D01*
G01X139989Y39110D01*
G01X140022Y39141D01*
G01X140055Y39173D01*
G01X140086Y39207D01*
G01X140115Y39243D01*
G01X140142Y39279D01*
G01X140168Y39317D01*
G01X140193Y39355D01*
G01X140215Y39395D01*
G01X140236Y39436D01*
G01X140255Y39477D01*
G01X140272Y39520D01*
G01X140287Y39563D01*
G01X140300Y39607D01*
G01X140312Y39651D01*
G01X140321Y39696D01*
G01X140328Y39741D01*
G01X140333Y39786D01*
G01X140336Y39832D01*
G01X140337Y39878D01*
G01X140336Y39923D01*
G01X140333Y39969D01*
G01X140328Y40014D01*
G01X140321Y40059D01*
G01X140312Y40104D01*
G01X140300Y40148D01*
G01X140287Y40192D01*
G01X140272Y40236D01*
G01X140255Y40278D01*
G01X140236Y40319D01*
G01X140215Y40360D01*
G01X140193Y40400D01*
G01X140168Y40439D01*
G01X140142Y40476D01*
G01X140115Y40513D01*
G01X140086Y40548D01*
G01X140055Y40582D01*
G01X140022Y40614D01*
G01X139989Y40645D01*
G01X139954Y40674D01*
G01X139917Y40701D01*
G01X139879Y40727D01*
G01X139841Y40752D01*
G01X139801Y40775D01*
G01X139760Y40795D01*
G01X139719Y40814D01*
G01X139676Y40831D01*
G01X139633Y40846D01*
G01X139589Y40859D01*
G01X139545Y40871D01*
G01X139500Y40880D01*
G01X139455Y40887D01*
G01X139410Y40892D01*
G01X139364Y40895D01*
G37*
G36*
G01X144444Y40895D02*
G01X144399Y40896D01*
G01X144353Y40895D01*
G01X144307Y40892D01*
G01X144262Y40887D01*
G01X144217Y40880D01*
G01X144172Y40871D01*
G01X144127Y40859D01*
G01X144084Y40846D01*
G01X144040Y40831D01*
G01X143998Y40814D01*
G01X143957Y40795D01*
G01X143916Y40775D01*
G01X143876Y40752D01*
G01X143837Y40727D01*
G01X143800Y40701D01*
G01X143764Y40674D01*
G01X143728Y40645D01*
G01X143694Y40614D01*
G01X143662Y40582D01*
G01X143631Y40548D01*
G01X143602Y40513D01*
G01X143575Y40476D01*
G01X143549Y40439D01*
G01X143524Y40400D01*
G01X143501Y40360D01*
G01X143481Y40319D01*
G01X143462Y40278D01*
G01X143445Y40236D01*
G01X143430Y40192D01*
G01X143417Y40148D01*
G01X143405Y40104D01*
G01X143396Y40059D01*
G01X143389Y40014D01*
G01X143384Y39969D01*
G01X143381Y39923D01*
G01X143380Y39878D01*
G01X143381Y39832D01*
G01X143384Y39786D01*
G01X143389Y39741D01*
G01X143396Y39696D01*
G01X143405Y39651D01*
G01X143417Y39607D01*
G01X143430Y39563D01*
G01X143445Y39520D01*
G01X143462Y39477D01*
G01X143481Y39436D01*
G01X143501Y39395D01*
G01X143524Y39355D01*
G01X143549Y39317D01*
G01X143575Y39279D01*
G01X143602Y39243D01*
G01X143631Y39207D01*
G01X143662Y39173D01*
G01X143694Y39141D01*
G01X143728Y39110D01*
G01X143764Y39081D01*
G01X143800Y39054D01*
G01X143837Y39028D01*
G01X143876Y39003D01*
G01X143916Y38980D01*
G01X143957Y38960D01*
G01X143998Y38941D01*
G01X144040Y38924D01*
G01X144084Y38909D01*
G01X144127Y38896D01*
G01X144172Y38884D01*
G01X144217Y38875D01*
G01X144262Y38868D01*
G01X144307Y38863D01*
G01X144353Y38860D01*
G01X144399Y38859D01*
G01X144444Y38860D01*
G01X144490Y38863D01*
G01X144535Y38868D01*
G01X144580Y38875D01*
G01X144625Y38884D01*
G01X144669Y38896D01*
G01X144713Y38909D01*
G01X144756Y38924D01*
G01X144799Y38941D01*
G01X144840Y38960D01*
G01X144881Y38980D01*
G01X144921Y39003D01*
G01X144959Y39028D01*
G01X144997Y39054D01*
G01X145034Y39081D01*
G01X145069Y39110D01*
G01X145102Y39141D01*
G01X145135Y39173D01*
G01X145166Y39207D01*
G01X145195Y39243D01*
G01X145222Y39279D01*
G01X145248Y39317D01*
G01X145273Y39355D01*
G01X145295Y39395D01*
G01X145316Y39436D01*
G01X145335Y39477D01*
G01X145352Y39520D01*
G01X145367Y39563D01*
G01X145380Y39607D01*
G01X145392Y39651D01*
G01X145401Y39696D01*
G01X145408Y39741D01*
G01X145413Y39786D01*
G01X145416Y39832D01*
G01X145417Y39878D01*
G01X145416Y39923D01*
G01X145413Y39969D01*
G01X145408Y40014D01*
G01X145401Y40059D01*
G01X145392Y40104D01*
G01X145380Y40148D01*
G01X145367Y40192D01*
G01X145352Y40236D01*
G01X145335Y40278D01*
G01X145316Y40319D01*
G01X145295Y40360D01*
G01X145273Y40400D01*
G01X145248Y40439D01*
G01X145222Y40476D01*
G01X145195Y40513D01*
G01X145166Y40548D01*
G01X145135Y40582D01*
G01X145102Y40614D01*
G01X145069Y40645D01*
G01X145034Y40674D01*
G01X144997Y40701D01*
G01X144959Y40727D01*
G01X144921Y40752D01*
G01X144881Y40775D01*
G01X144840Y40795D01*
G01X144799Y40814D01*
G01X144756Y40831D01*
G01X144713Y40846D01*
G01X144669Y40859D01*
G01X144625Y40871D01*
G01X144580Y40880D01*
G01X144535Y40887D01*
G01X144490Y40892D01*
G01X144444Y40895D01*
G37*
G36*
G01X54422Y46934D02*
G01X54376Y46935D01*
G01X54331Y46934D01*
G01X54285Y46931D01*
G01X54240Y46926D01*
G01X54194Y46919D01*
G01X54150Y46910D01*
G01X54106Y46899D01*
G01X54062Y46885D01*
G01X54019Y46870D01*
G01X53976Y46853D01*
G01X53934Y46834D01*
G01X53894Y46813D01*
G01X53854Y46791D01*
G01X53815Y46766D01*
G01X53778Y46741D01*
G01X53741Y46713D01*
G01X53706Y46684D01*
G01X53673Y46653D01*
G01X53640Y46620D01*
G01X53609Y46587D01*
G01X53580Y46552D01*
G01X53552Y46515D01*
G01X53526Y46477D01*
G01X53502Y46439D01*
G01X53480Y46399D01*
G01X53459Y46359D01*
G01X53440Y46317D01*
G01X53423Y46274D01*
G01X53408Y46231D01*
G01X53395Y46187D01*
G01X53384Y46143D01*
G01X53375Y46098D01*
G01X53367Y46053D01*
G01X53362Y46008D01*
G01X53359Y45962D01*
G01X53358Y45917D01*
G01X53359Y45871D01*
G01X53362Y45825D01*
G01X53367Y45780D01*
G01X53375Y45735D01*
G01X53384Y45690D01*
G01X53395Y45645D01*
G01X53408Y45602D01*
G01X53423Y45558D01*
G01X53440Y45516D01*
G01X53459Y45475D01*
G01X53480Y45434D01*
G01X53502Y45394D01*
G01X53526Y45355D01*
G01X53552Y45318D01*
G01X53580Y45282D01*
G01X53609Y45247D01*
G01X53640Y45213D01*
G01X53673Y45181D01*
G01X53706Y45150D01*
G01X53741Y45120D01*
G01X53815Y45066D01*
G01X53854Y45042D01*
G01X53894Y45019D01*
G01X53934Y44999D01*
G01X53976Y44980D01*
G01X54019Y44963D01*
G01X54062Y44948D01*
G01X54106Y44935D01*
G01X54150Y44923D01*
G01X54194Y44914D01*
G01X54240Y44907D01*
G01X54285Y44902D01*
G01X54331Y44899D01*
G01X54376Y44898D01*
G01X54422Y44899D01*
G01X54468Y44902D01*
G01X54513Y44907D01*
G01X54558Y44914D01*
G01X54603Y44923D01*
G01X54648Y44935D01*
G01X54691Y44948D01*
G01X54734Y44963D01*
G01X54777Y44980D01*
G01X54818Y44999D01*
G01X54859Y45019D01*
G01X54899Y45042D01*
G01X54938Y45066D01*
G01X54975Y45093D01*
G01X55011Y45120D01*
G01X55047Y45150D01*
G01X55080Y45181D01*
G01X55113Y45213D01*
G01X55143Y45247D01*
G01X55173Y45282D01*
G01X55200Y45318D01*
G01X55227Y45355D01*
G01X55251Y45394D01*
G01X55273Y45434D01*
G01X55294Y45475D01*
G01X55313Y45516D01*
G01X55330Y45558D01*
G01X55345Y45602D01*
G01X55358Y45645D01*
G01X55369Y45690D01*
G01X55379Y45735D01*
G01X55386Y45780D01*
G01X55391Y45825D01*
G01X55394Y45871D01*
G01X55395Y45917D01*
G01X55394Y45962D01*
G01X55391Y46008D01*
G01X55386Y46053D01*
G01X55379Y46098D01*
G01X55369Y46143D01*
G01X55358Y46187D01*
G01X55345Y46231D01*
G01X55330Y46274D01*
G01X55313Y46317D01*
G01X55294Y46359D01*
G01X55273Y46399D01*
G01X55251Y46439D01*
G01X55227Y46477D01*
G01X55200Y46515D01*
G01X55173Y46552D01*
G01X55143Y46587D01*
G01X55113Y46620D01*
G01X55080Y46653D01*
G01X55047Y46684D01*
G01X55011Y46713D01*
G01X54975Y46741D01*
G01X54938Y46766D01*
G01X54899Y46791D01*
G01X54859Y46813D01*
G01X54818Y46834D01*
G01X54777Y46853D01*
G01X54734Y46870D01*
G01X54691Y46885D01*
G01X54648Y46899D01*
G01X54603Y46910D01*
G01X54558Y46919D01*
G01X54513Y46926D01*
G01X54468Y46931D01*
G01X54422Y46934D01*
G37*
G36*
G01X54422Y49474D02*
G01X54376Y49475D01*
G01X54331Y49474D01*
G01X54285Y49471D01*
G01X54240Y49466D01*
G01X54194Y49459D01*
G01X54150Y49450D01*
G01X54106Y49439D01*
G01X54062Y49425D01*
G01X54019Y49410D01*
G01X53976Y49393D01*
G01X53934Y49374D01*
G01X53894Y49353D01*
G01X53854Y49331D01*
G01X53815Y49306D01*
G01X53778Y49281D01*
G01X53741Y49253D01*
G01X53706Y49224D01*
G01X53673Y49193D01*
G01X53640Y49160D01*
G01X53609Y49127D01*
G01X53580Y49092D01*
G01X53552Y49055D01*
G01X53526Y49017D01*
G01X53502Y48979D01*
G01X53480Y48939D01*
G01X53459Y48899D01*
G01X53440Y48857D01*
G01X53423Y48814D01*
G01X53408Y48771D01*
G01X53395Y48727D01*
G01X53384Y48683D01*
G01X53375Y48638D01*
G01X53367Y48593D01*
G01X53362Y48548D01*
G01X53359Y48502D01*
G01X53358Y48457D01*
G01X53359Y48411D01*
G01X53362Y48365D01*
G01X53367Y48320D01*
G01X53375Y48275D01*
G01X53384Y48230D01*
G01X53395Y48185D01*
G01X53408Y48142D01*
G01X53423Y48098D01*
G01X53440Y48056D01*
G01X53459Y48015D01*
G01X53480Y47974D01*
G01X53502Y47934D01*
G01X53526Y47895D01*
G01X53552Y47858D01*
G01X53580Y47822D01*
G01X53609Y47787D01*
G01X53640Y47753D01*
G01X53673Y47721D01*
G01X53706Y47690D01*
G01X53741Y47660D01*
G01X53815Y47606D01*
G01X53854Y47582D01*
G01X53894Y47559D01*
G01X53934Y47539D01*
G01X53976Y47520D01*
G01X54019Y47503D01*
G01X54062Y47488D01*
G01X54106Y47475D01*
G01X54150Y47463D01*
G01X54194Y47454D01*
G01X54240Y47447D01*
G01X54285Y47442D01*
G01X54331Y47439D01*
G01X54376Y47438D01*
G01X54422Y47439D01*
G01X54468Y47442D01*
G01X54513Y47447D01*
G01X54558Y47454D01*
G01X54603Y47463D01*
G01X54648Y47475D01*
G01X54691Y47488D01*
G01X54734Y47503D01*
G01X54777Y47520D01*
G01X54818Y47539D01*
G01X54859Y47559D01*
G01X54899Y47582D01*
G01X54938Y47606D01*
G01X54975Y47633D01*
G01X55011Y47660D01*
G01X55047Y47690D01*
G01X55080Y47721D01*
G01X55113Y47753D01*
G01X55143Y47787D01*
G01X55173Y47822D01*
G01X55200Y47858D01*
G01X55227Y47895D01*
G01X55251Y47934D01*
G01X55273Y47974D01*
G01X55294Y48015D01*
G01X55313Y48056D01*
G01X55330Y48098D01*
G01X55345Y48142D01*
G01X55358Y48185D01*
G01X55369Y48230D01*
G01X55379Y48275D01*
G01X55386Y48320D01*
G01X55391Y48365D01*
G01X55394Y48411D01*
G01X55395Y48457D01*
G01X55394Y48502D01*
G01X55391Y48548D01*
G01X55386Y48593D01*
G01X55379Y48638D01*
G01X55369Y48683D01*
G01X55358Y48727D01*
G01X55345Y48771D01*
G01X55330Y48814D01*
G01X55313Y48857D01*
G01X55294Y48899D01*
G01X55273Y48939D01*
G01X55251Y48979D01*
G01X55227Y49017D01*
G01X55200Y49055D01*
G01X55173Y49092D01*
G01X55143Y49127D01*
G01X55113Y49160D01*
G01X55080Y49193D01*
G01X55047Y49224D01*
G01X55011Y49253D01*
G01X54975Y49281D01*
G01X54938Y49306D01*
G01X54899Y49331D01*
G01X54859Y49353D01*
G01X54818Y49374D01*
G01X54777Y49393D01*
G01X54734Y49410D01*
G01X54691Y49425D01*
G01X54648Y49439D01*
G01X54603Y49450D01*
G01X54558Y49459D01*
G01X54513Y49466D01*
G01X54468Y49471D01*
G01X54422Y49474D01*
G37*
G36*
G01X54422Y52014D02*
G01X54376Y52015D01*
G01X54331Y52014D01*
G01X54285Y52011D01*
G01X54240Y52006D01*
G01X54194Y51999D01*
G01X54150Y51990D01*
G01X54106Y51979D01*
G01X54062Y51965D01*
G01X54019Y51950D01*
G01X53976Y51933D01*
G01X53934Y51914D01*
G01X53894Y51893D01*
G01X53854Y51871D01*
G01X53815Y51846D01*
G01X53778Y51821D01*
G01X53741Y51793D01*
G01X53706Y51764D01*
G01X53673Y51733D01*
G01X53640Y51700D01*
G01X53609Y51667D01*
G01X53580Y51632D01*
G01X53552Y51595D01*
G01X53526Y51557D01*
G01X53502Y51519D01*
G01X53480Y51479D01*
G01X53459Y51439D01*
G01X53440Y51397D01*
G01X53423Y51354D01*
G01X53408Y51311D01*
G01X53395Y51267D01*
G01X53384Y51223D01*
G01X53375Y51178D01*
G01X53367Y51133D01*
G01X53362Y51088D01*
G01X53359Y51042D01*
G01X53358Y50997D01*
G01X53359Y50951D01*
G01X53362Y50905D01*
G01X53367Y50860D01*
G01X53375Y50815D01*
G01X53384Y50770D01*
G01X53395Y50725D01*
G01X53408Y50682D01*
G01X53423Y50638D01*
G01X53440Y50596D01*
G01X53459Y50555D01*
G01X53480Y50514D01*
G01X53502Y50474D01*
G01X53526Y50435D01*
G01X53552Y50398D01*
G01X53580Y50362D01*
G01X53609Y50327D01*
G01X53640Y50293D01*
G01X53673Y50261D01*
G01X53706Y50230D01*
G01X53741Y50200D01*
G01X53815Y50146D01*
G01X53854Y50122D01*
G01X53894Y50099D01*
G01X53934Y50079D01*
G01X53976Y50060D01*
G01X54019Y50043D01*
G01X54062Y50028D01*
G01X54106Y50015D01*
G01X54150Y50003D01*
G01X54194Y49994D01*
G01X54240Y49987D01*
G01X54285Y49982D01*
G01X54331Y49979D01*
G01X54376Y49978D01*
G01X54422Y49979D01*
G01X54468Y49982D01*
G01X54513Y49987D01*
G01X54558Y49994D01*
G01X54603Y50003D01*
G01X54648Y50015D01*
G01X54691Y50028D01*
G01X54734Y50043D01*
G01X54777Y50060D01*
G01X54818Y50079D01*
G01X54859Y50099D01*
G01X54899Y50122D01*
G01X54938Y50146D01*
G01X54975Y50173D01*
G01X55011Y50200D01*
G01X55047Y50230D01*
G01X55080Y50261D01*
G01X55113Y50293D01*
G01X55143Y50327D01*
G01X55173Y50362D01*
G01X55200Y50398D01*
G01X55227Y50435D01*
G01X55251Y50474D01*
G01X55273Y50514D01*
G01X55294Y50555D01*
G01X55313Y50596D01*
G01X55330Y50638D01*
G01X55345Y50682D01*
G01X55358Y50725D01*
G01X55369Y50770D01*
G01X55379Y50815D01*
G01X55386Y50860D01*
G01X55391Y50905D01*
G01X55394Y50951D01*
G01X55395Y50997D01*
G01X55394Y51042D01*
G01X55391Y51088D01*
G01X55386Y51133D01*
G01X55379Y51178D01*
G01X55369Y51223D01*
G01X55358Y51267D01*
G01X55345Y51311D01*
G01X55330Y51354D01*
G01X55313Y51397D01*
G01X55294Y51439D01*
G01X55273Y51479D01*
G01X55251Y51519D01*
G01X55227Y51557D01*
G01X55200Y51595D01*
G01X55173Y51632D01*
G01X55143Y51667D01*
G01X55113Y51700D01*
G01X55080Y51733D01*
G01X55047Y51764D01*
G01X55011Y51793D01*
G01X54975Y51821D01*
G01X54938Y51846D01*
G01X54899Y51871D01*
G01X54859Y51893D01*
G01X54818Y51914D01*
G01X54777Y51933D01*
G01X54734Y51950D01*
G01X54691Y51965D01*
G01X54648Y51979D01*
G01X54603Y51990D01*
G01X54558Y51999D01*
G01X54513Y52006D01*
G01X54468Y52011D01*
G01X54422Y52014D01*
G37*
G36*
G01X54422Y59634D02*
G01X54376Y59635D01*
G01X54331Y59634D01*
G01X54285Y59631D01*
G01X54240Y59626D01*
G01X54194Y59619D01*
G01X54150Y59610D01*
G01X54106Y59599D01*
G01X54062Y59585D01*
G01X54019Y59570D01*
G01X53976Y59553D01*
G01X53934Y59534D01*
G01X53894Y59513D01*
G01X53854Y59491D01*
G01X53815Y59466D01*
G01X53778Y59441D01*
G01X53741Y59413D01*
G01X53706Y59384D01*
G01X53673Y59353D01*
G01X53640Y59320D01*
G01X53609Y59287D01*
G01X53580Y59252D01*
G01X53552Y59215D01*
G01X53526Y59177D01*
G01X53502Y59139D01*
G01X53480Y59099D01*
G01X53459Y59059D01*
G01X53440Y59017D01*
G01X53423Y58974D01*
G01X53408Y58931D01*
G01X53395Y58887D01*
G01X53384Y58843D01*
G01X53375Y58798D01*
G01X53367Y58753D01*
G01X53362Y58708D01*
G01X53359Y58662D01*
G01X53358Y58617D01*
G01X53359Y58571D01*
G01X53362Y58525D01*
G01X53367Y58480D01*
G01X53375Y58435D01*
G01X53384Y58390D01*
G01X53395Y58345D01*
G01X53408Y58302D01*
G01X53423Y58258D01*
G01X53440Y58216D01*
G01X53459Y58175D01*
G01X53480Y58134D01*
G01X53502Y58094D01*
G01X53526Y58055D01*
G01X53552Y58018D01*
G01X53580Y57982D01*
G01X53609Y57947D01*
G01X53640Y57913D01*
G01X53673Y57881D01*
G01X53706Y57850D01*
G01X53741Y57820D01*
G01X53815Y57766D01*
G01X53854Y57742D01*
G01X53894Y57719D01*
G01X53934Y57699D01*
G01X53976Y57680D01*
G01X54019Y57663D01*
G01X54062Y57648D01*
G01X54106Y57635D01*
G01X54150Y57623D01*
G01X54194Y57614D01*
G01X54240Y57607D01*
G01X54285Y57602D01*
G01X54331Y57599D01*
G01X54376Y57598D01*
G01X54422Y57599D01*
G01X54468Y57602D01*
G01X54513Y57607D01*
G01X54558Y57614D01*
G01X54603Y57623D01*
G01X54648Y57635D01*
G01X54691Y57648D01*
G01X54734Y57663D01*
G01X54777Y57680D01*
G01X54818Y57699D01*
G01X54859Y57719D01*
G01X54899Y57742D01*
G01X54938Y57766D01*
G01X54975Y57793D01*
G01X55011Y57820D01*
G01X55047Y57850D01*
G01X55080Y57881D01*
G01X55113Y57913D01*
G01X55143Y57947D01*
G01X55173Y57982D01*
G01X55200Y58018D01*
G01X55227Y58055D01*
G01X55251Y58094D01*
G01X55273Y58134D01*
G01X55294Y58175D01*
G01X55313Y58216D01*
G01X55330Y58258D01*
G01X55345Y58302D01*
G01X55358Y58345D01*
G01X55369Y58390D01*
G01X55379Y58435D01*
G01X55386Y58480D01*
G01X55391Y58525D01*
G01X55394Y58571D01*
G01X55395Y58617D01*
G01X55394Y58662D01*
G01X55391Y58708D01*
G01X55386Y58753D01*
G01X55379Y58798D01*
G01X55369Y58843D01*
G01X55358Y58887D01*
G01X55345Y58931D01*
G01X55330Y58974D01*
G01X55313Y59017D01*
G01X55294Y59059D01*
G01X55273Y59099D01*
G01X55251Y59139D01*
G01X55227Y59177D01*
G01X55200Y59215D01*
G01X55173Y59252D01*
G01X55143Y59287D01*
G01X55113Y59320D01*
G01X55080Y59353D01*
G01X55047Y59384D01*
G01X55011Y59413D01*
G01X54975Y59441D01*
G01X54938Y59466D01*
G01X54899Y59491D01*
G01X54859Y59513D01*
G01X54818Y59534D01*
G01X54777Y59553D01*
G01X54734Y59570D01*
G01X54691Y59585D01*
G01X54648Y59599D01*
G01X54603Y59610D01*
G01X54558Y59619D01*
G01X54513Y59626D01*
G01X54468Y59631D01*
G01X54422Y59634D01*
G37*
G36*
G01X54423Y64714D02*
G01X54376Y64715D01*
G01X54331Y64714D01*
G01X54285Y64711D01*
G01X54240Y64706D01*
G01X54194Y64699D01*
G01X54150Y64690D01*
G01X54106Y64679D01*
G01X54062Y64665D01*
G01X54019Y64650D01*
G01X53976Y64633D01*
G01X53934Y64614D01*
G01X53894Y64593D01*
G01X53854Y64571D01*
G01X53815Y64546D01*
G01X53778Y64521D01*
G01X53741Y64493D01*
G01X53706Y64464D01*
G01X53673Y64433D01*
G01X53640Y64400D01*
G01X53609Y64367D01*
G01X53580Y64332D01*
G01X53552Y64295D01*
G01X53526Y64257D01*
G01X53502Y64219D01*
G01X53480Y64179D01*
G01X53459Y64139D01*
G01X53440Y64097D01*
G01X53423Y64054D01*
G01X53408Y64011D01*
G01X53395Y63967D01*
G01X53384Y63923D01*
G01X53375Y63878D01*
G01X53367Y63833D01*
G01X53362Y63788D01*
G01X53359Y63742D01*
G01X53358Y63697D01*
G01X53359Y63651D01*
G01X53362Y63605D01*
G01X53367Y63560D01*
G01X53375Y63515D01*
G01X53384Y63470D01*
G01X53395Y63425D01*
G01X53408Y63382D01*
G01X53423Y63338D01*
G01X53440Y63296D01*
G01X53459Y63255D01*
G01X53480Y63214D01*
G01X53502Y63174D01*
G01X53526Y63135D01*
G01X53552Y63098D01*
G01X53580Y63062D01*
G01X53609Y63027D01*
G01X53640Y62993D01*
G01X53673Y62961D01*
G01X53706Y62930D01*
G01X53741Y62900D01*
G01X53815Y62846D01*
G01X53854Y62822D01*
G01X53894Y62799D01*
G01X53934Y62779D01*
G01X53976Y62760D01*
G01X54019Y62743D01*
G01X54062Y62728D01*
G01X54106Y62715D01*
G01X54150Y62703D01*
G01X54194Y62694D01*
G01X54240Y62687D01*
G01X54285Y62682D01*
G01X54331Y62679D01*
G01X54376Y62678D01*
G01X54424Y62679D01*
G01X54470Y62682D01*
G01X54517Y62688D01*
G01X54563Y62695D01*
G01X54609Y62705D01*
G01X54654Y62717D01*
G01X54699Y62730D01*
G01X54743Y62746D01*
G01X54787Y62764D01*
G01X54829Y62784D01*
G01X54871Y62806D01*
G01X54911Y62829D01*
G01X54950Y62855D01*
G01X54988Y62882D01*
G01X55026Y62911D01*
G01X55061Y62942D01*
G01X55095Y62974D01*
G01X55127Y63008D01*
G01X55158Y63044D01*
G01X55188Y63080D01*
G01X55215Y63118D01*
G01X55241Y63158D01*
G01X55265Y63198D01*
G01X55287Y63239D01*
G01X55325Y63325D01*
G01X55341Y63369D01*
G01X55355Y63414D01*
G01X55367Y63459D01*
G01X55377Y63505D01*
G01X55381Y63520D01*
G01X55387Y63534D01*
G01X55396Y63547D01*
G01X55406Y63559D01*
G01X55418Y63569D01*
G01X55431Y63577D01*
G01X55446Y63583D01*
G01X55461Y63586D01*
G01X55477Y63587D01*
G01X100385Y63587D01*
G01X100399Y63586D01*
G01X100413Y63583D01*
G01X100427Y63578D01*
G01X100440Y63571D01*
G01X100451Y63562D01*
G01X100462Y63552D01*
G01X100470Y63541D01*
G01X100477Y63528D01*
G01X100482Y63514D01*
G01X100485Y63500D01*
G01X100486Y63486D01*
G01X100485Y63471D01*
G01X100482Y63456D01*
G01X100477Y63443D01*
G01X100470Y63429D01*
G01X100461Y63418D01*
G01X100430Y63383D01*
G01X100402Y63346D01*
G01X100375Y63308D01*
G01X100349Y63269D01*
G01X100326Y63228D01*
G01X100305Y63187D01*
G01X100285Y63145D01*
G01X100268Y63102D01*
G01X100252Y63058D01*
G01X100238Y63013D01*
G01X100226Y62968D01*
G01X100217Y62923D01*
G01X100210Y62877D01*
G01X100204Y62830D01*
G01X100201Y62784D01*
G01X100200Y62738D01*
G01X100201Y62691D01*
G01X100204Y62645D01*
G01X100210Y62598D01*
G01X100217Y62553D01*
G01X100226Y62507D01*
G01X100238Y62462D01*
G01X100251Y62417D01*
G01X100267Y62374D01*
G01X100285Y62331D01*
G01X100304Y62288D01*
G01X100326Y62247D01*
G01X100349Y62207D01*
G01X100374Y62168D01*
G01X100401Y62130D01*
G01X100430Y62093D01*
G01X100460Y62058D01*
G01X100492Y62024D01*
G01X100525Y61991D01*
G01X100560Y61961D01*
G01X100596Y61931D01*
G01X100633Y61904D01*
G01X100672Y61878D01*
G01X100712Y61854D01*
G01X100724Y61845D01*
G01X100736Y61835D01*
G01X100745Y61823D01*
G01X100753Y61810D01*
G01X100758Y61796D01*
G01X100762Y61781D01*
G01X100763Y61766D01*
G01X100762Y61751D01*
G01X100759Y61737D01*
G01X100754Y61724D01*
G01X100747Y61711D01*
G01X100738Y61699D01*
G01X100728Y61689D01*
G01X100716Y61680D01*
G01X100703Y61673D01*
G01X100690Y61668D01*
G01X100676Y61665D01*
G01X100661Y61664D01*
G01X55317Y61664D01*
G01X55302Y61665D01*
G01X55288Y61668D01*
G01X55274Y61673D01*
G01X55262Y61680D01*
G01X55250Y61689D01*
G01X55240Y61699D01*
G01X55231Y61710D01*
G01X55205Y61748D01*
G01X55177Y61786D01*
G01X55148Y61821D01*
G01X55118Y61855D01*
G01X55085Y61888D01*
G01X55051Y61920D01*
G01X55016Y61949D01*
G01X54979Y61978D01*
G01X54942Y62004D01*
G01X54903Y62028D01*
G01X54863Y62051D01*
G01X54822Y62073D01*
G01X54780Y62092D01*
G01X54738Y62109D01*
G01X54694Y62124D01*
G01X54650Y62138D01*
G01X54605Y62149D01*
G01X54560Y62158D01*
G01X54515Y62165D01*
G01X54469Y62171D01*
G01X54423Y62174D01*
G01X54376Y62175D01*
G01X54331Y62174D01*
G01X54285Y62171D01*
G01X54240Y62166D01*
G01X54194Y62159D01*
G01X54150Y62150D01*
G01X54106Y62139D01*
G01X54062Y62125D01*
G01X54019Y62110D01*
G01X53976Y62093D01*
G01X53934Y62074D01*
G01X53894Y62053D01*
G01X53854Y62031D01*
G01X53815Y62006D01*
G01X53778Y61981D01*
G01X53741Y61953D01*
G01X53706Y61924D01*
G01X53673Y61893D01*
G01X53640Y61860D01*
G01X53609Y61827D01*
G01X53580Y61792D01*
G01X53552Y61755D01*
G01X53526Y61717D01*
G01X53502Y61679D01*
G01X53480Y61639D01*
G01X53459Y61599D01*
G01X53440Y61557D01*
G01X53423Y61514D01*
G01X53408Y61471D01*
G01X53395Y61427D01*
G01X53384Y61383D01*
G01X53375Y61338D01*
G01X53367Y61293D01*
G01X53362Y61248D01*
G01X53359Y61202D01*
G01X53358Y61157D01*
G01X53359Y61111D01*
G01X53362Y61065D01*
G01X53367Y61020D01*
G01X53375Y60975D01*
G01X53384Y60930D01*
G01X53395Y60885D01*
G01X53408Y60842D01*
G01X53423Y60798D01*
G01X53440Y60756D01*
G01X53459Y60715D01*
G01X53480Y60674D01*
G01X53502Y60634D01*
G01X53526Y60595D01*
G01X53552Y60558D01*
G01X53580Y60522D01*
G01X53609Y60487D01*
G01X53640Y60453D01*
G01X53673Y60421D01*
G01X53706Y60390D01*
G01X53741Y60360D01*
G01X53815Y60306D01*
G01X53854Y60282D01*
G01X53894Y60259D01*
G01X53934Y60239D01*
G01X53976Y60220D01*
G01X54019Y60203D01*
G01X54062Y60188D01*
G01X54106Y60175D01*
G01X54150Y60163D01*
G01X54194Y60154D01*
G01X54240Y60147D01*
G01X54285Y60142D01*
G01X54331Y60139D01*
G01X54376Y60138D01*
G01X54423Y60139D01*
G01X54469Y60142D01*
G01X54515Y60147D01*
G01X54560Y60155D01*
G01X54605Y60164D01*
G01X54650Y60176D01*
G01X54694Y60189D01*
G01X54738Y60204D01*
G01X54781Y60222D01*
G01X54823Y60241D01*
G01X54864Y60262D01*
G01X54904Y60285D01*
G01X54943Y60310D01*
G01X54981Y60337D01*
G01X55017Y60365D01*
G01X55052Y60395D01*
G01X55087Y60426D01*
G01X55119Y60459D01*
G01X55150Y60494D01*
G01X55179Y60529D01*
G01X55206Y60566D01*
G01X55232Y60604D01*
G01X55241Y60616D01*
G01X55252Y60626D01*
G01X55263Y60635D01*
G01X55276Y60642D01*
G01X55289Y60647D01*
G01X55303Y60650D01*
G01X55318Y60651D01*
G01X140279Y60651D01*
G01X140312Y60652D01*
G01X140345Y60655D01*
G01X140378Y60661D01*
G01X140410Y60668D01*
G01X140442Y60678D01*
G01X140473Y60690D01*
G01X140503Y60703D01*
G01X140532Y60719D01*
G01X140560Y60736D01*
G01X140587Y60756D01*
G01X140612Y60777D01*
G01X140637Y60799D01*
G01X141552Y61714D01*
G01X141564Y61725D01*
G01X141577Y61733D01*
G01X141592Y61739D01*
G01X141608Y61743D01*
G01X141623Y61744D01*
G01X141645Y61742D01*
G01X141697Y61732D01*
G01X141751Y61725D01*
G01X141805Y61720D01*
G01X141859Y61719D01*
G01X141904Y61720D01*
G01X141950Y61723D01*
G01X141995Y61728D01*
G01X142040Y61735D01*
G01X142085Y61744D01*
G01X142129Y61756D01*
G01X142173Y61769D01*
G01X142216Y61784D01*
G01X142259Y61801D01*
G01X142300Y61820D01*
G01X142341Y61840D01*
G01X142381Y61863D01*
G01X142419Y61888D01*
G01X142457Y61914D01*
G01X142494Y61941D01*
G01X142529Y61970D01*
G01X142562Y62001D01*
G01X142595Y62033D01*
G01X142626Y62067D01*
G01X142655Y62103D01*
G01X142682Y62139D01*
G01X142708Y62177D01*
G01X142733Y62215D01*
G01X142755Y62255D01*
G01X142776Y62296D01*
G01X142795Y62337D01*
G01X142812Y62380D01*
G01X142827Y62423D01*
G01X142840Y62467D01*
G01X142852Y62511D01*
G01X142861Y62556D01*
G01X142868Y62601D01*
G01X142873Y62646D01*
G01X142876Y62692D01*
G01X142877Y62738D01*
G01X142876Y62783D01*
G01X142873Y62829D01*
G01X142868Y62874D01*
G01X142861Y62919D01*
G01X142852Y62964D01*
G01X142840Y63008D01*
G01X142827Y63052D01*
G01X142812Y63096D01*
G01X142795Y63138D01*
G01X142776Y63179D01*
G01X142755Y63220D01*
G01X142733Y63260D01*
G01X142708Y63299D01*
G01X142682Y63336D01*
G01X142655Y63373D01*
G01X142626Y63408D01*
G01X142595Y63442D01*
G01X142562Y63474D01*
G01X142529Y63505D01*
G01X142494Y63534D01*
G01X142457Y63561D01*
G01X142419Y63587D01*
G01X142381Y63612D01*
G01X142341Y63635D01*
G01X142300Y63655D01*
G01X142259Y63674D01*
G01X142216Y63691D01*
G01X142173Y63706D01*
G01X142129Y63719D01*
G01X142085Y63731D01*
G01X142040Y63740D01*
G01X141995Y63747D01*
G01X141950Y63752D01*
G01X141904Y63755D01*
G01X141859Y63756D01*
G01X141813Y63755D01*
G01X141767Y63752D01*
G01X141722Y63747D01*
G01X141677Y63740D01*
G01X141632Y63731D01*
G01X141587Y63719D01*
G01X141544Y63706D01*
G01X141500Y63691D01*
G01X141458Y63674D01*
G01X141417Y63655D01*
G01X141376Y63635D01*
G01X141336Y63612D01*
G01X141297Y63587D01*
G01X141260Y63561D01*
G01X141224Y63534D01*
G01X141188Y63505D01*
G01X141154Y63474D01*
G01X141122Y63442D01*
G01X141091Y63408D01*
G01X141062Y63373D01*
G01X141035Y63336D01*
G01X141009Y63299D01*
G01X140984Y63260D01*
G01X140961Y63220D01*
G01X140941Y63179D01*
G01X140922Y63138D01*
G01X140905Y63096D01*
G01X140890Y63052D01*
G01X140877Y63008D01*
G01X140865Y62964D01*
G01X140856Y62919D01*
G01X140849Y62874D01*
G01X140844Y62829D01*
G01X140841Y62783D01*
G01X140840Y62738D01*
G01X140841Y62684D01*
G01X140846Y62630D01*
G01X140853Y62576D01*
G01X140863Y62524D01*
G01X140865Y62502D01*
G01X140864Y62487D01*
G01X140860Y62471D01*
G01X140854Y62456D01*
G01X140846Y62442D01*
G01X140835Y62431D01*
G01X140099Y61694D01*
G01X140087Y61683D01*
G01X140073Y61675D01*
G01X140058Y61669D01*
G01X140042Y61666D01*
G01X140027Y61664D01*
G01X139876Y61664D01*
G01X139861Y61665D01*
G01X139847Y61668D01*
G01X139834Y61673D01*
G01X139820Y61680D01*
G01X139809Y61689D01*
G01X139799Y61699D01*
G01X139790Y61711D01*
G01X139783Y61724D01*
G01X139778Y61737D01*
G01X139775Y61751D01*
G01X139774Y61766D01*
G01X139775Y61781D01*
G01X139779Y61796D01*
G01X139784Y61810D01*
G01X139792Y61823D01*
G01X139801Y61835D01*
G01X139812Y61845D01*
G01X139825Y61854D01*
G01X139865Y61878D01*
G01X139904Y61904D01*
G01X139941Y61931D01*
G01X139977Y61961D01*
G01X140012Y61991D01*
G01X140045Y62024D01*
G01X140077Y62058D01*
G01X140107Y62093D01*
G01X140136Y62130D01*
G01X140163Y62168D01*
G01X140188Y62207D01*
G01X140211Y62247D01*
G01X140232Y62288D01*
G01X140252Y62331D01*
G01X140270Y62374D01*
G01X140285Y62417D01*
G01X140299Y62462D01*
G01X140311Y62507D01*
G01X140320Y62553D01*
G01X140327Y62598D01*
G01X140333Y62645D01*
G01X140336Y62691D01*
G01X140337Y62738D01*
G01X140336Y62783D01*
G01X140333Y62829D01*
G01X140328Y62874D01*
G01X140321Y62919D01*
G01X140312Y62964D01*
G01X140300Y63008D01*
G01X140287Y63052D01*
G01X140272Y63096D01*
G01X140255Y63138D01*
G01X140236Y63179D01*
G01X140215Y63220D01*
G01X140193Y63260D01*
G01X140168Y63299D01*
G01X140142Y63336D01*
G01X140115Y63373D01*
G01X140086Y63408D01*
G01X140055Y63442D01*
G01X140022Y63474D01*
G01X139989Y63505D01*
G01X139954Y63534D01*
G01X139917Y63561D01*
G01X139879Y63587D01*
G01X139841Y63612D01*
G01X139801Y63635D01*
G01X139760Y63655D01*
G01X139719Y63674D01*
G01X139676Y63691D01*
G01X139633Y63706D01*
G01X139589Y63719D01*
G01X139545Y63731D01*
G01X139500Y63740D01*
G01X139455Y63747D01*
G01X139410Y63752D01*
G01X139364Y63755D01*
G01X139319Y63756D01*
G01X139265Y63755D01*
G01X139211Y63750D01*
G01X139157Y63743D01*
G01X139105Y63733D01*
G01X139083Y63731D01*
G01X139068Y63732D01*
G01X139052Y63736D01*
G01X139037Y63742D01*
G01X139024Y63750D01*
G01X139012Y63761D01*
G01X138320Y64452D01*
G01X138296Y64475D01*
G01X138270Y64496D01*
G01X138244Y64515D01*
G01X138216Y64533D01*
G01X138186Y64548D01*
G01X138156Y64562D01*
G01X138125Y64573D01*
G01X138093Y64583D01*
G01X138061Y64591D01*
G01X138028Y64596D01*
G01X137995Y64599D01*
G01X137962Y64600D01*
G01X54870Y64600D01*
G01X54855Y64601D01*
G01X54840Y64605D01*
G01X54825Y64611D01*
G01X54783Y64630D01*
G01X54740Y64648D01*
G01X54696Y64663D01*
G01X54652Y64677D01*
G01X54607Y64689D01*
G01X54561Y64698D01*
G01X54516Y64705D01*
G01X54469Y64711D01*
G01X54423Y64714D01*
G37*
G36*
G01X150698Y66890D02*
G01X150622Y66891D01*
G01X150545Y66890D01*
G01X150470Y66887D01*
G01X150394Y66882D01*
G01X150318Y66874D01*
G01X150243Y66865D01*
G01X150168Y66853D01*
G01X150093Y66840D01*
G01X150019Y66824D01*
G01X149945Y66807D01*
G01X149871Y66787D01*
G01X149799Y66765D01*
G01X149726Y66742D01*
G01X149655Y66716D01*
G01X149584Y66688D01*
G01X149514Y66659D01*
G01X149445Y66627D01*
G01X149377Y66594D01*
G01X149309Y66559D01*
G01X149243Y66522D01*
G01X149178Y66483D01*
G01X149114Y66442D01*
G01X149051Y66400D01*
G01X148989Y66355D01*
G01X148928Y66310D01*
G01X148869Y66263D01*
G01X148811Y66213D01*
G01X148755Y66162D01*
G01X148699Y66110D01*
G01X148646Y66057D01*
G01X148594Y66001D01*
G01X148543Y65945D01*
G01X148493Y65887D01*
G01X148446Y65828D01*
G01X148401Y65767D01*
G01X148356Y65705D01*
G01X148314Y65642D01*
G01X148273Y65578D01*
G01X148234Y65513D01*
G01X148197Y65447D01*
G01X148162Y65379D01*
G01X148129Y65311D01*
G01X148097Y65242D01*
G01X148068Y65172D01*
G01X148040Y65101D01*
G01X148014Y65030D01*
G01X147991Y64957D01*
G01X147969Y64885D01*
G01X147949Y64811D01*
G01X147932Y64737D01*
G01X147916Y64663D01*
G01X147903Y64588D01*
G01X147891Y64513D01*
G01X147882Y64438D01*
G01X147874Y64362D01*
G01X147869Y64286D01*
G01X147866Y64211D01*
G01X147865Y64135D01*
G01X147866Y64058D01*
G01X147869Y63983D01*
G01X147874Y63907D01*
G01X147882Y63831D01*
G01X147891Y63756D01*
G01X147903Y63681D01*
G01X147916Y63606D01*
G01X147932Y63532D01*
G01X147949Y63458D01*
G01X147969Y63384D01*
G01X147991Y63312D01*
G01X148014Y63239D01*
G01X148040Y63168D01*
G01X148068Y63097D01*
G01X148097Y63027D01*
G01X148129Y62958D01*
G01X148162Y62890D01*
G01X148197Y62822D01*
G01X148234Y62756D01*
G01X148273Y62691D01*
G01X148314Y62627D01*
G01X148356Y62564D01*
G01X148401Y62502D01*
G01X148446Y62441D01*
G01X148493Y62382D01*
G01X148543Y62324D01*
G01X148594Y62268D01*
G01X148646Y62212D01*
G01X148699Y62159D01*
G01X148755Y62107D01*
G01X148811Y62056D01*
G01X148869Y62006D01*
G01X148928Y61959D01*
G01X148989Y61914D01*
G01X149051Y61869D01*
G01X149114Y61827D01*
G01X149178Y61786D01*
G01X149243Y61747D01*
G01X149309Y61710D01*
G01X149377Y61675D01*
G01X149445Y61642D01*
G01X149514Y61610D01*
G01X149584Y61581D01*
G01X149655Y61553D01*
G01X149726Y61527D01*
G01X149799Y61504D01*
G01X149871Y61482D01*
G01X149945Y61462D01*
G01X150019Y61445D01*
G01X150093Y61429D01*
G01X150168Y61416D01*
G01X150243Y61404D01*
G01X150318Y61395D01*
G01X150394Y61387D01*
G01X150470Y61382D01*
G01X150545Y61379D01*
G01X150622Y61378D01*
G01X150698Y61379D01*
G01X150773Y61382D01*
G01X150849Y61387D01*
G01X150925Y61395D01*
G01X151000Y61404D01*
G01X151075Y61416D01*
G01X151150Y61429D01*
G01X151224Y61445D01*
G01X151298Y61462D01*
G01X151372Y61482D01*
G01X151444Y61504D01*
G01X151517Y61527D01*
G01X151588Y61553D01*
G01X151659Y61581D01*
G01X151729Y61610D01*
G01X151798Y61642D01*
G01X151866Y61675D01*
G01X151934Y61710D01*
G01X152000Y61747D01*
G01X152065Y61786D01*
G01X152129Y61827D01*
G01X152192Y61869D01*
G01X152254Y61914D01*
G01X152315Y61959D01*
G01X152374Y62006D01*
G01X152432Y62056D01*
G01X152488Y62107D01*
G01X152544Y62159D01*
G01X152597Y62212D01*
G01X152649Y62268D01*
G01X152700Y62324D01*
G01X152750Y62382D01*
G01X152797Y62441D01*
G01X152842Y62502D01*
G01X152887Y62564D01*
G01X152929Y62627D01*
G01X152970Y62691D01*
G01X153009Y62756D01*
G01X153046Y62822D01*
G01X153081Y62890D01*
G01X153114Y62958D01*
G01X153146Y63027D01*
G01X153175Y63097D01*
G01X153203Y63168D01*
G01X153229Y63239D01*
G01X153252Y63312D01*
G01X153274Y63384D01*
G01X153294Y63458D01*
G01X153311Y63532D01*
G01X153327Y63606D01*
G01X153340Y63681D01*
G01X153352Y63756D01*
G01X153361Y63831D01*
G01X153369Y63907D01*
G01X153374Y63983D01*
G01X153377Y64058D01*
G01X153378Y64135D01*
G01X153377Y64211D01*
G01X153374Y64286D01*
G01X153369Y64362D01*
G01X153361Y64438D01*
G01X153352Y64513D01*
G01X153340Y64588D01*
G01X153327Y64663D01*
G01X153311Y64737D01*
G01X153294Y64811D01*
G01X153274Y64885D01*
G01X153252Y64957D01*
G01X153229Y65030D01*
G01X153203Y65101D01*
G01X153175Y65172D01*
G01X153146Y65242D01*
G01X153114Y65311D01*
G01X153081Y65379D01*
G01X153046Y65447D01*
G01X153009Y65513D01*
G01X152970Y65578D01*
G01X152929Y65642D01*
G01X152887Y65705D01*
G01X152842Y65767D01*
G01X152797Y65828D01*
G01X152750Y65887D01*
G01X152700Y65945D01*
G01X152649Y66001D01*
G01X152597Y66057D01*
G01X152544Y66110D01*
G01X152488Y66162D01*
G01X152432Y66213D01*
G01X152374Y66263D01*
G01X152315Y66310D01*
G01X152254Y66355D01*
G01X152192Y66400D01*
G01X152129Y66442D01*
G01X152065Y66483D01*
G01X152000Y66522D01*
G01X151934Y66559D01*
G01X151866Y66594D01*
G01X151798Y66627D01*
G01X151729Y66659D01*
G01X151659Y66688D01*
G01X151588Y66716D01*
G01X151517Y66742D01*
G01X151444Y66765D01*
G01X151372Y66787D01*
G01X151298Y66807D01*
G01X151224Y66824D01*
G01X151150Y66840D01*
G01X151075Y66853D01*
G01X151000Y66865D01*
G01X150925Y66874D01*
G01X150849Y66882D01*
G01X150773Y66887D01*
G01X150698Y66890D01*
G37*
G36*
G01X144444Y63755D02*
G01X144399Y63756D01*
G01X144353Y63755D01*
G01X144307Y63752D01*
G01X144262Y63747D01*
G01X144217Y63740D01*
G01X144172Y63731D01*
G01X144127Y63719D01*
G01X144084Y63706D01*
G01X144040Y63691D01*
G01X143998Y63674D01*
G01X143957Y63655D01*
G01X143916Y63635D01*
G01X143876Y63612D01*
G01X143837Y63587D01*
G01X143800Y63561D01*
G01X143764Y63534D01*
G01X143728Y63505D01*
G01X143694Y63474D01*
G01X143662Y63442D01*
G01X143631Y63408D01*
G01X143602Y63373D01*
G01X143575Y63336D01*
G01X143549Y63299D01*
G01X143524Y63260D01*
G01X143501Y63220D01*
G01X143481Y63179D01*
G01X143462Y63138D01*
G01X143445Y63096D01*
G01X143430Y63052D01*
G01X143417Y63008D01*
G01X143405Y62964D01*
G01X143396Y62919D01*
G01X143389Y62874D01*
G01X143384Y62829D01*
G01X143381Y62783D01*
G01X143380Y62738D01*
G01X143381Y62692D01*
G01X143384Y62646D01*
G01X143389Y62601D01*
G01X143396Y62556D01*
G01X143405Y62511D01*
G01X143417Y62467D01*
G01X143430Y62423D01*
G01X143445Y62380D01*
G01X143462Y62337D01*
G01X143481Y62296D01*
G01X143501Y62255D01*
G01X143524Y62215D01*
G01X143549Y62177D01*
G01X143575Y62139D01*
G01X143602Y62103D01*
G01X143631Y62067D01*
G01X143662Y62033D01*
G01X143694Y62001D01*
G01X143728Y61970D01*
G01X143764Y61941D01*
G01X143800Y61914D01*
G01X143837Y61888D01*
G01X143876Y61863D01*
G01X143916Y61840D01*
G01X143957Y61820D01*
G01X143998Y61801D01*
G01X144040Y61784D01*
G01X144084Y61769D01*
G01X144127Y61756D01*
G01X144172Y61744D01*
G01X144217Y61735D01*
G01X144262Y61728D01*
G01X144307Y61723D01*
G01X144353Y61720D01*
G01X144399Y61719D01*
G01X144444Y61720D01*
G01X144490Y61723D01*
G01X144535Y61728D01*
G01X144580Y61735D01*
G01X144625Y61744D01*
G01X144669Y61756D01*
G01X144713Y61769D01*
G01X144756Y61784D01*
G01X144799Y61801D01*
G01X144840Y61820D01*
G01X144881Y61840D01*
G01X144921Y61863D01*
G01X144959Y61888D01*
G01X144997Y61914D01*
G01X145034Y61941D01*
G01X145069Y61970D01*
G01X145102Y62001D01*
G01X145135Y62033D01*
G01X145166Y62067D01*
G01X145195Y62103D01*
G01X145222Y62139D01*
G01X145248Y62177D01*
G01X145273Y62215D01*
G01X145295Y62255D01*
G01X145316Y62296D01*
G01X145335Y62337D01*
G01X145352Y62380D01*
G01X145367Y62423D01*
G01X145380Y62467D01*
G01X145392Y62511D01*
G01X145401Y62556D01*
G01X145408Y62601D01*
G01X145413Y62646D01*
G01X145416Y62692D01*
G01X145417Y62738D01*
G01X145416Y62783D01*
G01X145413Y62829D01*
G01X145408Y62874D01*
G01X145401Y62919D01*
G01X145392Y62964D01*
G01X145380Y63008D01*
G01X145367Y63052D01*
G01X145352Y63096D01*
G01X145335Y63138D01*
G01X145316Y63179D01*
G01X145295Y63220D01*
G01X145273Y63260D01*
G01X145248Y63299D01*
G01X145222Y63336D01*
G01X145195Y63373D01*
G01X145166Y63408D01*
G01X145135Y63442D01*
G01X145102Y63474D01*
G01X145069Y63505D01*
G01X145034Y63534D01*
G01X144997Y63561D01*
G01X144959Y63587D01*
G01X144921Y63612D01*
G01X144881Y63635D01*
G01X144840Y63655D01*
G01X144799Y63674D01*
G01X144756Y63691D01*
G01X144713Y63706D01*
G01X144669Y63719D01*
G01X144625Y63731D01*
G01X144580Y63740D01*
G01X144535Y63747D01*
G01X144490Y63752D01*
G01X144444Y63755D01*
G37*
G36*
G01X54422Y67254D02*
G01X54376Y67255D01*
G01X54331Y67254D01*
G01X54285Y67251D01*
G01X54240Y67246D01*
G01X54194Y67239D01*
G01X54150Y67230D01*
G01X54106Y67219D01*
G01X54062Y67205D01*
G01X54019Y67190D01*
G01X53976Y67173D01*
G01X53934Y67154D01*
G01X53894Y67133D01*
G01X53854Y67111D01*
G01X53815Y67086D01*
G01X53778Y67061D01*
G01X53741Y67033D01*
G01X53706Y67004D01*
G01X53673Y66973D01*
G01X53640Y66940D01*
G01X53609Y66907D01*
G01X53580Y66872D01*
G01X53552Y66835D01*
G01X53526Y66797D01*
G01X53502Y66759D01*
G01X53480Y66719D01*
G01X53459Y66679D01*
G01X53440Y66637D01*
G01X53423Y66594D01*
G01X53408Y66551D01*
G01X53395Y66507D01*
G01X53384Y66463D01*
G01X53375Y66418D01*
G01X53367Y66373D01*
G01X53362Y66328D01*
G01X53359Y66282D01*
G01X53358Y66237D01*
G01X53359Y66191D01*
G01X53362Y66145D01*
G01X53367Y66100D01*
G01X53375Y66055D01*
G01X53384Y66010D01*
G01X53395Y65965D01*
G01X53408Y65922D01*
G01X53423Y65878D01*
G01X53440Y65836D01*
G01X53459Y65795D01*
G01X53480Y65754D01*
G01X53502Y65714D01*
G01X53526Y65675D01*
G01X53552Y65638D01*
G01X53580Y65602D01*
G01X53609Y65567D01*
G01X53640Y65533D01*
G01X53673Y65501D01*
G01X53706Y65470D01*
G01X53741Y65440D01*
G01X53815Y65386D01*
G01X53854Y65362D01*
G01X53894Y65339D01*
G01X53934Y65319D01*
G01X53976Y65300D01*
G01X54019Y65283D01*
G01X54062Y65268D01*
G01X54106Y65255D01*
G01X54150Y65243D01*
G01X54194Y65234D01*
G01X54240Y65227D01*
G01X54285Y65222D01*
G01X54331Y65219D01*
G01X54376Y65218D01*
G01X54422Y65219D01*
G01X54468Y65222D01*
G01X54513Y65227D01*
G01X54558Y65234D01*
G01X54603Y65243D01*
G01X54648Y65255D01*
G01X54691Y65268D01*
G01X54734Y65283D01*
G01X54777Y65300D01*
G01X54818Y65319D01*
G01X54859Y65339D01*
G01X54899Y65362D01*
G01X54938Y65386D01*
G01X54975Y65413D01*
G01X55011Y65440D01*
G01X55047Y65470D01*
G01X55080Y65501D01*
G01X55113Y65533D01*
G01X55143Y65567D01*
G01X55173Y65602D01*
G01X55200Y65638D01*
G01X55227Y65675D01*
G01X55251Y65714D01*
G01X55273Y65754D01*
G01X55294Y65795D01*
G01X55313Y65836D01*
G01X55330Y65878D01*
G01X55345Y65922D01*
G01X55358Y65965D01*
G01X55369Y66010D01*
G01X55379Y66055D01*
G01X55386Y66100D01*
G01X55391Y66145D01*
G01X55394Y66191D01*
G01X55395Y66237D01*
G01X55394Y66282D01*
G01X55391Y66328D01*
G01X55386Y66373D01*
G01X55379Y66418D01*
G01X55369Y66463D01*
G01X55358Y66507D01*
G01X55345Y66551D01*
G01X55330Y66594D01*
G01X55313Y66637D01*
G01X55294Y66679D01*
G01X55273Y66719D01*
G01X55251Y66759D01*
G01X55227Y66797D01*
G01X55200Y66835D01*
G01X55173Y66872D01*
G01X55143Y66907D01*
G01X55113Y66940D01*
G01X55080Y66973D01*
G01X55047Y67004D01*
G01X55011Y67033D01*
G01X54975Y67061D01*
G01X54938Y67086D01*
G01X54899Y67111D01*
G01X54859Y67133D01*
G01X54818Y67154D01*
G01X54777Y67173D01*
G01X54734Y67190D01*
G01X54691Y67205D01*
G01X54648Y67219D01*
G01X54603Y67230D01*
G01X54558Y67239D01*
G01X54513Y67246D01*
G01X54468Y67251D01*
G01X54422Y67254D01*
G37*
G36*
G01X102184Y74637D02*
G01X102108Y74638D01*
G01X102031Y74637D01*
G01X101956Y74634D01*
G01X101880Y74629D01*
G01X101804Y74621D01*
G01X101729Y74612D01*
G01X101654Y74600D01*
G01X101579Y74587D01*
G01X101505Y74571D01*
G01X101431Y74554D01*
G01X101357Y74534D01*
G01X101285Y74512D01*
G01X101212Y74489D01*
G01X101141Y74463D01*
G01X101070Y74435D01*
G01X101000Y74406D01*
G01X100931Y74374D01*
G01X100863Y74341D01*
G01X100795Y74306D01*
G01X100729Y74269D01*
G01X100664Y74230D01*
G01X100600Y74189D01*
G01X100537Y74147D01*
G01X100475Y74102D01*
G01X100414Y74057D01*
G01X100355Y74010D01*
G01X100297Y73960D01*
G01X100241Y73909D01*
G01X100185Y73857D01*
G01X100132Y73804D01*
G01X100080Y73748D01*
G01X100029Y73692D01*
G01X99979Y73634D01*
G01X99932Y73575D01*
G01X99887Y73514D01*
G01X99842Y73452D01*
G01X99800Y73389D01*
G01X99759Y73325D01*
G01X99720Y73260D01*
G01X99683Y73194D01*
G01X99648Y73126D01*
G01X99615Y73058D01*
G01X99583Y72989D01*
G01X99554Y72919D01*
G01X99526Y72848D01*
G01X99500Y72777D01*
G01X99477Y72704D01*
G01X99455Y72632D01*
G01X99435Y72558D01*
G01X99418Y72484D01*
G01X99402Y72410D01*
G01X99389Y72335D01*
G01X99377Y72260D01*
G01X99368Y72185D01*
G01X99360Y72109D01*
G01X99355Y72033D01*
G01X99352Y71958D01*
G01X99351Y71882D01*
G01X99352Y71805D01*
G01X99355Y71730D01*
G01X99360Y71654D01*
G01X99368Y71578D01*
G01X99377Y71503D01*
G01X99389Y71428D01*
G01X99402Y71353D01*
G01X99418Y71279D01*
G01X99435Y71205D01*
G01X99455Y71131D01*
G01X99477Y71059D01*
G01X99500Y70986D01*
G01X99526Y70915D01*
G01X99554Y70844D01*
G01X99583Y70774D01*
G01X99615Y70705D01*
G01X99648Y70637D01*
G01X99683Y70569D01*
G01X99720Y70503D01*
G01X99759Y70438D01*
G01X99800Y70374D01*
G01X99842Y70311D01*
G01X99887Y70249D01*
G01X99932Y70188D01*
G01X99979Y70129D01*
G01X100029Y70071D01*
G01X100080Y70015D01*
G01X100132Y69959D01*
G01X100185Y69906D01*
G01X100241Y69854D01*
G01X100297Y69803D01*
G01X100355Y69753D01*
G01X100414Y69706D01*
G01X100475Y69661D01*
G01X100537Y69616D01*
G01X100600Y69574D01*
G01X100664Y69533D01*
G01X100729Y69494D01*
G01X100795Y69457D01*
G01X100863Y69422D01*
G01X100931Y69389D01*
G01X101000Y69357D01*
G01X101070Y69328D01*
G01X101141Y69300D01*
G01X101212Y69274D01*
G01X101285Y69251D01*
G01X101357Y69229D01*
G01X101431Y69209D01*
G01X101505Y69192D01*
G01X101579Y69176D01*
G01X101654Y69163D01*
G01X101729Y69151D01*
G01X101804Y69142D01*
G01X101880Y69134D01*
G01X101956Y69129D01*
G01X102031Y69126D01*
G01X102108Y69125D01*
G01X102184Y69126D01*
G01X102259Y69129D01*
G01X102335Y69134D01*
G01X102411Y69142D01*
G01X102486Y69151D01*
G01X102561Y69163D01*
G01X102636Y69176D01*
G01X102710Y69192D01*
G01X102784Y69209D01*
G01X102858Y69229D01*
G01X102930Y69251D01*
G01X103003Y69274D01*
G01X103074Y69300D01*
G01X103145Y69328D01*
G01X103215Y69357D01*
G01X103284Y69389D01*
G01X103352Y69422D01*
G01X103420Y69457D01*
G01X103486Y69494D01*
G01X103551Y69533D01*
G01X103615Y69574D01*
G01X103678Y69616D01*
G01X103740Y69661D01*
G01X103801Y69706D01*
G01X103860Y69753D01*
G01X103918Y69803D01*
G01X103974Y69854D01*
G01X104030Y69906D01*
G01X104083Y69959D01*
G01X104135Y70015D01*
G01X104186Y70071D01*
G01X104236Y70129D01*
G01X104283Y70188D01*
G01X104328Y70249D01*
G01X104373Y70311D01*
G01X104415Y70374D01*
G01X104456Y70438D01*
G01X104495Y70503D01*
G01X104532Y70569D01*
G01X104567Y70637D01*
G01X104600Y70705D01*
G01X104632Y70774D01*
G01X104661Y70844D01*
G01X104689Y70915D01*
G01X104715Y70986D01*
G01X104738Y71059D01*
G01X104760Y71131D01*
G01X104780Y71205D01*
G01X104797Y71279D01*
G01X104813Y71353D01*
G01X104826Y71428D01*
G01X104838Y71503D01*
G01X104847Y71578D01*
G01X104855Y71654D01*
G01X104860Y71730D01*
G01X104863Y71805D01*
G01X104864Y71882D01*
G01X104863Y71958D01*
G01X104860Y72033D01*
G01X104855Y72109D01*
G01X104847Y72185D01*
G01X104838Y72260D01*
G01X104826Y72335D01*
G01X104813Y72410D01*
G01X104797Y72484D01*
G01X104780Y72558D01*
G01X104760Y72632D01*
G01X104738Y72704D01*
G01X104715Y72777D01*
G01X104689Y72848D01*
G01X104661Y72919D01*
G01X104632Y72989D01*
G01X104600Y73058D01*
G01X104567Y73126D01*
G01X104532Y73194D01*
G01X104495Y73260D01*
G01X104456Y73325D01*
G01X104415Y73389D01*
G01X104373Y73452D01*
G01X104328Y73514D01*
G01X104283Y73575D01*
G01X104236Y73634D01*
G01X104186Y73692D01*
G01X104135Y73748D01*
G01X104083Y73804D01*
G01X104030Y73857D01*
G01X103974Y73909D01*
G01X103918Y73960D01*
G01X103860Y74010D01*
G01X103801Y74057D01*
G01X103740Y74102D01*
G01X103678Y74147D01*
G01X103615Y74189D01*
G01X103551Y74230D01*
G01X103486Y74269D01*
G01X103420Y74306D01*
G01X103352Y74341D01*
G01X103284Y74374D01*
G01X103215Y74406D01*
G01X103145Y74435D01*
G01X103074Y74463D01*
G01X103003Y74489D01*
G01X102930Y74512D01*
G01X102858Y74534D01*
G01X102784Y74554D01*
G01X102710Y74571D01*
G01X102636Y74587D01*
G01X102561Y74600D01*
G01X102486Y74612D01*
G01X102411Y74621D01*
G01X102335Y74629D01*
G01X102259Y74634D01*
G01X102184Y74637D01*
G37*
G36*
G01X8937Y73492D02*
G01X8877Y73493D01*
G01X8816Y73492D01*
G01X8757Y73489D01*
G01X8697Y73484D01*
G01X8638Y73477D01*
G01X8578Y73467D01*
G01X8519Y73456D01*
G01X8461Y73443D01*
G01X8403Y73428D01*
G01X8345Y73411D01*
G01X8289Y73392D01*
G01X8232Y73370D01*
G01X8177Y73348D01*
G01X8122Y73323D01*
G01X8069Y73296D01*
G01X8016Y73267D01*
G01X7964Y73237D01*
G01X7913Y73205D01*
G01X7863Y73171D01*
G01X7815Y73136D01*
G01X7768Y73099D01*
G01X7722Y73061D01*
G01X7677Y73020D01*
G01X7593Y72936D01*
G01X7552Y72891D01*
G01X7514Y72845D01*
G01X7477Y72798D01*
G01X7442Y72750D01*
G01X7408Y72700D01*
G01X7376Y72649D01*
G01X7346Y72597D01*
G01X7317Y72544D01*
G01X7290Y72491D01*
G01X7265Y72436D01*
G01X7243Y72381D01*
G01X7221Y72324D01*
G01X7202Y72268D01*
G01X7185Y72210D01*
G01X7170Y72152D01*
G01X7157Y72094D01*
G01X7146Y72035D01*
G01X7136Y71975D01*
G01X7129Y71916D01*
G01X7124Y71856D01*
G01X7121Y71797D01*
G01X7120Y71736D01*
G01X7121Y71676D01*
G01X7124Y71617D01*
G01X7129Y71557D01*
G01X7136Y71497D01*
G01X7146Y71438D01*
G01X7157Y71379D01*
G01X7170Y71321D01*
G01X7185Y71263D01*
G01X7202Y71205D01*
G01X7221Y71148D01*
G01X7243Y71092D01*
G01X7265Y71037D01*
G01X7290Y70982D01*
G01X7317Y70928D01*
G01X7346Y70876D01*
G01X7376Y70824D01*
G01X7408Y70773D01*
G01X7442Y70723D01*
G01X7477Y70675D01*
G01X7514Y70628D01*
G01X7552Y70582D01*
G01X7593Y70537D01*
G01X7635Y70495D01*
G01X7677Y70452D01*
G01X7722Y70412D01*
G01X7768Y70374D01*
G01X7815Y70337D01*
G01X7863Y70302D01*
G01X7913Y70268D01*
G01X7964Y70236D01*
G01X8016Y70206D01*
G01X8069Y70177D01*
G01X8122Y70150D01*
G01X8177Y70125D01*
G01X8232Y70102D01*
G01X8289Y70081D01*
G01X8345Y70062D01*
G01X8403Y70045D01*
G01X8461Y70030D01*
G01X8519Y70017D01*
G01X8578Y70005D01*
G01X8638Y69996D01*
G01X8697Y69989D01*
G01X8757Y69984D01*
G01X8816Y69981D01*
G01X8877Y69980D01*
G01X8937Y69981D01*
G01X8996Y69984D01*
G01X9056Y69989D01*
G01X9116Y69996D01*
G01X9175Y70005D01*
G01X9234Y70017D01*
G01X9292Y70030D01*
G01X9350Y70045D01*
G01X9408Y70062D01*
G01X9465Y70081D01*
G01X9521Y70102D01*
G01X9576Y70125D01*
G01X9631Y70150D01*
G01X9685Y70177D01*
G01X9737Y70206D01*
G01X9789Y70236D01*
G01X9840Y70268D01*
G01X9890Y70302D01*
G01X9938Y70337D01*
G01X9985Y70374D01*
G01X10031Y70412D01*
G01X10076Y70452D01*
G01X10118Y70495D01*
G01X10161Y70537D01*
G01X10201Y70582D01*
G01X10239Y70628D01*
G01X10276Y70675D01*
G01X10311Y70723D01*
G01X10345Y70773D01*
G01X10377Y70824D01*
G01X10407Y70876D01*
G01X10436Y70928D01*
G01X10463Y70982D01*
G01X10488Y71037D01*
G01X10511Y71092D01*
G01X10532Y71148D01*
G01X10551Y71205D01*
G01X10568Y71263D01*
G01X10583Y71321D01*
G01X10596Y71379D01*
G01X10608Y71438D01*
G01X10617Y71497D01*
G01X10624Y71557D01*
G01X10629Y71617D01*
G01X10632Y71676D01*
G01X10633Y71736D01*
G01X10632Y71797D01*
G01X10629Y71856D01*
G01X10624Y71916D01*
G01X10617Y71975D01*
G01X10608Y72035D01*
G01X10596Y72094D01*
G01X10583Y72152D01*
G01X10568Y72210D01*
G01X10551Y72268D01*
G01X10532Y72324D01*
G01X10511Y72381D01*
G01X10488Y72436D01*
G01X10463Y72491D01*
G01X10436Y72544D01*
G01X10407Y72597D01*
G01X10377Y72649D01*
G01X10345Y72700D01*
G01X10311Y72750D01*
G01X10276Y72798D01*
G01X10239Y72845D01*
G01X10201Y72891D01*
G01X10161Y72936D01*
G01X10118Y72978D01*
G01X10076Y73020D01*
G01X10031Y73061D01*
G01X9985Y73099D01*
G01X9938Y73136D01*
G01X9890Y73171D01*
G01X9840Y73205D01*
G01X9789Y73237D01*
G01X9737Y73267D01*
G01X9685Y73296D01*
G01X9631Y73323D01*
G01X9576Y73348D01*
G01X9521Y73370D01*
G01X9465Y73392D01*
G01X9408Y73411D01*
G01X9350Y73428D01*
G01X9292Y73443D01*
G01X9234Y73456D01*
G01X9175Y73467D01*
G01X9116Y73477D01*
G01X9056Y73484D01*
G01X8996Y73489D01*
G01X8937Y73492D01*
G37*
G36*
G01X54937Y73492D02*
G01X54876Y73493D01*
G01X54816Y73492D01*
G01X54757Y73489D01*
G01X54697Y73484D01*
G01X54637Y73477D01*
G01X54578Y73467D01*
G01X54519Y73456D01*
G01X54461Y73443D01*
G01X54403Y73428D01*
G01X54345Y73411D01*
G01X54288Y73392D01*
G01X54232Y73370D01*
G01X54177Y73348D01*
G01X54122Y73323D01*
G01X54068Y73296D01*
G01X54016Y73267D01*
G01X53964Y73237D01*
G01X53913Y73205D01*
G01X53863Y73171D01*
G01X53815Y73136D01*
G01X53768Y73099D01*
G01X53722Y73061D01*
G01X53677Y73020D01*
G01X53635Y72978D01*
G01X53592Y72936D01*
G01X53552Y72891D01*
G01X53514Y72845D01*
G01X53477Y72798D01*
G01X53442Y72750D01*
G01X53408Y72700D01*
G01X53376Y72649D01*
G01X53346Y72597D01*
G01X53317Y72544D01*
G01X53290Y72491D01*
G01X53265Y72436D01*
G01X53242Y72381D01*
G01X53221Y72324D01*
G01X53202Y72268D01*
G01X53185Y72210D01*
G01X53170Y72152D01*
G01X53157Y72094D01*
G01X53145Y72035D01*
G01X53136Y71975D01*
G01X53129Y71916D01*
G01X53124Y71856D01*
G01X53121Y71797D01*
G01X53120Y71736D01*
G01X53121Y71676D01*
G01X53124Y71617D01*
G01X53129Y71557D01*
G01X53136Y71497D01*
G01X53145Y71438D01*
G01X53157Y71379D01*
G01X53170Y71321D01*
G01X53185Y71263D01*
G01X53202Y71205D01*
G01X53221Y71148D01*
G01X53242Y71092D01*
G01X53265Y71037D01*
G01X53290Y70982D01*
G01X53317Y70928D01*
G01X53346Y70876D01*
G01X53376Y70824D01*
G01X53408Y70773D01*
G01X53442Y70723D01*
G01X53477Y70675D01*
G01X53514Y70628D01*
G01X53552Y70582D01*
G01X53592Y70537D01*
G01X53635Y70495D01*
G01X53677Y70452D01*
G01X53722Y70412D01*
G01X53768Y70374D01*
G01X53815Y70337D01*
G01X53863Y70302D01*
G01X53913Y70268D01*
G01X53964Y70236D01*
G01X54016Y70206D01*
G01X54068Y70177D01*
G01X54122Y70150D01*
G01X54177Y70125D01*
G01X54232Y70102D01*
G01X54288Y70081D01*
G01X54345Y70062D01*
G01X54403Y70045D01*
G01X54461Y70030D01*
G01X54519Y70017D01*
G01X54578Y70005D01*
G01X54637Y69996D01*
G01X54697Y69989D01*
G01X54757Y69984D01*
G01X54816Y69981D01*
G01X54876Y69980D01*
G01X54877Y69980D01*
G01X54937Y69981D01*
G01X54996Y69984D01*
G01X55056Y69989D01*
G01X55115Y69996D01*
G01X55175Y70005D01*
G01X55234Y70017D01*
G01X55292Y70030D01*
G01X55350Y70045D01*
G01X55408Y70062D01*
G01X55464Y70081D01*
G01X55521Y70102D01*
G01X55576Y70125D01*
G01X55631Y70150D01*
G01X55684Y70177D01*
G01X55737Y70206D01*
G01X55789Y70236D01*
G01X55840Y70268D01*
G01X55890Y70302D01*
G01X55938Y70337D01*
G01X55985Y70374D01*
G01X56031Y70412D01*
G01X56076Y70452D01*
G01X56118Y70495D01*
G01X56160Y70537D01*
G01X56201Y70582D01*
G01X56239Y70628D01*
G01X56276Y70675D01*
G01X56311Y70723D01*
G01X56345Y70773D01*
G01X56377Y70824D01*
G01X56407Y70876D01*
G01X56436Y70928D01*
G01X56463Y70982D01*
G01X56488Y71037D01*
G01X56510Y71092D01*
G01X56532Y71148D01*
G01X56551Y71205D01*
G01X56568Y71263D01*
G01X56583Y71321D01*
G01X56596Y71379D01*
G01X56607Y71438D01*
G01X56617Y71497D01*
G01X56624Y71557D01*
G01X56629Y71617D01*
G01X56632Y71676D01*
G01X56633Y71736D01*
G01X56632Y71797D01*
G01X56629Y71856D01*
G01X56624Y71916D01*
G01X56617Y71975D01*
G01X56607Y72035D01*
G01X56596Y72094D01*
G01X56583Y72152D01*
G01X56568Y72210D01*
G01X56551Y72268D01*
G01X56532Y72324D01*
G01X56510Y72381D01*
G01X56488Y72436D01*
G01X56463Y72491D01*
G01X56436Y72544D01*
G01X56407Y72597D01*
G01X56377Y72649D01*
G01X56345Y72700D01*
G01X56311Y72750D01*
G01X56276Y72798D01*
G01X56239Y72845D01*
G01X56201Y72891D01*
G01X56160Y72936D01*
G01X56076Y73020D01*
G01X56031Y73061D01*
G01X55985Y73099D01*
G01X55938Y73136D01*
G01X55890Y73171D01*
G01X55840Y73205D01*
G01X55789Y73237D01*
G01X55737Y73267D01*
G01X55684Y73296D01*
G01X55631Y73323D01*
G01X55576Y73348D01*
G01X55521Y73370D01*
G01X55464Y73392D01*
G01X55408Y73411D01*
G01X55350Y73428D01*
G01X55292Y73443D01*
G01X55234Y73456D01*
G01X55175Y73467D01*
G01X55115Y73477D01*
G01X55056Y73484D01*
G01X54996Y73489D01*
G01X54937Y73492D01*
G37*
G36*
G01X3505Y80098D02*
G01X3429Y80099D01*
G01X3352Y80098D01*
G01X3277Y80095D01*
G01X3201Y80090D01*
G01X3125Y80082D01*
G01X3050Y80073D01*
G01X2975Y80061D01*
G01X2900Y80048D01*
G01X2826Y80032D01*
G01X2752Y80015D01*
G01X2678Y79995D01*
G01X2606Y79973D01*
G01X2533Y79950D01*
G01X2462Y79924D01*
G01X2391Y79896D01*
G01X2321Y79867D01*
G01X2252Y79835D01*
G01X2184Y79802D01*
G01X2116Y79767D01*
G01X2050Y79730D01*
G01X1985Y79691D01*
G01X1921Y79650D01*
G01X1858Y79608D01*
G01X1796Y79563D01*
G01X1735Y79518D01*
G01X1676Y79471D01*
G01X1618Y79421D01*
G01X1562Y79370D01*
G01X1506Y79318D01*
G01X1453Y79265D01*
G01X1401Y79209D01*
G01X1350Y79153D01*
G01X1300Y79095D01*
G01X1253Y79036D01*
G01X1208Y78975D01*
G01X1163Y78913D01*
G01X1121Y78850D01*
G01X1080Y78786D01*
G01X1041Y78721D01*
G01X1004Y78655D01*
G01X969Y78587D01*
G01X936Y78519D01*
G01X904Y78450D01*
G01X875Y78380D01*
G01X847Y78309D01*
G01X821Y78238D01*
G01X798Y78165D01*
G01X776Y78093D01*
G01X756Y78019D01*
G01X739Y77945D01*
G01X723Y77871D01*
G01X710Y77796D01*
G01X698Y77721D01*
G01X689Y77646D01*
G01X681Y77570D01*
G01X676Y77494D01*
G01X673Y77419D01*
G01X672Y77343D01*
G01X673Y77266D01*
G01X676Y77191D01*
G01X681Y77115D01*
G01X689Y77039D01*
G01X698Y76964D01*
G01X710Y76889D01*
G01X723Y76814D01*
G01X739Y76740D01*
G01X756Y76666D01*
G01X776Y76592D01*
G01X798Y76520D01*
G01X821Y76447D01*
G01X847Y76376D01*
G01X875Y76305D01*
G01X904Y76235D01*
G01X936Y76166D01*
G01X969Y76098D01*
G01X1004Y76030D01*
G01X1041Y75964D01*
G01X1080Y75899D01*
G01X1121Y75835D01*
G01X1163Y75772D01*
G01X1208Y75710D01*
G01X1253Y75649D01*
G01X1300Y75590D01*
G01X1350Y75532D01*
G01X1401Y75476D01*
G01X1453Y75420D01*
G01X1506Y75367D01*
G01X1562Y75315D01*
G01X1618Y75264D01*
G01X1676Y75214D01*
G01X1735Y75167D01*
G01X1796Y75122D01*
G01X1858Y75077D01*
G01X1921Y75035D01*
G01X1985Y74994D01*
G01X2050Y74955D01*
G01X2116Y74918D01*
G01X2184Y74883D01*
G01X2252Y74850D01*
G01X2321Y74818D01*
G01X2391Y74789D01*
G01X2462Y74761D01*
G01X2533Y74735D01*
G01X2606Y74712D01*
G01X2678Y74690D01*
G01X2752Y74670D01*
G01X2826Y74653D01*
G01X2900Y74637D01*
G01X2975Y74624D01*
G01X3050Y74612D01*
G01X3125Y74603D01*
G01X3201Y74595D01*
G01X3277Y74590D01*
G01X3352Y74587D01*
G01X3429Y74586D01*
G01X3505Y74587D01*
G01X3580Y74590D01*
G01X3656Y74595D01*
G01X3732Y74603D01*
G01X3807Y74612D01*
G01X3882Y74624D01*
G01X3957Y74637D01*
G01X4031Y74653D01*
G01X4105Y74670D01*
G01X4179Y74690D01*
G01X4251Y74712D01*
G01X4324Y74735D01*
G01X4395Y74761D01*
G01X4466Y74789D01*
G01X4536Y74818D01*
G01X4605Y74850D01*
G01X4673Y74883D01*
G01X4741Y74918D01*
G01X4807Y74955D01*
G01X4872Y74994D01*
G01X4936Y75035D01*
G01X4999Y75077D01*
G01X5061Y75122D01*
G01X5122Y75167D01*
G01X5181Y75214D01*
G01X5239Y75264D01*
G01X5295Y75315D01*
G01X5351Y75367D01*
G01X5404Y75420D01*
G01X5456Y75476D01*
G01X5507Y75532D01*
G01X5557Y75590D01*
G01X5604Y75649D01*
G01X5649Y75710D01*
G01X5694Y75772D01*
G01X5736Y75835D01*
G01X5777Y75899D01*
G01X5816Y75964D01*
G01X5853Y76030D01*
G01X5888Y76098D01*
G01X5921Y76166D01*
G01X5953Y76235D01*
G01X5982Y76305D01*
G01X6010Y76376D01*
G01X6036Y76447D01*
G01X6059Y76520D01*
G01X6081Y76592D01*
G01X6101Y76666D01*
G01X6118Y76740D01*
G01X6134Y76814D01*
G01X6147Y76889D01*
G01X6159Y76964D01*
G01X6168Y77039D01*
G01X6176Y77115D01*
G01X6181Y77191D01*
G01X6184Y77266D01*
G01X6185Y77343D01*
G01X6184Y77419D01*
G01X6181Y77494D01*
G01X6176Y77570D01*
G01X6168Y77646D01*
G01X6159Y77721D01*
G01X6147Y77796D01*
G01X6134Y77871D01*
G01X6118Y77945D01*
G01X6101Y78019D01*
G01X6081Y78093D01*
G01X6059Y78165D01*
G01X6036Y78238D01*
G01X6010Y78309D01*
G01X5982Y78380D01*
G01X5953Y78450D01*
G01X5921Y78519D01*
G01X5888Y78587D01*
G01X5853Y78655D01*
G01X5816Y78721D01*
G01X5777Y78786D01*
G01X5736Y78850D01*
G01X5694Y78913D01*
G01X5649Y78975D01*
G01X5604Y79036D01*
G01X5557Y79095D01*
G01X5507Y79153D01*
G01X5456Y79209D01*
G01X5404Y79265D01*
G01X5351Y79318D01*
G01X5295Y79370D01*
G01X5239Y79421D01*
G01X5181Y79471D01*
G01X5122Y79518D01*
G01X5061Y79563D01*
G01X4999Y79608D01*
G01X4936Y79650D01*
G01X4872Y79691D01*
G01X4807Y79730D01*
G01X4741Y79767D01*
G01X4673Y79802D01*
G01X4605Y79835D01*
G01X4536Y79867D01*
G01X4466Y79896D01*
G01X4395Y79924D01*
G01X4324Y79950D01*
G01X4251Y79973D01*
G01X4179Y79995D01*
G01X4105Y80015D01*
G01X4031Y80032D01*
G01X3957Y80048D01*
G01X3882Y80061D01*
G01X3807Y80073D01*
G01X3732Y80082D01*
G01X3656Y80090D01*
G01X3580Y80095D01*
G01X3505Y80098D01*
G37*

%LPD*%
G54D11*
G01X54376Y61158D02*
G01X140279Y61158D01*
G01X141859Y62738D01*
G01X54376Y63698D02*
G01X54775Y64094D01*
G01X137962Y64094D01*
G01X139319Y62738D01*
G01X84457Y40767D02*
G01X85445Y41755D01*
G01X129821Y41755D01*
G01X131699Y39878D01*
G54D12*
G01X101219Y39306D02*
G01X73218Y39306D01*
G01X71757Y40767D01*
G01X101219Y39878D02*
G01X101219Y39306D01*
G01X101219Y39306D02*
G01X101219Y33782D01*
G01X109347Y25654D01*
G01X56014Y10177D02*
G01X15613Y10177D01*
G01X5918Y14668D02*
G01X7553Y16304D01*
G01X7553Y27716D01*
G01X5842Y29428D01*
G54D11*
G01X56014Y28176D02*
G01X92057Y28176D01*
G01X76837Y40767D02*
G01X78544Y42473D01*
G01X123863Y42473D01*
G01X86799Y40995D02*
G01X86895Y41092D01*
G01X127944Y41092D01*
G01X129159Y39878D01*
G54D13*
G01X58166Y5605D02*
G01X58166Y3667D01*
G01X58166Y5605D02*
G01X58996Y5605D01*
G01X59273Y5514D01*
G01X59367Y5422D01*
G01X59458Y5237D01*
G01X59458Y5052D01*
G01X59367Y4866D01*
G01X59273Y4775D01*
G01X58996Y4683D01*
G01X58166Y4683D01*
G01X58813Y4683D02*
G01X59458Y3667D01*
G01X60622Y5605D02*
G01X60439Y5514D01*
G01X60253Y5328D01*
G01X60159Y5143D01*
G01X60068Y4866D01*
G01X60068Y4406D01*
G01X60159Y4127D01*
G01X60253Y3944D01*
G01X60439Y3759D01*
G01X60622Y3667D01*
G01X60993Y3667D01*
G01X61175Y3759D01*
G01X61361Y3944D01*
G01X61455Y4127D01*
G01X61546Y4406D01*
G01X61546Y4866D01*
G01X61455Y5143D01*
G01X61361Y5328D01*
G01X61175Y5514D01*
G01X60993Y5605D01*
G01X60622Y5605D01*
G01X63540Y5143D02*
G01X63449Y5328D01*
G01X63263Y5514D01*
G01X63080Y5605D01*
G01X62710Y5605D01*
G01X62524Y5514D01*
G01X62341Y5328D01*
G01X62247Y5143D01*
G01X62156Y4866D01*
G01X62156Y4406D01*
G01X62247Y4127D01*
G01X62341Y3944D01*
G01X62524Y3759D01*
G01X62710Y3667D01*
G01X63080Y3667D01*
G01X63263Y3759D01*
G01X63449Y3944D01*
G01X63540Y4127D01*
G01X64150Y5605D02*
G01X64150Y3667D01*
G01X65443Y5605D02*
G01X64150Y4312D01*
G01X64612Y4775D02*
G01X65443Y3667D01*
G01X66052Y5605D02*
G01X66052Y3667D01*
G01X66052Y5605D02*
G01X67254Y5605D01*
G01X66052Y4683D02*
G01X66791Y4683D01*
G01X66052Y3667D02*
G01X67254Y3667D01*
G01X68511Y5605D02*
G01X68511Y3667D01*
G01X67863Y5605D02*
G01X69156Y5605D01*
G01X72575Y5143D02*
G01X72481Y5328D01*
G01X72298Y5514D01*
G01X72113Y5605D01*
G01X71742Y5605D01*
G01X71559Y5514D01*
G01X71374Y5328D01*
G01X71282Y5143D01*
G01X71188Y4866D01*
G01X71188Y4406D01*
G01X71282Y4127D01*
G01X71374Y3944D01*
G01X71559Y3759D01*
G01X71742Y3667D01*
G01X72113Y3667D01*
G01X72298Y3759D01*
G01X72481Y3944D01*
G01X72575Y4127D01*
G01X72575Y4406D01*
G01X72113Y4406D02*
G01X72575Y4406D01*
G01X73185Y5605D02*
G01X73185Y4221D01*
G01X73276Y3944D01*
G01X73461Y3759D01*
G01X73738Y3667D01*
G01X73924Y3667D01*
G01X74201Y3759D01*
G01X74383Y3944D01*
G01X74477Y4221D01*
G01X74477Y5605D01*
G01X75087Y5605D02*
G01X75087Y3667D01*
G01X75697Y5605D02*
G01X75697Y3667D01*
G01X75697Y5605D02*
G01X76342Y5605D01*
G01X76619Y5514D01*
G01X76804Y5328D01*
G01X76898Y5143D01*
G01X76989Y4866D01*
G01X76989Y4406D01*
G01X76898Y4127D01*
G01X76804Y3944D01*
G01X76619Y3759D01*
G01X76342Y3667D01*
G01X75697Y3667D01*
G01X77599Y5605D02*
G01X77599Y3667D01*
G01X77599Y5605D02*
G01X78800Y5605D01*
G01X77599Y4683D02*
G01X78338Y4683D01*
G01X77599Y3667D02*
G01X78800Y3667D01*
G01X82125Y5328D02*
G01X81940Y5514D01*
G01X81663Y5605D01*
G01X81292Y5605D01*
G01X81015Y5514D01*
G01X80832Y5328D01*
G01X80832Y5143D01*
G01X80924Y4960D01*
G01X81015Y4866D01*
G01X81201Y4775D01*
G01X81754Y4589D01*
G01X81940Y4498D01*
G01X82031Y4406D01*
G01X82125Y4221D01*
G01X82125Y3944D01*
G01X81940Y3759D01*
G01X81663Y3667D01*
G01X81292Y3667D01*
G01X81015Y3759D01*
G01X80832Y3944D01*
G01X83380Y5605D02*
G01X83380Y3667D01*
G01X82735Y5605D02*
G01X84028Y5605D01*
G01X85377Y5605D02*
G01X84637Y3667D01*
G01X85377Y5605D02*
G01X86116Y3667D01*
G01X84914Y4312D02*
G01X85839Y4312D01*
G01X87370Y5605D02*
G01X87370Y3667D01*
G01X86725Y5605D02*
G01X88018Y5605D01*
G01X88628Y5605D02*
G01X88628Y3667D01*
G01X89791Y5605D02*
G01X89606Y5514D01*
G01X89420Y5328D01*
G01X89329Y5143D01*
G01X89237Y4866D01*
G01X89237Y4406D01*
G01X89329Y4127D01*
G01X89420Y3944D01*
G01X89606Y3759D01*
G01X89791Y3667D01*
G01X90159Y3667D01*
G01X90345Y3759D01*
G01X90530Y3944D01*
G01X90622Y4127D01*
G01X90716Y4406D01*
G01X90716Y4866D01*
G01X90622Y5143D01*
G01X90530Y5328D01*
G01X90345Y5514D01*
G01X90159Y5605D01*
G01X89791Y5605D01*
G01X91325Y5605D02*
G01X91325Y3667D01*
G01X91325Y5605D02*
G01X92618Y3667D01*
G01X92618Y5605D02*
G01X92618Y3667D01*
G54D15*
G01X5842Y24419D03*
G01X5842Y29428D03*
G01X15613Y28176D03*
G01X56014Y28176D03*
G01X56014Y10177D03*
G01X15613Y10177D03*
G54D16*
G01X71757Y40767D03*
G01X74297Y40767D03*
G01X76837Y40767D03*
G01X79377Y40767D03*
G01X81917Y40767D03*
G01X84457Y40767D03*
G54D17*
G01X109347Y18034D03*
G01X109347Y20574D03*
G01X109347Y23114D03*
G01X109347Y25654D03*
G54D16*
G01X74930Y18034D03*
G01X77470Y18034D03*
G01X80010Y18034D03*
G01X82550Y18034D03*
G01X85090Y18034D03*
G01X87630Y18034D03*
G01X121539Y62738D03*
G01X121539Y39878D03*
G01X101219Y39878D03*
G01X103759Y39878D03*
G01X106299Y39878D03*
G01X108839Y39878D03*
G01X111379Y39878D03*
G01X113919Y39878D03*
G01X116459Y39878D03*
G01X118999Y39878D03*
G01X124079Y39878D03*
G01X126619Y39878D03*
G01X129159Y39878D03*
G01X131699Y39878D03*
G01X134239Y39878D03*
G01X136779Y39878D03*
G01X139319Y39878D03*
G01X141859Y39878D03*
G01X144399Y39878D03*
G01X101219Y62738D03*
G01X103759Y62738D03*
G01X106299Y62738D03*
G01X108839Y62738D03*
G01X111379Y62738D03*
G01X113919Y62738D03*
G01X116459Y62738D03*
G01X118999Y62738D03*
G01X124079Y62738D03*
G01X126619Y62738D03*
G01X129159Y62738D03*
G01X131699Y62738D03*
G01X134239Y62738D03*
G01X136779Y62738D03*
G01X139319Y62738D03*
G01X141859Y62738D03*
G01X144399Y62738D03*
G01X54377Y58617D03*
G01X54377Y61157D03*
G01X54377Y63697D03*
G01X54377Y66237D03*
G01X54377Y50997D03*
G01X54377Y48457D03*
G01X54377Y45917D03*
G54D14*
G01X92057Y28176D03*
G01X123863Y42473D03*
G01X86799Y40995D03*
G54D15*
G01X12116Y15969D02*
G01X12116Y13369D01*
G01X5917Y13369D02*
G01X5917Y15969D01*
G01X10417Y9968D02*
G01X7817Y9968D01*
M00*
M02*
