;Layer: Drill PTH
;EasyEDA v6.4.7, 2020-11-20T11:11:39--3:00
;4594473581034ba9b9ea50e3a3b0936a,09237c92188f4bc9b643e288e8680b3c,10
;Gerber Generator version 0.2
M48
METRIC,LZ,000.000
;Holesize 1 = 0.310 METRIC
T01C0.310
;Holesize 2 = 0.915 METRIC
T02C0.915
;Holesize 3 = 1.000 METRIC
T03C1.000
;Holesize 4 = 1.200 METRIC
T04C1.200
;Holesize 5 = 1.301 METRIC
T05C1.301
%
G05
G90
T01
X+092057Y+028176
X+123863Y+042473
X+086799Y+040995
T02
X+071757Y+040767
X+074297Y+040767
X+076837Y+040767
X+079377Y+040767
X+081917Y+040767
X+084457Y+040767
X+109347Y+018034
X+109347Y+020574
X+109347Y+023114
X+109347Y+025654
X+074930Y+018034
X+077470Y+018034
X+080010Y+018034
X+082550Y+018034
X+085090Y+018034
X+087630Y+018034
X+121538Y+062738
X+121538Y+039878
X+101218Y+039878
X+103758Y+039878
X+106298Y+039878
X+108838Y+039878
X+111378Y+039878
X+113918Y+039878
X+116458Y+039878
X+118998Y+039878
X+124078Y+039878
X+126618Y+039878
X+129158Y+039878
X+131698Y+039878
X+134238Y+039878
X+136778Y+039878
X+139318Y+039878
X+141858Y+039878
X+144398Y+039878
X+101218Y+062738
X+103758Y+062738
X+106298Y+062738
X+108838Y+062738
X+111378Y+062738
X+113918Y+062738
X+116458Y+062738
X+118998Y+062738
X+124078Y+062738
X+126618Y+062738
X+129158Y+062738
X+131698Y+062738
X+134238Y+062738
X+136778Y+062738
X+139318Y+062738
X+141858Y+062738
X+144398Y+062738
X+054377Y+058617
X+054377Y+061157
X+054377Y+063697
X+054377Y+066237
X+054377Y+050997
X+054377Y+048457
X+054377Y+045917
T03
X+015613Y+028176
X+056014Y+028176
X+056014Y+010177
X+015613Y+010177
T04
X+012116Y+013419G85X+012116Y+015919
X+005917Y+015919G85X+005917Y+013419
X+007867Y+009968G85X+010367Y+009968
T05
X+005842Y+024419
X+005842Y+029428
M30
